<svg id="logo" xmlns="http://www.w3.org/2000/svg" width="204.406" height="23.907" viewBox="0 0 204.406 23.907">
  <path id="Path_22" data-name="Path 22" d="M0,1.28H14.438V5.809H4.883V10.95H12.15v4.391H4.868v8.648H0Z" transform="translate(0 -0.664)" fill="#0091db"/>
  <path id="Path_23" data-name="Path 23" d="M43.025,29.271a5.112,5.112,0,0,1-1.949,1.467,6.717,6.717,0,0,1-4.3.272,4.964,4.964,0,0,1-1.677-.8,4.352,4.352,0,0,1-1.257-1.515,5.079,5.079,0,0,1-.478-2.389A5.6,5.6,0,0,1,33.9,23.82,5.1,5.1,0,0,1,35.366,22a6.569,6.569,0,0,1,2.207-1.108,9.761,9.761,0,0,1,2.757-.373c.535,0,1.08,0,1.624.033a6.789,6.789,0,0,1,1.08.1v-.339a2.107,2.107,0,0,0-.239-1.037,2.308,2.308,0,0,0-.645-.717,2.613,2.613,0,0,0-.917-.406,4.778,4.778,0,0,0-1.1-.119,6.9,6.9,0,0,0-2.561.406,7.969,7.969,0,0,0-1.725.922l-1.911-3a11.153,11.153,0,0,1,1.094-.75,8.418,8.418,0,0,1,1.433-.683,11.577,11.577,0,0,1,1.882-.478,13.855,13.855,0,0,1,2.389-.186,6.277,6.277,0,0,1,5.093,1.959,7.913,7.913,0,0,1,1.644,5.255v9.288H43.154Zm0-5.547c-.105-.024-.311-.053-.612-.086a9.394,9.394,0,0,0-1.032-.053,4.921,4.921,0,0,0-2.738.578,1.911,1.911,0,0,0-.807,1.634c0,1.319.755,1.978,2.255,1.978a3.12,3.12,0,0,0,1.08-.191,2.867,2.867,0,0,0,.956-.526,2.676,2.676,0,0,0,.659-.85,2.618,2.618,0,0,0,.258-1.194Z" transform="translate(-17.421 -7.447)" fill="#0091db"/>
  <path id="Path_24" data-name="Path 24" d="M71.348,25.821A5.857,5.857,0,0,0,73.3,27.029a6.378,6.378,0,0,0,2.336.478,4.486,4.486,0,0,0,1.706-.277,1.022,1.022,0,0,0,.678-1.051,1.137,1.137,0,0,0-.143-.564,1.4,1.4,0,0,0-.535-.478,6.33,6.33,0,0,0-1.08-.478c-.478-.158-1.046-.339-1.753-.545a10.865,10.865,0,0,1-1.725-.631,6.082,6.082,0,0,1-1.515-.956,4.41,4.41,0,0,1-1.065-1.4,4.3,4.3,0,0,1-.4-1.911,4.19,4.19,0,0,1,.478-2.026,4.844,4.844,0,0,1,1.338-1.562,6.211,6.211,0,0,1,2.035-1.027,8.652,8.652,0,0,1,2.532-.358,11.251,11.251,0,0,1,3.383.478,9.331,9.331,0,0,1,2.675,1.314l-1.968,3.23a9.718,9.718,0,0,0-1.686-.9,5.375,5.375,0,0,0-2.145-.416,2.867,2.867,0,0,0-1.548.32,1,1,0,0,0-.478.87c0,.521.33.908,1,1.156s1.567.535,2.7.85a6.819,6.819,0,0,1,3.344,1.873,4.634,4.634,0,0,1,1.051,3.168,4.429,4.429,0,0,1-.545,2.274,4.864,4.864,0,0,1-1.519,1.586A7.085,7.085,0,0,1,78.3,31a10.2,10.2,0,0,1-2.47.306A12.56,12.56,0,0,1,72,30.732,6.822,6.822,0,0,1,69.06,28.94Z" transform="translate(-36.066 -7.436)" fill="#0091db"/>
  <path id="Path_25" data-name="Path 25" d="M104.739,13.951H102.35V10.129h2.389V5.27h4.644V10.1h3.9v3.846h-3.9v6.3a3.105,3.105,0,0,0,.435,1.787,1.543,1.543,0,0,0,1.371.631,2.781,2.781,0,0,0,1.223-.253,6.029,6.029,0,0,0,.956-.6l1.873,3a7.267,7.267,0,0,1-4.778,1.839,6.579,6.579,0,0,1-2.709-.478A4.529,4.529,0,0,1,106,24.791a5.351,5.351,0,0,1-.956-2.093,11.7,11.7,0,0,1-.291-2.723Z" transform="translate(-53.451 -2.747)" fill="#0091db"/>
  <path id="Path_26" data-name="Path 26" d="M146.21,1.279h8.122a14.9,14.9,0,0,1,4.6.683,9.794,9.794,0,0,1,3.641,2.073,9.383,9.383,0,0,1,2.389,3.574,14.08,14.08,0,0,1,.855,5.141,12.789,12.789,0,0,1-.87,4.921A9.6,9.6,0,0,1,158.9,23.29a14.61,14.61,0,0,1-4.591.7h-8.1Zm7.835,18.155a6.63,6.63,0,0,0,4.964-1.787,6.7,6.7,0,0,0,1.739-4.921,9.46,9.46,0,0,0-.4-2.843,5.8,5.8,0,0,0-1.228-2.179,5.408,5.408,0,0,0-2.078-1.4,8.165,8.165,0,0,0-3-.478h-2.967V19.449Z" transform="translate(-76.356 -0.663)" fill="#0091db"/>
  <path id="Path_27" data-name="Path 27" d="M204.2,23.883a10.649,10.649,0,0,1-4.434-.922,10.988,10.988,0,0,1-3.545-2.518,11.662,11.662,0,0,1-2.351-3.793A12.832,12.832,0,0,1,193,11.939a12.79,12.79,0,0,1,.855-4.735A11.724,11.724,0,0,1,196.2,3.43,10.989,10.989,0,0,1,199.75.907a11.161,11.161,0,0,1,8.863,0,10.989,10.989,0,0,1,3.55,2.523A11.724,11.724,0,0,1,214.513,7.2a12.9,12.9,0,0,1,.874,4.735,12.933,12.933,0,0,1-.855,4.716,11.662,11.662,0,0,1-2.351,3.793,10.989,10.989,0,0,1-3.55,2.518A10.611,10.611,0,0,1,204.2,23.883Zm0-4.835a5.49,5.49,0,0,0,2.546-.578A5.853,5.853,0,0,0,208.66,16.9a7.133,7.133,0,0,0,1.209-2.279,8.842,8.842,0,0,0,.42-2.761,8.781,8.781,0,0,0-.42-2.752,6.865,6.865,0,0,0-1.209-2.265,5.7,5.7,0,0,0-1.911-1.534,5.6,5.6,0,0,0-2.546-.54,5.733,5.733,0,0,0-2.566.564,5.657,5.657,0,0,0-1.911,1.534,6.78,6.78,0,0,0-1.209,2.265,8.782,8.782,0,0,0-.42,2.752,8.843,8.843,0,0,0,.42,2.761,7.038,7.038,0,0,0,1.171,2.265,5.8,5.8,0,0,0,1.911,1.567,5.6,5.6,0,0,0,2.6.578Z" transform="translate(-100.791 0.01)" fill="#0091db"/>
  <path id="Path_28" data-name="Path 28" d="M266.712,19.144A10.427,10.427,0,0,1,265.068,21a11.5,11.5,0,0,1-2.145,1.519,11.621,11.621,0,0,1-2.546,1.018,10.616,10.616,0,0,1-2.867.377,11.146,11.146,0,0,1-4.481-.884,10.406,10.406,0,0,1-3.483-2.451,11.117,11.117,0,0,1-2.269-3.746,13.426,13.426,0,0,1-.807-4.749,13.544,13.544,0,0,1,.807-4.716,11.467,11.467,0,0,1,2.269-3.822A10.664,10.664,0,0,1,257.586.066a11.3,11.3,0,0,1,5.255,1.156,10.1,10.1,0,0,1,3.722,3.344l-3.32,3.373a8.121,8.121,0,0,0-2.289-2.3,5.628,5.628,0,0,0-3.158-.87,5.857,5.857,0,0,0-2.609.564,5.676,5.676,0,0,0-1.968,1.548,7.244,7.244,0,0,0-1.242,2.3,8.729,8.729,0,0,0-.435,2.776,8.647,8.647,0,0,0,.435,2.79,6.875,6.875,0,0,0,1.242,2.245,5.676,5.676,0,0,0,4.491,2.035,6.975,6.975,0,0,0,2.011-.258,5.856,5.856,0,0,0,1.514-.678,5.919,5.919,0,0,0,1.18-.989c.344-.373.674-.755,1-1.137Z" transform="translate(-128.715 -0.028)" fill="#0091db"/>
  <path id="Path_29" data-name="Path 29" d="M301.8,5.809H294.83V1.28h18.8V5.809h-6.932V23.988h-4.9Z" transform="translate(-153.971 -0.664)" fill="#0091db"/>
  <path id="Path_30" data-name="Path 30" d="M349.4,23.888a10.649,10.649,0,0,1-4.434-.922,10.916,10.916,0,0,1-3.545-2.518,11.662,11.662,0,0,1-2.355-3.784,12.832,12.832,0,0,1-.85-4.72,12.789,12.789,0,0,1,.85-4.73A11.725,11.725,0,0,1,341.42,3.44,10.931,10.931,0,0,1,344.965.917a11.161,11.161,0,0,1,8.863,0,10.988,10.988,0,0,1,3.55,2.523,11.724,11.724,0,0,1,2.351,3.774,12.9,12.9,0,0,1,.841,4.73,12.933,12.933,0,0,1-.855,4.716,11.662,11.662,0,0,1-2.351,3.793,10.988,10.988,0,0,1-3.55,2.518A10.611,10.611,0,0,1,349.4,23.888Zm0-4.835a5.489,5.489,0,0,0,2.566-.569,5.853,5.853,0,0,0,1.911-1.567,7.132,7.132,0,0,0,1.209-2.279,8.845,8.845,0,0,0,.42-2.761,8.778,8.778,0,0,0-.42-2.752,6.866,6.866,0,0,0-1.209-2.265,5.7,5.7,0,0,0-1.911-1.534,5.6,5.6,0,0,0-2.566-.549,5.733,5.733,0,0,0-2.566.564,5.657,5.657,0,0,0-1.911,1.534,6.78,6.78,0,0,0-1.209,2.265,8.783,8.783,0,0,0-.42,2.752,8.844,8.844,0,0,0,.42,2.761,7.038,7.038,0,0,0,1.209,2.279,5.805,5.805,0,0,0,1.911,1.567,5.6,5.6,0,0,0,2.566.564Z" transform="translate(-176.63 0.005)" fill="#0091db"/>
  <path id="Path_31" data-name="Path 31" d="M392.57,1.278h8a8.838,8.838,0,0,1,3.287.564,6.741,6.741,0,0,1,2.389,1.529,6.354,6.354,0,0,1,1.433,2.265,8.089,8.089,0,0,1,.478,2.757,7.826,7.826,0,0,1-.917,3.865,6.908,6.908,0,0,1-2.594,2.637l4.778,9.077H404.07l-3.994-8.342h-2.709v8.356h-4.739Zm7.74,10.248a2.738,2.738,0,0,0,2.126-.827,3.072,3.072,0,0,0,.774-2.145,3.082,3.082,0,0,0-.774-2.212,2.785,2.785,0,0,0-2.126-.817h-3v6Z" transform="translate(-205.015 -0.662)" fill="#0091db"/>
</svg>
