<?xml version="1.0" encoding="utf-8"?>
<!-- Generator: Adobe Illustrator 27.0.1, SVG Export Plug-In . SVG Version: 6.00 Build 0)  -->
<svg version="1.1" id="Layer_1" xmlns="http://www.w3.org/2000/svg" xmlns:xlink="http://www.w3.org/1999/xlink" x="0px" y="0px"
	 viewBox="0 0 1100 420.3" style="enable-background:new 0 0 1100 420.3;" xml:space="preserve">
<style type="text/css">
	.st0{fill:#B5D1CF;}
	.st1{fill:#0091DB;}
	.st2{fill:#C3C4C7;}
	.st3{fill:#78C8F0;}
	.st4{enable-background:new    ;}
	.st5{fill:#FACC08;}
	.st6{fill:none;stroke:#0091DB;stroke-width:2;}
	.st7{clip-path:url(#SVGID_00000173869940990916020690000015673542942591828369_);}
	.st8{fill:none;stroke:#FFFFFF;stroke-width:2;}
</style>
<g id="bunka-1" transform="translate(-366 -5346)">
	<circle id="Ellipse_14" class="st0" cx="898" cy="5556" r="210"/>
	<g id="Group_3655">
		<g id="Group_2771" transform="translate(587 5346)">
			<path id="Path_2954-2" class="st1" d="M466.6,68.7L311.1,210.1L239.5,12.5C158.7,41.8,101,119.2,101,210.1
				c0,116.1,94.1,210.1,210.1,210.1s210.1-94.1,210.1-210.1C521.4,157.8,501.9,107.4,466.6,68.7z"/>
			<path id="Path_2955" class="st0" d="M311.2,0L311.2,0v210.2L466.6,68.7C426.8,24.9,370.4-0.1,311.2,0z"/>
			<path id="Path_2956" class="st2" d="M311.1,210.2V0c-24.4,0-48.6,4.2-71.6,12.5L311.1,210.2z"/>
		</g>
		<g id="Group_3654">
			<path id="Path_2955-2" class="st3" d="M898.2,5346L898.2,5346v210.2l155.5-141.4C1013.8,5370.9,957.4,5345.9,898.2,5346z"/>
		</g>
	</g>
	<g class="st4">
		<path class="st5" d="M802,5626.6c-0.2,0.3-0.4,0.4-0.5,0.4s-0.2-0.2-0.3-0.5c-0.3-0.9-0.6-1.7-1-2.4c2-2.3,3.5-5.2,4.6-8.5h-0.6
			l-2.9,0.1c-0.1,0-0.2,0-0.3-0.1c0,0,0-0.1,0-0.2v-2.1c0-0.1,0-0.2,0.1-0.3c0,0,0.1,0,0.3,0l2.9,0.1h0.9v-1.7
			c0-1.6-0.1-2.9-0.2-3.8c1.1,0,2,0.1,2.8,0.2c0.3,0,0.5,0.1,0.5,0.3c0,0.1-0.1,0.3-0.2,0.6c-0.1,0.3-0.2,1.2-0.2,2.7v1.8l2.9-0.1
			c0.1,0,0.2,0,0.3,0.1s0,0.1,0,0.2v2.1c0,0.1,0,0.2-0.1,0.3c0,0-0.1,0-0.2,0l-2.7-0.1c0.7,1.6,1.9,3.4,3.7,5.3
			c-0.4,0.5-0.7,1.3-1.1,2.2c-0.1,0.3-0.2,0.5-0.3,0.5s-0.2-0.1-0.4-0.4c-1-1.4-1.7-2.8-2.2-4.2c0,3.2,0,6.5,0.1,10
			c0,0.7,0,1.7,0.1,2.9c0,0.5,0,0.8,0,0.9s0,0.2-0.1,0.3c0,0-0.1,0-0.3,0h-2.3c-0.2,0-0.2,0-0.3-0.1s0-0.1,0-0.2s0-0.8,0-2.1
			c0.1-3.9,0.1-7.5,0.2-10.7C804.5,5622.5,803.4,5624.6,802,5626.6z M814.9,5633.1h-2.3c-0.2,0-0.3-0.1-0.3-0.3l0.1-10.6v-5.5
			l-0.1-7.6c0-0.2,0-0.2,0.1-0.3c0,0,0.1,0,0.2,0l3.4,0.1h5.4l3.4-0.1c0.1,0,0.2,0,0.3,0.1s0,0.1,0,0.3l-0.1,6.6v6.4l0.1,10.5
			c0,0.2-0.1,0.3-0.3,0.3h-2.3c-0.2,0-0.3-0.1-0.3-0.3v-1.3h-7v1.4c0,0.1,0,0.2-0.1,0.2C815.1,5633.1,815,5633.1,814.9,5633.1z
			 M815.2,5611.5v4h7v-4H815.2z M815.2,5622h7v-3.9h-7V5622z M815.2,5628.7h7v-4h-7V5628.7z"/>
		<path class="st5" d="M832.2,5612.5h3.1l3-0.1c0.1,0,0.2,0,0.3,0.1c0,0,0,0.1,0,0.2v2c0,0.2,0,0.3-0.1,0.3c0,0-0.1,0-0.2,0l-3-0.1
			h-3.1l-2.9,0.1c-0.2,0-0.2,0-0.3-0.1c0,0,0-0.1,0-0.3v-2c0-0.1,0-0.2,0.1-0.3c0,0,0.1,0,0.3,0L832.2,5612.5z M837.8,5632.4
			c0,0.2-0.1,0.3-0.3,0.3h-2c-0.1,0-0.2,0-0.3-0.1s0-0.1,0-0.3v-0.8h-2.6v1.3c0,0.2-0.1,0.3-0.3,0.3h-2c-0.2,0-0.3-0.1-0.3-0.3
			l0.1-4.2v-1.8l-0.1-2.6c0-0.2,0-0.2,0.1-0.3c0,0,0.1,0,0.3,0l2.5,0.1h2.1l2.6-0.1c0.2,0,0.3,0.1,0.3,0.3l-0.1,2.1v4.3
			c2.5-0.7,4.2-1.9,5.3-3.6c0.9-1.3,1.4-3.1,1.5-5.4c0-0.5,0.1-0.9,0.1-1.3s0-0.9-0.1-1.4c1.2,0.1,2.1,0.2,2.7,0.3
			c0.4,0.1,0.5,0.2,0.5,0.4c0,0.2-0.1,0.3-0.2,0.5c-0.1,0.2-0.2,0.7-0.3,1.7c0.4,2.3,1.4,4.3,2.9,5.9c1.2,1.2,2.7,2.1,4.4,2.7
			c-0.4,0.6-0.8,1.2-1.1,2c-0.2,0.5-0.4,0.7-0.5,0.7s-0.3-0.1-0.6-0.2c-2.8-1.5-4.8-3.7-6-6.5c-1.1,3-3.1,5.2-6.1,6.6
			c-0.4,0.1-0.6,0.2-0.6,0.2c-0.2,0-0.4-0.2-0.6-0.7c-0.4-0.8-0.9-1.4-1.3-1.7c0,0.5,0,0.9,0,1.3
			C837.8,5632.3,837.8,5632.4,837.8,5632.4z M832.8,5608.7h2.3l2.5-0.1c0.1,0,0.2,0,0.3,0.1s0,0.1,0,0.2v1.9c0,0.2-0.1,0.3-0.3,0.3
			l-2.5-0.1h-2.3l-2.6,0.1c-0.2,0-0.3-0.1-0.3-0.3v-1.9c0-0.2,0.1-0.3,0.3-0.3L832.8,5608.7z M833,5616.5h1.8l2.3-0.1
			c0.2,0,0.3,0,0.3,0.1c0,0,0.1,0.1,0.1,0.3v1.8c0,0.1,0,0.2-0.1,0.3c0,0-0.1,0-0.3,0l-2.3-0.1H833l-2.4,0.1c-0.1,0-0.2,0-0.3-0.1
			c0,0,0-0.1,0-0.2v-1.8c0-0.2,0-0.2,0.1-0.3c0,0,0.1,0,0.2,0L833,5616.5z M833,5620.3h1.8l2.3-0.1c0.2,0,0.3,0,0.3,0.1
			c0,0,0.1,0.1,0.1,0.3v1.8c0,0.2,0,0.2-0.1,0.3c0,0-0.1,0-0.3,0l-2.3-0.1H833l-2.4,0.1c-0.1,0-0.2,0-0.3-0.1c0,0,0-0.1,0-0.3v-1.8
			c0-0.1,0-0.2,0.1-0.3c0,0,0.1,0,0.2,0L833,5620.3z M835.2,5626.4h-2.6v3h2.6V5626.4z M854.6,5618c-0.4,0.4-0.7,1-1.1,1.8
			c-0.2,0.5-0.4,0.7-0.6,0.7c-0.1,0-0.3-0.1-0.6-0.2c-2.8-1.1-4.8-3-6-5.7c-1.1,2.7-3,4.6-5.9,5.7c-0.4,0.1-0.6,0.2-0.6,0.2
			c-0.2,0-0.4-0.2-0.6-0.7c-0.4-0.7-0.8-1.2-1.1-1.5c2.3-0.7,4-1.8,5.1-3.3c0.9-1.2,1.4-2.8,1.5-4.7c0-0.5,0-0.9,0-1.2
			c0-0.5,0-0.9-0.1-1.4c0.8,0,1.6,0.1,2.6,0.3c0.4,0.1,0.6,0.2,0.6,0.3c0,0.2-0.1,0.3-0.2,0.5c-0.1,0.1-0.2,0.6-0.3,1.4
			c0.4,2.3,1.3,4.1,2.8,5.4C851.2,5616.6,852.7,5617.4,854.6,5618z M840.7,5621.7c0.1-0.2,0.2-0.2,0.2-0.2c0.1,0,0.2,0,0.3,0.1
			l1.4,0.7c0.2,0.1,0.3,0.2,0.3,0.3c0,0,0,0.1-0.1,0.2c-0.6,1.4-1.4,2.7-2.4,3.9c-0.1,0.1-0.2,0.2-0.3,0.2s-0.2-0.1-0.3-0.2
			l-1.4-1.1c-0.2-0.1-0.3-0.2-0.3-0.3c0,0,0-0.1,0.2-0.2C839.3,5624.2,840.1,5623,840.7,5621.7z M840.9,5610.2
			c0.1-0.2,0.1-0.2,0.2-0.2c0,0,0.1,0,0.4,0.1l1.5,0.6c0.2,0.1,0.3,0.2,0.3,0.3c0,0,0,0.1,0,0.2c-0.6,1.6-1.3,2.9-2.2,3.9
			c-0.1,0.1-0.2,0.2-0.3,0.2s-0.2-0.1-0.3-0.2l-1.4-0.9c-0.2-0.1-0.3-0.2-0.3-0.3c0,0,0-0.1,0.1-0.2
			C839.8,5612.6,840.4,5611.5,840.9,5610.2z M848.5,5625c0.9-0.8,1.6-1.6,2.3-2.5c0.2-0.3,0.4-0.7,0.5-1.1c0.8,0.2,1.6,0.5,2.2,0.8
			c0.3,0.2,0.5,0.3,0.5,0.5s-0.1,0.3-0.3,0.4c-0.1,0.1-0.3,0.2-0.5,0.5c-0.7,1-1.3,1.7-1.9,2.3c-0.3,0.3-0.5,0.5-0.6,0.5
			s-0.3-0.2-0.7-0.5C849.5,5625.6,849,5625.2,848.5,5625z M848.6,5613.5c0.9-0.9,1.7-1.8,2.2-2.7c0.2-0.3,0.4-0.7,0.5-1.1
			c0.8,0.3,1.5,0.6,2.1,0.9c0.3,0.2,0.5,0.3,0.5,0.4s-0.1,0.3-0.3,0.4s-0.3,0.3-0.5,0.6c-0.6,0.9-1.2,1.6-1.8,2.2
			c-0.3,0.3-0.6,0.5-0.7,0.5c-0.1,0-0.3-0.1-0.6-0.4C849.5,5613.9,849,5613.6,848.6,5613.5z"/>
		<path class="st5" d="M855.3,5608.7h3.1c-0.3,10.9-0.5,16.7-0.5,17.4c0,1.3,0.3,2.2,0.9,2.7c0.6,0.5,1.4,0.8,2.6,0.8
			c3.7,0,6-2.5,6.9-7.4l2.9,1.5c-1.4,5.8-4.7,8.7-9.6,8.7c-2.5,0-4.2-0.5-5.2-1.6c-0.9-1-1.4-2.6-1.4-4.7c0-0.7,0-3.2,0.1-7.3
			C855.2,5614.7,855.2,5611.3,855.3,5608.7z"/>
		<path class="st5" d="M887.8,5610.3l0.1,2.7c-2,0-3.5,0.4-4.7,1c-3.8,2-5.6,4.9-5.6,8.7c0,3.7,2.8,5.9,8.4,6.4l-0.7,3
			c-7-0.6-10.5-3.7-10.5-9.2c0-2.1,0.6-4.1,1.7-5.8c1-1.5,2.3-2.7,4.1-3.7l1.3-0.5l-0.1-0.2l-1.5,0.4c-2.4,0.3-5.9,0.7-10.6,1.2
			l-0.2-2.8C874.7,5611.1,880.8,5610.7,887.8,5610.3z"/>
		<path class="st5" d="M898,5623.1l2.4,1.7c-0.9,4.6-2.5,6.9-4.9,6.9c-1.5,0-2.7-0.7-3.5-2c-0.8-1.4-1.3-3.6-1.5-6.7
			c-0.1-2-0.2-4.3-0.2-7v-5.4h3c0,0.4,0,1.2-0.1,2.5c0,0.8,0,1.5,0,2.1v2.1c0,2.4,0.1,4.3,0.2,5.7c0.2,2.3,0.5,3.8,0.9,4.7
			c0.3,0.6,0.7,0.9,1.2,0.9c0.6,0,1.1-0.4,1.4-1.1C897.2,5626.7,897.6,5625.2,898,5623.1z M901.9,5612.9l2.7-0.7
			c2.7,3.9,4.3,9.1,5,15.4l-3.1,0.5C905.9,5621.8,904.4,5616.7,901.9,5612.9z"/>
		<path class="st5" d="M919.6,5612.9c1.4-0.1,2.6-0.2,3.7-0.4l0.1,2.5c-1.8,0.2-3.3,0.3-4.4,0.4c-1.2,4.3-2.9,8.6-5,12.9l-2.7-1.2
			c2.1-3.9,3.7-7.7,4.8-11.5c-1.4,0-2.4,0.1-3,0.1h-1.3l-0.1-2.4c0.4,0,1.1,0,1.9,0c0.7,0,1.7,0,3.1-0.1c0.3-1.3,0.6-2.8,0.8-4.6
			l3,0.4C920.3,5609.9,920,5611.2,919.6,5612.9z M924.7,5624.2c-0.1-1.4-0.2-3.7-0.2-6.8h2.7c0,3.1,0.1,5.6,0.3,7.4
			c2,0.8,3.7,2,5.3,3.4l-1.6,2.6c-1.4-1.5-2.6-2.6-3.8-3.2v0.7c0,1.3-0.5,2.4-1.5,3.1c-0.9,0.6-2.2,1-3.8,1c-1.8,0-3.2-0.4-4.1-1.2
			c-0.8-0.7-1.1-1.6-1.1-2.9c0-1.4,0.6-2.5,1.9-3.3c1-0.6,2.3-1,3.8-1C923.4,5624.1,924.1,5624.1,924.7,5624.2z M924.9,5626.8
			c-0.6-0.2-1.3-0.4-2.1-0.4c-2.2,0-3.3,0.6-3.3,1.9c0,1.2,0.9,1.7,2.7,1.7s2.6-0.7,2.6-2.2c0,0,0-0.1,0-0.2L924.9,5626.8z
			 M924.9,5614.3l1.3-2.3c2.8,0.9,5.1,2,6.9,3.2l-1.4,2.5C929.8,5616.3,927.5,5615.1,924.9,5614.3z"/>
		<path class="st5" d="M943.6,5623.1l2.4,1.7c-0.9,4.6-2.5,6.9-4.9,6.9c-1.5,0-2.7-0.7-3.5-2c-0.8-1.4-1.3-3.6-1.5-6.7
			c-0.1-2-0.2-4.3-0.2-7v-5.4h3c0,0.4,0,1.2-0.1,2.5c0,0.8,0,1.5,0,2.1v2.1c0,2.4,0.1,4.3,0.2,5.7c0.2,2.3,0.5,3.8,0.9,4.7
			c0.3,0.6,0.7,0.9,1.2,0.9c0.6,0,1.1-0.4,1.4-1.1C942.8,5626.7,943.2,5625.2,943.6,5623.1z M947.6,5612.9l2.7-0.7
			c2.7,3.9,4.3,9.1,5,15.4l-3.1,0.5C951.6,5621.8,950,5616.7,947.6,5612.9z"/>
	</g>
	<g class="st4">
		<path class="st1" d="M1121.5,5399.6c-0.2,0.3-0.4,0.4-0.5,0.4s-0.2-0.2-0.3-0.5c-0.3-0.9-0.6-1.7-1-2.4c2-2.3,3.5-5.2,4.6-8.5
			h-0.6l-2.9,0.1c-0.1,0-0.2,0-0.3-0.1c0,0,0-0.1,0-0.2v-2.1c0-0.1,0-0.2,0.1-0.3c0,0,0.1,0,0.3,0l2.9,0.1h0.9v-1.7
			c0-1.6-0.1-2.9-0.2-3.8c1.1,0,2,0.1,2.8,0.2c0.3,0,0.5,0.1,0.5,0.3c0,0.1-0.1,0.3-0.2,0.6c-0.1,0.3-0.2,1.2-0.2,2.7v1.8l2.9-0.1
			c0.1,0,0.2,0,0.3,0.1s0,0.1,0,0.2v2.1c0,0.1,0,0.2-0.1,0.3c0,0-0.1,0-0.2,0l-2.7-0.1c0.7,1.6,1.9,3.4,3.7,5.3
			c-0.4,0.5-0.7,1.3-1.1,2.2c-0.1,0.3-0.2,0.5-0.3,0.5c-0.1,0-0.2-0.1-0.4-0.4c-1-1.4-1.7-2.8-2.2-4.2c0,3.2,0,6.5,0.1,10
			c0,0.7,0,1.7,0.1,2.9c0,0.5,0,0.8,0,0.9s0,0.2-0.1,0.3c0,0-0.1,0-0.3,0h-2.3c-0.2,0-0.2,0-0.3-0.1s0-0.1,0-0.2s0-0.8,0-2.1
			c0.1-3.9,0.1-7.5,0.2-10.7C1123.9,5395.5,1122.8,5397.6,1121.5,5399.6z M1134.3,5406.1h-2.3c-0.2,0-0.3-0.1-0.3-0.3l0.1-10.6v-5.5
			l-0.1-7.6c0-0.2,0-0.2,0.1-0.3c0,0,0.1,0,0.2,0l3.4,0.1h5.4l3.4-0.1c0.1,0,0.2,0,0.3,0.1s0,0.1,0,0.3l-0.1,6.6v6.4l0.1,10.5
			c0,0.2-0.1,0.3-0.3,0.3h-2.3c-0.2,0-0.3-0.1-0.3-0.3v-1.3h-7v1.4c0,0.1,0,0.2-0.1,0.2C1134.5,5406.1,1134.4,5406.1,1134.3,5406.1z
			 M1134.6,5384.5v4h7v-4H1134.6z M1134.6,5395h7v-3.9h-7V5395z M1134.6,5401.7h7v-4h-7V5401.7z"/>
		<path class="st1" d="M1151.6,5385.5h3.1l3-0.1c0.1,0,0.2,0,0.3,0.1c0,0,0,0.1,0,0.2v2c0,0.2,0,0.3-0.1,0.3c0,0-0.1,0-0.2,0l-3-0.1
			h-3.1l-2.9,0.1c-0.2,0-0.2,0-0.3-0.1c0,0,0-0.1,0-0.3v-2c0-0.1,0-0.2,0.1-0.3c0,0,0.1,0,0.3,0L1151.6,5385.5z M1157.2,5405.4
			c0,0.2-0.1,0.3-0.3,0.3h-2c-0.1,0-0.2,0-0.3-0.1s0-0.1,0-0.3v-0.8h-2.6v1.3c0,0.2-0.1,0.3-0.3,0.3h-2c-0.2,0-0.3-0.1-0.3-0.3
			l0.1-4.2v-1.8l-0.1-2.6c0-0.2,0-0.2,0.1-0.3c0,0,0.1,0,0.3,0l2.5,0.1h2.1l2.6-0.1c0.2,0,0.3,0.1,0.3,0.3l-0.1,2.1v4.3
			c2.5-0.7,4.2-1.9,5.3-3.6c0.9-1.3,1.4-3.1,1.5-5.4c0-0.5,0.1-0.9,0.1-1.3s0-0.9-0.1-1.4c1.2,0.1,2.1,0.2,2.7,0.3
			c0.4,0.1,0.5,0.2,0.5,0.4c0,0.2-0.1,0.3-0.2,0.5s-0.2,0.7-0.3,1.7c0.4,2.3,1.4,4.3,2.9,5.9c1.2,1.2,2.7,2.1,4.4,2.7
			c-0.4,0.6-0.8,1.2-1.1,2c-0.2,0.5-0.4,0.7-0.5,0.7s-0.3-0.1-0.6-0.2c-2.8-1.5-4.8-3.7-6-6.5c-1.1,3-3.1,5.2-6.1,6.6
			c-0.4,0.1-0.6,0.2-0.6,0.2c-0.2,0-0.4-0.2-0.6-0.7c-0.4-0.8-0.9-1.4-1.3-1.7c0,0.5,0,0.9,0,1.3
			C1157.2,5405.3,1157.2,5405.4,1157.2,5405.4z M1152.3,5381.7h2.3l2.5-0.1c0.1,0,0.2,0,0.3,0.1s0,0.1,0,0.2v1.9
			c0,0.2-0.1,0.3-0.3,0.3l-2.5-0.1h-2.3l-2.6,0.1c-0.2,0-0.3-0.1-0.3-0.3v-1.9c0-0.2,0.1-0.3,0.3-0.3L1152.3,5381.7z M1152.4,5389.5
			h1.8l2.3-0.1c0.2,0,0.3,0,0.3,0.1c0,0,0.1,0.1,0.1,0.3v1.8c0,0.1,0,0.2-0.1,0.3c0,0-0.1,0-0.3,0l-2.3-0.1h-1.8l-2.4,0.1
			c-0.1,0-0.2,0-0.3-0.1c0,0,0-0.1,0-0.2v-1.8c0-0.2,0-0.2,0.1-0.3c0,0,0.1,0,0.2,0L1152.4,5389.5z M1152.4,5393.3h1.8l2.3-0.1
			c0.2,0,0.3,0,0.3,0.1c0,0,0.1,0.1,0.1,0.3v1.8c0,0.2,0,0.2-0.1,0.3c0,0-0.1,0-0.3,0l-2.3-0.1h-1.8l-2.4,0.1c-0.1,0-0.2,0-0.3-0.1
			c0,0,0-0.1,0-0.3v-1.8c0-0.1,0-0.2,0.1-0.3c0,0,0.1,0,0.2,0L1152.4,5393.3z M1154.6,5399.4h-2.6v3h2.6V5399.4z M1174,5391
			c-0.4,0.4-0.7,1-1.1,1.8c-0.2,0.5-0.4,0.7-0.6,0.7c-0.1,0-0.3-0.1-0.6-0.2c-2.8-1.1-4.8-3-6-5.7c-1.1,2.7-3,4.6-5.9,5.7
			c-0.4,0.1-0.6,0.2-0.6,0.2c-0.2,0-0.4-0.2-0.6-0.7c-0.4-0.7-0.8-1.2-1.1-1.5c2.3-0.7,4-1.8,5.1-3.3c0.9-1.2,1.4-2.8,1.5-4.7
			c0-0.5,0-0.9,0-1.2c0-0.5,0-0.9-0.1-1.4c0.8,0,1.6,0.1,2.6,0.3c0.4,0.1,0.6,0.2,0.6,0.3c0,0.2-0.1,0.3-0.2,0.5
			c-0.1,0.1-0.2,0.6-0.3,1.4c0.4,2.3,1.3,4.1,2.8,5.4C1170.7,5389.6,1172.1,5390.4,1174,5391z M1160.1,5394.7
			c0.1-0.2,0.2-0.2,0.2-0.2c0.1,0,0.2,0,0.3,0.1l1.4,0.7c0.2,0.1,0.3,0.2,0.3,0.3c0,0,0,0.1-0.1,0.2c-0.6,1.4-1.4,2.7-2.4,3.9
			c-0.1,0.1-0.2,0.2-0.3,0.2s-0.2-0.1-0.3-0.2l-1.4-1.1c-0.2-0.1-0.3-0.2-0.3-0.3c0,0,0-0.1,0.2-0.2
			C1158.7,5397.2,1159.5,5396,1160.1,5394.7z M1160.4,5383.2c0.1-0.2,0.1-0.2,0.2-0.2c0,0,0.1,0,0.4,0.1l1.5,0.6
			c0.2,0.1,0.3,0.2,0.3,0.3c0,0,0,0.1,0,0.2c-0.6,1.6-1.3,2.9-2.2,3.9c-0.1,0.1-0.2,0.2-0.3,0.2c-0.1,0-0.2-0.1-0.3-0.2l-1.4-0.9
			c-0.2-0.1-0.3-0.2-0.3-0.3c0,0,0-0.1,0.1-0.2C1159.2,5385.6,1159.9,5384.5,1160.4,5383.2z M1167.9,5398c0.9-0.8,1.6-1.6,2.3-2.5
			c0.2-0.3,0.4-0.7,0.5-1.1c0.8,0.2,1.6,0.5,2.2,0.8c0.3,0.2,0.5,0.3,0.5,0.5s-0.1,0.3-0.3,0.4c-0.1,0.1-0.3,0.2-0.5,0.5
			c-0.7,1-1.3,1.7-1.9,2.3c-0.3,0.3-0.5,0.5-0.6,0.5s-0.3-0.2-0.7-0.5C1168.9,5398.6,1168.4,5398.2,1167.9,5398z M1168,5386.5
			c0.9-0.9,1.7-1.8,2.2-2.7c0.2-0.3,0.4-0.7,0.5-1.1c0.8,0.3,1.5,0.6,2.1,0.9c0.3,0.2,0.5,0.3,0.5,0.4s-0.1,0.3-0.3,0.4
			c-0.2,0.1-0.3,0.3-0.5,0.6c-0.6,0.9-1.2,1.6-1.8,2.2c-0.3,0.3-0.6,0.5-0.7,0.5s-0.3-0.1-0.6-0.4
			C1168.9,5386.9,1168.5,5386.6,1168,5386.5z"/>
		<path class="st1" d="M1174.7,5381.7h3.1c-0.3,10.9-0.5,16.7-0.5,17.4c0,1.3,0.3,2.2,0.9,2.7s1.4,0.8,2.6,0.8c3.7,0,6-2.5,6.9-7.4
			l2.9,1.5c-1.4,5.8-4.7,8.7-9.6,8.7c-2.5,0-4.2-0.5-5.2-1.6c-0.9-1-1.4-2.6-1.4-4.7c0-0.7,0-3.2,0.1-7.3
			C1174.6,5387.7,1174.7,5384.3,1174.7,5381.7z"/>
		<path class="st1" d="M1194,5388.3c-1.6,0.1-3,0.1-4.4,0.1v-2.5c1.6,0,3.2,0,4.8-0.1c0.2-1.5,0.4-3.1,0.5-4.6l3,0.3
			c-0.2,1.8-0.5,3.2-0.6,4.2c1.9-0.1,3.9-0.3,6.1-0.5l0.1,2.5c-2,0.2-4.2,0.4-6.6,0.5c-1.1,5.9-2.5,11.5-4.4,16.9l-2.8-1
			C1191.8,5398.5,1193.2,5393.2,1194,5388.3z M1197.8,5398.3l2.5,0.2c-0.1,0.6-0.2,1.1-0.2,1.7c0,0.8,0.3,1.3,0.8,1.6
			c0.6,0.3,1.5,0.4,2.9,0.4c1.9,0,3.4-0.1,4.7-0.2l0.2,2.8c-1.4,0.1-3,0.2-4.6,0.2c-2.5,0-4.3-0.4-5.3-1.1c-0.9-0.7-1.3-1.7-1.3-3.1
			C1197.5,5399.9,1197.6,5399.1,1197.8,5398.3z M1199.4,5393.3v-2.6c2.6-0.3,5.3-0.5,8-0.5c0.5,0,0.8,0,1,0v2.5c-0.2,0-0.6,0-1.1,0
			C1204.2,5392.7,1201.6,5392.9,1199.4,5393.3z"/>
	</g>
	<g class="st4">
		<path class="st1" d="M533.1,5375.3c-0.1,1.2-0.1,2.6-0.2,4.2l0.9-0.1l0.3,1.5c-0.7,0.9-1.2,1.6-1.4,2.1l-0.1,0.6l-0.2,1l0.6-1
			c1-1.3,2.1-2.3,3.5-3c1.1-0.6,2.2-0.8,3.2-0.8c2.3,0,4.1,0.9,5.3,2.6c1.1,1.6,1.7,3.7,1.7,6.4c0,3.1-0.8,5.4-2.5,7
			c-1.5,1.4-3.8,2.4-6.8,2.8l-1.4-2.4c2.9-0.3,4.9-1.2,6.2-2.6c1-1.2,1.6-2.9,1.6-5c0-2.2-0.5-3.8-1.4-5c-0.8-1-1.7-1.4-2.9-1.4
			c-2.3,0-4.5,1.5-6.6,4.5c0,0.9,0,2.6,0,5c0,3.5,0,6.1,0,7.6H530c0-1.1,0-4,0.1-8.7l0.2-1.9l-0.1-0.1l-0.6,1.7
			c-0.4,0.9-1.2,2.5-2.3,4.6l-2.1-1.9c1.4-2.5,3.1-5.3,4.9-8.5l0.1-2.6c-0.3,0-1.7,0.2-4.2,0.5l-0.2-2.3c2.5-0.2,3.9-0.4,4.4-0.4
			c0-0.8,0-2.3,0.1-4.5L533.1,5375.3L533.1,5375.3z"/>
		<path class="st1" d="M558.1,5380.7c1.2,0,1.9-0.1,2.2-0.1c1.3,0,2.3,0.4,2.9,1.2c0.7,0.9,1,2.2,1,4.1c0,4.7-0.3,8-0.8,9.8
			c-0.3,1.1-0.8,1.9-1.5,2.3c-0.6,0.5-1.5,0.7-2.6,0.7c-1,0-2-0.1-3-0.2l-0.6-2.8c1.2,0.2,2.1,0.4,2.5,0.4c0.7,0,1.3-0.1,1.6-0.3
			c0.3-0.2,0.5-0.5,0.7-1c0.5-1.6,0.8-4.5,0.8-8.6c0-1.4-0.2-2.3-0.5-2.8c-0.2-0.4-0.6-0.5-1.1-0.5c-0.7,0-1.5,0-2.4,0.1
			c-1.5,5.9-3.3,11.2-5.4,15.7l-2.7-1c2.2-4.5,3.9-9.4,5.2-14.5c-1.5,0.1-3.2,0.3-4.9,0.5l-0.1-2.6c2.6-0.1,4.5-0.3,5.6-0.3
			c0.4-2,0.8-3.9,1.1-5.6l2.9,0.4C558.7,5377.9,558.4,5379.6,558.1,5380.7z M563.9,5379.1l2.5-1c1.9,3,3.3,6.5,4.4,10.4l-2.9,1.1
			C567.1,5385.6,565.8,5382,563.9,5379.1z"/>
		<path class="st1" d="M575,5380.4c-0.4,3-0.7,5.5-0.9,7.6l-0.4,1.7l0.9-1.3c1.8-2,4-3,6.5-3c2.3,0,4,0.6,5.2,1.8
			c1.1,1.1,1.6,2.6,1.6,4.5c0,1.5-0.4,2.7-1.1,3.7c-0.6,0.8-1.5,1.6-2.7,2.2c-2,1-5.1,1.6-9.2,1.7l-1-2.7h0.3c3.6,0,6.3-0.5,8.1-1.4
			c1.6-0.8,2.5-2.2,2.5-4c0-1.1-0.4-2-1.1-2.6c-0.6-0.5-1.5-0.8-2.7-0.8c-2.2,0-4.1,0.9-5.7,2.7c-0.8,0.9-1.3,1.7-1.5,2.4l-2.8-0.5
			c0.2-3.2,0.6-7.3,1-12.3L575,5380.4z M574.7,5377.5l1.1-2.2c1.5,0.2,3.2,0.6,5.1,1.1c1.6,0.5,3,0.9,4.1,1.4l-1.5,2.6
			c-1.1-0.6-2.5-1.2-4.3-1.8C577.7,5378.2,576.2,5377.8,574.7,5377.5z"/>
		<path class="st1" d="M596.9,5379.9c1.4-0.1,2.6-0.2,3.7-0.4l0.1,2.5c-1.8,0.2-3.3,0.3-4.4,0.4c-1.2,4.3-2.9,8.6-5,12.9l-2.7-1.2
			c2.1-3.9,3.7-7.7,4.8-11.5c-1.4,0-2.4,0.1-3,0.1h-1.3l-0.1-2.4c0.4,0,1.1,0,1.9,0c0.7,0,1.7,0,3.1-0.1c0.3-1.3,0.6-2.8,0.8-4.6
			l3,0.4C597.5,5376.9,597.2,5378.2,596.9,5379.9z M602,5391.2c-0.1-1.4-0.2-3.7-0.2-6.8h2.7c0,3.1,0.1,5.6,0.3,7.4
			c2,0.8,3.7,2,5.3,3.4l-1.6,2.6c-1.4-1.5-2.6-2.6-3.8-3.2v0.7c0,1.3-0.5,2.4-1.5,3.1c-0.9,0.6-2.2,1-3.8,1c-1.8,0-3.2-0.4-4.1-1.2
			c-0.8-0.7-1.1-1.6-1.1-2.9c0-1.4,0.6-2.5,1.9-3.3c1-0.6,2.3-1,3.8-1C600.7,5391.1,601.4,5391.1,602,5391.2z M602.1,5393.8
			c-0.6-0.2-1.3-0.4-2.1-0.4c-2.2,0-3.3,0.6-3.3,1.9c0,1.2,0.9,1.7,2.7,1.7c1.8,0,2.6-0.7,2.6-2.2c0,0,0-0.1,0-0.2L602.1,5393.8z
			 M602.1,5381.3l1.3-2.3c2.8,0.9,5.1,2,6.9,3.2l-1.4,2.5C607,5383.3,604.7,5382.1,602.1,5381.3z"/>
		<path class="st1" d="M620.9,5390.1l2.4,1.7c-0.9,4.6-2.5,6.9-4.9,6.9c-1.5,0-2.7-0.7-3.5-2c-0.8-1.4-1.3-3.6-1.5-6.7
			c-0.1-2-0.2-4.3-0.2-7v-5.4h3c0,0.4,0,1.2-0.1,2.5c0,0.8,0,1.5,0,2.1v2.1c0,2.4,0.1,4.3,0.2,5.7c0.2,2.3,0.5,3.8,0.9,4.7
			c0.3,0.6,0.7,0.9,1.2,0.9c0.6,0,1.1-0.4,1.4-1.1C620.1,5393.7,620.5,5392.2,620.9,5390.1z M624.8,5379.9l2.7-0.7
			c2.7,3.9,4.3,9.1,5,15.4l-3.1,0.5C628.8,5388.8,627.2,5383.7,624.8,5379.9z"/>
	</g>
	<g id="Group_2772" transform="translate(23 247)">
		<g class="st4">
			<path class="st5" d="M791.3,5419.9c1.6-2.1,3.6-3.6,5.9-4.6c-1.4-0.9-2.5-2-3.3-3.2s-1.2-2.7-1.2-4.5c0-1.9,0.5-3.5,1.5-5
				s2.3-2.7,4-3.5s3.6-1.3,5.7-1.3c2.1,0,4,0.4,5.7,1.3c1.7,0.8,3.1,2,4.1,3.4s1.5,3.1,1.5,4.8c0,1.9-0.4,3.4-1.2,4.6
				s-1.9,2.3-3.4,3.3c2.3,1,4.3,2.5,6,4.6c1.6,2.1,2.5,4.6,2.5,7.5c0,2.5-0.7,4.8-2,6.9s-3.2,3.9-5.5,5.1c-2.3,1.3-4.9,1.9-7.7,1.9
				s-5.4-0.6-7.6-1.9c-2.3-1.3-4.1-3-5.4-5.1c-1.3-2.2-2-4.5-2-6.9C788.8,5424.6,789.6,5422,791.3,5419.9z M796.4,5431.7
				c0.8,1.4,1.8,2.5,3.1,3.3s2.8,1.2,4.3,1.2c1.6,0,3.1-0.4,4.4-1.2c1.4-0.8,2.4-1.9,3.3-3.3c0.8-1.4,1.2-2.8,1.2-4.4
				s-0.4-3.1-1.2-4.4s-1.8-2.4-3.2-3.2c-1.4-0.8-2.8-1.2-4.4-1.2c-1.6,0-3,0.4-4.3,1.2c-1.3,0.8-2.4,1.8-3.2,3.2
				c-0.8,1.4-1.2,2.8-1.2,4.4C795.2,5428.9,795.6,5430.4,796.4,5431.7z M800.4,5411.8c1.1,0.9,2.3,1.4,3.7,1.4s2.6-0.5,3.6-1.4
				s1.5-2.1,1.5-3.4c0-1.5-0.5-2.8-1.5-3.8s-2.2-1.5-3.6-1.5s-2.7,0.5-3.7,1.5s-1.6,2.2-1.6,3.8
				C798.8,5409.7,799.3,5410.9,800.4,5411.8z"/>
			<path class="st5" d="M835.5,5398.4v42.6h-6.3v-36.6h-4.9v-6H835.5z"/>
			<path class="st5" d="M845.5,5435.1c0.7-0.7,1.5-1,2.4-1c0.8,0,1.6,0.3,2.3,1s1.1,1.5,1.1,2.5s-0.3,1.8-1,2.5
				c-0.7,0.6-1.5,1-2.3,1c-0.9,0-1.7-0.3-2.4-1c-0.7-0.6-1-1.5-1-2.5C844.4,5436.6,844.8,5435.8,845.5,5435.1z"/>
			<path class="st5" d="M885.7,5434.9v6.1h-29l2.1-2.1c4.4-4.4,7.8-8,10.3-10.7s4.5-5.5,6.2-8.3s2.5-5.4,2.5-7.9
				c0-2.6-0.8-4.6-2.3-6c-1.6-1.4-3.5-2.1-5.7-2.1c-1.8,0-3.2,0.4-4.4,1.1s-2.1,1.7-2.6,2.8c-0.5,1.1-0.8,2.2-0.8,3.4
				c0,2.8,0.8,5,2.5,6.8l-3.8,3.5c-1.4-0.9-2.6-2.3-3.5-4.4c-0.9-2-1.3-4-1.3-5.8c0-2.4,0.6-4.6,1.8-6.6s2.9-3.7,5.1-4.9
				c2.2-1.2,4.9-1.8,8-1.8c2.6,0,5,0.6,7,1.8c2,1.2,3.6,2.9,4.8,5c1.1,2.1,1.7,4.3,1.7,6.8s-0.6,4.9-1.7,7.4
				c-1.2,2.5-2.6,4.8-4.3,6.9c-1.7,2.2-4,4.8-6.8,8l-1,1.1L885.7,5434.9L885.7,5434.9z"/>
		</g>
		<g class="st4">
			<path class="st5" d="M895.4,5422c-1.3-1.7-2-3.9-2-6.8c0-2.8,0.7-5,2-6.7c1.4-1.7,3.2-2.5,5.7-2.5c2.4,0,4.3,0.8,5.7,2.5
				s2,3.9,2,6.7s-0.7,5-2,6.7c-1.4,1.7-3.2,2.5-5.7,2.5C898.7,5424.5,896.8,5423.7,895.4,5422z M902.8,5439.1l-5-0.1l22.5-33.1h5.1
				L902.8,5439.1z M898.7,5419.4c0.6,1,1.4,1.5,2.4,1.5s1.8-0.5,2.4-1.5c0.5-1,0.8-2.4,0.8-4.1c0-3.7-1.1-5.6-3.2-5.6
				c-2.2,0-3.3,1.9-3.3,5.6C897.9,5417,898.1,5418.4,898.7,5419.4z M915.8,5437.3c-1.3-1.7-2-3.9-2-6.8c0-2.8,0.7-5,2-6.7
				c1.4-1.7,3.2-2.5,5.7-2.5c2.4,0,4.3,0.9,5.7,2.5c1.4,1.7,2,3.9,2,6.7c0,2.8-0.7,5-2.1,6.7c-1.4,1.7-3.3,2.5-5.6,2.5
				C919.1,5439.9,917.2,5439,915.8,5437.3z M919.1,5434.7c0.6,1,1.4,1.5,2.4,1.5s1.8-0.5,2.4-1.5c0.5-1,0.8-2.4,0.8-4.1
				c0-3.7-1.1-5.6-3.2-5.6c-2.2,0-3.3,1.9-3.3,5.6C918.3,5432.4,918.5,5433.8,919.1,5434.7z"/>
		</g>
	</g>
	<g id="Group_2774" transform="translate(331 20)">
		<g class="st4">
			<path class="st1" d="M802.6,5398.4v42.6h-6.3v-36.6h-4.9v-6H802.6z"/>
			<path class="st1" d="M836,5417.4c2.1,2.1,3.2,5.2,3.2,9.4c0,2.9-0.7,5.5-2,7.7s-3.2,3.9-5.5,5.1s-4.8,1.8-7.6,1.8
				c-2,0-4.1-0.4-6.2-1.3c-2.1-0.9-3.8-2-5.1-3.4l3.2-5.2c0.8,1,2,1.9,3.4,2.7c1.5,0.7,3,1.1,4.5,1.1c2.5,0,4.5-0.8,6.2-2.5
				c1.7-1.6,2.5-3.8,2.5-6.5c0-2.4-0.7-4.3-2.2-5.8s-3.4-2.2-5.9-2.2c-1.9,0-3.7,0.3-5.5,1l-0.2-0.3l9.5-14.8h-13.1v-6h22.3
				l-9.8,15.7C831.2,5414.2,833.9,5415.4,836,5417.4z"/>
			<path class="st1" d="M846.5,5435.1c0.7-0.7,1.5-1,2.4-1c0.8,0,1.6,0.3,2.3,1s1.1,1.5,1.1,2.5s-0.3,1.8-1,2.5
				c-0.7,0.6-1.5,1-2.3,1c-0.9,0-1.7-0.3-2.4-1c-0.7-0.6-1-1.5-1-2.5C845.5,5436.6,845.8,5435.8,846.5,5435.1z"/>
			<path class="st1" d="M880.3,5415.5c2,1.2,3.6,2.8,4.8,4.9s1.8,4.4,1.8,6.9c0,2.8-0.7,5.3-2.1,7.4c-1.4,2.2-3.2,3.8-5.5,5
				s-4.7,1.8-7.3,1.8c-2.9,0-5.5-0.7-7.8-2.1s-4.1-3.3-5.5-5.9c-1.3-2.5-2-5.5-2-8.9c0-5.1,1.8-9.9,5.5-14.4
				c3.6-4.4,8.4-8.5,14.1-12.2l4.2,4.6c-3.8,1.9-7.1,4.1-9.6,6.6s-4.5,5.1-5.7,7.8c2.2-2.2,5.2-3.4,8.9-3.4
				C876.2,5413.7,878.3,5414.3,880.3,5415.5z M877.9,5433.5c1.7-1.6,2.5-3.7,2.5-6.2s-0.8-4.5-2.5-6s-3.7-2.3-6.2-2.3
				c-1.6,0-3,0.3-4.3,1s-2.4,1.6-3.1,2.7c-0.8,1.1-1.2,2.4-1.2,3.7v1.2c0,1.5,0.4,2.8,1.2,4.1c0.8,1.3,1.8,2.3,3.1,3
				c1.3,0.8,2.8,1.1,4.3,1.1C874.2,5435.9,876.2,5435.1,877.9,5433.5z"/>
		</g>
		<g class="st4">
			<path class="st1" d="M895.4,5422c-1.3-1.7-2-3.9-2-6.8c0-2.8,0.7-5,2-6.7c1.4-1.7,3.2-2.5,5.7-2.5c2.4,0,4.3,0.8,5.7,2.5
				s2,3.9,2,6.7s-0.7,5-2,6.7c-1.4,1.7-3.2,2.5-5.7,2.5C898.7,5424.5,896.8,5423.7,895.4,5422z M902.8,5439.1l-5-0.1l22.5-33.1h5.1
				L902.8,5439.1z M898.7,5419.4c0.6,1,1.4,1.5,2.4,1.5s1.8-0.5,2.4-1.5c0.5-1,0.8-2.4,0.8-4.1c0-3.7-1.1-5.6-3.2-5.6
				c-2.2,0-3.3,1.9-3.3,5.6C897.9,5417,898.1,5418.4,898.7,5419.4z M915.8,5437.3c-1.3-1.7-2-3.9-2-6.8c0-2.8,0.7-5,2-6.7
				c1.4-1.7,3.2-2.5,5.7-2.5c2.4,0,4.3,0.9,5.7,2.5c1.4,1.7,2,3.9,2,6.7c0,2.8-0.7,5-2.1,6.7c-1.4,1.7-3.3,2.5-5.6,2.5
				C919.1,5439.9,917.2,5439,915.8,5437.3z M919.1,5434.7c0.6,1,1.4,1.5,2.4,1.5s1.8-0.5,2.4-1.5c0.5-1,0.8-2.4,0.8-4.1
				c0-3.7-1.1-5.6-3.2-5.6c-2.2,0-3.3,1.9-3.3,5.6C918.3,5432.4,918.5,5433.8,919.1,5434.7z"/>
		</g>
	</g>
	<g id="Group_2775" transform="translate(-273 14)">
		<g class="st4">
			<path class="st1" d="M827.9,5415c2,1.3,3.5,2.9,4.6,5c1,2.1,1.6,4.4,1.6,7c0,2.7-0.6,5.1-1.8,7.3c-1.2,2.2-2.9,3.9-5.1,5.2
				s-4.5,1.9-7.2,1.9c-2.2,0-4.4-0.4-6.5-1.2c-2.1-0.8-3.8-1.9-5.2-3.2l3.4-4.9c0.9,1,2,1.8,3.4,2.4s2.9,0.9,4.3,0.9
				c2.4,0,4.3-0.8,5.9-2.3c1.5-1.5,2.3-3.5,2.3-5.9c0-2.6-0.7-4.8-2.2-6.4c-1.4-1.6-3.5-2.4-6.2-2.4c-1.4,0-2.8,0.2-4.1,0.6
				s-2.7,1-4.1,1.8h-0.1v-22.5h20.4v6h-15v9.3c1.4-0.3,2.8-0.5,4.3-0.5C823.4,5413.2,825.9,5413.8,827.9,5415z"/>
			<path class="st1" d="M841.1,5435.1c0.7-0.7,1.5-1,2.4-1c0.8,0,1.6,0.3,2.3,1s1.1,1.5,1.1,2.5s-0.3,1.8-1,2.5
				c-0.7,0.6-1.5,1-2.3,1c-0.9,0-1.7-0.3-2.4-1c-0.7-0.6-1-1.5-1-2.5C840.1,5436.6,840.4,5435.8,841.1,5435.1z"/>
			<path class="st1" d="M881.3,5434.9v6.1h-29l2.1-2.1c4.4-4.4,7.8-8,10.3-10.7s4.5-5.5,6.2-8.3s2.5-5.4,2.5-7.9
				c0-2.6-0.8-4.6-2.3-6c-1.6-1.4-3.5-2.1-5.7-2.1c-1.8,0-3.2,0.4-4.4,1.1s-2.1,1.7-2.6,2.8c-0.5,1.1-0.8,2.2-0.8,3.4
				c0,2.8,0.8,5,2.5,6.8l-3.8,3.5c-1.4-0.9-2.6-2.3-3.5-4.4c-0.9-2-1.3-4-1.3-5.8c0-2.4,0.6-4.6,1.8-6.6s2.9-3.7,5.1-4.9
				c2.2-1.2,4.9-1.8,8-1.8c2.6,0,5,0.6,7,1.8c2,1.2,3.6,2.9,4.8,5c1.1,2.1,1.7,4.3,1.7,6.8s-0.6,4.9-1.7,7.4
				c-1.2,2.5-2.6,4.8-4.3,6.9c-1.7,2.2-4,4.8-6.8,8l-1,1.1L881.3,5434.9L881.3,5434.9z"/>
		</g>
		<g class="st4">
			<path class="st1" d="M895.4,5422c-1.3-1.7-2-3.9-2-6.8c0-2.8,0.7-5,2-6.7c1.4-1.7,3.2-2.5,5.7-2.5c2.4,0,4.3,0.8,5.7,2.5
				s2,3.9,2,6.7s-0.7,5-2,6.7c-1.4,1.7-3.2,2.5-5.7,2.5C898.7,5424.5,896.8,5423.7,895.4,5422z M902.8,5439.1l-5-0.1l22.5-33.1h5.1
				L902.8,5439.1z M898.7,5419.4c0.6,1,1.4,1.5,2.4,1.5s1.8-0.5,2.4-1.5c0.5-1,0.8-2.4,0.8-4.1c0-3.7-1.1-5.6-3.2-5.6
				c-2.2,0-3.3,1.9-3.3,5.6C897.9,5417,898.1,5418.4,898.7,5419.4z M915.8,5437.3c-1.3-1.7-2-3.9-2-6.8c0-2.8,0.7-5,2-6.7
				c1.4-1.7,3.2-2.5,5.7-2.5c2.4,0,4.3,0.9,5.7,2.5c1.4,1.7,2,3.9,2,6.7c0,2.8-0.7,5-2.1,6.7c-1.4,1.7-3.3,2.5-5.6,2.5
				C919.1,5439.9,917.2,5439,915.8,5437.3z M919.1,5434.7c0.6,1,1.4,1.5,2.4,1.5s1.8-0.5,2.4-1.5c0.5-1,0.8-2.4,0.8-4.1
				c0-3.7-1.1-5.6-3.2-5.6c-2.2,0-3.3,1.9-3.3,5.6C918.3,5432.4,918.5,5433.8,919.1,5434.7z"/>
		</g>
	</g>
	<g id="Group_3656">
		<path id="Path_2957" class="st6" d="M1108.3,5389H993.4l-32.3,26.3"/>
		<circle id="Ellipse_341" class="st1" cx="961.5" cy="5414.5" r="2.5"/>
	</g>
	<g id="Group_3657">
		<path id="Path_2958" class="st6" d="M880.3,5420.7l-20.8-36.2H671.9"/>
		<circle id="Ellipse_342" class="st1" cx="880.5" cy="5421.5" r="2.5"/>
		<g>
			<g>
				<defs>
					<path id="SVGID_1_" d="M1053.6,5414.7l-155.4,141.4l-71.6-197.6c-80.8,29.3-138.5,106.7-138.5,197.6
						c0,116.1,94.1,210.1,210.1,210.1s210.1-94.1,210.1-210.1C1108.4,5503.8,1088.9,5453.4,1053.6,5414.7z"/>
				</defs>
				<clipPath id="SVGID_00000014633588432520884630000001869038993625278085_">
					<use xlink:href="#SVGID_1_"  style="overflow:visible;"/>
				</clipPath>
				<g id="Mask_Group_137" style="clip-path:url(#SVGID_00000014633588432520884630000001869038993625278085_);">
					<path id="Path_5688" class="st8" d="M880.3,5420.7l-20.8-36.2H671.9"/>
				</g>
			</g>
		</g>
	</g>
</g>
</svg>
