<?xml version="1.0" encoding="utf-8"?>
<!-- Generator: Adobe Illustrator 27.0.1, SVG Export Plug-In . SVG Version: 6.00 Build 0)  -->
<svg version="1.1" id="Layer_1" xmlns="http://www.w3.org/2000/svg" xmlns:xlink="http://www.w3.org/1999/xlink" x="0px" y="0px"
	 viewBox="0 0 1099 645" style="enable-background:new 0 0 1099 645;" xml:space="preserve">
<style type="text/css">
	.st0{fill:#BBB2E0;}
	.st1{fill:#BFE2FF;}
	.st2{fill:#78C8F0;}
	.st3{fill:#0091DB;}
	.st4{fill:#C3C4C7;}
	.st5{enable-background:new    ;}
	.st6{fill:#F4B321;}
	.st7{fill:none;stroke:#0091DB;stroke-width:2;}
	.st8{fill:#222953;}
	.st9{fill:#FFFFFF;}
	.st10{clip-path:url(#SVGID_00000059311694086491569090000018241389603438648480_);}
	.st11{fill:none;stroke:#FFFFFF;stroke-width:2;}
</style>
<g id="bunka-2" transform="translate(-291 -5918)">
	<g id="Group_2770" transform="translate(587 5918)">
		<path id="Path_2949" class="st0" d="M237.2,210.1l172-120.6C370.1,33.6,306.1,0.2,237.8,0C238.3,58.2,237.2,210.1,237.2,210.1z"/>
		<path id="Path_2950" class="st1" d="M237.2,210.1l208.4,27.2c1.2-9,1.8-18.1,1.8-27.2c0.1-44.3-13.9-87.4-39.9-123.3L237.2,210.1z
			"/>
		<path id="Path_2951" class="st2" d="M138,395.5c30.5,16.4,64.6,24.9,99.2,24.8c106.8,0,195-79.7,208.4-182.9l-208.4-27.2
			L138,395.5z"/>
		<path id="Path_2952" class="st3" d="M27,210.1c0,77.5,42.6,148.7,111,185.3l99.2-185.3L138,24.8C69.6,61.4,27,132.6,27,210.1z"/>
		<path id="Path_2953" class="st4" d="M237.2,210.1L237.8,0C203-0.1,168.7,8.5,138,24.8L237.2,210.1z"/>
	</g>
	<g class="st5">
		<path class="st6" d="M1072.4,5974.4c-0.4,0.5-0.6,1.2-0.8,2c-0.1,0.5-0.2,0.7-0.3,0.8c-0.1,0.1-0.3,0.1-0.8,0.1
			c-3.1,0.2-6.4,0.3-9.8,0.3c-3.2,0-5.4-0.3-6.6-0.8c-1.3-0.5-2.3-1.4-3-2.5c-0.7,0.7-1.6,1.5-2.7,2.4c-0.3,0.2-0.5,0.4-0.6,0.6
			c-0.1,0.2-0.2,0.3-0.4,0.3c-0.1,0-0.3-0.1-0.4-0.4c-0.3-0.5-0.7-1.4-1.1-2.5c0.6-0.3,1.2-0.6,1.7-0.9c0.7-0.4,1.4-1,2.2-1.8v-6.2
			h-1.2l-2,0.1c-0.2,0-0.3,0-0.3-0.1c0,0,0-0.1,0-0.3v-2.1c0-0.1,0-0.2,0.1-0.3c0,0,0.1,0,0.3,0l2,0.1h1.6l2.1-0.1
			c0.1,0,0.2,0,0.3,0.1c0,0,0,0.1,0,0.2l-0.1,2.7v6.1c0.5,1.1,1.4,1.8,2.4,2.3c0.9,0.4,2.7,0.6,5.3,0.6
			C1064.5,5975,1068.5,5974.8,1072.4,5974.4z M1049.3,5953.6c1.4,1.3,2.6,2.7,3.5,4.2c0.1,0.1,0.1,0.2,0.1,0.2
			c0,0.1-0.1,0.2-0.3,0.3l-1.5,1.2c-0.1,0.1-0.3,0.2-0.3,0.2c-0.1,0-0.2-0.1-0.2-0.2c-1.1-1.8-2.2-3.2-3.4-4.4
			c-0.1-0.1-0.1-0.2-0.1-0.2c0-0.1,0.1-0.2,0.3-0.3l1.5-1c0.2-0.1,0.3-0.2,0.3-0.2C1049.1,5953.4,1049.2,5953.5,1049.3,5953.6z
			 M1057.8,5972l-3.8,0.1c-0.2,0-0.3,0-0.3-0.1c0,0,0-0.1,0-0.2v-1.8c0-0.1,0-0.2,0.1-0.3c0,0,0.1,0,0.3,0l3.8,0.1h3.2v-1.6h-2
			l-3.7,0.1c-0.2,0-0.3-0.1-0.3-0.3l0.1-2.5v-3.8l-0.1-2.5c0-0.2,0-0.3,0.1-0.3c0,0,0.1,0,0.2,0l3.7,0.1h2v-1.5h-3.1l-3.8,0.1
			c-0.1,0-0.2,0-0.3-0.1c0,0,0-0.1,0-0.2v-1.8c0-0.1,0-0.2,0.1-0.3c0,0,0.1,0,0.2,0l3.8,0.1h3.1c0-0.8-0.1-1.5-0.2-2.4
			c0.9,0,1.8,0.1,2.8,0.2c0.3,0,0.4,0.1,0.4,0.3c0,0.1-0.1,0.3-0.2,0.5s-0.2,0.7-0.2,1.4h3.5l3.8-0.1c0.1,0,0.2,0,0.3,0.1
			s0,0.1,0,0.2v1.8c0,0.1,0,0.2-0.1,0.3c0,0-0.1,0-0.2,0l-3.8-0.1h-3.5v1.5h2.2l3.7-0.1c0.1,0,0.2,0,0.3,0.1c0,0,0,0.1,0,0.3v2.5
			v3.8v2.5c0,0.1,0,0.2,0,0.3s-0.1,0-0.3,0l-3.7-0.1h-2.2v1.6h3.6l3.9-0.1c0.1,0,0.2,0,0.3,0.1s0,0.1,0,0.2v1.8c0,0.1,0,0.2,0,0.3
			s-0.1,0-0.3,0l-3.9-0.1h-3.6l0.1,2.2c0,0.2-0.1,0.3-0.3,0.3h-2.2c-0.2,0-0.3-0.1-0.3-0.3c0,0,0-0.2,0-0.7s0-1,0.1-1.5h-3.3V5972z
			 M1057.6,5962.5h3.4v-1.6h-3.4V5962.5z M1057.6,5966.1h3.4v-1.8h-3.4V5966.1z M1067.1,5960.8h-3.5v1.6h3.5V5960.8z M1067.1,5966.1
			v-1.8h-3.5v1.8H1067.1z"/>
		<path class="st6" d="M1083.1,5961.4c0.1-0.1,0.2-0.1,0.2-0.1c0.1,0,0.1,0.1,0.2,0.2c0.5,1,1,2.5,1.6,4.3c1.8-0.8,3.6-1.8,5.2-3
			c-0.8-0.8-1.5-1.8-2.1-2.9c-0.5,0.7-1.1,1.3-1.7,1.9c-0.3,0.3-0.5,0.4-0.6,0.4s-0.3-0.2-0.6-0.6c-0.3-0.4-0.8-0.8-1.3-1.2
			c2.1-1.8,3.7-3.9,4.7-6.4c0.2-0.5,0.4-1.1,0.5-1.7c0.9,0.1,1.7,0.3,2.6,0.5c0.2,0.1,0.4,0.2,0.4,0.4c0,0.1-0.1,0.3-0.3,0.4
			c-0.2,0.2-0.4,0.4-0.5,0.8c-0.1,0.3-0.3,0.6-0.4,0.8h4.5c0.3,0,0.6,0,0.7-0.1s0.3-0.1,0.3-0.1c0.2,0,0.6,0.2,1,0.7
			c0.5,0.5,0.8,0.9,0.8,1.1s-0.1,0.4-0.3,0.5c-0.2,0.1-0.4,0.4-0.7,0.8c-1.1,1.8-2.2,3.3-3.4,4.6c1.8,1.3,4,2.3,6.5,2.9
			c-0.3,0.5-0.6,1.1-0.8,1.8c-0.1,0.5-0.3,0.7-0.5,0.7c-0.1,0-0.3,0-0.6-0.1c-0.3-0.1-0.6-0.2-0.8-0.3v0.1l-0.1,2.8v2.5l0.1,4.6
			c0,0.1,0,0.2-0.1,0.3c0,0-0.1,0-0.3,0h-2.1c-0.2,0-0.3,0-0.3-0.1c0,0,0-0.1,0-0.2v-1.2h-5.7v1.2c0,0.1,0,0.2-0.1,0.3
			c0,0-0.1,0-0.3,0h-2.1c-0.1,0-0.2,0-0.3-0.1c0,0,0-0.1,0-0.2l0.1-4.6v-2.2l-0.1-2.9l-0.6,0.3c-0.3,0.1-0.5,0.2-0.6,0.2
			c-0.2,0-0.3-0.2-0.5-0.7l-0.3-0.6l-1.1,0.4c-0.2,0.1-0.3,0.1-0.3,0.1c-0.1,0-0.1-0.1-0.2-0.3l-0.2-1.1l-1.6,0.2v7.7l0.1,3.7
			c0,0.1,0,0.2-0.1,0.3c0,0-0.1,0-0.2,0h-2.1c-0.1,0-0.2,0-0.3-0.1c0,0,0-0.1,0-0.2l0.1-3.7v-7.5l-2.3,0.2c-0.5,0-0.8,0.1-1.1,0.2
			c-0.1,0.1-0.3,0.1-0.4,0.1c-0.2,0-0.3-0.2-0.3-0.5c-0.1-0.8-0.3-1.5-0.3-2.4c0.7,0.1,1.4,0.1,2.1,0.1c0.4-0.5,0.9-1.2,1.5-2.1
			c-0.9-1.3-2.2-2.7-3.7-4.1c-0.1-0.1-0.1-0.2-0.1-0.2c0-0.1,0.1-0.2,0.2-0.4l1-1.4c0.1-0.2,0.2-0.2,0.3-0.2c0.1,0,0.1,0,0.2,0.2
			c0.1,0.1,0.2,0.2,0.4,0.4c0.2,0.2,0.3,0.3,0.3,0.3c0.8-1.2,1.3-2.3,1.7-3.1c0.2-0.4,0.4-0.9,0.5-1.5c1,0.4,1.8,0.7,2.3,1
			c0.2,0.1,0.4,0.3,0.4,0.4s-0.1,0.3-0.2,0.4c-0.2,0.1-0.4,0.3-0.5,0.7c-0.9,1.6-1.8,3-2.4,4c0.1,0.1,0.3,0.4,0.6,0.8
			c0.2,0.3,0.4,0.5,0.6,0.7c0.7-1.1,1.3-2.2,1.9-3.3c0.3-0.6,0.6-1.2,0.8-1.8c1.2,0.5,2,0.8,2.3,1c0.2,0.1,0.3,0.2,0.3,0.4
			c0,0.2-0.1,0.3-0.3,0.5c-0.2,0.1-0.5,0.5-0.9,1.1c-1.6,2.5-3,4.6-4.3,6.3c1,0,2-0.1,3.1-0.2c-0.2-0.5-0.4-1.1-0.7-1.8
			c0-0.1-0.1-0.1-0.1-0.2s0.1-0.2,0.3-0.3L1083.1,5961.4z M1074.1,5975.3c0.6-1.4,1-3.1,1.1-5.1c0-0.5,0.1-0.9,0.1-1.3
			c0-0.2,0-0.3,0-0.5c0.9,0.2,1.7,0.3,2.2,0.5c0.3,0.1,0.5,0.2,0.5,0.3c0,0.1,0,0.3-0.1,0.4s-0.2,0.5-0.2,1c-0.2,2-0.5,3.7-0.9,5
			c-0.1,0.4-0.3,0.7-0.4,0.7s-0.3-0.1-0.6-0.3C1075.1,5975.7,1074.6,5975.4,1074.1,5975.3z M1083.6,5968.3c0.1,0,0.2-0.1,0.3-0.1
			c0.1,0,0.2,0.1,0.2,0.3c0.6,1.5,1,3.3,1.4,5.5c0,0.1,0,0.1,0,0.2s-0.1,0.2-0.4,0.3l-1.4,0.5c-0.2,0-0.3,0.1-0.3,0.1
			c-0.1,0-0.2-0.1-0.2-0.3c-0.2-2.1-0.6-4-1.1-5.7c0-0.1,0-0.2,0-0.2c0-0.1,0.1-0.2,0.3-0.2L1083.6,5968.3z M1087.6,5967.7
			c0.3,0,1.1,0,2.4,0h4.4c1.5,0,2.5,0,2.9-0.1c-2-0.8-3.8-1.8-5.2-3C1090.8,5965.9,1089.3,5966.9,1087.6,5967.7z M1089.4,5970.2v4.1
			h5.7v-4.1H1089.4z M1094.7,5957.7h-4.9l-0.1,0.2c0.6,1.2,1.5,2.3,2.5,3.4C1093.2,5960.1,1094,5958.9,1094.7,5957.7z"/>
		<path class="st6" d="M1110.8,5958.7c1.2,0,1.9-0.1,2.2-0.1c1.3,0,2.3,0.4,2.9,1.2c0.7,0.9,1,2.2,1,4.1c0,4.7-0.3,8-0.8,9.8
			c-0.3,1.1-0.8,1.9-1.5,2.3c-0.6,0.5-1.5,0.7-2.6,0.7c-1,0-2-0.1-3-0.2l-0.6-2.8c1.2,0.2,2.1,0.4,2.5,0.4c0.7,0,1.3-0.1,1.6-0.3
			c0.3-0.2,0.5-0.5,0.7-1c0.5-1.6,0.8-4.5,0.8-8.6c0-1.4-0.2-2.3-0.5-2.8c-0.2-0.4-0.6-0.5-1.1-0.5c-0.7,0-1.5,0-2.4,0.1
			c-1.5,5.9-3.3,11.2-5.4,15.7l-2.7-1c2.2-4.5,3.9-9.4,5.2-14.5c-1.5,0.1-3.2,0.3-4.9,0.5l-0.1-2.6c2.6-0.1,4.5-0.3,5.6-0.3
			c0.4-2,0.8-3.9,1.1-5.6l2.9,0.4C1111.4,5955.9,1111.1,5957.6,1110.8,5958.7z M1115.6,5957.6l2.4-1.3c2.2,2.8,4,6.1,5.5,9.9
			l-2.7,1.4C1119.6,5963.8,1117.8,5960.4,1115.6,5957.6z M1117.7,5952.8l1.8-0.5c0.7,1.3,1.4,2.8,2,4.6l-1.9,0.6
			C1119.2,5955.8,1118.5,5954.2,1117.7,5952.8z M1121,5952l1.8-0.6c0.8,1.4,1.4,2.9,2,4.4l-1.8,0.7
			C1122.4,5954.7,1121.8,5953.2,1121,5952z"/>
		<path class="st6" d="M1126.9,5961.8l-0.9-2.8c5.6-1.3,9.5-2,11.7-2c2.6,0,4.6,0.8,5.8,2.5c1.1,1.4,1.7,3.5,1.7,6.2
			c0,3.6-1.4,6.3-4.3,8c-2,1.2-5.1,2-9.1,2.4l-1.1-2.7c3.5-0.2,6.2-0.9,8-1.8c2.2-1.2,3.3-3.2,3.3-5.9c0-2.3-0.5-3.9-1.4-4.9
			c-0.7-0.7-1.8-1.1-3.2-1.1C1135.5,5959.6,1131.9,5960.4,1126.9,5961.8z"/>
		<path class="st6" d="M1156,5957.9c1.4-0.1,2.6-0.2,3.7-0.4l0.1,2.5c-1.8,0.2-3.3,0.3-4.4,0.4c-1.2,4.3-2.9,8.6-5,12.9l-2.7-1.2
			c2.1-3.9,3.7-7.7,4.8-11.5c-1.4,0-2.4,0.1-3,0.1h-1.3l-0.1-2.4c0.4,0,1.1,0,1.9,0c0.7,0,1.7,0,3.1-0.1c0.3-1.3,0.6-2.8,0.8-4.6
			l3,0.4C1156.7,5954.9,1156.4,5956.2,1156,5957.9z M1161.1,5969.2c-0.1-1.4-0.2-3.7-0.2-6.8h2.7c0,3.1,0.1,5.6,0.3,7.4
			c2,0.8,3.7,2,5.3,3.4l-1.6,2.6c-1.4-1.5-2.6-2.6-3.8-3.2v0.7c0,1.3-0.5,2.4-1.5,3.1c-0.9,0.6-2.2,1-3.8,1c-1.8,0-3.2-0.4-4.1-1.2
			c-0.8-0.7-1.1-1.6-1.1-2.9c0-1.4,0.6-2.5,1.9-3.3c1-0.6,2.3-1,3.8-1C1159.8,5969.1,1160.5,5969.1,1161.1,5969.2z M1161.2,5971.8
			c-0.6-0.2-1.3-0.4-2.1-0.4c-2.2,0-3.3,0.6-3.3,1.9c0,1.2,0.9,1.7,2.7,1.7c1.8,0,2.6-0.7,2.6-2.2c0,0,0-0.1,0-0.2L1161.2,5971.8z
			 M1161.2,5959.3l1.3-2.3c2.8,0.9,5.1,2,6.9,3.2l-1.4,2.5C1166.1,5961.3,1163.8,5960.1,1161.2,5959.3z"/>
		<path class="st6" d="M1179.5,5958.7c1.2,0,1.9-0.1,2.2-0.1c1.3,0,2.3,0.4,2.9,1.2c0.7,0.9,1,2.2,1,4.1c0,4.7-0.3,8-0.8,9.8
			c-0.3,1.1-0.8,1.9-1.5,2.3c-0.6,0.5-1.5,0.7-2.6,0.7c-1,0-2-0.1-3-0.2l-0.6-2.8c1.2,0.2,2.1,0.4,2.5,0.4c0.7,0,1.3-0.1,1.6-0.3
			c0.3-0.2,0.5-0.5,0.7-1c0.5-1.6,0.8-4.5,0.8-8.6c0-1.4-0.2-2.3-0.5-2.8c-0.2-0.4-0.6-0.5-1.1-0.5c-0.7,0-1.5,0-2.4,0.1
			c-1.5,5.9-3.3,11.2-5.4,15.7l-2.7-1c2.2-4.5,3.9-9.4,5.2-14.5c-1.5,0.1-3.2,0.3-4.9,0.5l-0.1-2.6c2.6-0.1,4.5-0.3,5.6-0.3
			c0.4-2,0.8-3.9,1.1-5.6l2.9,0.4C1180.2,5955.9,1179.8,5957.6,1179.5,5958.7z M1184.4,5957.6l2.4-1.3c2.2,2.8,4,6.1,5.5,9.9
			l-2.7,1.4C1188.3,5963.8,1186.6,5960.4,1184.4,5957.6z M1186.5,5952.8l1.8-0.5c0.7,1.3,1.4,2.8,2,4.6l-1.9,0.6
			C1187.9,5955.8,1187.3,5954.2,1186.5,5952.8z M1189.8,5952l1.8-0.6c0.8,1.4,1.4,2.9,2,4.4l-1.8,0.7
			C1191.1,5954.7,1190.5,5953.2,1189.8,5952z"/>
		<path class="st6" d="M1197.1,5958.4c-0.4,3-0.7,5.5-0.9,7.6l-0.4,1.7l0.9-1.3c1.8-2,4-3,6.5-3c2.3,0,4,0.6,5.2,1.8
			c1.1,1.1,1.6,2.6,1.6,4.5c0,1.5-0.4,2.7-1.1,3.7c-0.6,0.8-1.5,1.6-2.7,2.2c-2,1-5.1,1.6-9.2,1.7l-1-2.7h0.3c3.6,0,6.3-0.5,8.1-1.4
			c1.6-0.8,2.5-2.2,2.5-4c0-1.1-0.4-2-1.1-2.6c-0.6-0.5-1.5-0.8-2.7-0.8c-2.2,0-4.1,0.9-5.7,2.7c-0.8,0.9-1.3,1.7-1.5,2.4l-2.8-0.5
			c0.2-3.2,0.6-7.3,1-12.3L1197.1,5958.4z M1196.8,5955.5l1.1-2.2c1.5,0.2,3.2,0.6,5.1,1.1c1.6,0.5,3,0.9,4.1,1.4l-1.5,2.6
			c-1.1-0.6-2.5-1.2-4.3-1.8C1199.8,5956.2,1198.3,5955.8,1196.8,5955.5z"/>
		<path class="st6" d="M1218.9,5957.9c1.4-0.1,2.6-0.2,3.7-0.4l0.1,2.5c-1.8,0.2-3.3,0.3-4.4,0.4c-1.2,4.3-2.9,8.6-5,12.9l-2.7-1.2
			c2.1-3.9,3.7-7.7,4.8-11.5c-1.4,0-2.4,0.1-3,0.1h-1.3l-0.1-2.4c0.4,0,1.1,0,1.9,0c0.7,0,1.7,0,3.1-0.1c0.3-1.3,0.6-2.8,0.8-4.6
			l3,0.4C1219.6,5954.9,1219.3,5956.2,1218.9,5957.9z M1224.1,5969.2c-0.1-1.4-0.2-3.7-0.2-6.8h2.7c0,3.1,0.1,5.6,0.3,7.4
			c2,0.8,3.7,2,5.3,3.4l-1.6,2.6c-1.4-1.5-2.6-2.6-3.8-3.2v0.7c0,1.3-0.5,2.4-1.5,3.1c-0.9,0.6-2.2,1-3.8,1c-1.8,0-3.2-0.4-4.1-1.2
			c-0.8-0.7-1.1-1.6-1.1-2.9c0-1.4,0.6-2.5,1.9-3.3c1-0.6,2.3-1,3.8-1C1222.8,5969.1,1223.5,5969.1,1224.1,5969.2z M1224.2,5971.8
			c-0.6-0.2-1.3-0.4-2.1-0.4c-2.2,0-3.3,0.6-3.3,1.9c0,1.2,0.9,1.7,2.7,1.7c1.8,0,2.6-0.7,2.6-2.2c0,0,0-0.1,0-0.2L1224.2,5971.8z
			 M1224.2,5959.3l1.3-2.3c2.8,0.9,5.1,2,6.9,3.2l-1.4,2.5C1229.1,5961.3,1226.8,5960.1,1224.2,5959.3z"/>
		<path class="st6" d="M1242.1,5958.7c1.2,0,1.9-0.1,2.2-0.1c1.3,0,2.3,0.4,2.9,1.2c0.7,0.9,1,2.2,1,4.1c0,4.7-0.3,8-0.8,9.8
			c-0.3,1.1-0.8,1.9-1.5,2.3c-0.6,0.5-1.5,0.7-2.6,0.7c-1,0-2-0.1-3-0.2l-0.6-2.8c1.2,0.2,2.1,0.4,2.5,0.4c0.7,0,1.3-0.1,1.6-0.3
			c0.3-0.2,0.5-0.5,0.7-1c0.5-1.6,0.8-4.5,0.8-8.6c0-1.4-0.2-2.3-0.5-2.8c-0.2-0.4-0.6-0.5-1.1-0.5c-0.7,0-1.5,0-2.4,0.1
			c-1.5,5.9-3.3,11.2-5.4,15.7l-2.7-1c2.2-4.5,3.9-9.4,5.2-14.5c-1.5,0.1-3.2,0.3-4.9,0.5l-0.1-2.6c2.6-0.1,4.5-0.3,5.6-0.3
			c0.4-2,0.8-3.9,1.1-5.6l2.9,0.4C1242.8,5955.9,1242.4,5957.6,1242.1,5958.7z M1247.9,5957.1l2.5-1c1.9,3,3.3,6.5,4.4,10.4
			l-2.9,1.1C1251.2,5963.6,1249.8,5960,1247.9,5957.1z"/>
		<path class="st6" d="M1255.1,5965.6l-0.8-2.6c4.2-1.1,7.2-1.6,8.8-1.6c2.2,0,3.9,0.7,4.9,2c0.9,1.1,1.4,2.8,1.4,4.8
			c0,2.8-1.1,4.9-3.3,6.3c-1,0.6-2.1,1.1-3.3,1.5c-1.1,0.3-2.5,0.6-4.3,0.8l-1.1-2.4c2-0.2,3.5-0.5,4.7-0.8c1-0.3,1.9-0.8,2.6-1.3
			c1.2-0.9,1.8-2.2,1.8-4c0-1.7-0.3-2.9-1-3.5c-0.6-0.6-1.4-0.8-2.6-0.8C1261.3,5963.9,1258.6,5964.5,1255.1,5965.6z"/>
		<path class="st6" d="M1274.7,5960.3c-1.6,0.1-3,0.1-4.4,0.1v-2.5c1.6,0,3.2,0,4.8-0.1c0.2-1.5,0.4-3.1,0.5-4.6l3,0.3
			c-0.2,1.8-0.5,3.2-0.6,4.2c1.9-0.1,3.9-0.3,6.1-0.5l0.1,2.5c-2,0.2-4.2,0.4-6.6,0.5c-1.1,5.9-2.5,11.5-4.4,16.9l-2.8-1
			C1272.4,5970.5,1273.9,5965.2,1274.7,5960.3z M1278.5,5970.3l2.5,0.2c-0.1,0.6-0.2,1.1-0.2,1.7c0,0.8,0.3,1.3,0.8,1.6
			c0.6,0.3,1.5,0.4,2.9,0.4c1.9,0,3.4-0.1,4.7-0.2l0.2,2.8c-1.4,0.1-3,0.2-4.6,0.2c-2.5,0-4.3-0.4-5.3-1.1c-0.9-0.7-1.3-1.7-1.3-3.1
			C1278.2,5971.9,1278.3,5971.1,1278.5,5970.3z M1280,5965.3v-2.6c2.6-0.3,5.3-0.5,8-0.5c0.5,0,0.8,0,1,0v2.5c-0.2,0-0.6,0-1.1,0
			C1284.9,5964.7,1282.2,5964.9,1280,5965.3z"/>
	</g>
	<g class="st5">
		<path class="st3" d="M486.6,5930.9c3.8,0,7.9-0.3,12.2-0.7l1.2,2.1c-4.8,3.9-7.9,6.4-9.3,7.3l-1.6,0.9l0.1,0.2l1.9-0.6
			c1.7-0.4,5.2-1.1,10.6-2l0.4,2.7c-1.4,0.1-3,0.5-4.7,1c-1.6,0.5-2.9,1.3-3.8,2.3c-0.8,0.9-1.2,1.8-1.2,2.8c0,1.4,0.7,2.3,2.1,2.8
			c1.2,0.5,3.3,0.7,6.1,0.7l-0.3,3c-3.7-0.1-6.4-0.7-8-1.7s-2.4-2.5-2.4-4.6c0-1.2,0.5-2.4,1.4-3.4s2.2-1.9,3.9-2.5v-0.2l-1.6,0.6
			c-4,1.1-6.8,1.9-8.6,2.4l-0.9-2.7c1.1-0.4,2.1-0.9,3-1.6c2.5-1.8,5.4-4.2,8.8-7.3c-2.2,0.4-5.2,0.6-8.9,0.8L486.6,5930.9z"/>
		<path class="st3" d="M514.9,5933.8c-0.4,6.1-1.3,10.9-2.7,14.2c-0.6,1.4-1.3,2.3-2.1,2.9c-0.6,0.4-1.4,0.7-2.3,0.7
			c-1.5,0-2.7-0.8-3.5-2.3c-0.8-1.4-1.2-3.3-1.2-5.6c0-3.8,1.1-6.8,3.2-9.1c1-1,2.2-1.8,3.6-2.4c1.3-0.5,2.6-0.7,4-0.7
			c6.4,0,9.6,3.7,9.6,11c0,5.7-3,9.3-9.1,10.6l-1.4-2.4c2.9-0.6,4.9-1.7,6.1-3.3c1-1.3,1.4-3.1,1.4-5.3c0-2.9-0.6-5.1-1.8-6.6
			C517.6,5934.5,516.4,5933.9,514.9,5933.8z M512,5934c-1.5,0.2-2.9,1.1-4.2,2.7c-1.4,1.8-2.1,4.1-2.1,7.1c0,1.7,0.2,3,0.7,3.8
			c0.4,0.7,0.8,1,1.3,1c0.4,0,0.8-0.2,1.1-0.5c0.3-0.3,0.5-0.8,0.8-1.5c0.6-1.7,1.2-3.8,1.6-6.2C511.7,5938.2,512,5936,512,5934z"/>
		<path class="st3" d="M525.5,5939.7c2.4-2.5,4.1-5.5,5.4-9c0.2-0.5,0.4-1.2,0.5-2c1.4,0.4,2.2,0.6,2.7,0.8c0.3,0.1,0.5,0.3,0.5,0.4
			s-0.1,0.3-0.3,0.5c-0.2,0.2-0.4,0.5-0.6,1.1c-0.4,1.1-0.9,2.3-1.6,3.8v14.3l0.1,4.3c0,0.2-0.1,0.3-0.3,0.3h-2.3
			c-0.2,0-0.3-0.1-0.3-0.3l0.1-4.3v-6.3c0-1.4,0-2.6,0-3.3c-0.6,0.8-1.2,1.6-1.8,2.2c-0.2,0.2-0.4,0.4-0.5,0.4
			c-0.2,0-0.3-0.2-0.4-0.5C526.2,5941,525.9,5940.2,525.5,5939.7z M548.6,5946.5c0.6,0.3,1.4,0.6,2.2,0.9c0.3,0.1,0.5,0.2,0.6,0.2
			c0.1,0.1,0.1,0.2,0.1,0.3c0,0.1,0,0.2,0,0.4c-0.2,2.2-0.7,3.5-1.5,4.1c-0.6,0.4-1.5,0.7-2.7,0.9c-1,0.1-2.5,0.2-4.5,0.2
			c-2.9,0-4.8-0.2-5.6-0.5c-1.1-0.4-1.7-1.3-1.7-2.8v-9l-1.8,0.6c-0.1,0-0.2,0-0.2,0c-0.1,0-0.2-0.1-0.2-0.3l-0.5-2.1
			c0-0.1,0-0.2,0-0.2c0-0.1,0.1-0.1,0.3-0.2c0.6-0.1,1.4-0.4,2.4-0.7v-3.4c0-1.3-0.1-2.4-0.2-3.2c0.9,0,1.9,0,2.8,0.1
			c0.4,0.1,0.5,0.2,0.5,0.3c0,0.1-0.1,0.3-0.2,0.5s-0.2,0.7-0.2,1.5v3.1l2.7-0.9v-3.8c0-1.7-0.1-3-0.2-4c1.1,0,2,0.1,2.9,0.2
			c0.3,0,0.5,0.1,0.5,0.3c0,0.1,0,0.3-0.1,0.6c-0.1,0.3-0.2,1.4-0.2,3.1v2.7l2.2-0.7c1.1-0.3,2.1-0.7,2.8-0.9c0.1,0,0.3-0.1,0.6-0.2
			c0.1,0,0.2-0.1,0.2-0.1s0,0,0.1,0c0.2,0,0.3,0.1,0.3,0.3l-0.1,2.5c-0.1,3.7-0.3,6.2-0.6,7.5c-0.4,1.3-1.2,2-2.4,2
			c-0.3,0-0.8,0-1.3-0.1c-0.3,0-0.5-0.1-0.5-0.2c-0.1-0.1-0.1-0.3-0.2-0.7c-0.1-0.7-0.3-1.3-0.6-1.8c0.6,0.1,1.1,0.2,1.6,0.2
			s0.8-0.4,0.9-1.1c0.2-1.1,0.3-2.8,0.3-5.1l-3.3,1.1v4.7l0.1,4.2c0,0.1,0,0.2,0,0.3c0,0-0.1,0-0.3,0h-2.3c-0.2,0-0.3,0-0.3-0.1
			c0,0,0-0.1,0-0.3l0.1-4.2v-3.8l-2.7,0.9v8.8c0,0.7,0.3,1.2,0.9,1.4c0.5,0.1,1.8,0.2,3.8,0.2c2.5,0,4-0.2,4.7-0.7
			C548.3,5949.7,548.6,5948.5,548.6,5946.5z"/>
	</g>
	<g class="st5">
		<path class="st3" d="M397.7,6154.3c0,1.4,0,2.5,0,3.4s0,1.8,0,2.5c0.4,1,0.6,2.2,0.6,3.5c0,2.7-0.9,4.7-2.8,6.2
			c-1.5,1.2-3.9,2.1-7,2.7l-1.6-2.7c3.3-0.3,5.6-1.1,7.1-2.3c0.9-0.8,1.5-1.7,1.6-2.8c-0.8,0.9-1.9,1.4-3.3,1.4
			c-1.5,0-2.7-0.4-3.6-1.3c-0.8-0.8-1.1-1.9-1.1-3.2c0-1.6,0.5-2.8,1.6-3.6c0.9-0.7,2-1.1,3.4-1.1c0.8,0,1.6,0.2,2.4,0.6l-0.1-3.1
			c-3.5,0.1-7.1,0.3-10.8,0.5v-2.5c3.6-0.2,7.2-0.3,10.8-0.3v-3.5h3c0,0.7,0,1.8-0.1,3.5c1.5,0,3.7,0,6.6,0v2.5
			C402.9,6154.3,400.7,6154.3,397.7,6154.3z M392.5,6159c-0.7,0-1.3,0.2-1.7,0.7c-0.4,0.4-0.6,1-0.6,1.8s0.2,1.4,0.7,1.8
			c0.4,0.4,1,0.6,1.6,0.6c0.8,0,1.4-0.2,1.9-0.7c0.4-0.4,0.5-1,0.5-1.7C395,6159.8,394.1,6159,392.5,6159z"/>
		<path class="st3" d="M424.6,6150.3l0.1,2.7c-2,0-3.5,0.4-4.7,1c-3.8,2-5.6,4.9-5.6,8.7c0,3.7,2.8,5.9,8.4,6.4l-0.7,3
			c-7-0.6-10.5-3.7-10.5-9.2c0-2.1,0.6-4.1,1.7-5.8c1-1.5,2.3-2.7,4.1-3.7l1.3-0.5l-0.1-0.2l-1.5,0.4c-2.4,0.3-5.9,0.7-10.6,1.2
			l-0.2-2.8C411.5,6151.1,417.6,6150.7,424.6,6150.3z M420,6156.8l1.9-0.5c0.7,1.3,1.4,2.8,2,4.6l-1.9,0.6
			C421.4,6159.8,420.8,6158.2,420,6156.8z M423.4,6155.9l1.9-0.6c0.8,1.4,1.4,2.9,2,4.5l-1.9,0.7
			C424.7,6158.7,424.1,6157.2,423.4,6155.9z"/>
		<path class="st3" d="M433.9,6149.6c-0.5,2.2-0.9,4.6-1.2,7.3c-0.3,2.3-0.4,4.3-0.4,5.9c0,3.4,0.2,6.3,0.7,8.9l-2.9,0.3
			c-0.4-2.8-0.6-5.9-0.6-9.2c0-2,0.2-4.4,0.5-7.3c0.3-2.2,0.6-4.3,1-6.2L433.9,6149.6z M435.6,6163.6l2.7,0.2
			c-0.2,0.7-0.3,1.5-0.3,2.1c0,0.9,0.3,1.5,0.9,1.9c0.5,0.3,1.4,0.5,2.5,0.5c2,0,3.9-0.1,5.9-0.3l0.1,2.9c-1.6,0.1-3.6,0.2-5.8,0.2
			c-2.3,0-4-0.4-5-1.3c-0.9-0.8-1.4-1.9-1.4-3.4C435.3,6165.5,435.4,6164.6,435.6,6163.6z M436.2,6155.2v-2.8
			c2.4-0.2,4.8-0.2,7.3-0.2c1.2,0,2.5,0,3.7,0.1v2.7c-0.9-0.1-2.2-0.1-3.9-0.1C441,6154.9,438.6,6155,436.2,6155.2z"/>
		<path class="st3" d="M474.8,6170.2c-0.4,0.6-0.7,1.3-1.1,2.1c-0.1,0.4-0.2,0.6-0.3,0.6c-0.1,0.1-0.2,0.1-0.4,0.1
			c-0.1,0-0.2,0-0.5-0.1c-4.3-0.7-7.8-1.8-10.4-3.4c-2.7,1.4-6.1,2.5-10.2,3.3c-0.2,0-0.4,0.1-0.6,0.1s-0.4-0.2-0.6-0.7
			c-0.3-0.7-0.7-1.4-1.1-2c4-0.5,7.3-1.3,10-2.6c-1.4-1.3-2.7-2.9-3.7-4.9h-1.8c-0.1,0-0.2,0-0.3-0.1c0,0,0-0.1,0-0.2v-2.1
			c0-0.1,0-0.2,0.1-0.3c0,0,0.1,0,0.3,0l3.8,0.1h9.1c0.3,0,0.6,0,0.8-0.1c0.2-0.1,0.3-0.1,0.4-0.1c0.2,0,0.7,0.3,1.3,1
			c0.5,0.5,0.8,0.9,0.8,1.2c0,0.2-0.1,0.3-0.3,0.5c-0.3,0.2-0.6,0.6-0.9,0.9c-1.2,1.7-2.6,3.1-4.1,4.3
			C467.2,6169,470.6,6169.8,474.8,6170.2z M456.5,6152.5c0.6,1,1.1,2,1.5,3h3.1c-0.3-0.9-0.6-1.8-1-2.6c0-0.1-0.1-0.1-0.1-0.2
			s0.1-0.2,0.3-0.3l1.7-0.5c0.1,0,0.2-0.1,0.3-0.1c0.1,0,0.2,0.1,0.3,0.2c0.5,1.1,0.9,2.2,1.2,3.4h1.9c0.5-0.7,1-1.7,1.6-2.9
			c0.2-0.4,0.3-0.9,0.4-1.4c0.8,0.2,1.7,0.5,2.4,0.8c0.3,0.1,0.4,0.3,0.4,0.4s-0.1,0.3-0.3,0.5c-0.2,0.2-0.4,0.5-0.6,0.9
			c-0.4,0.7-0.7,1.3-0.9,1.6h1.2l3.7-0.1c0.2,0,0.2,0,0.3,0.1s0,0.1,0,0.2l-0.1,1.4v1.6l0.1,2.6c0,0.1,0,0.2,0,0.3c0,0-0.1,0-0.3,0
			h-2.3c-0.2,0-0.2,0-0.3-0.1s0-0.1,0-0.2v-3.3h-18v3.3c0,0.1,0,0.2-0.1,0.3c0,0-0.1,0-0.3,0h-2.2c-0.2,0-0.2,0-0.3-0.1s0-0.1,0-0.2
			l0.1-2.6v-1.4l-0.1-1.6c0-0.1,0-0.2,0.1-0.3c0,0,0.1,0,0.3,0l3.7,0.1h1c-0.3-0.8-0.7-1.5-1.1-2.1c-0.1-0.1-0.1-0.2-0.1-0.2
			c0-0.1,0.1-0.1,0.3-0.2l1.6-0.7c0.1,0,0.2-0.1,0.3-0.1C456.3,6152.3,456.4,6152.4,456.5,6152.5z M470,6147.5c0.5,0.3,1.2,1,2,1.9
			c0.2,0.2,0.3,0.4,0.3,0.6s-0.2,0.3-0.5,0.3c-0.4,0-0.9,0-1.3,0.1c-3.3,0.5-6,0.8-8.3,1c-3.2,0.3-6.4,0.5-9.6,0.6
			c-0.1,0-0.2,0-0.2,0c-0.2,0-0.3-0.1-0.4-0.2c0-0.1-0.1-0.3-0.2-0.7c-0.3-0.8-0.6-1.4-0.9-1.8c3.4,0,6.9-0.2,10.5-0.5
			c2.5-0.2,4.6-0.5,6.3-0.8C468.4,6148,469.2,6147.8,470,6147.5z M466,6162.9h-7.1c0.9,1.4,2,2.6,3.3,3.5
			C463.7,6165.4,465,6164.2,466,6162.9z"/>
		<path class="st3" d="M480.7,6152.5h3.2l3-0.1c0.1,0,0.2,0,0.3,0.1c0,0,0,0.1,0,0.2v2.1c2.2-1.5,3.9-3.3,5.3-5.5
			c0.3-0.6,0.6-1.2,0.8-1.8c0.7,0.1,1.6,0.3,2.9,0.5c0.3,0.1,0.4,0.2,0.4,0.4c0,0.1-0.1,0.3-0.3,0.4c0,0-0.1,0.1-0.2,0.1
			c1.8,2.6,4.2,4.6,7.4,6.2c-0.4,0.5-0.8,1.2-1.1,2.1c-0.2,0.5-0.3,0.7-0.5,0.7c-0.1,0-0.3-0.1-0.6-0.3c-2.7-1.7-4.9-3.9-6.6-6.4
			c-1.6,2.4-3.6,4.5-6,6.2c-0.3,0.2-0.6,0.3-0.7,0.3c-0.2,0-0.4-0.2-0.6-0.6c-0.4-0.6-0.8-1.2-1.3-1.6l0.8-0.5l-2.9-0.1h-3.2l-3,0.1
			c-0.2,0-0.2,0-0.3-0.1c0,0,0-0.1,0-0.3v-2c0-0.1,0-0.2,0.1-0.3c0,0,0.1,0,0.3,0L480.7,6152.5z M486.5,6172.4
			c0,0.2-0.1,0.3-0.3,0.3h-2c-0.2,0-0.2,0-0.3-0.1s0-0.1,0-0.3v-0.9h-2.8v1.4c0,0.1,0,0.2-0.1,0.3c0,0-0.1,0-0.3,0h-2
			c-0.2,0-0.3,0-0.3-0.1c0,0,0-0.1,0-0.3l0.1-4.2v-1.8l-0.1-2.6c0-0.2,0-0.2,0.1-0.3c0,0,0.1,0,0.3,0l2.5,0.1h2.3l2.6-0.1
			c0.2,0,0.3,0.1,0.3,0.3l-0.1,2.1v1.9L486.5,6172.4z M481.4,6148.7h2.4l2.5-0.1c0.2,0,0.3,0,0.3,0.1c0,0,0,0.1,0,0.2v1.8
			c0,0.2,0,0.2-0.1,0.3c0,0-0.1,0-0.3,0l-2.5-0.1h-2.4l-2.5,0.1c-0.2,0-0.2,0-0.3-0.1s0-0.1,0-0.3v-1.8c0-0.1,0-0.2,0.1-0.3
			c0,0,0.1,0,0.3,0L481.4,6148.7z M481.5,6156.5h2l2.4-0.1c0.2,0,0.3,0,0.3,0.1c0,0,0,0.1,0,0.3v1.8c0,0.1,0,0.2-0.1,0.3
			c0,0-0.1,0-0.3,0l-2.4-0.1h-2l-2.4,0.1c-0.1,0-0.2,0-0.3-0.1c0,0,0-0.1,0-0.2v-1.8c0-0.2,0-0.2,0.1-0.3c0,0,0.1,0,0.2,0
			L481.5,6156.5z M481.5,6160.3h2l2.4-0.1c0.2,0,0.3,0,0.3,0.1c0,0,0,0.1,0,0.3v1.8c0,0.2,0,0.2-0.1,0.3c0,0-0.1,0-0.3,0l-2.4-0.1
			h-2l-2.4,0.1c-0.1,0-0.2,0-0.3-0.1c0,0,0-0.1,0-0.3v-1.8c0-0.1,0-0.2,0.1-0.3c0,0,0.1,0,0.2,0L481.5,6160.3z M483.9,6166.4h-2.8
			v2.9h2.8V6166.4z M486.8,6170.7c3-0.7,5.6-1.7,7.7-2.9c1.8-1,3.3-2.3,4.7-3.8c0.5-0.6,0.9-1.1,1.1-1.5c0.8,0.5,1.5,1,2.1,1.5
			c0.2,0.2,0.3,0.4,0.3,0.5s-0.1,0.2-0.3,0.4c-0.2,0.1-0.5,0.4-0.9,0.9c-3,3.4-7.1,5.9-12.1,7.3c-0.3,0.1-0.6,0.1-0.6,0.1
			c-0.2,0-0.4-0.2-0.6-0.7C487.7,6171.7,487.3,6171.1,486.8,6170.7z M487.4,6160.1c2.7-1,4.9-2.4,6.5-4.2c0.3-0.3,0.6-0.7,0.8-1.1
			c0.6,0.4,1.3,0.9,2,1.4c0.2,0.2,0.3,0.3,0.3,0.5s-0.1,0.2-0.4,0.4c-0.2,0.1-0.5,0.4-0.9,0.8c-1.5,1.6-3.4,3-5.9,4.1
			c-0.3,0.2-0.6,0.2-0.7,0.2c-0.2,0-0.4-0.2-0.6-0.6C488.3,6161.1,487.9,6160.6,487.4,6160.1z M487.6,6165.3
			c3.9-1.3,6.9-3.2,9.2-5.8c0.2-0.3,0.5-0.7,0.8-1.2c0.9,0.6,1.6,1.1,2,1.4c0.2,0.2,0.3,0.3,0.3,0.5s-0.1,0.3-0.3,0.4
			c-0.2,0.1-0.5,0.4-0.8,0.7c-2.1,2.4-5,4.4-8.7,6c-0.4,0.1-0.6,0.2-0.7,0.2s-0.4-0.2-0.6-0.7
			C488.6,6166.4,488.2,6165.8,487.6,6165.3z"/>
		<path class="st3" d="M503.8,6148.7h3.1c-0.3,10.9-0.5,16.7-0.5,17.4c0,1.3,0.3,2.2,0.9,2.7s1.4,0.8,2.6,0.8c3.7,0,6-2.5,6.9-7.4
			l2.9,1.5c-1.4,5.8-4.7,8.7-9.6,8.7c-2.5,0-4.2-0.5-5.2-1.6c-0.9-1-1.4-2.6-1.4-4.7c0-0.7,0-3.2,0.1-7.3
			C503.6,6154.7,503.7,6151.3,503.8,6148.7z"/>
		<path class="st3" d="M523.1,6155.3c-1.6,0.1-3,0.1-4.4,0.1v-2.5c1.6,0,3.2,0,4.8-0.1c0.2-1.5,0.4-3.1,0.5-4.6l3,0.3
			c-0.2,1.8-0.5,3.2-0.6,4.2c1.9-0.1,3.9-0.3,6.1-0.5l0.1,2.5c-2,0.2-4.2,0.4-6.6,0.5c-1.1,5.9-2.5,11.5-4.4,16.9l-2.8-1
			C520.8,6165.5,522.3,6160.2,523.1,6155.3z M526.9,6165.3l2.5,0.2c-0.1,0.6-0.2,1.1-0.2,1.7c0,0.8,0.3,1.3,0.8,1.6
			c0.6,0.3,1.5,0.4,2.9,0.4c1.9,0,3.4-0.1,4.7-0.2l0.2,2.8c-1.4,0.1-3,0.2-4.6,0.2c-2.5,0-4.3-0.4-5.3-1.1c-0.9-0.7-1.3-1.7-1.3-3.1
			C526.6,6166.9,526.7,6166.1,526.9,6165.3z M528.4,6160.3v-2.6c2.6-0.3,5.3-0.5,8-0.5c0.5,0,0.8,0,1,0v2.5c-0.2,0-0.6,0-1.1,0
			C533.3,6159.7,530.6,6159.9,528.4,6160.3z"/>
		<path class="st3" d="M548.6,6153.7c1.2,0,1.9-0.1,2.2-0.1c1.3,0,2.3,0.4,2.9,1.2c0.7,0.9,1,2.2,1,4.1c0,4.7-0.3,8-0.8,9.8
			c-0.3,1.1-0.8,1.9-1.5,2.3c-0.6,0.5-1.5,0.7-2.6,0.7c-1,0-2-0.1-3-0.2l-0.6-2.8c1.2,0.2,2.1,0.4,2.5,0.4c0.7,0,1.3-0.1,1.6-0.3
			c0.3-0.2,0.5-0.5,0.7-1c0.5-1.6,0.8-4.5,0.8-8.6c0-1.4-0.2-2.3-0.5-2.8c-0.2-0.4-0.6-0.5-1.1-0.5c-0.7,0-1.5,0-2.4,0.1
			c-1.5,5.9-3.3,11.2-5.4,15.7l-2.7-1c2.2-4.5,3.9-9.4,5.2-14.5c-1.5,0.1-3.2,0.3-4.9,0.5l-0.1-2.6c2.6-0.1,4.5-0.3,5.6-0.3
			c0.4-2,0.8-3.9,1.1-5.6l2.9,0.4C549.2,6150.9,548.9,6152.6,548.6,6153.7z M553.5,6152.6l2.4-1.3c2.2,2.8,4,6.1,5.5,9.9l-2.7,1.4
			C557.4,6158.8,555.6,6155.4,553.5,6152.6z M555.6,6147.8l1.8-0.5c0.7,1.3,1.4,2.8,2,4.6l-1.9,0.6
			C557,6150.8,556.3,6149.2,555.6,6147.8z M558.9,6147l1.8-0.6c0.8,1.4,1.4,2.9,2,4.4l-1.8,0.7
			C560.2,6149.7,559.6,6148.2,558.9,6147z"/>
	</g>
	<g class="st5">
		<path class="st3" d="M429,6185.5c0.9,0.1,1.8,0.3,2.7,0.6c0.4,0.1,0.6,0.2,0.6,0.4c0,0.1-0.1,0.3-0.2,0.5
			c-0.2,0.3-0.4,0.7-0.5,1.4c-0.4,1.4-0.7,2.2-0.7,2.2h4.7l3.7-0.1c0.1,0,0.2,0,0.3,0.1s0,0.1,0,0.2v2c0,0.1,0,0.2-0.1,0.3
			c0,0-0.1,0-0.2,0c0,0-0.2,0-0.7,0c-0.4,0-0.9,0-1.5,0c-0.2,4.2-1.3,7.7-3.1,10.6c1.5,1.7,3.6,3.2,6.2,4.6c-0.5,0.5-0.9,1.2-1.3,2
			c-0.2,0.4-0.4,0.6-0.6,0.6s-0.4-0.1-0.7-0.3c-2-1.3-3.8-2.8-5.3-4.7c-1.9,2.1-4.1,3.7-6.8,4.9c-0.4,0.1-0.6,0.2-0.7,0.2
			s-0.3-0.2-0.5-0.5c-0.4-0.7-0.9-1.3-1.4-1.8c3.1-1.1,5.7-2.8,7.7-5.1c-1.2-1.9-2.1-4.1-2.7-6.6c-0.3,0.6-0.7,1.2-1.2,1.8
			c-0.2,0.3-0.4,0.5-0.5,0.5s-0.3-0.2-0.5-0.5c-0.4-0.5-0.7-0.8-1-1.1v0.8c0,0.1,0,0.2-0.1,0.3c0,0-0.1,0-0.3,0h-2.2
			c-0.1,0-0.2,0-0.3-0.1s0-0.1,0-0.2v-1.1h-4.1v6.3c0,0.7,0.1,1.1,0.2,1.2c0.3,0.2,0.9,0.3,1.9,0.3c1.4,0,2.4-0.2,2.7-0.6
			c0.2-0.2,0.4-0.6,0.5-1.2c0.1-0.4,0.1-1.2,0.2-2.2c0.6,0.4,1.2,0.6,1.8,0.8c0.4,0.1,0.6,0.2,0.7,0.3c0.1,0.1,0.2,0.2,0.2,0.4
			c0,0.1,0,0.2,0,0.5c-0.1,1.8-0.6,3.1-1.4,3.8c-0.5,0.4-1.2,0.7-2.1,0.9c-0.7,0.1-1.7,0.2-3,0.2c-2,0-3.3-0.2-3.8-0.7
			c-0.5-0.4-0.7-1.2-0.7-2.2v-7.1l-0.1-3c0-0.2,0-0.3,0.1-0.3c0,0,0.1,0,0.3,0l2.5,0.1h4v-4.5h-4.2l-2.9,0.1c-0.2,0-0.2,0-0.3-0.1
			c0,0,0-0.1,0-0.3v-2.1c0-0.1,0-0.2,0.1-0.3c0,0,0.1,0,0.3,0l2.9,0.1h3.7l3-0.1c0.2,0,0.3,0,0.3,0.1c0,0,0,0.1,0,0.2l-0.1,2.8v6.3
			c1.9-2.4,3.2-5.4,3.9-8.9C428.9,6186.6,429,6185.8,429,6185.5z M434.3,6193.1h-4.4c0,0,0,0.1-0.1,0.2c0,0.1,0,0.1-0.1,0.2
			c0.5,3.2,1.3,5.8,2.5,7.8C433.4,6199.2,434.1,6196.4,434.3,6193.1z"/>
		<path class="st3" d="M446.3,6202.4l-3.5,0.1c-0.2,0-0.2,0-0.3-0.1s0-0.1,0-0.2v-1.8c0-0.1,0-0.2,0.1-0.3c0,0,0.1,0,0.3,0l3.5,0.1
			h1.6c-0.3-0.5-0.6-1-1-1.5c-0.1-0.1-0.1-0.2-0.1-0.2c0-0.1,0.1-0.2,0.3-0.2l1.6-0.4c0.1,0,0.3-0.1,0.3-0.1c0.1,0,0.2,0.1,0.3,0.2
			c0.5,0.6,1,1.4,1.5,2.2h2.5v-2.6h-6.9l-3.5,0.1c-0.1,0-0.2,0-0.3-0.1c0,0,0-0.1,0-0.3v-1.6c0-0.2,0-0.2,0.1-0.3c0,0,0.1,0,0.3,0
			l3.5,0.1h6.9v-1.5h-3.7l-3.9,0.1c-0.2,0-0.2,0-0.3-0.1s0-0.1,0-0.2v-1.5c0-0.1,0-0.2,0.1-0.3c0,0,0.1,0,0.3,0l3.9,0.1h3.7v-1.4
			H448l-3.8,0.1c-0.1,0-0.2,0-0.3-0.1s0-0.1,0-0.3v-1.6c0-0.2,0-0.2,0.1-0.3c0,0,0.1,0,0.2,0l3.8,0.1h1.7c-0.4-0.7-0.8-1.3-1.3-1.8
			c-0.1-0.1-0.1-0.2-0.1-0.2c0-0.1,0.1-0.1,0.3-0.2l1.8-0.5c0.1,0,0.2-0.1,0.3-0.1c0.1,0,0.2,0.1,0.3,0.2c0.7,0.8,1.3,1.7,1.8,2.6
			h3.9c0.2-0.3,0.5-0.9,0.9-1.5c0.2-0.4,0.4-0.8,0.5-1.3c0.9,0.2,1.8,0.4,2.6,0.6c0.2,0.1,0.3,0.2,0.3,0.3c0,0.2-0.1,0.3-0.2,0.4
			c-0.2,0.1-0.4,0.3-0.5,0.6c-0.2,0.3-0.4,0.6-0.6,0.8h2.3l3.8-0.1c0.1,0,0.2,0,0.3,0.1s0,0.1,0,0.3v1.6c0,0.2,0,0.2-0.1,0.3
			c0,0-0.1,0-0.2,0l-3.8-0.1h-5.7v1.4h4.1l3.9-0.1c0.1,0,0.2,0,0.3,0.1c0,0,0,0.1,0,0.2v1.5c0,0.1,0,0.2-0.1,0.3c0,0-0.1,0-0.2,0
			l-3.9-0.1h-4.1v1.5h7.3l3.5-0.1c0.2,0,0.3,0,0.3,0.1c0,0,0,0.1,0,0.3v1.6c0,0.2,0,0.3-0.1,0.3c0,0-0.1,0-0.3,0l-3.5-0.1h-7.3v2.6
			h2.7c0.2-0.3,0.4-0.7,0.7-1.2c0.2-0.4,0.4-0.8,0.5-1.3c1,0.2,1.8,0.4,2.5,0.6c0.2,0.1,0.3,0.2,0.3,0.3c0,0.1-0.1,0.2-0.3,0.4
			c-0.2,0.1-0.4,0.3-0.5,0.6l-0.4,0.6h1.9l3.5-0.1c0.2,0,0.3,0,0.3,0.1c0,0,0,0.1,0,0.2v1.8c0,0.1,0,0.2-0.1,0.3c0,0-0.1,0-0.3,0
			l-3.5-0.1h-17.2V6202.4z M448.4,6211.2h-2.1c-0.1,0-0.2,0-0.3-0.1s0-0.1,0-0.3v-3.6v-1.3v-2.1c0-0.2,0-0.2,0.1-0.3
			c0,0,0.1,0,0.2,0l3.9,0.1h9.5l3.9-0.1c0.2,0,0.3,0,0.3,0.1c0,0,0.1,0.1,0.1,0.3l-0.1,1.8v1.6l0.1,3.5c0,0.1,0,0.2-0.1,0.3
			c0,0-0.1,0-0.3,0h-2.1c-0.2,0-0.2,0-0.3-0.1s0-0.1,0-0.3v-0.7h-12.3v0.8c0,0.2,0,0.2-0.1,0.3
			C448.6,6211.2,448.5,6211.2,448.4,6211.2z M448.7,6205.8v2.1H461v-2.1H448.7z"/>
		<path class="st3" d="M468.6,6186.7h3.1c-0.3,10.9-0.5,16.7-0.5,17.4c0,1.3,0.3,2.2,0.9,2.7s1.4,0.8,2.6,0.8c3.7,0,6-2.5,6.9-7.4
			l2.9,1.5c-1.4,5.8-4.7,8.7-9.6,8.7c-2.5,0-4.2-0.5-5.2-1.6c-0.9-1-1.4-2.6-1.4-4.7c0-0.7,0-3.2,0.1-7.3
			C468.5,6192.7,468.5,6189.3,468.6,6186.7z"/>
		<path class="st3" d="M491.2,6190.9c1.4-0.1,2.6-0.2,3.7-0.4l0.1,2.5c-1.8,0.2-3.3,0.3-4.4,0.4c-1.2,4.3-2.9,8.6-5,12.9l-2.7-1.2
			c2.1-3.9,3.7-7.7,4.8-11.5c-1.4,0-2.4,0.1-3,0.1h-1.3l-0.1-2.4c0.4,0,1.1,0,1.9,0c0.7,0,1.7,0,3.1-0.1c0.3-1.3,0.6-2.8,0.8-4.6
			l3,0.4C491.9,6187.9,491.6,6189.2,491.2,6190.9z M496.3,6202.2c-0.1-1.4-0.2-3.7-0.2-6.8h2.7c0,3.1,0.1,5.6,0.3,7.4
			c2,0.8,3.7,2,5.3,3.4l-1.6,2.6c-1.4-1.5-2.6-2.6-3.8-3.2v0.7c0,1.3-0.5,2.4-1.5,3.1c-0.9,0.6-2.2,1-3.8,1c-1.8,0-3.2-0.4-4.1-1.2
			c-0.8-0.7-1.1-1.6-1.1-2.9c0-1.4,0.6-2.5,1.9-3.3c1-0.6,2.3-1,3.8-1C495,6202.1,495.7,6202.1,496.3,6202.2z M496.4,6204.8
			c-0.6-0.2-1.3-0.4-2.1-0.4c-2.2,0-3.3,0.6-3.3,1.9c0,1.2,0.9,1.7,2.7,1.7c1.8,0,2.6-0.7,2.6-2.2c0,0,0-0.1,0-0.2L496.4,6204.8z
			 M496.4,6192.3l1.3-2.3c2.8,0.9,5.1,2,6.9,3.2l-1.4,2.5C501.3,6194.3,499,6193.1,496.4,6192.3z"/>
		<path class="st3" d="M514.4,6191.7c1.2,0,1.9-0.1,2.2-0.1c1.3,0,2.3,0.4,2.9,1.2c0.7,0.9,1,2.2,1,4.1c0,4.7-0.3,8-0.8,9.8
			c-0.3,1.1-0.8,1.9-1.5,2.3c-0.6,0.5-1.5,0.7-2.6,0.7c-1,0-2-0.1-3-0.2l-0.6-2.8c1.2,0.2,2.1,0.4,2.5,0.4c0.7,0,1.3-0.1,1.6-0.3
			c0.3-0.2,0.5-0.5,0.7-1c0.5-1.6,0.8-4.5,0.8-8.6c0-1.4-0.2-2.3-0.5-2.8c-0.2-0.4-0.6-0.5-1.1-0.5c-0.7,0-1.5,0-2.4,0.1
			c-1.5,5.9-3.3,11.2-5.4,15.7l-2.7-1c2.2-4.5,3.9-9.4,5.2-14.5c-1.5,0.1-3.2,0.3-4.9,0.5l-0.1-2.6c2.6-0.1,4.5-0.3,5.6-0.3
			c0.4-2,0.8-3.9,1.1-5.6l2.9,0.4C515,6188.9,514.6,6190.6,514.4,6191.7z M520.2,6190.1l2.5-1c1.9,3,3.3,6.5,4.4,10.4l-2.9,1.1
			C523.4,6196.6,522,6193,520.2,6190.1z"/>
		<path class="st3" d="M527.4,6198.6l-0.8-2.6c4.2-1.1,7.2-1.6,8.8-1.6c2.2,0,3.9,0.7,4.9,2c0.9,1.1,1.4,2.8,1.4,4.8
			c0,2.8-1.1,4.9-3.3,6.3c-1,0.6-2.1,1.1-3.3,1.5c-1.1,0.3-2.5,0.6-4.3,0.8l-1.1-2.4c2-0.2,3.5-0.5,4.7-0.8c1-0.3,1.9-0.8,2.6-1.3
			c1.2-0.9,1.8-2.2,1.8-4c0-1.7-0.3-2.9-1-3.5c-0.6-0.6-1.4-0.8-2.6-0.8C533.5,6196.9,530.9,6197.5,527.4,6198.6z"/>
		<path class="st3" d="M546.9,6193.3c-1.6,0.1-3,0.1-4.4,0.1v-2.5c1.6,0,3.2,0,4.8-0.1c0.2-1.5,0.4-3.1,0.5-4.6l3,0.3
			c-0.2,1.8-0.5,3.2-0.6,4.2c1.9-0.1,3.9-0.3,6.1-0.5l0.1,2.5c-2,0.2-4.2,0.4-6.6,0.5c-1.1,5.9-2.5,11.5-4.4,16.9l-2.8-1
			C544.7,6203.5,546.1,6198.2,546.9,6193.3z M550.7,6203.3l2.5,0.2c-0.1,0.6-0.2,1.1-0.2,1.7c0,0.8,0.3,1.3,0.8,1.6
			c0.6,0.3,1.5,0.4,2.9,0.4c1.9,0,3.4-0.1,4.7-0.2l0.2,2.8c-1.4,0.1-3,0.2-4.6,0.2c-2.5,0-4.3-0.4-5.3-1.1c-0.9-0.7-1.3-1.7-1.3-3.1
			C550.4,6204.9,550.5,6204.1,550.7,6203.3z M552.2,6198.3v-2.6c2.6-0.3,5.3-0.5,8-0.5c0.5,0,0.8,0,1,0v2.5c-0.2,0-0.6,0-1.1,0
			C557.1,6197.7,554.4,6197.9,552.2,6198.3z"/>
	</g>
	<g class="st5">
		<path class="st6" d="M1139,6087.3l-3.4,0.1c-0.2,0-0.3-0.1-0.3-0.3v-2c0-0.2,0.1-0.3,0.3-0.3l3.4,0.1h3.6c0.4-0.7,0.7-1.6,1.1-2.7
			c0.1-0.3,0.2-0.7,0.2-1.2c0.4,0.1,0.8,0.2,1.3,0.3c0.6,0.2,1,0.3,1.1,0.3c0.2,0.1,0.3,0.2,0.3,0.4c0,0.2-0.1,0.3-0.2,0.4
			c-0.2,0.1-0.3,0.3-0.4,0.6c-0.3,0.8-0.6,1.4-0.9,1.8l3-0.1c0.1,0,0.2,0,0.3,0.1s0,0.1,0,0.2v2c0,0.1,0,0.2-0.1,0.3
			c0,0-0.1,0-0.2,0l-3.4-0.1h-1.3c0,0.1-0.1,0.7-0.1,1.5v0.5h1l3.4-0.1c0.1,0,0.2,0,0.3,0.1s0,0.1,0,0.2v2c0,0.2,0,0.2-0.1,0.3
			c0,0-0.1,0-0.2,0l-3.4-0.1h-0.2c1.1,1.2,2.3,2.2,3.6,2.9c-0.3,0.5-0.7,1.1-1,1.8c-0.1,0.3-0.2,0.5-0.3,0.5c-0.1,0-0.3-0.1-0.6-0.4
			c-0.9-0.8-1.8-1.8-2.5-2.9c0,1.6,0,3.2,0.1,4.9c0,1.3,0.1,2,0.1,2.2c0,0.1,0,0.2-0.1,0.3c0,0-0.1,0-0.3,0h-2.2
			c-0.1,0-0.2,0-0.3-0.1c0,0,0-0.1,0-0.2c0-0.2,0-1,0.1-2.5c0-1.4,0-2.7,0.1-4c-0.9,1.5-2.1,3-3.6,4.5c-0.3,0.3-0.5,0.4-0.6,0.4
			c-0.2,0-0.3-0.2-0.5-0.6c-0.3-0.7-0.7-1.4-1.1-1.9c2-1.3,3.6-3,4.9-5h-0.7l-3.4,0.1c-0.1,0-0.2,0-0.3-0.1s0-0.1,0-0.3v-2
			c0-0.1,0-0.2,0.1-0.3c0,0,0.1,0,0.2,0l3.4,0.1h1.5v-0.5c0-0.7,0-1.3,0-1.5h-1.7V6087.3z M1144.4,6080.6h-4.9l-3.3,0.1
			c-0.1,0-0.2,0-0.3-0.1s0-0.1,0-0.2v-1.9c0-0.1,0-0.2,0.1-0.3c0,0,0.1,0,0.2,0l3.3,0.1h1.1v-0.8c0-0.8-0.1-1.4-0.2-1.9
			c1.2,0,2.2,0.1,2.9,0.2c0.3,0,0.5,0.1,0.5,0.2s-0.1,0.3-0.2,0.5s-0.1,0.5-0.1,1v0.7h0.9l3.3-0.1c0.2,0,0.3,0,0.3,0.1s0,0.1,0,0.2
			v1.9c0,0.1,0,0.2-0.1,0.3c0,0-0.1,0-0.3,0L1144.4,6080.6z M1137.7,6081.9c-0.1-0.1-0.1-0.2-0.1-0.3c0-0.1,0.1-0.2,0.3-0.2l1.4-0.4
			c0.1,0,0.2,0,0.2,0c0.1,0,0.2,0.1,0.3,0.2c0.4,0.7,0.7,1.5,1,2.5c0,0.1,0,0.1,0,0.2s-0.1,0.2-0.3,0.3l-1.6,0.4
			c-0.1,0-0.2,0.1-0.3,0.1c-0.1,0-0.2-0.1-0.3-0.3C1138.2,6083.2,1138,6082.3,1137.7,6081.9z M1145.9,6099.6
			c1.4-1.7,2.4-3.6,2.9-5.7c0.4-1.5,0.6-4.2,0.6-8.1v-3c0-1.9-0.1-3.5-0.2-4.8c0.9,0.2,1.8,0.4,2.6,0.7c1.7-0.4,3.3-1.1,4.9-1.9
			c0.5-0.3,1-0.6,1.5-1c0.6,0.5,1.2,1.2,1.8,2c0.1,0.2,0.2,0.4,0.2,0.5c0,0.2-0.1,0.3-0.4,0.3s-0.7,0.1-1.1,0.3
			c-2.1,1-4.3,1.8-6.5,2.3v3.4h4.8l3.8-0.1c0.1,0,0.2,0,0.3,0.1s0,0.1,0,0.2v2.1c0,0.1,0,0.2-0.1,0.3c0,0-0.1,0-0.2,0
			c0,0-0.2,0-0.4,0c-0.7,0-1.5,0-2.5,0v9.9l0.1,3.9c0,0.2,0,0.3-0.1,0.3c0,0-0.1,0-0.2,0h-2.3c-0.1,0-0.2,0-0.3-0.1s0-0.1,0-0.3
			l0.1-3.9v-9.9h-3c0,3.6-0.3,6.3-0.7,8.1c-0.5,1.9-1.3,3.7-2.4,5.3c-0.3,0.4-0.5,0.5-0.6,0.5s-0.3-0.1-0.6-0.4
			C1147.2,6100.2,1146.6,6099.8,1145.9,6099.6z"/>
		<path class="st6" d="M1167.3,6100.2l-3.5,0.1c-0.1,0-0.2,0-0.2-0.1c0,0,0-0.1,0-0.2v-2.1c0-0.1,0-0.2,0-0.2s0.1,0,0.2,0l3.5,0.1
			h7.2v-2.7h-3.7l-3.8,0.1c-0.2,0-0.3,0-0.3-0.1c0,0,0-0.1,0-0.2v-2c0-0.2,0-0.3,0.1-0.3c0,0,0.1,0,0.3,0l3.8,0.1h3.7
			c0-0.7,0-1.3-0.1-2h-1.8c-0.1,0-0.2,0-0.3-0.1c0,0,0-0.1,0-0.3l0.1-3.1v-2.2h-2.6c-0.1,1-0.4,1.8-0.6,2.5
			c-0.5,1.4-1.4,2.6-2.7,3.7c-0.3,0.3-0.5,0.4-0.6,0.4s-0.3-0.2-0.6-0.5c-0.5-0.6-1.1-1-1.6-1.3c1.6-1,2.6-2.1,3.1-3.3
			c0.2-0.4,0.3-1,0.4-1.5c-0.9,0-1.7,0-2.4,0h-0.7c-0.2,0-0.2,0-0.3-0.1c0,0,0-0.1,0-0.3v-1.9c0-0.1,0-0.2,0.1-0.3c0,0,0.1,0,0.3,0
			l3.3,0.1c0-0.8,0.1-1.4,0.1-1.9v-1.4c-0.7,0-1.4,0-2,0c-0.4,0-0.6,0-0.6,0c-0.1,0-0.2,0-0.3-0.1c0,0,0-0.1,0-0.2v-1.9
			c0-0.1,0-0.2,0.1-0.3c0,0,0.1,0,0.2,0l3.4,0.1h5.4l3.4-0.1c0.2,0,0.2,0,0.3,0.1s0,0.1,0,0.2v1.9c0,0.1,0,0.2-0.1,0.3
			c0,0-0.1,0-0.3,0c0,0-0.2,0-0.6,0s-0.9,0-1.4,0v3.3l2.6-0.1c0.1,0,0.2,0,0.3,0.1c0,0,0,0.1,0,0.2v1.9c0,0.2,0,0.3-0.1,0.3
			c0,0-0.1,0-0.3,0c0,0-0.1,0-0.3,0c-0.7,0-1.4,0-2.2,0v2.2c0,1.4,0,2.3,0,2.7c0.7,0,1.4,0.1,2.2,0.2c0.3,0,0.4,0.2,0.4,0.3
			c0,0.2-0.1,0.4-0.2,0.6c-0.1,0.3-0.2,0.9-0.2,1.7h4.1l3.9-0.1c0.1,0,0.2,0,0.3,0.1c0,0,0,0.1,0,0.3v2c0,0.1,0,0.2,0,0.3
			s-0.1,0-0.3,0l-3.9-0.1h-4.1v2.7h7.4l3.5-0.1c0.1,0,0.2,0,0.2,0.1c0,0,0,0.1,0,0.2v2.1c0,0.1,0,0.2,0,0.3s-0.1,0-0.2,0l-3.5-0.1
			h-17.5V6100.2z M1169.9,6082.4h2.4v-3.3h-2.4v1.8C1170,6081.6,1169.9,6082.1,1169.9,6082.4z M1178.8,6077c0.7,0,1.6,0.1,2.6,0.2
			c0.3,0,0.4,0.1,0.4,0.3s0,0.3-0.1,0.5s-0.2,0.8-0.2,1.8v3.5l0.1,2.7c0,0.2,0,0.3-0.1,0.3c0,0-0.1,0-0.3,0h-2.1
			c-0.1,0-0.2,0-0.3-0.1s0-0.1,0-0.3l0.1-2.7v-3.5C1179,6078.7,1178.9,6077.8,1178.8,6077z M1181,6088c0.9,0.1,1.7,0.2,2.4,0.2
			c0.4,0,0.7-0.1,0.9-0.2c0.1-0.1,0.2-0.4,0.2-0.7v-7.9c0-1.6-0.1-2.8-0.2-3.6c0.9,0,1.9,0.1,2.8,0.2c0.3,0,0.5,0.1,0.5,0.3
			s-0.1,0.4-0.2,0.6c-0.1,0.3-0.2,1.1-0.2,2.4v5.4v3.7c0,0.9-0.3,1.5-0.8,1.8c-0.6,0.4-1.8,0.6-3.6,0.6c-0.4,0-0.7,0-0.8-0.1
			c-0.1-0.1-0.2-0.3-0.2-0.7C1181.5,6089.2,1181.3,6088.6,1181,6088z"/>
		<path class="st6" d="M1205,6098.8h-14.7v-2.7h11.5v-14.6h-11.5v-2.7h14.7V6098.8z"/>
		<path class="st6" d="M1208,6099v-20.2h15.4v20.2H1208z M1220.2,6096.3v-15h-9.2v15H1220.2z"/>
		<path class="st6" d="M1237,6082.5h6.9v2.7h-6.9c0,2.6-0.2,4.6-0.5,6.1c-0.3,1.2-0.7,2.3-1.2,3.4c-0.7,1.3-1.6,2.3-2.7,3.3
			c-1.1,0.9-2.4,1.7-4.1,2.5l-2.3-2.3c3.2-1.3,5.3-2.9,6.3-4.9c0.5-1,0.8-2.1,1-3.4c0.2-1.2,0.3-2.7,0.3-4.7h-8.6v-2.7h8.6v-5.8h3.2
			L1237,6082.5L1237,6082.5z"/>
		<path class="st6" d="M1257.8,6080.8c-0.4,6.1-1.3,10.9-2.7,14.2c-0.6,1.4-1.3,2.3-2.1,2.9c-0.6,0.4-1.4,0.7-2.3,0.7
			c-1.5,0-2.7-0.8-3.5-2.3c-0.8-1.4-1.2-3.3-1.2-5.6c0-3.8,1.1-6.8,3.2-9.1c1-1,2.2-1.8,3.6-2.4c1.3-0.5,2.6-0.7,4-0.7
			c6.4,0,9.6,3.7,9.6,11c0,5.7-3,9.3-9.1,10.6l-1.4-2.4c2.9-0.6,4.9-1.7,6.1-3.3c1-1.3,1.4-3.1,1.4-5.3c0-2.9-0.6-5.1-1.8-6.6
			C1260.4,6081.5,1259.2,6080.9,1257.8,6080.8z M1254.8,6081c-1.5,0.2-2.9,1.1-4.2,2.7c-1.4,1.8-2.1,4.1-2.1,7.1
			c0,1.7,0.2,3,0.7,3.8c0.4,0.7,0.8,1,1.3,1c0.4,0,0.8-0.2,1.1-0.5c0.3-0.3,0.5-0.8,0.8-1.5c0.6-1.7,1.2-3.8,1.6-6.2
			C1254.5,6085.2,1254.8,6083,1254.8,6081z"/>
		<path class="st6" d="M1277,6094.2h-0.3c0.7,1.1,1.8,2,3.1,2.7c-0.5,0.6-1,1.1-1.3,1.5s-0.5,0.6-0.6,0.6s-0.3-0.1-0.6-0.4
			c-0.8-0.7-1.5-1.4-2.1-2.2c-0.9,1.9-2.4,3.4-4.4,4.6c-0.3,0.2-0.6,0.2-0.7,0.2s-0.3-0.2-0.6-0.6c-0.3-0.6-0.7-1.1-1.3-1.5
			c2.5-1,4.1-2.5,4.9-4.5l0.1-0.3h-1.1l-3.2,0.1c-0.2,0-0.3-0.1-0.3-0.3v-1.8c0-0.2,0.1-0.3,0.3-0.3l3.2,0.1h1.6
			c0.1-0.5,0.1-1.4,0.1-2.6h-1.7c-0.3,0.5-0.7,1-1.1,1.6c-0.3,0.3-0.4,0.5-0.6,0.5c-0.1,0-0.3-0.2-0.6-0.5c-0.4-0.4-0.9-0.8-1.3-1
			c1.2-1.3,2-2.6,2.6-4c0.1-0.2,0.2-0.6,0.3-1c0.8,0.2,1.5,0.4,2.2,0.5c0.3,0.1,0.4,0.2,0.4,0.4c0,0.1-0.1,0.2-0.2,0.4
			c-0.2,0.2-0.4,0.5-0.5,0.8l-0.1,0.1h2.9l3.2-0.1c0.2,0,0.3,0,0.3,0.1c0,0,0,0.1,0,0.2v1.8c0,0.1,0,0.2-0.1,0.3c0,0-0.1,0-0.3,0
			l-3-0.1c0,0.9-0.1,1.8-0.2,2.6h0.5l3.2-0.1c0.1,0,0.2,0,0.3,0.1c0,0,0,0.1,0,0.3v1.8c0,0.1,0,0.2,0,0.3s-0.1,0-0.3,0L1277,6094.2z
			 M1278.3,6080c0.5,0.3,1,0.6,1.7,0.8c0.3,0.1,0.5,0.2,0.5,0.2c0.1,0.1,0.1,0.2,0.1,0.3c0,0.1,0,0.2,0,0.4
			c-0.2,1.3-0.6,2.2-1.3,2.6c-0.7,0.4-2.1,0.7-4.2,0.7c-2.2,0-3.5-0.2-4.1-0.5s-0.8-1-0.8-1.9v-4.1c0-1.1,0-2-0.1-2.6
			c0.7,0,1.6,0.1,2.6,0.2c0.3,0.1,0.5,0.2,0.5,0.3c0,0.2-0.1,0.3-0.2,0.5s-0.2,0.6-0.2,1.3v0.6c1.4-0.4,2.7-0.9,3.8-1.4
			c0.4-0.2,0.8-0.5,1.2-0.8c0.7,0.6,1.2,1.1,1.7,1.6c0.1,0.1,0.2,0.3,0.2,0.4c0,0.2-0.1,0.3-0.4,0.3c-0.2,0-0.5,0.1-1.1,0.3
			c-1.9,0.8-3.7,1.4-5.5,1.9v0.5c0,0.6,0.1,0.9,0.3,1.1c0.3,0.2,1,0.2,2,0.2c1.4,0,2.2-0.2,2.5-0.5
			C1278.1,6081.9,1278.3,6081.2,1278.3,6080z M1285.3,6079.8c0.5,0.5,1.1,1,1.8,1.6c0.9-0.7,1.8-1.5,2.5-2.3h-4.6l-3.3,0.1
			c-0.2,0-0.3-0.1-0.3-0.3v-1.9c0-0.1,0-0.2,0.1-0.3c0,0,0.1,0,0.3,0l3.3,0.1h5.8c0.4,0,0.6,0,0.8-0.1c0.1-0.1,0.2-0.1,0.3-0.1
			c0.2,0,0.6,0.3,1.1,0.8s0.8,0.9,0.8,1.2c0,0.2-0.1,0.4-0.4,0.5c-0.2,0.1-0.5,0.4-0.8,0.8c-1.1,1.2-2.4,2.4-3.8,3.5l0.5,0.6
			c0.1,0.1,0.1,0.2,0.1,0.2c0,0.1-0.1,0.2-0.2,0.3l-0.3,0.2h2.6c0.3,0,0.6,0,0.8-0.1c0.1-0.1,0.3-0.1,0.3-0.1c0.2,0,0.5,0.2,1,0.6
			s0.8,0.8,0.8,1.1c0,0.1-0.1,0.3-0.2,0.4s-0.3,0.4-0.6,1c-0.3,0.6-0.7,1.3-1.1,2c-0.3,0.4-0.5,0.6-0.6,0.6s-0.3-0.1-0.6-0.2
			c-0.5-0.3-1.1-0.5-1.8-0.6c0.5-0.6,1-1.4,1.5-2.2h-2.5v4h1.7l2.3-0.1c0.1,0,0.2,0,0.3,0.1s0,0.1,0,0.2v1.9c0,0.1,0,0.2,0,0.3
			s-0.1,0-0.3,0l-2.3-0.1h-1.7v4.5c1.1,0.3,2.5,0.4,4.1,0.4c0.5,0,1.2,0,1.9-0.1c-0.2,0.6-0.3,1.2-0.4,1.8c-0.1,0.5-0.1,0.7-0.2,0.8
			c-0.1,0.1-0.3,0.1-0.8,0.1c-0.1,0-0.3,0-0.4,0c-0.4,0-1.1,0-1.9-0.1c-2.1-0.1-3.7-0.6-5-1.4c-1-0.6-1.8-1.5-2.4-2.6
			c-0.5,1.5-1.3,2.8-2.2,4c-0.3,0.3-0.5,0.5-0.6,0.5s-0.3-0.2-0.6-0.5c-0.4-0.4-0.9-0.8-1.6-1.1c1.2-1.3,2.1-2.7,2.6-4.2
			c0.4-1.2,0.7-2.8,0.9-4.6c0-0.4,0-0.8,0-1.2c0-0.2,0-0.5,0-0.8c0.8,0.1,1.6,0.3,2.4,0.4c0.4,0.1,0.5,0.2,0.5,0.3
			c0,0.1-0.1,0.3-0.2,0.5c-0.1,0.1-0.1,0.5-0.2,1c-0.1,1.1-0.3,2.1-0.5,3c0.5,1,1.1,1.8,1.8,2.4v-9.6h-1.3l-3.5,0.1
			c-0.1,0-0.2,0-0.3-0.1c0,0,0-0.1,0-0.2v-1.9c0-0.1,0-0.2,0.1-0.3c0,0,0.1,0,0.3,0l3.5,0.1h1.9c-1.1-1.3-2.2-2.4-3.3-3.3
			c-0.1-0.1-0.2-0.2-0.2-0.2c0-0.1,0.1-0.2,0.2-0.3l1.4-0.9c0.1-0.1,0.2-0.2,0.3-0.2C1285,6079.7,1285.1,6079.7,1285.3,6079.8z"/>
		<path class="st6" d="M1305.7,6091.1l2.4,1.7c-0.9,4.6-2.5,6.9-4.9,6.9c-1.5,0-2.7-0.7-3.5-2c-0.8-1.4-1.3-3.6-1.5-6.7
			c-0.1-2-0.2-4.3-0.2-7v-5.4h3c0,0.4,0,1.2-0.1,2.5c0,0.8,0,1.5,0,2.1v2.1c0,2.4,0.1,4.3,0.2,5.7c0.2,2.3,0.5,3.8,0.9,4.7
			c0.3,0.6,0.7,0.9,1.2,0.9c0.6,0,1.1-0.4,1.4-1.1C1305,6094.7,1305.3,6093.2,1305.7,6091.1z M1309.7,6080.9l2.7-0.7
			c2.7,3.9,4.3,9.1,5,15.4l-3.1,0.5C1313.7,6089.8,1312.1,6084.7,1309.7,6080.9z"/>
		<path class="st6" d="M1337.6,6078.3l0.1,2.7c-2,0-3.5,0.4-4.7,1c-3.8,2-5.6,4.9-5.6,8.7c0,3.7,2.8,5.9,8.4,6.4l-0.7,3
			c-7-0.6-10.5-3.7-10.5-9.2c0-2.1,0.6-4.1,1.7-5.8c1-1.5,2.3-2.7,4.1-3.7l1.3-0.5l-0.1-0.2l-1.5,0.4c-2.4,0.3-5.9,0.7-10.6,1.2
			l-0.2-2.8C1324.5,6079.1,1330.6,6078.7,1337.6,6078.3z M1333,6084.8l1.9-0.5c0.7,1.3,1.4,2.8,2,4.6l-1.9,0.6
			C1334.5,6087.8,1333.8,6086.2,1333,6084.8z M1336.4,6083.9l1.9-0.6c0.8,1.4,1.4,2.9,2,4.5l-1.9,0.7
			C1337.7,6086.7,1337.1,6085.2,1336.4,6083.9z"/>
	</g>
	<g class="st5">
		<path class="st6" d="M1140.8,6120.1c0.7,0.4,1.4,0.9,2.1,1.4c0.3,0.2,0.4,0.4,0.4,0.5s-0.1,0.3-0.3,0.4c-0.2,0.1-0.4,0.4-0.7,0.8
			c-0.4,0.7-0.9,1.4-1.3,2v10.2l0.1,3.4c0,0.2-0.1,0.3-0.3,0.3h-2.4c-0.1,0-0.2,0-0.3-0.1s0-0.1,0-0.3l0.1-3.4v-4.1
			c0-1.2,0-2.2,0-2.9c-0.4,0.5-0.9,0.9-1.5,1.4c-0.2,0.2-0.4,0.4-0.6,0.4c-0.1,0-0.3-0.2-0.4-0.6c-0.3-1-0.6-1.6-0.9-2.1
			c2-1.6,3.8-3.6,5.3-6C1140.3,6121.2,1140.5,6120.7,1140.8,6120.1z M1140.7,6113.5c0.9,0.4,1.6,0.9,2.3,1.4
			c0.2,0.2,0.4,0.4,0.4,0.5c0,0.2-0.1,0.3-0.3,0.4c-0.3,0.2-0.6,0.4-0.8,0.7c-1.4,1.8-3,3.4-4.9,4.8c-0.3,0.2-0.5,0.4-0.6,0.4
			s-0.3-0.2-0.5-0.6c-0.4-0.7-0.8-1.3-1.3-1.8c2-1.2,3.6-2.7,4.9-4.4C1140.3,6114.2,1140.6,6113.8,1140.7,6113.5z M1146.6,6138
			l-3.8,0.1c-0.2,0-0.3,0-0.3-0.1c0,0,0-0.1,0-0.3v-2.2c0-0.1,0-0.2,0.1-0.3c0,0,0.1,0,0.3,0l3.8,0.1h3.3v-5.9h-1.8l-3.7,0.1
			c-0.1,0-0.2,0-0.3-0.1s0-0.1,0-0.2v-2.1c0-0.2,0-0.3,0.1-0.3c0,0,0.1,0,0.2,0l3.7,0.1h1.8v-5h-2.4l-3.8,0.1
			c-0.2,0-0.3-0.1-0.3-0.3v-2.2c0-0.2,0.1-0.3,0.3-0.3l3.8,0.1h8.4l3.8-0.1c0.2,0,0.3,0.1,0.3,0.3v2.2c0,0.1,0,0.2-0.1,0.3
			c0,0-0.1,0-0.3,0l-3.8-0.1h-2.9v5h2.1l3.7-0.1c0.1,0,0.2,0,0.3,0.1c0,0,0,0.1,0,0.3v2.1c0,0.1,0,0.2,0,0.3s-0.1,0-0.3,0l-3.7-0.1
			h-2.1v5.9h3.7l3.8-0.1c0.2,0,0.3,0,0.3,0.1c0,0,0,0.1,0,0.2v2.2c0,0.2,0,0.2-0.1,0.3c0,0-0.1,0-0.3,0l-3.8-0.1H1146.6z
			 M1149.6,6113.7c1.5,0.7,3.1,1.6,4.7,2.9c0.1,0.1,0.2,0.1,0.2,0.2s-0.1,0.2-0.2,0.3l-1.4,1.5c-0.2,0.2-0.3,0.3-0.3,0.3
			c-0.1,0-0.1,0-0.2-0.1c-1.4-1.2-3-2.2-4.7-3.1c-0.1-0.1-0.2-0.1-0.2-0.2s0.1-0.2,0.2-0.3l1.4-1.4c0.1-0.2,0.2-0.2,0.3-0.2
			C1149.4,6113.6,1149.5,6113.6,1149.6,6113.7z"/>
		<path class="st6" d="M1166.7,6118.5h3.2l3-0.1c0.1,0,0.2,0,0.3,0.1c0,0,0,0.1,0,0.2v2.1c2.2-1.5,3.9-3.3,5.3-5.5
			c0.3-0.6,0.6-1.2,0.8-1.8c0.7,0.1,1.6,0.3,2.9,0.5c0.3,0.1,0.4,0.2,0.4,0.4c0,0.1-0.1,0.3-0.3,0.4c0,0-0.1,0.1-0.2,0.1
			c1.8,2.6,4.2,4.6,7.4,6.2c-0.4,0.5-0.8,1.2-1.1,2.1c-0.2,0.5-0.3,0.7-0.5,0.7c-0.1,0-0.3-0.1-0.6-0.3c-2.7-1.7-4.9-3.9-6.6-6.4
			c-1.6,2.4-3.6,4.5-6,6.2c-0.3,0.2-0.6,0.3-0.7,0.3c-0.2,0-0.4-0.2-0.6-0.6c-0.4-0.6-0.8-1.2-1.3-1.6l0.8-0.5l-2.9-0.1h-3.2l-3,0.1
			c-0.2,0-0.2,0-0.3-0.1c0,0,0-0.1,0-0.3v-2c0-0.1,0-0.2,0.1-0.3c0,0,0.1,0,0.3,0L1166.7,6118.5z M1172.5,6138.4
			c0,0.2-0.1,0.3-0.3,0.3h-2c-0.2,0-0.2,0-0.3-0.1s0-0.1,0-0.3v-0.9h-2.8v1.4c0,0.1,0,0.2-0.1,0.3c0,0-0.1,0-0.3,0h-2
			c-0.2,0-0.3,0-0.3-0.1c0,0,0-0.1,0-0.3l0.1-4.2v-1.8l-0.1-2.6c0-0.2,0-0.2,0.1-0.3c0,0,0.1,0,0.3,0l2.5,0.1h2.3l2.6-0.1
			c0.2,0,0.3,0.1,0.3,0.3l-0.1,2.1v1.9L1172.5,6138.4z M1167.4,6114.7h2.4l2.5-0.1c0.2,0,0.3,0,0.3,0.1c0,0,0,0.1,0,0.2v1.8
			c0,0.2,0,0.2-0.1,0.3c0,0-0.1,0-0.3,0l-2.5-0.1h-2.4l-2.5,0.1c-0.2,0-0.2,0-0.3-0.1s0-0.1,0-0.3v-1.8c0-0.1,0-0.2,0.1-0.3
			c0,0,0.1,0,0.3,0L1167.4,6114.7z M1167.5,6122.5h2l2.4-0.1c0.2,0,0.3,0,0.3,0.1c0,0,0,0.1,0,0.3v1.8c0,0.1,0,0.2-0.1,0.3
			c0,0-0.1,0-0.3,0l-2.4-0.1h-2l-2.4,0.1c-0.1,0-0.2,0-0.3-0.1c0,0,0-0.1,0-0.2v-1.8c0-0.2,0-0.2,0.1-0.3c0,0,0.1,0,0.2,0
			L1167.5,6122.5z M1167.5,6126.3h2l2.4-0.1c0.2,0,0.3,0,0.3,0.1c0,0,0,0.1,0,0.3v1.8c0,0.2,0,0.2-0.1,0.3c0,0-0.1,0-0.3,0l-2.4-0.1
			h-2l-2.4,0.1c-0.1,0-0.2,0-0.3-0.1c0,0,0-0.1,0-0.3v-1.8c0-0.1,0-0.2,0.1-0.3c0,0,0.1,0,0.2,0L1167.5,6126.3z M1169.9,6132.4h-2.8
			v2.9h2.8V6132.4z M1172.8,6136.7c3-0.7,5.6-1.7,7.7-2.9c1.8-1,3.3-2.3,4.7-3.8c0.5-0.6,0.9-1.1,1.1-1.5c0.8,0.5,1.5,1,2.1,1.5
			c0.2,0.2,0.3,0.4,0.3,0.5s-0.1,0.2-0.3,0.4c-0.2,0.1-0.5,0.4-0.9,0.9c-3,3.4-7.1,5.9-12.1,7.3c-0.3,0.1-0.6,0.1-0.6,0.1
			c-0.2,0-0.4-0.2-0.6-0.7C1173.7,6137.7,1173.3,6137.1,1172.8,6136.7z M1173.4,6126.1c2.7-1,4.9-2.4,6.5-4.2
			c0.3-0.3,0.6-0.7,0.8-1.1c0.6,0.4,1.3,0.9,2,1.4c0.2,0.2,0.3,0.3,0.3,0.5s-0.1,0.2-0.4,0.4c-0.2,0.1-0.5,0.4-0.9,0.8
			c-1.5,1.6-3.4,3-5.9,4.1c-0.3,0.2-0.6,0.2-0.7,0.2c-0.2,0-0.4-0.2-0.6-0.6C1174.3,6127.1,1173.9,6126.6,1173.4,6126.1z
			 M1173.6,6131.3c3.9-1.3,6.9-3.2,9.2-5.8c0.2-0.3,0.5-0.7,0.8-1.2c0.9,0.6,1.6,1.1,2,1.4c0.2,0.2,0.3,0.3,0.3,0.5
			s-0.1,0.3-0.3,0.4c-0.2,0.1-0.5,0.4-0.8,0.7c-2.1,2.4-5,4.4-8.7,6c-0.4,0.1-0.6,0.2-0.7,0.2s-0.4-0.2-0.6-0.7
			C1174.6,6132.4,1174.1,6131.8,1173.6,6131.3z"/>
		<path class="st6" d="M1191.8,6136.1c0.7,0.1,1.5,0.1,2.6,0.1c0.3,0,0.5-0.1,0.6-0.2s0.1-0.3,0.1-0.7v-5.8l-1.6,0.5
			c-0.5,0.2-0.8,0.3-1,0.4s-0.3,0.2-0.4,0.2c-0.2,0-0.3-0.1-0.4-0.3c-0.2-0.7-0.4-1.6-0.6-2.7c0.9-0.1,1.7-0.3,2.6-0.5l1.5-0.4v-5.1
			h-0.8l-2.8,0.1c-0.1,0-0.2,0-0.3-0.1c0,0,0-0.1,0-0.3v-2.1c0-0.2,0-0.2,0.1-0.3c0,0,0.1,0,0.2,0l2.8,0.1h0.8v-1.3
			c0-1.7-0.1-3-0.2-4c1.1,0,2.1,0.1,2.9,0.2c0.3,0,0.5,0.1,0.5,0.3c0,0.1-0.1,0.3-0.2,0.6c-0.1,0.2-0.2,1.2-0.2,2.8v1.4l2.5-0.1
			c0.1,0,0.2,0,0.3,0.1c0,0,0,0.1,0,0.3v2.1c0,0.2,0,0.2-0.1,0.3c0,0-0.1,0-0.3,0l-2.5-0.1v4.1c1.1-0.4,2.1-0.8,2.9-1.1
			c-0.1,0.7-0.1,1.3-0.1,1.9v0.4c0,0.3-0.1,0.5-0.2,0.6s-0.3,0.2-0.7,0.3c-0.3,0.1-1,0.4-2,0.8v1.6v5.7c0,0.8-0.1,1.4-0.2,1.8
			s-0.4,0.7-0.7,0.9c-0.5,0.4-1.7,0.6-3.5,0.6c-0.4,0-0.7,0-0.8-0.1c-0.1-0.1-0.2-0.3-0.2-0.7
			C1192.4,6137.3,1192.1,6136.6,1191.8,6136.1z M1204.8,6117.8v3.6h6.6l3.4-0.1c0.2,0,0.2,0,0.3,0.1s0,0.1,0,0.3l-0.1,2.7v3.5
			l0.1,2.7c0,0.2-0.1,0.3-0.3,0.3l-3.4-0.1h-6.6v4h8.2l3.4-0.1c0.1,0,0.2,0,0.3,0.1c0,0,0,0.1,0,0.3v2.2c0,0.2,0,0.3,0,0.3
			s-0.1,0.1-0.3,0.1l-3.4-0.1h-8.2v1.2c0,0.2-0.1,0.3-0.3,0.3h-2.3c-0.2,0-0.3,0-0.3-0.1c0,0,0-0.1,0-0.2l0.1-5.7v-12l-0.1-5.6
			c0-0.1,0-0.2,0.1-0.3c0,0,0.1,0,0.3,0l3.6,0.1h6.6l3.6-0.1c0.1,0,0.2,0,0.3,0.1s0,0.1,0,0.3v2.2c0,0.2,0,0.3-0.1,0.3
			c0,0-0.1,0-0.2,0l-3.6-0.1h-7.7V6117.8z M1212.1,6127.9v-3.9h-7.4v3.9H1212.1z"/>
		<path class="st6" d="M1223.9,6117.7l-3.6,0.1c-0.1,0-0.2,0-0.3-0.1c0,0,0-0.1,0-0.3v-2.2c0-0.2,0-0.3,0.1-0.3c0,0,0.1,0,0.2,0
			l3.6,0.1h16.4l3.6-0.1c0.2,0,0.3,0,0.3,0.1c0,0,0,0.1,0,0.3v2.2c0,0.2,0,0.3-0.1,0.3c0,0-0.1,0-0.3,0l-3.6-0.1h-5.2
			c-0.6,0.7-1.2,1.4-1.7,1.8v5.2l0.1,2.8c0,0.1,0,0.2-0.1,0.3c0,0-0.1,0-0.2,0h-2.4c-0.1,0-0.2,0-0.3-0.1s0-0.1,0-0.2l0.1-2.8v-2.6
			c-2.6,2-5.6,3.7-9.1,5.1c-0.4,0.1-0.6,0.2-0.6,0.2c-0.1,0-0.3-0.2-0.5-0.7c-0.3-0.7-0.7-1.3-1.1-1.8c5.3-1.8,9.3-4.2,12-7.2
			L1223.9,6117.7L1223.9,6117.7z M1225.4,6139.1h-2.4c-0.1,0-0.2,0-0.3-0.1c0,0,0-0.1,0-0.2l0.1-4.7v-2.3l-0.1-3.1
			c0-0.2,0-0.2,0.1-0.3c0,0,0.1,0,0.2,0l3.9,0.1h10.2l4-0.1c0.1,0,0.2,0,0.3,0.1s0,0.1,0,0.3v2.7v2.6v4.6c0,0.2,0,0.2-0.1,0.3
			c0,0-0.1,0-0.2,0h-2.4c-0.1,0-0.2,0-0.3-0.1s0-0.1,0-0.3v-0.8h-12.6v0.9c0,0.1,0,0.2-0.1,0.3
			C1225.7,6139.1,1225.6,6139.1,1225.4,6139.1z M1225.8,6131.2v4.1h12.6v-4.1H1225.8z M1245.2,6124.8c-0.5,0.7-1,1.3-1.3,2
			c-0.2,0.5-0.4,0.7-0.6,0.7c-0.1,0-0.3-0.1-0.7-0.2c-3.4-1.5-6.1-3.3-8.1-5.4c-0.1-0.1-0.1-0.2-0.1-0.2c0-0.1,0.1-0.2,0.2-0.3
			l1.4-1.2c0.1-0.1,0.2-0.2,0.3-0.2c0,0,0.1,0,0.2,0.1C1238.5,6121.9,1241.4,6123.5,1245.2,6124.8z"/>
		<path class="st6" d="M1253.8,6121.6c-2.5,0.2-5.1,0.4-8,0.5l-0.2-2.7c2.2,0,4.6-0.2,7.1-0.4c-0.5-1.3-1-2.8-1.4-4.4l3.1-0.4
			c0.3,1.6,0.7,3.1,1.2,4.5c2.1-0.3,4.2-0.6,6.1-1l0.3,2.8c-1.8,0.3-3.6,0.5-5.3,0.8c1.2,2.5,3,4.9,5.3,7.5l-1.6,2.4
			c-2.1-1.3-4.4-1.9-6.9-1.9c-1.6,0-2.8,0.3-3.6,0.9c-0.7,0.5-1.1,1.2-1.1,2.1c0,1.2,0.6,2,1.8,2.5c1.1,0.5,2.7,0.7,4.8,0.7
			c1.6,0,2.9-0.1,4.1-0.3v2.9c-1.3,0.2-2.7,0.2-4.1,0.2c-3.3,0-5.7-0.6-7.4-1.7c-1.5-1-2.2-2.5-2.2-4.3c0-1.9,0.8-3.3,2.5-4.3
			c1.3-0.8,3.1-1.1,5.3-1.1c1.6,0,3.1,0.4,4.7,1.1C1256.4,6126.3,1255,6124.2,1253.8,6121.6z"/>
		<path class="st6" d="M1266.8,6114.4h2.8c0,0.7-0.1,1.7-0.2,2.9c0,0.8-0.1,1.4-0.1,1.9l0.9,0.8c0.1,0.1,0.2,0.3,0.2,0.4
			s0,0.3-0.1,0.4c-0.5,0.6-0.9,1.1-1.2,1.7l-0.1,0.8l-0.3,1.1h0.1l0.5-1.1c1.4-1.9,2.7-3.2,3.7-4.1c1.2-1,2.3-1.5,3.3-1.5
			c1.3,0,2.3,0.4,2.9,1.2c0.5,0.8,0.8,2,0.8,3.6c0,1.5-0.1,3.3-0.3,5.5c-0.2,2.4-0.2,4-0.2,4.8s0.3,1.2,0.8,1.2c1,0,1.7-1.4,2.2-4.3
			l2.4,1.6c-0.6,2.3-1.3,3.8-2.1,4.6c-0.7,0.7-1.6,1-2.7,1c-1.2,0-2.1-0.3-2.6-1c-0.5-0.6-0.7-1.5-0.7-2.8c0-1.4,0.1-3.1,0.2-5.1
			c0.2-2.2,0.2-3.9,0.2-5s-0.1-1.9-0.3-2.3c-0.2-0.3-0.4-0.5-0.8-0.5c-1,0-2.1,0.7-3.4,2.1c-0.9,1-2.1,2.6-3.7,4.9v3.5v7.6h-2.7
			c0-2.7,0.1-5.4,0.2-8.1l0.3-1.7h-0.1l-0.5,1.7c-1,2.2-1.8,3.8-2.4,5l-2.2-2c2.8-5,4.4-7.8,4.9-8.6c0-0.6,0-1.2,0.1-1.9
			c0-0.6,0-1,0.1-1.2c-0.7,0.1-2.1,0.2-4.2,0.5l-0.2-2.3c1.7-0.1,3.1-0.2,4.4-0.3C1266.7,6118.5,1266.8,6116.8,1266.8,6114.4z"/>
		<path class="st6" d="M1291.6,6121.3c-1.6,0.1-3,0.1-4.4,0.1v-2.5c1.6,0,3.2,0,4.8-0.1c0.2-1.5,0.4-3.1,0.5-4.6l3,0.3
			c-0.2,1.8-0.5,3.2-0.6,4.2c1.9-0.1,3.9-0.3,6.1-0.5l0.1,2.5c-2,0.2-4.2,0.4-6.6,0.5c-1.1,5.9-2.5,11.5-4.4,16.9l-2.8-1
			C1289.4,6131.5,1290.8,6126.2,1291.6,6121.3z M1295.4,6131.3l2.5,0.2c-0.1,0.6-0.2,1.1-0.2,1.7c0,0.8,0.3,1.3,0.8,1.6
			c0.6,0.3,1.5,0.4,2.9,0.4c1.9,0,3.4-0.1,4.7-0.2l0.2,2.8c-1.4,0.1-3,0.2-4.6,0.2c-2.5,0-4.3-0.4-5.3-1.1c-0.9-0.7-1.3-1.7-1.3-3.1
			C1295.1,6132.9,1295.2,6132.1,1295.4,6131.3z M1296.9,6126.3v-2.6c2.6-0.3,5.3-0.5,8-0.5c0.5,0,0.8,0,1,0v2.5c-0.2,0-0.6,0-1.1,0
			C1301.8,6125.7,1299.1,6125.9,1296.9,6126.3z"/>
	</g>
	<g class="st5">
		<path class="st6" d="M594.7,6401h-2.4c-0.1,0-0.2,0-0.3,0c0,0,0-0.1,0-0.3l0.1-9.1v-5.2l-0.1-7c0-0.1,0-0.2,0.1-0.3
			c0,0,0.1,0,0.3,0l3.9,0.1h1.8c0.3-0.6,0.7-1.5,1-2.6c0.1-0.3,0.2-0.7,0.3-1.3c0.8,0.1,1.8,0.2,3,0.4c0.3,0.1,0.4,0.2,0.4,0.4
			c0,0.1-0.1,0.2-0.2,0.4c-0.2,0.2-0.4,0.5-0.4,0.7c-0.3,0.8-0.7,1.5-1,2.1h5.5l3.9-0.1c0.1,0,0.2,0,0.3,0.1s0,0.1,0,0.2l-0.1,6.2
			v5.9l0.1,9.1c0,0.1,0,0.2-0.1,0.3c0,0-0.1,0-0.2,0H608c-0.2,0-0.2,0-0.3-0.1c0,0,0-0.1,0-0.2v-1.3h-12.6v1.3c0,0.1,0,0.2-0.1,0.3
			C595,6401,594.9,6401,594.7,6401z M595.1,6381.9v3h12.6v-3H595.1z M595.1,6390.7h12.6v-3.1h-12.6V6390.7z M595.1,6396.7h12.6v-3.4
			h-12.6V6396.7z"/>
		<path class="st6" d="M640.9,6388.7C641,6388.7,641,6388.7,640.9,6388.7c0.2,0,0.3,0.1,0.3,0.3l0.2,2.1c0,0.1,0,0.1,0,0.1
			c0,0.1-0.1,0.2-0.3,0.2c-2.3,0.2-3.5,0.4-3.6,0.4l-8,0.9v4.1c0,0.4,0.1,0.7,0.2,0.9c0.1,0.2,0.3,0.3,0.6,0.3
			c0.6,0.1,1.6,0.2,3,0.2c2.2,0,3.5-0.2,4-0.7c0.5-0.4,0.7-1.5,0.8-3.1c0.7,0.4,1.5,0.6,2.2,0.8c0.3,0.1,0.5,0.2,0.6,0.2
			c0.1,0.1,0.1,0.2,0.1,0.4c0,0.1,0,0.2,0,0.4c-0.2,1.8-0.7,3-1.6,3.6c-0.9,0.7-2.8,1-5.9,1c-2.7,0-4.5-0.2-5.3-0.5
			c-1-0.4-1.6-1.3-1.6-2.7v-4.6l-5.6,0.6c-1.6,0.2-2.8,0.4-3.5,0.5c-0.1,0-0.1,0-0.1,0c-0.1,0-0.2-0.1-0.2-0.3l-0.2-2.1v-0.1
			c0,0,0,0,0-0.1s0.1-0.2,0.3-0.2c1.3-0.1,2.4-0.2,3.5-0.3l5.8-0.6v-3.1c-1.9,0.4-3.7,0.7-5.5,0.9c-0.2,0-0.4,0.1-0.5,0.1
			s-0.3-0.1-0.3-0.2c-0.1-0.1-0.1-0.3-0.2-0.6c-0.2-0.7-0.6-1.4-1-1.9c4.7-0.4,9.1-1.2,13.4-2.5c0.7-0.2,1.4-0.5,2.1-0.9
			c0.6,0.5,1.2,1.1,1.8,1.8c0.2,0.2,0.3,0.4,0.3,0.6s-0.2,0.3-0.5,0.3c-0.4,0.1-0.7,0.1-1.1,0.2c-1.7,0.6-3.5,1.1-5.5,1.5v3.4
			l7.8-0.9c1-0.1,1.9-0.2,2.7-0.3C640.6,6388.8,640.9,6388.7,640.9,6388.7z M637.1,6378.5l3.7-0.1c0.2,0,0.3,0.1,0.3,0.3l-0.1,1.5
			v1.2l0.1,3.1c0,0.1,0,0.2-0.1,0.3c0,0-0.1,0-0.2,0h-2.3c-0.2,0-0.3,0-0.3-0.1c0,0,0-0.1,0-0.2v-3.5h-17.8v3.5c0,0.2,0,0.3-0.1,0.3
			c0,0-0.1,0.1-0.2,0.1h-2.4c-0.1,0-0.2,0-0.3-0.1c0,0,0-0.1,0-0.3l0.1-3.1v-1l-0.1-1.8c0-0.2,0.1-0.3,0.3-0.3l3.7,0.1h6.2v-0.2
			c0-1.2-0.1-2.1-0.2-2.7c1,0,2,0.1,3,0.2c0.3,0,0.4,0.1,0.4,0.3c0,0,0,0.2-0.1,0.5c-0.1,0.2-0.1,0.8-0.1,1.7v0.2h6.5V6378.5z"/>
		<path class="st6" d="M662.3,6378.3l0.1,2.7c-2,0-3.5,0.4-4.7,1c-3.8,2-5.6,4.9-5.6,8.7c0,3.7,2.8,5.9,8.4,6.4l-0.7,3
			c-7-0.6-10.5-3.7-10.5-9.2c0-2.1,0.6-4.1,1.7-5.8c1-1.5,2.3-2.7,4.1-3.7l1.3-0.5l-0.1-0.2l-1.5,0.4c-2.4,0.3-5.9,0.7-10.6,1.2
			l-0.2-2.8C649.1,6379.1,655.3,6378.7,662.3,6378.3z M657.7,6384.8l1.9-0.5c0.7,1.3,1.4,2.8,2,4.6l-1.9,0.6
			C659.1,6387.8,658.5,6386.2,657.7,6384.8z M661.1,6383.9l1.9-0.6c0.8,1.4,1.4,2.9,2,4.5l-1.9,0.7
			C662.4,6386.7,661.8,6385.2,661.1,6383.9z"/>
		<path class="st6" d="M676.1,6384.8c0.8,1.8,1.5,3.4,1.9,5c0,0.1,0,0.1,0,0.2s-0.1,0.2-0.4,0.3l-1.4,0.4c-0.1,0-0.2,0.1-0.3,0.1
			s-0.2-0.1-0.2-0.3l-0.3-1.2l-1.7,0.2v7.7l0.1,3.7c0,0.1,0,0.2-0.1,0.3c0,0-0.1,0-0.2,0h-2.1c-0.1,0-0.2,0-0.3-0.1s0-0.1,0-0.3
			l0.1-3.7v-7.5l-2.5,0.2c-0.5,0-0.8,0.1-1,0.2s-0.3,0.1-0.4,0.1c-0.1,0-0.2-0.2-0.3-0.5c-0.1-0.6-0.3-1.4-0.4-2.4
			c0.7,0,1.2,0.1,1.7,0.1c0.2,0,0.4,0,0.6,0c0.5-0.6,1-1.3,1.6-2.1c-1.1-1.3-2.3-2.7-3.8-4.1c-0.1-0.1-0.2-0.2-0.2-0.3
			c0,0,0.1-0.2,0.2-0.4l1-1.4c0.1-0.2,0.2-0.2,0.3-0.2s0.1,0.1,0.2,0.2l0.7,0.8c0.6-1,1.1-2,1.5-2.9c0.3-0.6,0.5-1.1,0.6-1.7
			c1,0.4,1.8,0.7,2.4,1c0.2,0.1,0.4,0.3,0.4,0.5c0,0.1-0.1,0.2-0.3,0.4c-0.2,0.1-0.4,0.4-0.5,0.7c-0.8,1.4-1.6,2.6-2.5,3.9
			c0.9,1,1.3,1.5,1.3,1.5c0.4-0.7,1.1-1.7,1.9-3.1c0.3-0.5,0.6-1.2,0.8-1.9c1.1,0.5,1.9,0.9,2.4,1.2c0.2,0.1,0.3,0.3,0.3,0.4
			c0,0.2-0.1,0.3-0.3,0.4s-0.5,0.5-0.9,1.1c-1.3,2.1-2.7,4.1-4.2,6.1c0.7,0,1.7-0.1,3-0.2c-0.2-0.6-0.5-1.2-0.7-1.6
			c0-0.1-0.1-0.2-0.1-0.2c0-0.1,0.1-0.2,0.3-0.3l1.1-0.5c0.1,0,0.2-0.1,0.3-0.1C675.9,6384.5,676,6384.6,676.1,6384.8z
			 M666.3,6398.3c0.6-1.9,1-3.7,1.1-5.3c0-0.4,0.1-0.7,0.1-0.9c0-0.2,0-0.4,0-0.6c0.7,0.1,1.4,0.2,2.1,0.4c0.3,0.1,0.5,0.2,0.5,0.3
			c0,0.1,0,0.2-0.1,0.4c0,0.1-0.1,0.4-0.2,0.9c-0.3,2.2-0.6,3.9-1,5.2c-0.1,0.4-0.3,0.6-0.4,0.6c-0.1,0-0.3-0.1-0.5-0.2
			C667.4,6398.7,666.9,6398.5,666.3,6398.3z M676.2,6391.4c0.1,0,0.2,0,0.2,0c0.1,0,0.2,0.1,0.2,0.3c0.5,1.8,0.9,3.3,1,4.7
			c0,0.1,0,0.1,0,0.2c0,0.2-0.1,0.3-0.4,0.4l-1.3,0.4c-0.2,0-0.3,0.1-0.3,0.1c-0.1,0-0.1-0.1-0.2-0.3c-0.2-1.7-0.5-3.3-0.9-4.8
			c0-0.1,0-0.1,0-0.2s0.1-0.2,0.4-0.3L676.2,6391.4z M687.2,6394.1h-1.6v3.7h2.6l3.7-0.1c0.2,0,0.3,0,0.3,0.1c0,0,0,0.1,0,0.2v2
			c0,0.1,0,0.2-0.1,0.3c0,0-0.1,0-0.3,0l-3.7-0.1h-7.7l-3.7,0.1c-0.2,0-0.2,0-0.3-0.1s0-0.1,0-0.2v-2c0-0.2,0.1-0.3,0.3-0.3l3.7,0.1
			h2.3v-3.7h-0.9l-3.3,0.1c-0.1,0-0.2,0-0.3-0.1c0,0,0-0.1,0-0.3v-1.9c0-0.1,0-0.2,0.1-0.3c0,0,0.1,0,0.3,0l3.3,0.1h0.9v-0.6
			c0-1.4-0.1-2.4-0.2-2.9c0.8,0,1.7,0.1,2.8,0.2c0.3,0,0.5,0.1,0.5,0.3c0,0.1-0.1,0.3-0.2,0.5c-0.1,0.2-0.2,0.8-0.2,1.7v0.8h1.6
			l3.4-0.1c0.2,0,0.3,0,0.3,0.1c0,0,0,0.1,0,0.3v1.9c0,0.1,0,0.2,0,0.3c0,0-0.1,0-0.3,0L687.2,6394.1z M692.2,6386.6
			c-0.4,0.6-0.7,1.3-1,2.1c-0.1,0.4-0.3,0.7-0.5,0.7c-0.1,0-0.3,0-0.6-0.1c-2.2-0.7-4.1-1.6-5.7-2.7c-1.3,0.9-2.9,1.7-4.8,2.4
			c-0.4,0.1-0.6,0.2-0.7,0.2c-0.2,0-0.4-0.2-0.5-0.6c-0.3-0.6-0.7-1.2-1.2-1.8c1.9-0.5,3.6-1.2,5.1-2.1c-1.4-1.4-2.5-3.3-3.4-5.5
			c-0.2,0-0.5,0-0.9,0c-0.2,0-0.4,0-0.4,0c-0.1,0-0.1,0-0.2,0l-0.3-0.1c0,0,0-0.1,0-0.2v-1.9c0-0.1,0-0.2,0.1-0.3c0,0,0.1,0,0.2,0
			l3.5,0.1h7c0.3,0,0.5,0,0.6-0.1s0.3-0.1,0.4-0.1c0.2,0,0.6,0.3,1.2,0.8c0.6,0.5,0.9,0.9,0.9,1.1c0,0.1-0.1,0.3-0.3,0.5
			c-0.2,0.1-0.5,0.5-0.8,1.2c-0.9,1.8-2,3.3-3.3,4.6C688.1,6385.5,690,6386.2,692.2,6386.6z M687.3,6379.2h-5.7
			c0.7,1.6,1.6,2.9,2.8,4C685.7,6382.1,686.7,6380.7,687.3,6379.2z"/>
		<path class="st6" d="M720.6,6397.4c-0.4,0.6-0.6,1.2-0.7,2c-0.1,0.5-0.2,0.7-0.3,0.8c-0.1,0.1-0.3,0.1-0.8,0.1
			c-3.4,0.2-6.7,0.3-9.8,0.3c-3,0-5.2-0.3-6.5-0.8c-1.2-0.5-2.2-1.3-2.9-2.4c-0.7,0.7-1.6,1.4-2.7,2.3c-0.3,0.2-0.5,0.4-0.6,0.6
			s-0.3,0.2-0.4,0.2c-0.1,0-0.3-0.1-0.4-0.4c-0.3-0.7-0.7-1.5-1.1-2.5c0.7-0.3,1.2-0.6,1.7-0.9c0.7-0.4,1.4-1,2.1-1.7v-6.3H697
			l-2,0.1c-0.2,0-0.3,0-0.3-0.1c0,0,0-0.1,0-0.3v-2.1c0-0.1,0-0.2,0.1-0.3c0,0,0.1,0,0.3,0l2,0.1h1.7l2-0.1c0.2,0,0.2,0,0.3,0.1
			s0,0.1,0,0.2l-0.1,2.7v6c0.5,1.1,1.4,1.8,2.5,2.3c1,0.4,2.7,0.5,5.3,0.5C712.9,6398,716.9,6397.8,720.6,6397.4z M695.3,6378.1
			c-0.1-0.1-0.1-0.1-0.1-0.2s0.1-0.2,0.3-0.3l1.4-1c0.2-0.1,0.3-0.2,0.3-0.2c0.1,0,0.2,0,0.3,0.1c1.4,1.3,2.6,2.7,3.5,4.2
			c0.1,0.1,0.1,0.2,0.1,0.2c0,0.1-0.1,0.2-0.3,0.3l-1.5,1.2c-0.2,0.1-0.3,0.2-0.3,0.2c-0.1,0-0.2-0.1-0.2-0.2
			C697.7,6380.7,696.6,6379.2,695.3,6378.1z M711.8,6388.7l2.2-0.1c0.2,0,0.2,0,0.3,0.1c0,0,0,0.1,0,0.3l-0.1,1.8v1.8
			c0,0.8,0,1.3,0,1.5c0.3,0,0.6,0,1.1,0s0.7-0.3,0.7-0.8v-6.2h-10.6v6.2l0.1,3c0,0.1,0,0.2,0,0.3c0,0-0.1,0-0.3,0H703
			c-0.2,0-0.3,0-0.3-0.1c0,0,0-0.1,0-0.2l0.1-3.1v-5.2l-0.1-2.9c0-0.2,0-0.2,0.1-0.3c0,0,0.1,0,0.3,0c0,0,0.1,0,0.2,0
			c0.4,0,0.8,0,1.3,0v-5.3l-0.1-2.8c0-0.2,0-0.2,0.1-0.3c0,0,0.1,0,0.3,0l3.4,0.1h5.3l3.4-0.1c0.1,0,0.2,0,0.3,0.1c0,0,0,0.1,0,0.3
			l-0.1,2.8v5.3c0.3,0,0.7,0,1,0c0.2,0,0.4,0,0.4,0c0.2,0,0.2,0,0.3,0.1s0,0.1,0,0.3l-0.1,2.7v1.8l0.1,4.4c0,0.9-0.2,1.6-0.6,2
			c-0.5,0.4-1.5,0.6-3,0.6c-0.4,0-0.7,0-0.8-0.1s-0.1-0.2-0.2-0.5c-0.1-0.6-0.2-1-0.3-1.3l-2.1-0.1h-2.2l-2.2,0.1
			c-0.2,0-0.2,0-0.3-0.1s0-0.1,0-0.3l0.1-1.8v-1.8l-0.1-1.8c0-0.2,0-0.3,0.1-0.3c0,0,0.1,0,0.3,0l2.2,0.1h2V6388.7z M714.5,6378.9
			h-7.3v6h2.1v-2.2v-2c0-0.1,0-0.2,0.1-0.3c0,0,0.1,0,0.2,0l2.1,0.1h2.8L714.5,6378.9L714.5,6378.9z M709.4,6390.6v2.2h2.6v-2.2
			H709.4z M711.8,6385h2.7v-2.4h-2.7V6385z"/>
		<path class="st6" d="M730.8,6379.6c2.7-0.1,5.1-0.3,7.2-0.5l0.1,2.4c-3.2,0.2-6.1,0.4-8.6,0.5c-0.7,1.2-1.4,2.3-2.2,3.2l-0.6,0.6
			l0.1,0.1l0.7-0.5c0.8-0.5,1.6-0.8,2.4-0.8c0.9,0,1.7,0.3,2.3,0.9c0.6,0.5,0.9,1.3,1.1,2.2c0.8-0.3,2.6-1.2,5.6-2.4l1.1,2.6
			c-2.5,0.8-4.7,1.7-6.6,2.5v5.4h-2.6v-4.2c-1.7,0.9-2.8,1.6-3.4,2.2c-0.5,0.5-0.8,1.1-0.8,1.7c0,0.8,0.4,1.3,1.1,1.6
			c0.7,0.3,2,0.5,3.9,0.5c2.1,0,4.5-0.1,7.3-0.4l0.1,2.6c-2.5,0.2-5.1,0.3-7.7,0.3c-3,0-5-0.4-6-1.3c-0.8-0.6-1.2-1.7-1.2-3.1
			c0-1.3,0.5-2.5,1.5-3.5s2.8-2.1,5.2-3.3c0-0.9-0.2-1.5-0.5-1.8c-0.2-0.2-0.6-0.4-1-0.4c-0.9,0-1.9,0.5-3.1,1.5
			c-0.9,0.7-1.9,1.8-3.1,3.3l-2.1-1.8c2.5-2.5,4.4-5.1,5.7-7.7c-0.5,0-1.3,0-2.2,0c-0.6,0-1.5,0-2.7-0.1v-2.5
			c1.2,0.1,2.2,0.1,3.1,0.1c1.3,0,2.3,0,3,0c0.4-1,0.8-2.3,1.1-3.7l2.9,0.5C731.6,6377.6,731.2,6378.6,730.8,6379.6z"/>
		<path class="st6" d="M764.3,6394.6c0.6,0.4,1.3,0.7,2,1c0.3,0.1,0.5,0.2,0.5,0.2c0.1,0.1,0.1,0.2,0.1,0.3c0,0.1,0,0.2,0,0.4
			c-0.1,1-0.2,1.8-0.5,2.2c-0.2,0.4-0.5,0.7-0.8,1c-0.7,0.6-2.3,0.8-4.7,0.8c-2.1,0-3.5-0.1-4.2-0.4c-0.8-0.3-1.1-1-1.1-2v-5.8h-2.5
			c-0.8,4.7-3.7,7.6-8.6,8.6c-0.3,0.1-0.5,0.1-0.6,0.1c-0.2,0-0.4-0.2-0.6-0.7c-0.4-0.7-0.8-1.3-1.4-1.8c4.8-0.6,7.6-2.7,8.1-6.2
			l0,0l-3.8,0.1c-0.2,0-0.3,0-0.3-0.1c0,0,0-0.1,0-0.3l0.1-3.4v-8.4l-0.1-3.5c0-0.1,0-0.2,0.1-0.3c0,0,0.1,0,0.3,0l3.8,0.1h9
			l3.8-0.1c0.2,0,0.2,0,0.3,0.1s0,0.1,0,0.2l-0.1,3.5v8.4l0.1,3.4c0,0.1,0,0.2,0,0.3c0,0-0.1,0-0.3,0l-3.8-0.1h-0.5v4.4
			c0,0.5,0.2,0.8,0.5,0.9s1,0.1,2.2,0.1c1.3,0,2.1-0.1,2.4-0.4C764.1,6397.2,764.3,6396.3,764.3,6394.6z M760.2,6379.2h-11.4v2.1
			h11.4V6379.2z M748.8,6385.6h11.4v-2h-11.4V6385.6z M760.2,6390v-2.1h-11.4v2.1H760.2z"/>
		<path class="st6" d="M770.5,6377.9c3.3,0,7.4-0.1,12-0.4l1.4,2.1c-2,1.9-4.7,4.3-8.1,7.2l-1.1,0.9l0.1,0.1l1.3-0.8
			c1-0.4,2-0.6,2.9-0.6c2.4,0,4.3,0.7,5.6,2c1.2,1.2,1.7,2.7,1.7,4.6c0,2.6-0.9,4.6-2.7,5.9c-1.6,1.1-3.9,1.7-6.8,1.7
			c-3.9,0-5.8-1.4-5.8-4.1c0-1.1,0.5-2,1.4-2.7c0.8-0.6,1.8-1,3-1c1.4,0,2.7,0.5,3.7,1.4c0.9,0.8,1.6,1.9,2,3.3
			c1.5-0.6,2.3-2.1,2.3-4.4c0-1.5-0.5-2.6-1.5-3.4c-0.8-0.7-1.9-1-3.2-1c-2.3,0-4.4,0.9-6.5,2.6c-0.9,0.8-1.8,1.6-2.5,2.6l-2.2-1.9
			c5.1-5.2,9-9.1,11.9-11.8c-3.1,0.3-6.1,0.5-9,0.5L770.5,6377.9z M778.5,6398.2c-0.2-1.1-0.6-2-1.2-2.6c-0.5-0.5-1.1-0.7-1.8-0.7
			c-0.6,0-1.1,0.2-1.4,0.5c-0.3,0.3-0.5,0.6-0.5,1.1c0,1.3,1.1,2,3.3,2C777.2,6398.4,777.8,6398.3,778.5,6398.2z"/>
		<path class="st6" d="M796.7,6384.5c0.1,3,0.3,5.4,0.5,7.3c2.8,0.8,5.5,2.4,7.9,4.8l-2,2.5c-1.9-2.4-3.8-3.9-5.7-4.5
			c0,0.3,0.1,0.7,0.1,1c0,3-2,4.5-6,4.5c-1.8,0-3.2-0.4-4-1.3c-0.8-0.7-1.2-1.8-1.2-3.1c0-1.4,0.6-2.6,1.9-3.4c1-0.7,2.3-1,3.7-1
			c0.9,0,1.8,0,2.4,0.1c-0.3-2.9-0.5-7.9-0.7-15.1h3c0,2.5,0,4.4,0,5.7c2.8-0.1,5.3-0.2,7.3-0.5v2.5
			C801.6,6384.3,799.2,6384.5,796.7,6384.5z M794.5,6394c-0.8-0.2-1.7-0.3-2.6-0.3c-1,0-1.9,0.2-2.4,0.7c-0.5,0.4-0.7,0.8-0.7,1.3
			c0,1.3,0.9,1.9,2.8,1.9c2,0,3-0.8,3-2.3C794.6,6394.8,794.5,6394.4,794.5,6394z"/>
		<path class="st6" d="M802.5,6384.3c3.6-1,6.5-1.5,8.8-1.5c2.1,0,3.7,0.7,4.6,2c0.8,1.1,1.1,2.7,1.1,4.8c0,3-0.8,5.3-2.5,7.1
			c-1.8,1.9-4.3,3.2-7.6,4l-1.5-2.6c3.1-0.7,5.4-1.8,6.7-3.2c1.2-1.3,1.8-3.1,1.8-5.4c0-2.7-0.9-4-2.8-4c-1.8,0-4.3,0.6-7.6,1.7
			L802.5,6384.3z M805.9,6376.2c2.9,0.7,6.3,1.3,10.2,1.7l-0.6,2.8c-3.8-0.4-7.2-1-10.3-1.8L805.9,6376.2z"/>
		<path class="st6" d="M822.6,6377.6c-0.5,2.2-0.9,4.6-1.2,7.3c-0.3,2.3-0.4,4.3-0.4,5.9c0,3.4,0.2,6.3,0.7,8.9l-2.9,0.3
			c-0.4-2.8-0.6-5.9-0.6-9.2c0-2,0.2-4.4,0.5-7.3c0.3-2.2,0.6-4.3,1-6.2L822.6,6377.6z M824.2,6391.6l2.7,0.2
			c-0.2,0.7-0.3,1.5-0.3,2.1c0,0.9,0.3,1.5,0.9,1.9c0.5,0.3,1.4,0.5,2.5,0.5c2,0,3.9-0.1,5.9-0.3l0.1,2.9c-1.6,0.1-3.6,0.2-5.8,0.2
			c-2.3,0-4-0.4-5-1.3c-0.9-0.8-1.4-1.9-1.4-3.4C823.9,6393.5,824,6392.6,824.2,6391.6z M824.8,6383.2v-2.8c2.4-0.2,4.8-0.2,7.3-0.2
			c1.2,0,2.5,0,3.7,0.1v2.7c-0.9-0.1-2.2-0.1-3.9-0.1C829.6,6382.9,827.2,6383,824.8,6383.2z"/>
	</g>
	<g class="st5">
		<path class="st6" d="M541.9,6421.2l-3.5,0.1c-0.2,0-0.2,0-0.3-0.1s0-0.1,0-0.2v-2.1c0-0.2,0-0.2,0.1-0.3c0,0,0.1,0,0.3,0l3.5,0.1
			h17.3l3.5-0.1c0.1,0,0.2,0,0.3,0.1c0,0,0,0.1,0,0.3v2.1c0,0.1,0,0.2-0.1,0.3c0,0-0.1,0-0.2,0l-3.5-0.1L541.9,6421.2L541.9,6421.2z
			 M544.2,6439.2h-2.3c-0.2,0-0.3,0-0.3-0.1c0,0,0-0.1,0-0.2l0.1-4v-1.6l-0.1-2.4c0-0.2,0-0.3,0.1-0.3c0,0,0.1,0,0.3,0l3.9,0.1h9.4
			l3.9-0.1c0.2,0,0.2,0,0.3,0.1c0,0,0,0.1,0,0.3l-0.1,2v1.8l0.1,4c0,0.2,0,0.2-0.1,0.3c0,0-0.1,0-0.3,0h-2.3c-0.2,0-0.3,0-0.3-0.1
			c0,0-0.1-0.1-0.1-0.3v-0.8h-11.9v1c0,0.1,0,0.2-0.1,0.3C544.4,6439.2,544.3,6439.2,544.2,6439.2z M545.8,6417l-3.8,0.1
			c-0.1,0-0.2,0-0.3-0.1c0,0,0-0.1,0-0.2v-1.9c0-0.2,0-0.3,0.1-0.3c0,0,0.1,0,0.3,0l3.8,0.1h9.3l3.8-0.1c0.1,0,0.2,0,0.3,0.1
			c0,0,0,0.1,0,0.3v1.9c0,0.1,0,0.2-0.1,0.3c0,0-0.1,0-0.2,0l-3.8-0.1L545.8,6417L545.8,6417z M546.2,6425.1l-3.8,0.1
			c-0.2,0-0.2,0-0.3-0.1s0-0.1,0-0.2v-1.9c0-0.2,0.1-0.3,0.3-0.3h3.8h8.5h3.8c0.2,0,0.3,0,0.3,0.1c0,0,0,0.1,0,0.2v1.9
			c0,0.1,0,0.2-0.1,0.3c0,0-0.1,0-0.3,0l-3.8-0.1H546.2z M546.2,6429l-3.8,0.1c-0.2,0-0.2,0-0.3-0.1s0-0.1,0-0.2v-1.9
			c0-0.1,0-0.2,0.1-0.3c0,0,0.1,0,0.3,0l3.8,0.1h8.5l3.8-0.1c0.2,0,0.3,0,0.3,0.1c0,0,0,0.1,0,0.2v1.9c0,0.1,0,0.2-0.1,0.3
			c0,0-0.1,0-0.3,0l-3.8-0.1H546.2z M544.5,6433v2.6h11.9v-2.6H544.5z"/>
		<path class="st6" d="M573.7,6414.3c-0.1,1.2-0.1,2.6-0.2,4.2l0.9-0.1l0.3,1.5c-0.7,0.9-1.2,1.6-1.4,2.1l-0.1,0.6l-0.2,1l0.6-1
			c1-1.3,2.1-2.3,3.5-3c1.1-0.6,2.2-0.8,3.2-0.8c2.3,0,4.1,0.9,5.3,2.6c1.1,1.6,1.7,3.7,1.7,6.4c0,3.1-0.8,5.4-2.5,7
			c-1.5,1.4-3.8,2.4-6.8,2.8l-1.4-2.4c2.9-0.3,4.9-1.2,6.2-2.6c1-1.2,1.6-2.9,1.6-5c0-2.2-0.5-3.8-1.4-5c-0.8-1-1.7-1.4-2.9-1.4
			c-2.3,0-4.5,1.5-6.6,4.5c0,0.9,0,2.6,0,5c0,3.5,0,6.1,0,7.6h-2.8c0-1.1,0-4,0.1-8.7l0.2-1.9l-0.1-0.1l-0.6,1.7
			c-0.4,0.9-1.2,2.5-2.3,4.6l-2.1-1.9c1.4-2.5,3.1-5.3,4.9-8.5l0.1-2.6c-0.3,0-1.7,0.2-4.2,0.5l-0.2-2.3c2.5-0.2,3.9-0.4,4.4-0.4
			c0-0.8,0-2.3,0.1-4.5L573.7,6414.3L573.7,6414.3z"/>
		<path class="st6" d="M595.6,6414.4h2.8c0,0.7-0.1,1.7-0.2,2.9c0,0.8-0.1,1.4-0.1,1.9l0.9,0.8c0.1,0.1,0.2,0.3,0.2,0.4
			s0,0.3-0.1,0.4c-0.5,0.6-0.9,1.1-1.2,1.7l-0.1,0.8l-0.3,1.1h0.1l0.5-1.1c1.4-1.9,2.7-3.2,3.7-4.1c1.2-1,2.3-1.5,3.3-1.5
			c1.3,0,2.3,0.4,2.9,1.2c0.5,0.8,0.8,2,0.8,3.6c0,1.5-0.1,3.3-0.3,5.5c-0.2,2.4-0.2,4-0.2,4.8s0.3,1.2,0.8,1.2c1,0,1.7-1.4,2.2-4.3
			l2.4,1.6c-0.6,2.3-1.3,3.8-2.1,4.6c-0.7,0.7-1.6,1-2.7,1c-1.2,0-2.1-0.3-2.6-1c-0.5-0.6-0.7-1.5-0.7-2.8c0-1.4,0.1-3.1,0.2-5.1
			c0.2-2.2,0.2-3.9,0.2-5s-0.1-1.9-0.3-2.3c-0.2-0.3-0.4-0.5-0.8-0.5c-1,0-2.1,0.7-3.4,2.1c-0.9,1-2.1,2.6-3.7,4.9v3.5v7.6h-2.7
			c0-2.7,0.1-5.4,0.2-8.1l0.3-1.7h-0.1l-0.5,1.7c-1,2.2-1.8,3.8-2.4,5l-2.2-2c2.8-5,4.4-7.8,4.9-8.6c0-0.6,0-1.2,0.1-1.9
			c0-0.6,0-1,0.1-1.2c-0.7,0.1-2.1,0.2-4.2,0.5l-0.2-2.3c1.7-0.1,3.1-0.2,4.4-0.3C595.5,6418.5,595.5,6416.8,595.6,6414.4z"/>
		<path class="st6" d="M621.6,6420.1c0.7,0.4,1.4,0.9,2.1,1.4c0.3,0.2,0.4,0.4,0.4,0.5s-0.1,0.3-0.3,0.4s-0.4,0.4-0.7,0.8
			c-0.4,0.7-0.9,1.4-1.3,2v10.2l0.1,3.4c0,0.2-0.1,0.3-0.3,0.3h-2.4c-0.1,0-0.2,0-0.3-0.1s0-0.1,0-0.3l0.1-3.4v-4.1
			c0-1.2,0-2.2,0-2.9c-0.4,0.5-0.9,0.9-1.5,1.4c-0.2,0.2-0.4,0.4-0.6,0.4c-0.1,0-0.3-0.2-0.4-0.6c-0.3-1-0.6-1.6-0.9-2.1
			c2-1.6,3.8-3.6,5.3-6C621.1,6421.2,621.4,6420.7,621.6,6420.1z M621.5,6413.5c0.9,0.4,1.6,0.9,2.3,1.4c0.2,0.2,0.4,0.4,0.4,0.5
			c0,0.2-0.1,0.3-0.3,0.4c-0.3,0.2-0.6,0.4-0.8,0.7c-1.4,1.8-3,3.4-4.9,4.8c-0.3,0.2-0.5,0.4-0.6,0.4s-0.3-0.2-0.5-0.6
			c-0.4-0.7-0.8-1.3-1.3-1.8c2-1.2,3.6-2.7,4.9-4.4C621.1,6414.2,621.4,6413.8,621.5,6413.5z M627.4,6438l-3.8,0.1
			c-0.2,0-0.3,0-0.3-0.1c0,0,0-0.1,0-0.3v-2.2c0-0.1,0-0.2,0.1-0.3c0,0,0.1,0,0.3,0l3.8,0.1h3.3v-5.9H629l-3.7,0.1
			c-0.1,0-0.2,0-0.3-0.1s0-0.1,0-0.2v-2.1c0-0.2,0-0.3,0.1-0.3c0,0,0.1,0,0.2,0l3.7,0.1h1.8v-5h-2.4l-3.8,0.1
			c-0.2,0-0.3-0.1-0.3-0.3v-2.2c0-0.2,0.1-0.3,0.3-0.3l3.8,0.1h8.4l3.8-0.1c0.2,0,0.3,0.1,0.3,0.3v2.2c0,0.1,0,0.2-0.1,0.3
			c0,0-0.1,0-0.3,0l-3.8-0.1h-2.9v5h2.1l3.7-0.1c0.1,0,0.2,0,0.3,0.1c0,0,0,0.1,0,0.3v2.1c0,0.1,0,0.2,0,0.3c0,0-0.1,0-0.3,0
			l-3.7-0.1h-2.1v5.9h3.7l3.8-0.1c0.2,0,0.3,0,0.3,0.1c0,0,0,0.1,0,0.2v2.2c0,0.2,0,0.2-0.1,0.3c0,0-0.1,0-0.3,0l-3.8-0.1H627.4z
			 M630.4,6413.7c1.5,0.7,3.1,1.6,4.7,2.9c0.1,0.1,0.2,0.1,0.2,0.2s-0.1,0.2-0.2,0.3l-1.4,1.5c-0.2,0.2-0.3,0.3-0.3,0.3
			c-0.1,0-0.1,0-0.2-0.1c-1.4-1.2-3-2.2-4.7-3.1c-0.1-0.1-0.2-0.1-0.2-0.2s0.1-0.2,0.2-0.3l1.4-1.4c0.1-0.2,0.2-0.2,0.3-0.2
			C630.2,6413.6,630.3,6413.6,630.4,6413.7z"/>
		<path class="st6" d="M647.5,6418.5h3.2l3-0.1c0.1,0,0.2,0,0.3,0.1c0,0,0,0.1,0,0.2v2.1c2.2-1.5,3.9-3.3,5.3-5.5
			c0.3-0.6,0.6-1.2,0.8-1.8c0.7,0.1,1.6,0.3,2.9,0.5c0.3,0.1,0.4,0.2,0.4,0.4c0,0.1-0.1,0.3-0.3,0.4c0,0-0.1,0.1-0.2,0.1
			c1.8,2.6,4.2,4.6,7.4,6.2c-0.4,0.5-0.8,1.2-1.1,2.1c-0.2,0.5-0.3,0.7-0.5,0.7c-0.1,0-0.3-0.1-0.6-0.3c-2.7-1.7-4.9-3.9-6.6-6.4
			c-1.6,2.4-3.6,4.5-6,6.2c-0.3,0.2-0.6,0.3-0.7,0.3c-0.2,0-0.4-0.2-0.6-0.6c-0.4-0.6-0.8-1.2-1.3-1.6l0.8-0.5l-2.9-0.1h-3.2l-3,0.1
			c-0.2,0-0.2,0-0.3-0.1c0,0,0-0.1,0-0.3v-2c0-0.1,0-0.2,0.1-0.3c0,0,0.1,0,0.3,0L647.5,6418.5z M653.3,6438.4
			c0,0.2-0.1,0.3-0.3,0.3h-2c-0.2,0-0.2,0-0.3-0.1s0-0.1,0-0.3v-0.9h-2.8v1.4c0,0.1,0,0.2-0.1,0.3c0,0-0.1,0-0.3,0h-2
			c-0.2,0-0.3,0-0.3-0.1c0,0,0-0.1,0-0.3l0.1-4.2v-1.8l-0.1-2.6c0-0.2,0-0.2,0.1-0.3c0,0,0.1,0,0.3,0l2.5,0.1h2.3l2.6-0.1
			c0.2,0,0.3,0.1,0.3,0.3l-0.1,2.1v1.9L653.3,6438.4z M648.2,6414.7h2.4l2.5-0.1c0.2,0,0.3,0,0.3,0.1c0,0,0,0.1,0,0.2v1.8
			c0,0.2,0,0.2-0.1,0.3c0,0-0.1,0-0.3,0l-2.5-0.1h-2.4l-2.5,0.1c-0.2,0-0.2,0-0.3-0.1s0-0.1,0-0.3v-1.8c0-0.1,0-0.2,0.1-0.3
			c0,0,0.1,0,0.3,0L648.2,6414.7z M648.3,6422.5h2l2.4-0.1c0.2,0,0.3,0,0.3,0.1c0,0,0,0.1,0,0.3v1.8c0,0.1,0,0.2-0.1,0.3
			c0,0-0.1,0-0.3,0l-2.4-0.1h-2l-2.4,0.1c-0.1,0-0.2,0-0.3-0.1c0,0,0-0.1,0-0.2v-1.8c0-0.2,0-0.2,0.1-0.3c0,0,0.1,0,0.2,0
			L648.3,6422.5z M648.3,6426.3h2l2.4-0.1c0.2,0,0.3,0,0.3,0.1c0,0,0,0.1,0,0.3v1.8c0,0.2,0,0.2-0.1,0.3c0,0-0.1,0-0.3,0l-2.4-0.1
			h-2l-2.4,0.1c-0.1,0-0.2,0-0.3-0.1c0,0,0-0.1,0-0.3v-1.8c0-0.1,0-0.2,0.1-0.3c0,0,0.1,0,0.2,0L648.3,6426.3z M650.7,6432.4h-2.8
			v2.9h2.8V6432.4z M653.6,6436.7c3-0.7,5.6-1.7,7.7-2.9c1.8-1,3.3-2.3,4.7-3.8c0.5-0.6,0.9-1.1,1.1-1.5c0.8,0.5,1.5,1,2.1,1.5
			c0.2,0.2,0.3,0.4,0.3,0.5s-0.1,0.2-0.3,0.4c-0.2,0.1-0.5,0.4-0.9,0.9c-3,3.4-7.1,5.9-12.1,7.3c-0.3,0.1-0.6,0.1-0.6,0.1
			c-0.2,0-0.4-0.2-0.6-0.7C654.5,6437.7,654.1,6437.1,653.6,6436.7z M654.2,6426.1c2.7-1,4.9-2.4,6.5-4.2c0.3-0.3,0.6-0.7,0.8-1.1
			c0.6,0.4,1.3,0.9,2,1.4c0.2,0.2,0.3,0.3,0.3,0.5s-0.1,0.2-0.4,0.4c-0.2,0.1-0.5,0.4-0.9,0.8c-1.5,1.6-3.4,3-5.9,4.1
			c-0.3,0.2-0.6,0.2-0.7,0.2c-0.2,0-0.4-0.2-0.6-0.6C655.1,6427.1,654.7,6426.6,654.2,6426.1z M654.5,6431.3
			c3.9-1.3,6.9-3.2,9.2-5.8c0.2-0.3,0.5-0.7,0.8-1.2c0.9,0.6,1.6,1.1,2,1.4c0.2,0.2,0.3,0.3,0.3,0.5s-0.1,0.3-0.3,0.4
			s-0.5,0.4-0.8,0.7c-2.1,2.4-5,4.4-8.7,6c-0.4,0.1-0.6,0.2-0.7,0.2c-0.1,0-0.4-0.2-0.6-0.7C655.4,6432.4,655,6431.8,654.5,6431.3z"
			/>
		<path class="st6" d="M670.6,6414.7h3.1c-0.3,10.9-0.5,16.7-0.5,17.4c0,1.3,0.3,2.2,0.9,2.7c0.6,0.5,1.4,0.8,2.6,0.8
			c3.7,0,6-2.5,6.9-7.4l2.9,1.5c-1.4,5.8-4.7,8.7-9.6,8.7c-2.5,0-4.2-0.5-5.2-1.6c-0.9-1-1.4-2.6-1.4-4.7c0-0.7,0-3.2,0.1-7.3
			C670.4,6420.7,670.5,6417.3,670.6,6414.7z"/>
		<path class="st6" d="M703.1,6416.3l0.1,2.7c-2,0-3.5,0.4-4.7,1c-3.8,2-5.6,4.9-5.6,8.7c0,3.7,2.8,5.9,8.4,6.4l-0.7,3
			c-7-0.6-10.5-3.7-10.5-9.2c0-2.1,0.6-4.1,1.7-5.8c1-1.5,2.3-2.7,4.1-3.7l1.3-0.5l-0.1-0.2l-1.5,0.4c-2.4,0.3-5.9,0.7-10.6,1.2
			l-0.2-2.8C690,6417.1,696.1,6416.7,703.1,6416.3z"/>
		<path class="st6" d="M707.7,6418.5c0.1-1.1,0.3-2.5,0.4-4.1l2.9,0.2c-0.2,1.4-0.3,2.7-0.5,3.9c2.7-0.1,5.1-0.2,7.4-0.4v2.5
			c-2.6,0.1-5.2,0.2-7.7,0.2l-0.4,3.9c2.9,0,5.5-0.2,7.8-0.3v2.6c-2.3,0.1-4.9,0.2-8,0.3c-0.3,2.8-0.5,4.8-0.5,6.1
			c0,1.7,1.2,2.5,3.7,2.5c2,0,3.4-0.3,4.2-0.8c0.7-0.4,1-1.1,1-2c0-1.2-0.5-2.5-1.6-3.8l2.5-1c1.4,1.6,2.1,3.2,2.1,4.8
			c0,3.7-2.7,5.6-8.2,5.6c-2.4,0-4.1-0.5-5.2-1.5c-0.9-0.8-1.3-2.1-1.3-3.7c0-1,0.2-3,0.5-6c-0.9,0-2.3,0-4.2-0.1v-2.5
			c1,0.1,2.5,0.1,4.4,0.1c0.1-0.9,0.2-2.2,0.4-3.9c-0.9,0-2.4,0-4.6-0.1v-2.4C704.4,6418.4,706,6418.5,707.7,6418.5z"/>
		<path class="st6" d="M723.6,6419.4c-0.4,3-0.7,5.5-0.9,7.6l-0.4,1.7l0.9-1.3c1.8-2,4-3,6.5-3c2.3,0,4,0.6,5.2,1.8
			c1.1,1.1,1.6,2.6,1.6,4.5c0,1.5-0.4,2.7-1.1,3.7c-0.6,0.8-1.5,1.6-2.7,2.2c-2,1-5.1,1.6-9.2,1.7l-1-2.7h0.3c3.6,0,6.3-0.5,8.1-1.4
			c1.6-0.8,2.5-2.2,2.5-4c0-1.1-0.4-2-1.1-2.6c-0.6-0.5-1.5-0.8-2.7-0.8c-2.2,0-4.1,0.9-5.7,2.7c-0.8,0.9-1.3,1.7-1.5,2.4l-2.8-0.5
			c0.2-3.2,0.6-7.3,1-12.3L723.6,6419.4z M723.3,6416.5l1.1-2.2c1.5,0.2,3.2,0.6,5.1,1.1c1.6,0.5,3,0.9,4.1,1.4l-1.5,2.6
			c-1.1-0.6-2.5-1.2-4.3-1.8C726.2,6417.2,724.7,6416.8,723.3,6416.5z"/>
		<path class="st6" d="M738,6420.8c4.5-0.1,9.2-0.3,14-0.8l1.4,1.8c-2.1,1.8-4.2,3.8-6.4,6c0.2,0,0.4-0.1,0.6-0.1
			c1.6,0,2.6,1.3,2.9,3.9c0.2,1.6,0.5,2.6,0.9,3c0.3,0.3,0.8,0.4,1.5,0.4c0.9,0,2.1-0.1,3.6-0.3v3.1c-1.3,0.1-2.5,0.2-3.7,0.2
			c-1.9,0-3.2-0.4-3.8-1.2c-0.5-0.6-0.8-1.9-1.1-3.8c-0.2-1.2-0.4-2-0.6-2.4c-0.2-0.3-0.5-0.5-0.9-0.5s-0.8,0.1-1.1,0.3
			c-0.3,0.2-0.6,0.5-1,1c-1.3,1.6-2.9,3.8-4.9,6.7l-2.7-1.3c3.9-5.3,7.9-10,12.2-14.3c-2.7,0.4-6.3,0.6-10.6,0.8L738,6420.8z
			 M742,6414.1c3.3,0.7,7,1.2,11.1,1.4l-0.6,2.7c-3.9-0.3-7.6-0.8-11.2-1.5L742,6414.1z"/>
		<path class="st6" d="M765,6418.9c1.4-0.1,2.6-0.2,3.7-0.4l0.1,2.5c-1.8,0.2-3.3,0.3-4.4,0.4c-1.2,4.3-2.9,8.6-5,12.9l-2.7-1.2
			c2.1-3.9,3.7-7.7,4.8-11.5c-1.4,0-2.4,0.1-3,0.1h-1.3l-0.1-2.4c0.4,0,1.1,0,1.9,0c0.7,0,1.7,0,3.1-0.1c0.3-1.3,0.6-2.8,0.8-4.6
			l3,0.4C765.7,6415.9,765.4,6417.2,765,6418.9z M770.1,6430.2c-0.1-1.4-0.2-3.7-0.2-6.8h2.7c0,3.1,0.1,5.6,0.3,7.4
			c2,0.8,3.7,2,5.3,3.4l-1.6,2.6c-1.4-1.5-2.6-2.6-3.8-3.2v0.7c0,1.3-0.5,2.4-1.5,3.1c-0.9,0.6-2.2,1-3.8,1c-1.8,0-3.2-0.4-4.1-1.2
			c-0.8-0.7-1.1-1.6-1.1-2.9c0-1.4,0.6-2.5,1.9-3.3c1-0.6,2.3-1,3.8-1C768.8,6430.1,769.5,6430.1,770.1,6430.2z M770.2,6432.8
			c-0.6-0.2-1.3-0.4-2.1-0.4c-2.2,0-3.3,0.6-3.3,1.9c0,1.2,0.9,1.7,2.7,1.7s2.6-0.7,2.6-2.2c0,0,0-0.1,0-0.2L770.2,6432.8z
			 M770.2,6420.3l1.3-2.3c2.8,0.9,5.1,2,6.9,3.2l-1.4,2.5C775.1,6422.3,772.8,6421.1,770.2,6420.3z"/>
		<path class="st6" d="M788.2,6419.7c1.2,0,1.9-0.1,2.2-0.1c1.3,0,2.3,0.4,2.9,1.2c0.7,0.9,1,2.2,1,4.1c0,4.7-0.3,8-0.8,9.8
			c-0.3,1.1-0.8,1.9-1.5,2.3c-0.6,0.5-1.5,0.7-2.6,0.7c-1,0-2-0.1-3-0.2l-0.6-2.8c1.2,0.2,2.1,0.4,2.5,0.4c0.7,0,1.3-0.1,1.6-0.3
			c0.3-0.2,0.5-0.5,0.7-1c0.5-1.6,0.8-4.5,0.8-8.6c0-1.4-0.2-2.3-0.5-2.8c-0.2-0.4-0.6-0.5-1.1-0.5c-0.7,0-1.5,0-2.4,0.1
			c-1.5,5.9-3.3,11.2-5.4,15.7l-2.7-1c2.2-4.5,3.9-9.4,5.2-14.5c-1.5,0.1-3.2,0.3-4.9,0.5l-0.1-2.6c2.6-0.1,4.5-0.3,5.6-0.3
			c0.4-2,0.8-3.9,1.1-5.6l2.9,0.4C788.8,6416.9,788.4,6418.6,788.2,6419.7z M794,6418.1l2.5-1c1.9,3,3.3,6.5,4.4,10.4l-2.9,1.1
			C797.2,6424.6,795.8,6421,794,6418.1z"/>
		<path class="st6" d="M801.2,6426.6l-0.8-2.6c4.2-1.1,7.2-1.6,8.8-1.6c2.2,0,3.9,0.7,4.9,2c0.9,1.1,1.4,2.8,1.4,4.8
			c0,2.8-1.1,4.9-3.3,6.3c-1,0.6-2.1,1.1-3.3,1.5c-1.1,0.3-2.5,0.6-4.3,0.8l-1.1-2.4c2-0.2,3.5-0.5,4.7-0.8c1-0.3,1.9-0.8,2.6-1.3
			c1.2-0.9,1.8-2.2,1.8-4c0-1.7-0.3-2.9-1-3.5c-0.6-0.6-1.4-0.8-2.6-0.8C807.3,6424.9,804.7,6425.5,801.2,6426.6z"/>
		<path class="st6" d="M820.7,6421.3c-1.6,0.1-3,0.1-4.4,0.1v-2.5c1.6,0,3.2,0,4.8-0.1c0.2-1.5,0.4-3.1,0.5-4.6l3,0.3
			c-0.2,1.8-0.5,3.2-0.6,4.2c1.9-0.1,3.9-0.3,6.1-0.5l0.1,2.5c-2,0.2-4.2,0.4-6.6,0.5c-1.1,5.9-2.5,11.5-4.4,16.9l-2.8-1
			C818.5,6431.5,819.9,6426.2,820.7,6421.3z M824.5,6431.3l2.5,0.2c-0.1,0.6-0.2,1.1-0.2,1.7c0,0.8,0.3,1.3,0.8,1.6
			c0.6,0.3,1.5,0.4,2.9,0.4c1.9,0,3.4-0.1,4.7-0.2l0.2,2.8c-1.4,0.1-3,0.2-4.6,0.2c-2.5,0-4.3-0.4-5.3-1.1c-0.9-0.7-1.3-1.7-1.3-3.1
			C824.2,6432.9,824.3,6432.1,824.5,6431.3z M826,6426.3v-2.6c2.6-0.3,5.3-0.5,8-0.5c0.5,0,0.8,0,1,0v2.5c-0.2,0-0.6,0-1.1,0
			C830.9,6425.7,828.2,6425.9,826,6426.3z"/>
	</g>
	<g id="Group_2778" transform="translate(331 592)">
		<g class="st5">
			<path class="st6" d="M728.6,5398.4v42.6h-6.3v-36.6h-4.9v-6H728.6z"/>
			<path class="st6" d="M759.2,5415c2,1.3,3.5,2.9,4.6,5c1,2.1,1.6,4.4,1.6,7c0,2.7-0.6,5.1-1.8,7.3c-1.2,2.2-2.9,3.9-5.1,5.2
				s-4.5,1.9-7.2,1.9c-2.2,0-4.4-0.4-6.5-1.2c-2.1-0.8-3.8-1.9-5.2-3.2l3.4-4.9c0.9,1,2,1.8,3.4,2.4s2.9,0.9,4.3,0.9
				c2.4,0,4.3-0.8,5.9-2.3s2.3-3.5,2.3-5.9c0-2.6-0.7-4.8-2.2-6.4c-1.4-1.6-3.5-2.4-6.2-2.4c-1.4,0-2.8,0.2-4.1,0.6s-2.7,1-4.1,1.8
				h-0.1v-22.5h20.4v6h-15v9.3c1.4-0.3,2.8-0.5,4.3-0.5C754.8,5413.2,757.2,5413.8,759.2,5415z"/>
		</g>
		<g class="st5">
			<path class="st6" d="M776.4,5422c-1.3-1.7-2-3.9-2-6.8c0-2.8,0.7-5,2-6.7c1.4-1.7,3.2-2.5,5.7-2.5c2.4,0,4.3,0.8,5.7,2.5
				s2,3.9,2,6.7s-0.7,5-2,6.7c-1.4,1.7-3.2,2.5-5.7,2.5C779.7,5424.5,777.8,5423.7,776.4,5422z M783.8,5439.1l-5-0.1l22.5-33.1h5.1
				L783.8,5439.1z M779.7,5419.4c0.6,1,1.4,1.5,2.4,1.5s1.8-0.5,2.4-1.5c0.5-1,0.8-2.4,0.8-4.1c0-3.7-1.1-5.6-3.2-5.6
				c-2.2,0-3.3,1.9-3.3,5.6C778.9,5417,779.1,5418.4,779.7,5419.4z M796.8,5437.3c-1.3-1.7-2-3.9-2-6.8c0-2.8,0.7-5,2-6.7
				c1.4-1.7,3.2-2.5,5.7-2.5c2.4,0,4.3,0.9,5.7,2.5c1.4,1.7,2,3.9,2,6.7c0,2.8-0.7,5-2.1,6.7c-1.4,1.7-3.3,2.5-5.6,2.5
				C800.1,5439.9,798.2,5439,796.8,5437.3z M800.1,5434.7c0.6,1,1.4,1.5,2.4,1.5s1.8-0.5,2.4-1.5c0.5-1,0.8-2.4,0.8-4.1
				c0-3.7-1.1-5.6-3.2-5.6c-2.2,0-3.3,1.9-3.3,5.6C799.3,5432.4,799.5,5433.8,800.1,5434.7z"/>
		</g>
	</g>
	<g id="Group_2776" transform="translate(-249 563)">
		<g class="st5">
			<path class="st3" d="M734.3,5419.9c1.6-2.1,3.6-3.6,5.9-4.6c-1.4-0.9-2.5-2-3.3-3.2s-1.2-2.7-1.2-4.5c0-1.9,0.5-3.5,1.5-5
				s2.3-2.7,4-3.5s3.6-1.3,5.7-1.3c2.1,0,4,0.4,5.7,1.3c1.7,0.8,3.1,2,4.1,3.4s1.5,3.1,1.5,4.8c0,1.9-0.4,3.4-1.2,4.6
				s-1.9,2.3-3.4,3.3c2.3,1,4.3,2.5,6,4.6c1.6,2.1,2.5,4.6,2.5,7.5c0,2.5-0.7,4.8-2,6.9s-3.2,3.9-5.5,5.1c-2.3,1.3-4.9,1.9-7.7,1.9
				s-5.4-0.6-7.6-1.9c-2.3-1.3-4.1-3-5.4-5.1c-1.3-2.2-2-4.5-2-6.9C731.8,5424.6,732.6,5422,734.3,5419.9z M739.4,5431.7
				c0.8,1.4,1.8,2.5,3.1,3.3s2.8,1.2,4.3,1.2c1.6,0,3.1-0.4,4.4-1.2c1.4-0.8,2.4-1.9,3.3-3.3c0.8-1.4,1.2-2.8,1.2-4.4
				s-0.4-3.1-1.2-4.4s-1.8-2.4-3.2-3.2c-1.4-0.8-2.8-1.2-4.4-1.2c-1.6,0-3,0.4-4.3,1.2c-1.3,0.8-2.4,1.8-3.2,3.2
				c-0.8,1.4-1.2,2.8-1.2,4.4C738.2,5428.9,738.6,5430.4,739.4,5431.7z M743.4,5411.8c1.1,0.9,2.3,1.4,3.7,1.4s2.6-0.5,3.6-1.4
				s1.5-2.1,1.5-3.4c0-1.5-0.5-2.8-1.5-3.8s-2.2-1.5-3.6-1.5s-2.7,0.5-3.7,1.5s-1.6,2.2-1.6,3.8
				C741.8,5409.7,742.3,5410.9,743.4,5411.8z"/>
		</g>
		<g class="st5">
			<path class="st3" d="M773.4,5422c-1.3-1.7-2-3.9-2-6.8c0-2.8,0.7-5,2-6.7c1.4-1.7,3.2-2.5,5.7-2.5c2.4,0,4.3,0.8,5.7,2.5
				s2,3.9,2,6.7s-0.7,5-2,6.7c-1.4,1.7-3.2,2.5-5.7,2.5C776.7,5424.5,774.8,5423.7,773.4,5422z M780.8,5439.1l-5-0.1l22.5-33.1h5.1
				L780.8,5439.1z M776.7,5419.4c0.6,1,1.4,1.5,2.4,1.5s1.8-0.5,2.4-1.5c0.5-1,0.8-2.4,0.8-4.1c0-3.7-1.1-5.6-3.2-5.6
				c-2.2,0-3.3,1.9-3.3,5.6C775.9,5417,776.1,5418.4,776.7,5419.4z M793.8,5437.3c-1.3-1.7-2-3.9-2-6.8c0-2.8,0.7-5,2-6.7
				c1.4-1.7,3.2-2.5,5.7-2.5c2.4,0,4.3,0.9,5.7,2.5c1.4,1.7,2,3.9,2,6.7c0,2.8-0.7,5-2.1,6.7c-1.4,1.7-3.3,2.5-5.6,2.5
				C797.1,5439.9,795.2,5439,793.8,5437.3z M797.1,5434.7c0.6,1,1.4,1.5,2.4,1.5s1.8-0.5,2.4-1.5c0.5-1,0.8-2.4,0.8-4.1
				c0-3.7-1.1-5.6-3.2-5.6c-2.2,0-3.3,1.9-3.3,5.6C796.3,5432.4,796.5,5433.8,797.1,5434.7z"/>
		</g>
	</g>
	<g id="Group_2773" transform="translate(-294 829)">
		<g class="st5">
			<path class="st3" d="M769.6,5417.4c2.1,2.1,3.2,5.2,3.2,9.4c0,2.9-0.7,5.5-2,7.7s-3.2,3.9-5.5,5.1s-4.8,1.8-7.6,1.8
				c-2,0-4.1-0.4-6.2-1.3c-2.1-0.9-3.8-2-5.1-3.4l3.2-5.2c0.8,1,2,1.9,3.4,2.7c1.5,0.7,3,1.1,4.5,1.1c2.5,0,4.5-0.8,6.2-2.5
				c1.7-1.6,2.5-3.8,2.5-6.5c0-2.4-0.7-4.3-2.2-5.8c-1.4-1.4-3.4-2.2-5.9-2.2c-1.9,0-3.7,0.3-5.5,1l-0.2-0.3l9.5-14.8H749v-6h22.3
				l-9.8,15.7C764.8,5414.2,767.5,5415.4,769.6,5417.4z"/>
			<path class="st3" d="M809.4,5425.9v4.9h-5.6v10.3h-6.3v-10.3h-19.7v-0.1l26-32.8h0.1v28H809.4z M797.5,5425.9v-13.3l-10.3,13.3
				H797.5z"/>
		</g>
		<g class="st5">
			<path class="st3" d="M821.4,5422c-1.3-1.7-2-3.9-2-6.8c0-2.8,0.7-5,2-6.7c1.4-1.7,3.2-2.5,5.7-2.5c2.4,0,4.3,0.8,5.7,2.5
				s2,3.9,2,6.7s-0.7,5-2,6.7c-1.4,1.7-3.2,2.5-5.7,2.5C824.7,5424.5,822.8,5423.7,821.4,5422z M828.8,5439.1l-5-0.1l22.5-33.1h5.1
				L828.8,5439.1z M824.7,5419.4c0.6,1,1.4,1.5,2.4,1.5s1.8-0.5,2.4-1.5c0.5-1,0.8-2.4,0.8-4.1c0-3.7-1.1-5.6-3.2-5.6
				c-2.2,0-3.3,1.9-3.3,5.6C823.9,5417,824.1,5418.4,824.7,5419.4z M841.8,5437.3c-1.3-1.7-2-3.9-2-6.8c0-2.8,0.7-5,2-6.7
				c1.4-1.7,3.2-2.5,5.7-2.5c2.4,0,4.3,0.9,5.7,2.5c1.4,1.7,2,3.9,2,6.7c0,2.8-0.7,5-2.1,6.7c-1.4,1.7-3.3,2.5-5.6,2.5
				C845.1,5439.9,843.2,5439,841.8,5437.3z M845.1,5434.7c0.6,1,1.4,1.5,2.4,1.5s1.8-0.5,2.4-1.5c0.5-1,0.8-2.4,0.8-4.1
				c0-3.7-1.1-5.6-3.2-5.6c-2.2,0-3.3,1.9-3.3,5.6C844.3,5432.4,844.5,5433.8,845.1,5434.7z"/>
		</g>
	</g>
	<g id="Group_2779" transform="translate(391 757)">
		<g class="st5">
			<path class="st6" d="M757.6,5398.4v42.6h-6.3v-36.6h-4.9v-6H757.6z"/>
			<path class="st6" d="M796.9,5434.9v6.1h-29l2.1-2.1c4.4-4.4,7.8-8,10.3-10.7s4.5-5.5,6.2-8.3s2.5-5.4,2.5-7.9
				c0-2.6-0.8-4.6-2.3-6c-1.6-1.4-3.5-2.1-5.7-2.1c-1.8,0-3.2,0.4-4.4,1.1s-2,1.7-2.6,2.8c-0.5,1.1-0.8,2.2-0.8,3.4
				c0,2.8,0.8,5,2.5,6.8l-3.8,3.5c-1.4-0.9-2.6-2.3-3.5-4.4c-0.9-2-1.3-4-1.3-5.8c0-2.4,0.6-4.6,1.8-6.6s2.9-3.7,5.1-4.9
				s4.9-1.8,8-1.8c2.6,0,5,0.6,7,1.8s3.6,2.9,4.8,5c1.1,2.1,1.7,4.3,1.7,6.8s-0.6,4.9-1.7,7.4c-1.2,2.5-2.6,4.8-4.3,6.9
				c-1.7,2.2-4,4.8-6.8,8l-1,1.1L796.9,5434.9L796.9,5434.9z"/>
		</g>
		<g class="st5">
			<path class="st6" d="M807.4,5422c-1.3-1.7-2-3.9-2-6.8c0-2.8,0.7-5,2-6.7c1.4-1.7,3.2-2.5,5.7-2.5c2.4,0,4.3,0.8,5.7,2.5
				s2,3.9,2,6.7s-0.7,5-2,6.7c-1.4,1.7-3.2,2.5-5.7,2.5C810.7,5424.5,808.8,5423.7,807.4,5422z M814.8,5439.1l-5-0.1l22.5-33.1h5.1
				L814.8,5439.1z M810.7,5419.4c0.6,1,1.4,1.5,2.4,1.5s1.8-0.5,2.4-1.5c0.5-1,0.8-2.4,0.8-4.1c0-3.7-1.1-5.6-3.2-5.6
				c-2.2,0-3.3,1.9-3.3,5.6C809.9,5417,810.1,5418.4,810.7,5419.4z M827.8,5437.3c-1.3-1.7-2-3.9-2-6.8c0-2.8,0.7-5,2-6.7
				c1.4-1.7,3.2-2.5,5.7-2.5c2.4,0,4.3,0.9,5.7,2.5c1.4,1.7,2,3.9,2,6.7c0,2.8-0.7,5-2.1,6.7c-1.4,1.7-3.3,2.5-5.6,2.5
				C831.1,5439.9,829.2,5439,827.8,5437.3z M831.1,5434.7c0.6,1,1.4,1.5,2.4,1.5s1.8-0.5,2.4-1.5c0.5-1,0.8-2.4,0.8-4.1
				c0-3.7-1.1-5.6-3.2-5.6c-2.2,0-3.3,1.9-3.3,5.6C830.3,5432.4,830.5,5433.8,831.1,5434.7z"/>
		</g>
	</g>
	<g id="Group_2777" transform="translate(-20 1057)">
		<g class="st5">
			<path class="st6" d="M779.6,5417.4c2.1,2.1,3.2,5.2,3.2,9.4c0,2.9-0.7,5.5-2,7.7s-3.2,3.9-5.5,5.1s-4.8,1.8-7.6,1.8
				c-2,0-4.1-0.4-6.2-1.3c-2.1-0.9-3.8-2-5.1-3.4l3.2-5.2c0.8,1,2,1.9,3.4,2.7c1.5,0.7,3,1.1,4.5,1.1c2.5,0,4.5-0.8,6.2-2.5
				c1.7-1.6,2.5-3.8,2.5-6.5c0-2.4-0.7-4.3-2.2-5.8c-1.4-1.4-3.4-2.2-5.9-2.2c-1.9,0-3.7,0.3-5.5,1l-0.2-0.3l9.5-14.8H759v-6h22.3
				l-9.8,15.7C774.8,5414.2,777.5,5415.4,779.6,5417.4z"/>
			<path class="st6" d="M801.6,5398.4v42.6h-6.3v-36.6h-4.9v-6H801.6z"/>
		</g>
		<g class="st5">
			<path class="st6" d="M821.4,5422c-1.3-1.7-2-3.9-2-6.8c0-2.8,0.7-5,2-6.7c1.4-1.7,3.2-2.5,5.7-2.5c2.4,0,4.3,0.8,5.7,2.5
				s2,3.9,2,6.7s-0.7,5-2,6.7c-1.4,1.7-3.2,2.5-5.7,2.5C824.7,5424.5,822.8,5423.7,821.4,5422z M828.8,5439.1l-5-0.1l22.5-33.1h5.1
				L828.8,5439.1z M824.7,5419.4c0.6,1,1.4,1.5,2.4,1.5s1.8-0.5,2.4-1.5c0.5-1,0.8-2.4,0.8-4.1c0-3.7-1.1-5.6-3.2-5.6
				c-2.2,0-3.3,1.9-3.3,5.6C823.9,5417,824.1,5418.4,824.7,5419.4z M841.8,5437.3c-1.3-1.7-2-3.9-2-6.8c0-2.8,0.7-5,2-6.7
				c1.4-1.7,3.2-2.5,5.7-2.5c2.4,0,4.3,0.9,5.7,2.5c1.4,1.7,2,3.9,2,6.7c0,2.8-0.7,5-2.1,6.7c-1.4,1.7-3.3,2.5-5.6,2.5
				C845.1,5439.9,843.2,5439,841.8,5437.3z M845.1,5434.7c0.6,1,1.4,1.5,2.4,1.5s1.8-0.5,2.4-1.5c0.5-1,0.8-2.4,0.8-4.1
				c0-3.7-1.1-5.6-3.2-5.6c-2.2,0-3.3,1.9-3.3,5.6C844.3,5432.4,844.5,5433.8,845.1,5434.7z"/>
		</g>
	</g>
	<path id="Path_5687" class="st7" d="M578.5,6157.5h92.4"/>
	<g id="Group_3651">
		<path id="Path_2961" class="st7" d="M1034.3,5959.6H919.4l-32.3,26.3"/>
		<circle id="Ellipse_343" class="st3" cx="887.5" cy="5985.5" r="2.5"/>
	</g>
	<g id="Group_3650" transform="translate(0 -8)">
		<path id="Path_2962" class="st7" d="M1117,6093.9h-114.9l-32.3,26.3"/>
		<circle id="Ellipse_344" class="st3" cx="969.5" cy="6120.5" r="2.5"/>
	</g>
	<g id="Group_3652">
		<path id="Path_2964" class="st7" d="M881,6308.5v71.7h-27.1"/>
		<circle id="Ellipse_345" class="st8" cx="881" cy="6308.5" r="2.5"/>
	</g>
	<circle id="Ellipse_346" class="st9" cx="672.5" cy="6157.5" r="2.5"/>
	<g>
		<g>
			<defs>
				<circle id="SVGID_1_" cx="824" cy="6128" r="210"/>
			</defs>
			<clipPath id="SVGID_00000013153337313599056360000006377272813181236366_">
				<use xlink:href="#SVGID_1_"  style="overflow:visible;"/>
			</clipPath>
			<g id="Mask_Group_136" style="clip-path:url(#SVGID_00000013153337313599056360000006377272813181236366_);">
				<path id="Path_2960" class="st11" d="M578.5,6157.5h92.4"/>
			</g>
		</g>
	</g>
	<g id="Group_3653" transform="translate(-0.5 -31.912)">
		<path id="Path_2959" class="st7" d="M786.9,6004l-20.8-36.2H578.5"/>
		<circle id="Ellipse_348" class="st3" cx="786.5" cy="6003.5" r="2.5"/>
	</g>
</g>
</svg>
