<?xml version="1.0" encoding="utf-8"?>
<!-- Generator: Adobe Illustrator 27.0.1, SVG Export Plug-In . SVG Version: 6.00 Build 0)  -->
<svg version="1.1" id="Layer_1" xmlns="http://www.w3.org/2000/svg" xmlns:xlink="http://www.w3.org/1999/xlink" x="0px" y="0px"
	 viewBox="0 0 380 361.1" style="enable-background:new 0 0 380 361.1;" xml:space="preserve">
<style type="text/css">
	.st0{fill:#DED0EA;}
	.st1{fill:#D9F2FF;}
	.st2{fill:#B5D1CF;}
	.st3{fill:#0091DB;}
	.st4{fill:#C3C4C7;}
	.st5{enable-background:new    ;}
	.st6{fill:#FACC08;}
</style>
<g id="bunka-2" transform="translate(-9.845 -140.203)">
	<g id="Group_3683" transform="translate(9.845 140.203)">
		<g id="Group_3161" transform="translate(0 39.451)">
			<path id="Path_2949" class="st0" d="M191.1,139.2l114-79.9C279.2,22.2,236.8,0.1,191.6,0C191.9,38.6,191.1,139.2,191.1,139.2z"/>
			<path id="Path_2950" class="st1" d="M191.1,139.2l138.1,18c0.8-6,1.2-12,1.2-18c0-29.3-9.2-57.9-26.5-81.7L191.1,139.2z"/>
			<path id="Path_2951" class="st2" d="M125.4,262c67.8,36.3,152.2,10.7,188.5-57.1c7.9-14.8,13.1-30.9,15.3-47.6l-138.1-18
				L125.4,262z"/>
			<path id="Path_2952" class="st3" d="M51.9,139.2c0,51.4,28.2,98.5,73.5,122.8l65.7-122.8L125.4,16.5
				C80.1,40.7,51.9,87.9,51.9,139.2z"/>
			<path id="Path_2953" class="st4" d="M191.1,139.2L191.6,0c-23.1,0-45.8,5.6-66.1,16.5L191.1,139.2z"/>
		</g>
		<g class="st5">
			<path class="st3" d="M133,5.4c2.4,0,5.1-0.2,7.8-0.5l0.8,1.4c-3.1,2.5-5.1,4.1-6,4.7l-1,0.6l0,0.1l1.2-0.4
				c1.1-0.3,3.4-0.7,6.8-1.3l0.3,1.8c-0.9,0.1-1.9,0.3-3,0.7c-1,0.3-1.9,0.8-2.5,1.5c-0.5,0.6-0.8,1.2-0.8,1.8
				c0,0.9,0.4,1.5,1.3,1.8c0.8,0.3,2.1,0.5,3.9,0.5l-0.2,1.9c-2.4-0.1-4.1-0.4-5.2-1.1c-1-0.6-1.5-1.6-1.5-3c0-0.8,0.3-1.5,0.9-2.2
				c0.6-0.7,1.4-1.2,2.5-1.6l0-0.1l-1,0.4c-2.6,0.7-4.4,1.2-5.5,1.5l-0.6-1.7c0.7-0.2,1.3-0.6,1.9-1c1.6-1.2,3.5-2.7,5.7-4.7
				c-1.4,0.2-3.3,0.4-5.7,0.5L133,5.4z"/>
			<path class="st3" d="M151.2,7.3c-0.2,3.9-0.8,7-1.8,9.1c-0.4,0.9-0.8,1.5-1.4,1.9c-0.4,0.3-0.9,0.4-1.5,0.4c-1,0-1.7-0.5-2.3-1.5
				c-0.5-0.9-0.8-2.1-0.8-3.6c0-2.4,0.7-4.4,2-5.8c0.6-0.7,1.4-1.2,2.3-1.5c0.8-0.3,1.7-0.5,2.6-0.5c4.1,0,6.1,2.4,6.1,7.1
				c0,3.7-2,5.9-5.9,6.8l-0.9-1.5c1.8-0.4,3.1-1.1,3.9-2.1c0.6-0.8,0.9-2,0.9-3.4c0-1.9-0.4-3.3-1.2-4.2
				C152.9,7.7,152.1,7.3,151.2,7.3z M149.3,7.4c-1,0.1-1.9,0.7-2.7,1.7c-0.9,1.1-1.3,2.7-1.3,4.6c0,1.1,0.1,1.9,0.4,2.5
				c0.2,0.4,0.5,0.7,0.8,0.7c0.3,0,0.5-0.1,0.7-0.3s0.4-0.5,0.5-0.9c0.4-1.1,0.8-2.4,1-4C149.1,10.1,149.2,8.7,149.3,7.4z"/>
			<path class="st3" d="M158,11.1c1.5-1.6,2.7-3.5,3.5-5.8c0.1-0.3,0.2-0.8,0.3-1.3c0.9,0.2,1.4,0.4,1.7,0.5
				c0.2,0.1,0.3,0.2,0.3,0.3c0,0.1-0.1,0.2-0.2,0.3c-0.1,0.1-0.2,0.3-0.4,0.7c-0.2,0.7-0.6,1.5-1,2.4v9.2l0,2.7
				c0,0.1-0.1,0.2-0.2,0.2h-1.5c-0.1,0-0.2-0.1-0.2-0.2l0-2.7v-4.1c0-0.9,0-1.6,0-2.1c-0.4,0.5-0.8,1-1.1,1.4
				c-0.1,0.2-0.2,0.2-0.3,0.2c-0.1,0-0.2-0.1-0.2-0.3C158.4,11.9,158.2,11.4,158,11.1z M172.8,15.5c0.4,0.2,0.9,0.4,1.4,0.6
				c0.2,0.1,0.3,0.1,0.4,0.1c0,0,0.1,0.1,0.1,0.2c0,0,0,0.1,0,0.2c-0.1,1.4-0.5,2.3-1,2.7c-0.4,0.3-1,0.5-1.8,0.6
				c-0.7,0.1-1.6,0.1-2.9,0.1c-1.9,0-3.1-0.1-3.6-0.3c-0.7-0.3-1.1-0.9-1.1-1.8v-5.8l-1.2,0.4c-0.1,0-0.1,0-0.1,0
				c-0.1,0-0.1-0.1-0.1-0.2l-0.3-1.3c0-0.1,0-0.1,0-0.1c0,0,0.1-0.1,0.2-0.1c0.4-0.1,0.9-0.2,1.5-0.4V8.2c0-0.8,0-1.5-0.1-2.1
				c0.6,0,1.2,0,1.8,0.1c0.2,0,0.3,0.1,0.3,0.2c0,0.1,0,0.2-0.1,0.3c-0.1,0.1-0.1,0.5-0.1,1v2l1.8-0.6V6.8c0-1.1,0-1.9-0.1-2.5
				c0.7,0,1.3,0.1,1.9,0.1c0.2,0,0.3,0.1,0.3,0.2c0,0.1,0,0.2-0.1,0.4c-0.1,0.2-0.1,0.9-0.1,2v1.7l1.4-0.4c0.7-0.2,1.3-0.4,1.8-0.6
				c0.1,0,0.2-0.1,0.4-0.1c0.1,0,0.1,0,0.1,0s0,0,0,0c0.1,0,0.2,0.1,0.2,0.2l0,1.6c-0.1,2.4-0.2,4-0.4,4.8c-0.2,0.8-0.8,1.3-1.6,1.3
				c-0.2,0-0.5,0-0.8-0.1c-0.2,0-0.3-0.1-0.4-0.1c0-0.1-0.1-0.2-0.1-0.5c-0.1-0.5-0.2-0.8-0.4-1.2c0.4,0.1,0.7,0.1,1,0.1
				c0.3,0,0.5-0.2,0.6-0.7c0.1-0.7,0.2-1.8,0.2-3.3l-2.1,0.7v3l0,2.7c0,0.1,0,0.2,0,0.2s-0.1,0-0.2,0h-1.5c-0.1,0-0.2,0-0.2,0
				c0,0,0-0.1,0-0.2l0-2.7V11l-1.8,0.6v5.7c0,0.5,0.2,0.8,0.6,0.9c0.3,0.1,1.2,0.1,2.5,0.1c1.6,0,2.6-0.2,3-0.5
				C172.6,17.5,172.8,16.7,172.8,15.5z"/>
		</g>
		<g class="st5">
			<path class="st6" d="M84.4,126.4c0,0.9,0,1.6,0,2.2c0,0.6,0,1.1,0,1.6c0.3,0.6,0.4,1.4,0.4,2.2c0,1.7-0.6,3.1-1.8,4
				c-1,0.8-2.5,1.3-4.5,1.7l-1-1.7c2.1-0.2,3.6-0.7,4.6-1.5c0.6-0.5,0.9-1.1,1-1.8c-0.5,0.6-1.2,0.9-2.1,0.9c-1,0-1.8-0.3-2.3-0.8
				c-0.5-0.5-0.7-1.2-0.7-2.1c0-1,0.3-1.8,1-2.3c0.6-0.5,1.3-0.7,2.2-0.7c0.5,0,1,0.1,1.5,0.4l0-2c-2.2,0.1-4.5,0.2-7,0.3l0-1.6
				c2.3-0.1,4.6-0.2,6.9-0.2l0-2.3h1.9c0,0.4,0,1.2,0,2.2c1,0,2.4,0,4.2,0v1.6C87.7,126.4,86.3,126.4,84.4,126.4z M81.1,129.4
				c-0.5,0-0.8,0.1-1.1,0.4c-0.3,0.3-0.4,0.7-0.4,1.2c0,0.5,0.2,0.9,0.5,1.2c0.3,0.2,0.6,0.4,1,0.4c0.5,0,0.9-0.2,1.2-0.5
				c0.2-0.3,0.4-0.6,0.4-1.1C82.6,129.9,82.1,129.4,81.1,129.4z"/>
			<path class="st6" d="M104.4,123.8l0.1,1.8c-1.3,0-2.3,0.2-3,0.7c-2.4,1.3-3.6,3.2-3.6,5.6c0,2.4,1.8,3.8,5.4,4.1l-0.5,1.9
				c-4.5-0.4-6.8-2.4-6.8-5.9c0-1.4,0.4-2.6,1.1-3.7c0.6-1,1.5-1.8,2.6-2.4l0.9-0.3l0-0.1l-1,0.3c-1.5,0.2-3.8,0.4-6.8,0.8l-0.2-1.8
				C95.9,124.3,99.9,124.1,104.4,123.8z M101.4,128l1.2-0.3c0.5,0.8,0.9,1.8,1.3,3l-1.2,0.4C102.4,129.9,101.9,128.9,101.4,128z
				 M103.6,127.4l1.2-0.4c0.5,0.9,0.9,1.9,1.3,2.9l-1.2,0.4C104.5,129.2,104.1,128.2,103.6,127.4z"/>
			<path class="st6" d="M113.1,123.4c-0.3,1.4-0.6,3-0.8,4.7c-0.2,1.5-0.3,2.8-0.3,3.8c0,2.2,0.1,4.1,0.4,5.7l-1.9,0.2
				c-0.3-1.8-0.4-3.8-0.4-5.9c0-1.3,0.1-2.8,0.4-4.7c0.2-1.4,0.4-2.8,0.6-4L113.1,123.4z M114.2,132.4l1.8,0.1
				c-0.1,0.5-0.2,0.9-0.2,1.4c0,0.6,0.2,1,0.6,1.2c0.3,0.2,0.9,0.3,1.6,0.3c1.3,0,2.5-0.1,3.8-0.2l0.1,1.9c-1.1,0.1-2.3,0.1-3.7,0.1
				c-1.5,0-2.6-0.3-3.2-0.8c-0.6-0.5-0.9-1.2-0.9-2.2C113.9,133.6,114,133,114.2,132.4z M114.5,127v-1.8c1.5-0.1,3.1-0.2,4.7-0.2
				c0.8,0,1.6,0,2.4,0.1v1.7c-0.6-0.1-1.4-0.1-2.5-0.1C117.6,126.8,116.1,126.8,114.5,127z"/>
		</g>
		<g class="st5">
			<path class="st6" d="M92,156.6c-0.3,0.4-0.5,0.8-0.7,1.4c-0.1,0.2-0.1,0.4-0.2,0.4c0,0.1-0.1,0.1-0.2,0.1c0,0-0.1,0-0.3,0
				c-2.8-0.4-5-1.2-6.7-2.2c-1.7,0.9-3.9,1.6-6.6,2.1c-0.1,0-0.2,0-0.4,0c-0.1,0-0.3-0.2-0.4-0.5c-0.2-0.5-0.4-0.9-0.7-1.3
				c2.6-0.3,4.7-0.9,6.4-1.6c-0.9-0.8-1.7-1.9-2.4-3.1l-1.2,0c-0.1,0-0.2,0-0.2,0c0,0,0-0.1,0-0.2v-1.3c0-0.1,0-0.1,0-0.2
				s0.1,0,0.2,0l2.4,0h5.8c0.2,0,0.4,0,0.5-0.1c0.1,0,0.2-0.1,0.2-0.1c0.1,0,0.4,0.2,0.9,0.6c0.3,0.3,0.5,0.6,0.5,0.7
				c0,0.1-0.1,0.2-0.2,0.3c-0.2,0.2-0.4,0.4-0.6,0.6c-0.8,1.1-1.7,2-2.6,2.7C87.1,155.8,89.2,156.3,92,156.6z M80.2,145.2
				c0.4,0.7,0.7,1.3,1,2h2c-0.2-0.6-0.4-1.2-0.6-1.7c0,0,0-0.1,0-0.1c0-0.1,0.1-0.1,0.2-0.2l1.1-0.3c0.1,0,0.1,0,0.2,0
				c0.1,0,0.1,0,0.2,0.1c0.3,0.7,0.6,1.4,0.8,2.2h1.2c0.3-0.5,0.7-1.1,1-1.8c0.1-0.3,0.2-0.6,0.3-0.9c0.5,0.2,1.1,0.3,1.6,0.5
				c0.2,0.1,0.3,0.2,0.3,0.3c0,0.1-0.1,0.2-0.2,0.3c-0.1,0.1-0.3,0.3-0.4,0.6c-0.2,0.5-0.4,0.8-0.6,1h0.8l2.4,0c0.1,0,0.2,0,0.2,0
				s0,0.1,0,0.2l0,0.9v1l0,1.7c0,0.1,0,0.1,0,0.2s-0.1,0-0.2,0h-1.5c-0.1,0-0.2,0-0.2,0s0-0.1,0-0.2v-2.1H77.9v2.1
				c0,0.1,0,0.1,0,0.2s-0.1,0-0.2,0h-1.4c-0.1,0-0.2,0-0.2,0s0-0.1,0-0.2l0-1.7v-0.9l0-1c0-0.1,0-0.1,0-0.2s0.1,0,0.2,0l2.4,0h0.7
				c-0.2-0.5-0.4-1-0.7-1.4c0-0.1-0.1-0.1-0.1-0.1c0,0,0.1-0.1,0.2-0.1l1-0.4c0.1,0,0.1,0,0.2,0C80.1,145.1,80.1,145.1,80.2,145.2z
				 M88.9,142c0.3,0.2,0.8,0.6,1.3,1.2c0.1,0.2,0.2,0.3,0.2,0.4c0,0.1-0.1,0.2-0.3,0.2c-0.3,0-0.6,0-0.9,0.1
				c-2.1,0.3-3.9,0.5-5.3,0.6c-2,0.2-4.1,0.3-6.2,0.4c-0.1,0-0.1,0-0.1,0c-0.1,0-0.2,0-0.3-0.1c0-0.1-0.1-0.2-0.2-0.4
				c-0.2-0.5-0.4-0.9-0.6-1.1c2.2,0,4.4-0.1,6.8-0.3c1.6-0.1,3-0.3,4-0.5C87.9,142.3,88.4,142.2,88.9,142z M86.3,151.9h-4.6
				c0.6,0.9,1.3,1.6,2.1,2.3C84.8,153.5,85.6,152.8,86.3,151.9z"/>
			<path class="st6" d="M98.5,145.2h2l1.9,0c0.1,0,0.2,0,0.2,0c0,0,0,0.1,0,0.2v1.3c1.4-0.9,2.5-2.1,3.4-3.5
				c0.2-0.4,0.4-0.8,0.5-1.2c0.4,0.1,1.1,0.2,1.8,0.3c0.2,0.1,0.3,0.1,0.3,0.3c0,0.1-0.1,0.2-0.2,0.3c0,0-0.1,0-0.1,0.1
				c1.1,1.7,2.7,3,4.7,4c-0.3,0.4-0.5,0.8-0.7,1.4c-0.1,0.3-0.2,0.4-0.3,0.4c0,0-0.2-0.1-0.4-0.2c-1.7-1.1-3.1-2.5-4.2-4.1
				c-1,1.6-2.3,2.9-3.9,4c-0.2,0.1-0.4,0.2-0.4,0.2c-0.1,0-0.2-0.1-0.4-0.4c-0.2-0.4-0.5-0.7-0.9-1l0.5-0.3l-1.9,0h-2l-1.9,0
				c-0.1,0-0.2,0-0.2,0c0,0,0-0.1,0-0.2v-1.3c0-0.1,0-0.1,0-0.2s0.1,0,0.2,0L98.5,145.2z M102.2,158c0,0.1-0.1,0.2-0.2,0.2h-1.3
				c-0.1,0-0.2,0-0.2,0s0-0.1,0-0.2v-0.6h-1.8v0.9c0,0.1,0,0.2,0,0.2c0,0-0.1,0-0.2,0h-1.3c-0.1,0-0.2,0-0.2,0c0,0,0-0.1,0-0.2
				l0-2.7v-1.2l0-1.7c0-0.1,0-0.2,0-0.2c0,0,0.1,0,0.2,0l1.6,0h1.5l1.7,0c0.1,0,0.2,0.1,0.2,0.2l0,1.4v1.2L102.2,158z M98.9,142.7
				h1.5l1.6,0c0.1,0,0.2,0,0.2,0c0,0,0,0.1,0,0.2v1.2c0,0.1,0,0.2,0,0.2c0,0-0.1,0-0.2,0l-1.6,0h-1.5l-1.6,0c-0.1,0-0.2,0-0.2,0
				s0-0.1,0-0.2v-1.2c0-0.1,0-0.1,0-0.2s0.1,0,0.2,0L98.9,142.7z M99,147.8h1.3l1.5,0c0.1,0,0.2,0,0.2,0c0,0,0,0.1,0,0.2v1.2
				c0,0.1,0,0.1,0,0.2s-0.1,0-0.2,0l-1.5,0H99l-1.5,0c-0.1,0-0.2,0-0.2,0c0,0,0-0.1,0-0.2v-1.2c0-0.1,0-0.2,0-0.2c0,0,0.1,0,0.2,0
				L99,147.8z M99,150.2h1.3l1.5,0c0.1,0,0.2,0,0.2,0c0,0,0,0.1,0,0.2v1.2c0,0.1,0,0.2,0,0.2s-0.1,0-0.2,0l-1.5,0H99l-1.5,0
				c-0.1,0-0.2,0-0.2,0c0,0,0-0.1,0-0.2v-1.2c0-0.1,0-0.2,0-0.2c0,0,0.1,0,0.2,0L99,150.2z M100.5,154.1h-1.8v1.8h1.8V154.1z
				 M102.4,156.9c1.9-0.5,3.6-1.1,4.9-1.9c1.1-0.7,2.1-1.5,3-2.5c0.3-0.4,0.6-0.7,0.7-1c0.5,0.3,1,0.7,1.3,1
				c0.1,0.1,0.2,0.2,0.2,0.3c0,0.1-0.1,0.2-0.2,0.2c-0.1,0.1-0.3,0.2-0.6,0.6c-1.9,2.2-4.5,3.8-7.8,4.7c-0.2,0.1-0.4,0.1-0.4,0.1
				c-0.1,0-0.2-0.1-0.4-0.4C103,157.5,102.7,157.2,102.4,156.9z M102.8,150.1c1.7-0.7,3.1-1.5,4.2-2.7c0.2-0.2,0.4-0.5,0.5-0.7
				c0.4,0.2,0.8,0.5,1.3,0.9c0.1,0.1,0.2,0.2,0.2,0.3s-0.1,0.2-0.2,0.2c-0.1,0.1-0.3,0.2-0.6,0.5c-0.9,1.1-2.2,1.9-3.8,2.7
				c-0.2,0.1-0.4,0.2-0.4,0.2c-0.1,0-0.2-0.1-0.4-0.4C103.4,150.8,103.1,150.4,102.8,150.1z M102.9,153.5c2.5-0.8,4.5-2.1,5.9-3.7
				c0.2-0.2,0.3-0.4,0.5-0.8c0.6,0.4,1,0.7,1.3,0.9c0.1,0.1,0.2,0.2,0.2,0.3s-0.1,0.2-0.2,0.3c-0.2,0.1-0.3,0.2-0.5,0.4
				c-1.3,1.5-3.2,2.8-5.6,3.9c-0.2,0.1-0.4,0.1-0.4,0.1c-0.1,0-0.2-0.1-0.4-0.4C103.5,154.1,103.3,153.8,102.9,153.5z"/>
			<path class="st6" d="M116,142.8h2c-0.2,7-0.3,10.8-0.3,11.2c0,0.8,0.2,1.4,0.6,1.7c0.4,0.3,0.9,0.5,1.7,0.5
				c2.4,0,3.8-1.6,4.4-4.8l1.8,1c-0.9,3.7-3,5.6-6.2,5.6c-1.6,0-2.7-0.3-3.3-1c-0.6-0.6-0.9-1.6-0.9-3c0-0.5,0-2,0.1-4.7
				C115.9,146.6,115.9,144.5,116,142.8z"/>
			<path class="st6" d="M131.1,147c-1,0-1.9,0.1-2.8,0.1v-1.6c1,0,2.1,0,3.1-0.1c0.1-1,0.2-2,0.3-3l1.9,0.2
				c-0.2,1.1-0.3,2.1-0.4,2.7c1.2-0.1,2.5-0.2,3.9-0.3l0,1.6c-1.3,0.1-2.7,0.2-4.3,0.3c-0.7,3.8-1.6,7.4-2.8,10.9l-1.8-0.7
				C129.7,153.6,130.6,150.2,131.1,147z M133.5,153.5l1.6,0.1c-0.1,0.4-0.1,0.7-0.1,1.1c0,0.5,0.2,0.8,0.5,1s1,0.3,1.9,0.3
				c1.2,0,2.2-0.1,3-0.2l0.1,1.8c-0.9,0.1-1.9,0.1-3,0.1c-1.6,0-2.7-0.2-3.4-0.7c-0.6-0.4-0.9-1.1-0.9-2
				C133.3,154.5,133.4,154,133.5,153.5z M134.5,150.2v-1.6c1.7-0.2,3.4-0.3,5.2-0.3c0.3,0,0.5,0,0.7,0v1.6c-0.1,0-0.4,0-0.7,0
				C137.6,149.9,135.9,150,134.5,150.2z"/>
			<path class="st6" d="M150.2,146c0.7,0,1.2,0,1.4,0c0.9,0,1.5,0.3,1.9,0.8c0.4,0.6,0.6,1.4,0.6,2.7c0,3-0.2,5.1-0.5,6.3
				c-0.2,0.7-0.5,1.2-0.9,1.5c-0.4,0.3-1,0.4-1.7,0.4c-0.7,0-1.3,0-1.9-0.1l-0.4-1.8c0.8,0.2,1.3,0.2,1.6,0.2c0.5,0,0.8-0.1,1-0.2
				c0.2-0.1,0.3-0.3,0.4-0.6c0.4-1,0.5-2.9,0.5-5.5c0-0.9-0.1-1.5-0.3-1.8c-0.1-0.2-0.4-0.4-0.7-0.4c-0.4,0-1,0-1.5,0.1
				c-0.9,3.8-2.1,7.2-3.5,10.1l-1.7-0.7c1.4-2.9,2.5-6,3.3-9.3c-1,0.1-2.1,0.2-3.2,0.3l-0.1-1.7c1.7-0.1,2.9-0.2,3.6-0.2
				c0.3-1.3,0.5-2.5,0.7-3.6l1.9,0.2C150.6,144.2,150.4,145.3,150.2,146z M153.3,145.3l1.6-0.8c1.4,1.8,2.6,3.9,3.5,6.4l-1.7,0.9
				C155.8,149.2,154.7,147.1,153.3,145.3z M154.7,142.2l1.2-0.3c0.5,0.8,0.9,1.8,1.3,3l-1.2,0.4
				C155.6,144.1,155.2,143.1,154.7,142.2z M156.8,141.7l1.2-0.4c0.5,0.9,0.9,1.9,1.3,2.9l-1.2,0.4
				C157.7,143.4,157.3,142.5,156.8,141.7z"/>
		</g>
		<g class="st5">
			<path class="st6" d="M85.1,162c0.6,0.1,1.1,0.2,1.7,0.4c0.2,0.1,0.4,0.1,0.4,0.2c0,0.1,0,0.2-0.1,0.3c-0.1,0.2-0.2,0.5-0.3,0.9
				c-0.3,0.9-0.4,1.4-0.4,1.4h3l2.4,0c0.1,0,0.1,0,0.2,0s0,0.1,0,0.2v1.3c0,0.1,0,0.1,0,0.2s-0.1,0-0.2,0c0,0-0.2,0-0.4,0
				c-0.3,0-0.6,0-0.9,0c-0.2,2.7-0.8,5-2,6.8c1,1.1,2.3,2.1,4,2.9c-0.3,0.3-0.6,0.8-0.8,1.3c-0.1,0.3-0.3,0.4-0.4,0.4
				c-0.1,0-0.2-0.1-0.4-0.2c-1.3-0.8-2.4-1.8-3.4-3c-1.2,1.3-2.7,2.4-4.4,3.2c-0.2,0.1-0.4,0.1-0.4,0.1c-0.1,0-0.2-0.1-0.3-0.3
				c-0.3-0.5-0.6-0.9-0.9-1.2c2-0.7,3.7-1.8,4.9-3.3c-0.8-1.2-1.4-2.7-1.7-4.2c-0.2,0.4-0.5,0.7-0.8,1.2c-0.2,0.2-0.3,0.3-0.3,0.3
				s-0.2-0.1-0.3-0.3c-0.2-0.3-0.4-0.5-0.6-0.7l0,0.5c0,0.1,0,0.1,0,0.2c0,0-0.1,0-0.2,0h-1.4c-0.1,0-0.1,0-0.2,0s0-0.1,0-0.2v-0.7
				H78v4.1c0,0.4,0.1,0.7,0.2,0.8c0.2,0.1,0.6,0.2,1.2,0.2c0.9,0,1.5-0.1,1.8-0.4c0.1-0.2,0.2-0.4,0.3-0.7c0-0.3,0.1-0.8,0.1-1.4
				c0.4,0.2,0.8,0.4,1.2,0.5c0.3,0.1,0.4,0.1,0.4,0.2c0.1,0,0.1,0.1,0.1,0.2c0,0.1,0,0.2,0,0.3c-0.1,1.2-0.4,2-0.9,2.4
				c-0.3,0.3-0.8,0.5-1.4,0.6c-0.5,0.1-1.1,0.1-1.9,0.1c-1.3,0-2.1-0.1-2.4-0.4c-0.3-0.3-0.4-0.7-0.4-1.4v-4.5l0-1.9
				c0-0.1,0-0.2,0-0.2c0,0,0.1,0,0.2,0l1.6,0h2.6v-2.9h-2.7l-1.9,0c-0.1,0-0.2,0-0.2,0c0,0,0-0.1,0-0.2v-1.4c0-0.1,0-0.1,0-0.2
				s0.1,0,0.2,0l1.9,0h2.4l1.9,0c0.1,0,0.2,0,0.2,0c0,0,0,0.1,0,0.2l0,1.8v4c1.2-1.5,2-3.5,2.5-5.7C85.1,162.7,85.1,162.2,85.1,162z
				 M88.5,166.9h-2.8c0,0,0,0.1-0.1,0.1c0,0.1,0,0.1,0,0.1c0.3,2,0.8,3.7,1.6,5C88,170.8,88.4,169,88.5,166.9z"/>
			<path class="st6" d="M98.9,172.8l-2.3,0c-0.1,0-0.2,0-0.2,0s0-0.1,0-0.2v-1.1c0-0.1,0-0.1,0-0.2s0.1,0,0.2,0l2.3,0h1
				c-0.2-0.3-0.4-0.7-0.6-1c0-0.1-0.1-0.1-0.1-0.1c0-0.1,0.1-0.1,0.2-0.1l1-0.3c0.1,0,0.2,0,0.2,0c0.1,0,0.1,0,0.2,0.1
				c0.3,0.4,0.7,0.9,0.9,1.4h1.6v-1.7H99l-2.3,0c-0.1,0-0.2,0-0.2,0c0,0,0-0.1,0-0.2v-1.1c0-0.1,0-0.2,0-0.2s0.1,0,0.2,0l2.3,0h4.4
				v-0.9h-2.4l-2.5,0c-0.1,0-0.2,0-0.2,0s0-0.1,0-0.2v-1c0-0.1,0-0.1,0-0.2s0.1,0,0.2,0l2.5,0h2.4v-0.9H100l-2.4,0
				c-0.1,0-0.1,0-0.2,0s0-0.1,0-0.2V164c0-0.1,0-0.2,0-0.2s0.1,0,0.2,0l2.4,0h1.1c-0.3-0.5-0.5-0.8-0.8-1.2
				c-0.1-0.1-0.1-0.1-0.1-0.2c0,0,0.1-0.1,0.2-0.1l1.2-0.3c0.1,0,0.1,0,0.2,0c0.1,0,0.1,0,0.2,0.1c0.5,0.5,0.8,1.1,1.2,1.7h2.5
				c0.1-0.2,0.3-0.5,0.6-1c0.1-0.2,0.2-0.5,0.3-0.8c0.6,0.1,1.2,0.2,1.7,0.4c0.1,0,0.2,0.1,0.2,0.2c0,0.1-0.1,0.2-0.2,0.2
				c-0.1,0.1-0.2,0.2-0.3,0.4c-0.1,0.2-0.2,0.4-0.4,0.5h1.5l2.4,0c0.1,0,0.1,0,0.2,0s0,0.1,0,0.2v1.1c0,0.1,0,0.2,0,0.2
				s-0.1,0-0.2,0l-2.4,0h-3.6v0.9h2.6l2.5,0c0.1,0,0.2,0,0.2,0c0,0,0,0.1,0,0.2v1c0,0.1,0,0.1,0,0.2c0,0-0.1,0-0.2,0l-2.5,0h-2.6
				v0.9h4.7l2.3,0c0.1,0,0.2,0,0.2,0c0,0,0,0.1,0,0.2v1.1c0,0.1,0,0.2,0,0.2c0,0-0.1,0-0.2,0l-2.3,0h-4.7v1.7h1.7
				c0.1-0.2,0.3-0.4,0.4-0.8c0.1-0.3,0.3-0.5,0.3-0.8c0.6,0.1,1.2,0.3,1.6,0.4c0.1,0,0.2,0.1,0.2,0.2c0,0.1-0.1,0.2-0.2,0.2
				c-0.1,0.1-0.2,0.2-0.3,0.4l-0.2,0.4h1.2l2.2,0c0.1,0,0.2,0,0.2,0c0,0,0,0.1,0,0.2v1.1c0,0.1,0,0.1,0,0.2s-0.1,0-0.2,0l-2.2,0
				H98.9z M100.3,178.5h-1.4c-0.1,0-0.1,0-0.2,0s0-0.1,0-0.2l0-2.3v-0.8l0-1.3c0-0.1,0-0.2,0-0.2s0.1,0,0.2,0l2.5,0h6.1l2.5,0
				c0.1,0,0.2,0,0.2,0c0,0,0,0.1,0,0.2l0,1.1v1l0,2.3c0,0.1,0,0.2,0,0.2c0,0-0.1,0-0.2,0h-1.4c-0.1,0-0.2,0-0.2,0s0-0.1,0-0.2v-0.4
				h-7.9v0.5c0,0.1,0,0.2,0,0.2C100.5,178.5,100.4,178.5,100.3,178.5z M100.5,175.1v1.3h7.9v-1.3H100.5z"/>
		</g>
		<g class="st5">
			<path class="st6" d="M74.6,182.8h2c-0.2,7-0.3,10.8-0.3,11.2c0,0.8,0.2,1.4,0.6,1.7c0.4,0.3,0.9,0.5,1.7,0.5
				c2.4,0,3.8-1.6,4.4-4.8l1.8,1c-0.9,3.7-3,5.6-6.2,5.6c-1.6,0-2.7-0.3-3.3-1c-0.6-0.6-0.9-1.6-0.9-3c0-0.5,0-2,0.1-4.7
				C74.5,186.6,74.6,184.5,74.6,182.8z"/>
			<path class="st6" d="M91.8,185.4c0.9-0.1,1.7-0.1,2.4-0.2l0,1.6c-1.2,0.1-2.1,0.2-2.8,0.2c-0.8,2.8-1.8,5.6-3.2,8.3l-1.7-0.8
				c1.4-2.5,2.4-5,3.1-7.4c-0.9,0-1.6,0-1.9,0l-0.9,0l0-1.6c0.3,0,0.7,0,1.2,0c0.4,0,1.1,0,2,0c0.2-0.8,0.4-1.8,0.5-3l1.9,0.3
				C92.2,183.5,92.1,184.4,91.8,185.4z M95.1,192.8c-0.1-0.9-0.1-2.4-0.2-4.4h1.8c0,2,0.1,3.6,0.2,4.7c1.3,0.5,2.4,1.3,3.4,2.2
				l-1,1.7c-0.9-1-1.7-1.6-2.4-2v0.4c0,0.9-0.3,1.5-1,2c-0.6,0.4-1.4,0.6-2.4,0.6c-1.2,0-2-0.3-2.6-0.8c-0.5-0.4-0.7-1.1-0.7-1.8
				c0-0.9,0.4-1.6,1.2-2.1c0.7-0.4,1.5-0.6,2.4-0.6C94.3,192.6,94.7,192.7,95.1,192.8z M95.2,194.4c-0.4-0.2-0.8-0.2-1.3-0.2
				c-1.4,0-2.1,0.4-2.1,1.2c0,0.7,0.6,1.1,1.8,1.1c1.1,0,1.7-0.5,1.7-1.4c0,0,0-0.1,0-0.1L95.2,194.4z M95.2,186.3l0.8-1.5
				c1.8,0.6,3.3,1.3,4.4,2.1l-0.9,1.6C98.3,187.6,96.9,186.9,95.2,186.3z"/>
			<path class="st6" d="M109.4,186c0.7,0,1.2,0,1.4,0c0.9,0,1.5,0.3,1.9,0.8c0.4,0.6,0.6,1.4,0.6,2.7c0,3-0.2,5.1-0.5,6.3
				c-0.2,0.7-0.5,1.2-0.9,1.5c-0.4,0.3-1,0.4-1.7,0.4c-0.7,0-1.3,0-1.9-0.1l-0.4-1.8c0.8,0.2,1.3,0.2,1.6,0.2c0.5,0,0.8-0.1,1-0.2
				c0.2-0.1,0.3-0.3,0.4-0.6c0.4-1,0.5-2.9,0.5-5.5c0-0.9-0.1-1.5-0.3-1.8c-0.1-0.2-0.4-0.4-0.7-0.4c-0.4,0-1,0-1.5,0.1
				c-0.9,3.8-2.1,7.2-3.5,10.1l-1.7-0.7c1.4-2.9,2.5-6,3.3-9.3c-1,0.1-2.1,0.2-3.2,0.3l-0.1-1.7c1.7-0.1,2.9-0.2,3.6-0.2
				c0.3-1.3,0.5-2.5,0.7-3.6l1.9,0.2C109.8,184.2,109.6,185.3,109.4,186z M113.1,185l1.6-0.7c1.2,1.9,2.1,4.2,2.8,6.7l-1.8,0.7
				C115.2,189.1,114.4,186.9,113.1,185z"/>
			<path class="st6" d="M120.5,190.4l-0.5-1.7c2.7-0.7,4.6-1,5.7-1c1.4,0,2.5,0.4,3.2,1.3c0.6,0.7,0.9,1.8,0.9,3.1
				c0,1.8-0.7,3.1-2.1,4c-0.6,0.4-1.4,0.7-2.2,1c-0.7,0.2-1.6,0.4-2.7,0.5l-0.7-1.5c1.3-0.1,2.3-0.3,3-0.5c0.7-0.2,1.2-0.5,1.7-0.8
				c0.8-0.6,1.2-1.4,1.2-2.6c0-1.1-0.2-1.8-0.6-2.3c-0.4-0.4-0.9-0.5-1.7-0.5C124.4,189.3,122.7,189.7,120.5,190.4z"/>
			<path class="st6" d="M135.7,187c-1,0-1.9,0.1-2.8,0.1v-1.6c1,0,2.1,0,3.1-0.1c0.1-1,0.2-2,0.3-3l1.9,0.2
				c-0.2,1.1-0.3,2.1-0.4,2.7c1.2-0.1,2.5-0.2,3.9-0.3l0,1.6c-1.3,0.1-2.7,0.2-4.3,0.3c-0.7,3.8-1.6,7.4-2.8,10.9l-1.8-0.7
				C134.3,193.6,135.2,190.2,135.7,187z M138.2,193.5l1.6,0.1c-0.1,0.4-0.1,0.7-0.1,1.1c0,0.5,0.2,0.8,0.5,1s1,0.3,1.9,0.3
				c1.2,0,2.2-0.1,3-0.2l0.1,1.8c-0.9,0.1-1.9,0.1-3,0.1c-1.6,0-2.7-0.2-3.4-0.7c-0.6-0.4-0.9-1.1-0.9-2
				C138,194.5,138,194,138.2,193.5z M139.2,190.2v-1.6c1.7-0.2,3.4-0.3,5.2-0.3c0.3,0,0.5,0,0.7,0v1.6c-0.1,0-0.4,0-0.7,0
				C142.3,189.9,140.6,190,139.2,190.2z"/>
		</g>
		<g class="st5">
			<path class="st3" d="M187.1,249.9h-1.6c-0.1,0-0.1,0-0.2,0s0-0.1,0-0.2l0-5.9v-3.3l0-4.5c0-0.1,0-0.1,0-0.2s0.1,0,0.2,0l2.5,0
				h1.2c0.2-0.4,0.4-1,0.7-1.7c0.1-0.2,0.1-0.5,0.2-0.9c0.5,0,1.1,0.1,1.9,0.3c0.2,0,0.3,0.1,0.3,0.2c0,0.1,0,0.2-0.1,0.2
				c-0.1,0.2-0.2,0.3-0.3,0.4c-0.2,0.5-0.4,1-0.6,1.4h3.5l2.5,0c0.1,0,0.1,0,0.2,0s0,0.1,0,0.2l0,4v3.8l0,5.9c0,0.1,0,0.2,0,0.2
				c0,0-0.1,0-0.2,0h-1.6c-0.1,0-0.2,0-0.2,0c0,0,0-0.1,0-0.2v-0.8h-8.1v0.8c0,0.1,0,0.2,0,0.2C187.2,249.9,187.2,249.9,187.1,249.9
				z M187.3,237.6v2h8.1v-2H187.3z M187.3,243.3h8.1v-2h-8.1V243.3z M187.3,247.1h8.1V245h-8.1V247.1z"/>
			<path class="st3" d="M219.5,242C219.5,242,219.5,242,219.5,242c0.2,0,0.2,0.1,0.2,0.2l0.1,1.3c0,0,0,0.1,0,0.1
				c0,0.1-0.1,0.1-0.2,0.1c-1.5,0.1-2.2,0.2-2.3,0.2l-5.1,0.6v2.6c0,0.3,0,0.5,0.1,0.6c0.1,0.1,0.2,0.2,0.4,0.2
				c0.4,0.1,1,0.1,1.9,0.1c1.4,0,2.3-0.1,2.6-0.4c0.3-0.3,0.5-0.9,0.5-2c0.5,0.2,0.9,0.4,1.4,0.5c0.2,0.1,0.3,0.1,0.4,0.1
				c0.1,0,0.1,0.1,0.1,0.2c0,0,0,0.1,0,0.2c-0.1,1.1-0.5,1.9-1,2.3c-0.6,0.4-1.8,0.7-3.8,0.7c-1.7,0-2.9-0.1-3.4-0.3
				c-0.7-0.3-1-0.8-1-1.8v-3l-3.6,0.4c-1,0.1-1.8,0.2-2.2,0.3c0,0-0.1,0-0.1,0c-0.1,0-0.1-0.1-0.1-0.2l-0.1-1.4v0c0,0,0,0,0,0
				c0-0.1,0.1-0.1,0.2-0.1c0.8-0.1,1.6-0.1,2.3-0.2l3.7-0.4v-2c-1.2,0.2-2.4,0.4-3.5,0.6c-0.2,0-0.3,0-0.3,0c-0.1,0-0.2,0-0.2-0.1
				c0-0.1-0.1-0.2-0.1-0.4c-0.2-0.5-0.4-0.9-0.7-1.2c3-0.3,5.9-0.8,8.6-1.6c0.4-0.1,0.9-0.3,1.3-0.6c0.4,0.3,0.8,0.7,1.2,1.1
				c0.1,0.1,0.2,0.3,0.2,0.4c0,0.1-0.1,0.2-0.3,0.2c-0.2,0-0.5,0.1-0.7,0.2c-1.1,0.4-2.3,0.7-3.5,1v2.2l5-0.6
				c0.6-0.1,1.2-0.1,1.7-0.2C219.3,242,219.5,242,219.5,242z M217,235.4l2.4,0c0.1,0,0.2,0.1,0.2,0.2l0,1v0.8l0,2c0,0.1,0,0.1,0,0.2
				s-0.1,0-0.2,0h-1.5c-0.1,0-0.2,0-0.2,0c0,0,0-0.1,0-0.2v-2.2h-11.4v2.3c0,0.1,0,0.2,0,0.2c0,0-0.1,0-0.2,0h-1.5
				c-0.1,0-0.1,0-0.2,0c0,0,0-0.1,0-0.2l0-2v-0.7l0-1.1c0-0.1,0.1-0.2,0.2-0.2l2.4,0h4v-0.1c0-0.8,0-1.4-0.1-1.7
				c0.7,0,1.3,0.1,1.9,0.1c0.2,0,0.3,0.1,0.3,0.2c0,0,0,0.1-0.1,0.3c-0.1,0.1-0.1,0.5-0.1,1.1v0.1H217z"/>
			<path class="st3" d="M235.9,235.3l0.1,1.8c-1.3,0-2.3,0.2-3,0.7c-2.4,1.3-3.6,3.2-3.6,5.6c0,2.4,1.8,3.8,5.4,4.1l-0.5,1.9
				c-4.5-0.4-6.8-2.4-6.8-5.9c0-1.4,0.4-2.6,1.1-3.7c0.6-1,1.5-1.8,2.6-2.4l0.9-0.3l0-0.1l-1,0.3c-1.5,0.2-3.8,0.4-6.8,0.8l-0.2-1.8
				C227.5,235.8,231.4,235.6,235.9,235.3z M233,239.5l1.2-0.3c0.5,0.8,0.9,1.8,1.3,3l-1.2,0.4C233.9,241.4,233.5,240.4,233,239.5z
				 M235.1,238.9l1.2-0.4c0.5,0.9,0.9,1.9,1.3,2.9l-1.2,0.4C236,240.7,235.6,239.7,235.1,238.9z"/>
			<path class="st3" d="M247.5,239.5c0.5,1.1,0.9,2.2,1.2,3.2c0,0.1,0,0.1,0,0.1c0,0.1-0.1,0.1-0.2,0.2l-0.9,0.3c-0.1,0-0.1,0-0.2,0
				c-0.1,0-0.1-0.1-0.1-0.2l-0.2-0.8l-1.1,0.1v4.9l0,2.4c0,0.1,0,0.2,0,0.2c0,0-0.1,0-0.2,0h-1.4c-0.1,0-0.1,0-0.2,0s0-0.1,0-0.2
				l0-2.4v-4.8l-1.6,0.1c-0.3,0-0.5,0.1-0.7,0.1c-0.1,0.1-0.2,0.1-0.3,0.1c-0.1,0-0.2-0.1-0.2-0.3c-0.1-0.4-0.2-0.9-0.3-1.5
				c0.4,0,0.8,0,1.1,0c0.1,0,0.3,0,0.4,0c0.3-0.4,0.7-0.9,1-1.4c-0.7-0.9-1.5-1.7-2.4-2.6c-0.1-0.1-0.1-0.1-0.1-0.2
				c0,0,0-0.1,0.1-0.2l0.6-0.9c0.1-0.1,0.1-0.2,0.2-0.2c0,0,0.1,0,0.2,0.1l0.5,0.5c0.4-0.7,0.7-1.3,1-1.9c0.2-0.4,0.3-0.7,0.4-1.1
				c0.7,0.2,1.2,0.5,1.5,0.7c0.2,0.1,0.2,0.2,0.2,0.3c0,0.1-0.1,0.1-0.2,0.2c-0.1,0.1-0.2,0.2-0.3,0.4c-0.5,0.9-1,1.7-1.6,2.5
				c0.6,0.6,0.8,0.9,0.8,1c0.3-0.4,0.7-1.1,1.2-2c0.2-0.3,0.4-0.7,0.5-1.2c0.7,0.3,1.2,0.6,1.5,0.8c0.1,0.1,0.2,0.2,0.2,0.3
				c0,0.1-0.1,0.2-0.2,0.3c-0.1,0.1-0.3,0.3-0.6,0.7c-0.8,1.3-1.8,2.6-2.7,3.9c0.4,0,1.1-0.1,2-0.1c-0.2-0.4-0.3-0.8-0.4-1
				c0-0.1,0-0.1,0-0.1c0-0.1,0.1-0.1,0.2-0.2l0.7-0.3c0.1,0,0.1,0,0.2,0C247.4,239.3,247.4,239.4,247.5,239.5z M241.2,248.2
				c0.4-1.2,0.6-2.4,0.7-3.4c0-0.2,0-0.4,0-0.6c0-0.1,0-0.3,0-0.4c0.4,0.1,0.9,0.1,1.4,0.3c0.2,0,0.3,0.1,0.3,0.2
				c0,0.1,0,0.2-0.1,0.3c0,0-0.1,0.2-0.1,0.6c-0.2,1.4-0.4,2.5-0.6,3.3c-0.1,0.3-0.2,0.4-0.3,0.4c-0.1,0-0.2,0-0.3-0.1
				C241.9,248.4,241.6,248.3,241.2,248.2z M247.6,243.7c0.1,0,0.1,0,0.1,0c0.1,0,0.1,0.1,0.2,0.2c0.4,1.1,0.6,2.1,0.7,3
				c0,0,0,0.1,0,0.1c0,0.1-0.1,0.2-0.2,0.2l-0.9,0.2c-0.1,0-0.2,0-0.2,0c-0.1,0-0.1-0.1-0.1-0.2c-0.1-1.1-0.3-2.2-0.6-3.1
				c0,0,0-0.1,0-0.1c0-0.1,0.1-0.1,0.2-0.2L247.6,243.7z M254.6,245.5h-1v2.4h1.7l2.4,0c0.1,0,0.2,0,0.2,0c0,0,0,0.1,0,0.1v1.3
				c0,0.1,0,0.1,0,0.2s-0.1,0-0.2,0l-2.4,0h-4.9l-2.4,0c-0.1,0-0.2,0-0.2,0s0-0.1,0-0.2V248c0-0.1,0.1-0.2,0.2-0.2l2.4,0h1.5v-2.4
				h-0.6l-2.2,0c-0.1,0-0.2,0-0.2,0c0,0,0-0.1,0-0.2v-1.2c0-0.1,0-0.2,0-0.2c0,0,0.1,0,0.2,0l2.2,0h0.6v-0.4c0-0.9,0-1.5-0.1-1.9
				c0.5,0,1.1,0.1,1.8,0.1c0.2,0,0.3,0.1,0.3,0.2c0,0.1,0,0.2-0.1,0.3c-0.1,0.2-0.1,0.5-0.1,1.1v0.5h1l2.2,0c0.1,0,0.2,0,0.2,0
				c0,0,0,0.1,0,0.2v1.2c0,0.1,0,0.2,0,0.2c0,0-0.1,0-0.2,0L254.6,245.5z M257.9,240.7c-0.3,0.4-0.5,0.8-0.6,1.3
				c-0.1,0.3-0.2,0.4-0.3,0.4c-0.1,0-0.2,0-0.4-0.1c-1.4-0.4-2.6-1-3.7-1.7c-0.8,0.6-1.9,1.1-3.1,1.6c-0.3,0.1-0.4,0.1-0.4,0.1
				c-0.1,0-0.2-0.1-0.3-0.4c-0.2-0.4-0.5-0.8-0.8-1.1c1.2-0.3,2.3-0.8,3.3-1.3c-0.9-0.9-1.6-2.1-2.2-3.6c-0.1,0-0.3,0-0.6,0
				c-0.1,0-0.2,0-0.3,0c-0.1,0-0.1,0-0.1,0l-0.2,0c0,0,0-0.1,0-0.1v-1.2c0-0.1,0-0.1,0-0.2s0.1,0,0.2,0l2.2,0h4.5
				c0.2,0,0.3,0,0.4-0.1c0.1,0,0.2-0.1,0.2-0.1c0.1,0,0.4,0.2,0.8,0.5c0.4,0.4,0.6,0.6,0.6,0.7c0,0.1-0.1,0.2-0.2,0.3
				c-0.1,0.1-0.3,0.4-0.5,0.8c-0.6,1.1-1.3,2.1-2.1,3C255.2,240,256.4,240.4,257.9,240.7z M254.7,235.9h-3.7c0.5,1,1.1,1.9,1.8,2.6
				C253.7,237.7,254.3,236.9,254.7,235.9z"/>
			<path class="st3" d="M278.8,247.6c-0.3,0.4-0.4,0.8-0.5,1.3c0,0.3-0.1,0.5-0.2,0.5c-0.1,0-0.2,0.1-0.5,0.1
				c-2.2,0.1-4.3,0.2-6.3,0.2c-1.9,0-3.3-0.2-4.2-0.5c-0.8-0.3-1.4-0.9-1.9-1.6c-0.5,0.4-1,0.9-1.7,1.5c-0.2,0.1-0.3,0.3-0.4,0.4
				c-0.1,0.1-0.2,0.2-0.3,0.2s-0.2-0.1-0.3-0.2c-0.2-0.4-0.4-1-0.7-1.6c0.4-0.2,0.8-0.4,1.1-0.6c0.4-0.3,0.9-0.6,1.4-1.1V242h-0.8
				l-1.3,0c-0.1,0-0.2,0-0.2,0c0,0,0-0.1,0-0.2v-1.4c0-0.1,0-0.1,0-0.2c0,0,0.1,0,0.2,0l1.3,0h1.1l1.3,0c0.1,0,0.2,0,0.2,0
				s0,0.1,0,0.2l0,1.7v3.9c0.3,0.7,0.9,1.2,1.6,1.5c0.6,0.2,1.8,0.3,3.4,0.3C273.8,247.9,276.4,247.8,278.8,247.6z M262.6,235.1
				c-0.1-0.1-0.1-0.1-0.1-0.1c0,0,0.1-0.1,0.2-0.2l0.9-0.7c0.1-0.1,0.2-0.1,0.2-0.1c0,0,0.1,0,0.2,0.1c0.9,0.8,1.6,1.7,2.3,2.7
				c0,0.1,0.1,0.1,0.1,0.1c0,0-0.1,0.1-0.2,0.2l-1,0.8c-0.1,0.1-0.2,0.1-0.2,0.1c-0.1,0-0.1,0-0.2-0.1
				C264.1,236.8,263.4,235.9,262.6,235.1z M273.2,242l1.4,0c0.1,0,0.2,0,0.2,0c0,0,0,0.1,0,0.2l0,1.2v1.2c0,0.5,0,0.8,0,1
				c0.2,0,0.4,0,0.7,0c0.3,0,0.5-0.2,0.5-0.5v-4h-6.8v4l0,2c0,0.1,0,0.1,0,0.2c0,0-0.1,0-0.2,0h-1.4c-0.1,0-0.2,0-0.2,0
				c0,0,0-0.1,0-0.2l0-2v-3.3l0-1.8c0-0.1,0-0.2,0-0.2c0,0,0.1,0,0.2,0c0,0,0,0,0.1,0c0.3,0,0.5,0,0.8,0v-3.4l0-1.8
				c0-0.1,0-0.2,0-0.2c0,0,0.1,0,0.2,0l2.2,0h3.4l2.2,0c0.1,0,0.2,0,0.2,0c0,0,0,0.1,0,0.2l0,1.8v3.4c0.2,0,0.4,0,0.7,0
				c0.1,0,0.2,0,0.2,0c0.1,0,0.2,0,0.2,0s0,0.1,0,0.2l0,1.7v1.1l0,2.8c0,0.6-0.1,1-0.4,1.3c-0.3,0.3-1,0.4-2,0.4
				c-0.3,0-0.5,0-0.5-0.1s-0.1-0.1-0.1-0.3c-0.1-0.4-0.1-0.7-0.2-0.9l-1.3,0h-1.4l-1.4,0c-0.1,0-0.2,0-0.2,0s0-0.1,0-0.2l0-1.2v-1.2
				l0-1.2c0-0.1,0-0.2,0-0.2c0,0,0.1,0,0.2,0l1.4,0H273.2z M274.9,235.7h-4.7v3.9h1.4v-1.4l0-1.3c0-0.1,0-0.1,0-0.2s0.1,0,0.2,0
				l1.4,0h1.8V235.7z M271.6,243.2v1.4h1.7v-1.4H271.6z M273.2,239.6h1.7V238h-1.7V239.6z"/>
			<path class="st3" d="M288.1,236.2c1.7-0.1,3.3-0.2,4.7-0.3l0.1,1.6c-2.1,0.2-3.9,0.3-5.5,0.3c-0.4,0.8-0.9,1.5-1.4,2l-0.4,0.4
				l0.1,0.1l0.4-0.3c0.5-0.3,1-0.5,1.5-0.5c0.6,0,1.1,0.2,1.5,0.6c0.4,0.3,0.6,0.8,0.7,1.4c0.5-0.2,1.7-0.7,3.6-1.6l0.7,1.7
				c-1.6,0.5-3,1.1-4.2,1.6v3.5h-1.7v-2.7c-1.1,0.6-1.8,1.1-2.2,1.4c-0.3,0.3-0.5,0.7-0.5,1.1c0,0.5,0.2,0.8,0.7,1
				c0.5,0.2,1.3,0.3,2.5,0.3c1.4,0,2.9-0.1,4.7-0.3l0.1,1.7c-1.6,0.1-3.3,0.2-5,0.2c-1.9,0-3.2-0.3-3.9-0.8c-0.5-0.4-0.8-1.1-0.8-2
				c0-0.8,0.3-1.6,0.9-2.2c0.7-0.7,1.8-1.4,3.4-2.1c0-0.6-0.1-1-0.3-1.2c-0.1-0.2-0.4-0.2-0.7-0.2c-0.6,0-1.2,0.3-2,0.9
				c-0.6,0.5-1.2,1.2-2,2.1l-1.3-1.2c1.6-1.6,2.8-3.3,3.7-4.9c-0.3,0-0.8,0-1.4,0c-0.4,0-1,0-1.8,0v-1.6c0.8,0,1.4,0.1,2,0.1
				c0.8,0,1.5,0,1.9,0c0.3-0.7,0.5-1.5,0.7-2.4l1.9,0.3C288.6,234.8,288.3,235.5,288.1,236.2z"/>
		</g>
		<g class="st5">
			<path class="st3" d="M197.8,265.8c0.4,0.3,0.8,0.5,1.3,0.6c0.2,0.1,0.3,0.1,0.4,0.2c0,0,0.1,0.1,0.1,0.2c0,0,0,0.1,0,0.3
				c-0.1,0.7-0.2,1.1-0.3,1.4c-0.1,0.3-0.3,0.5-0.5,0.7c-0.5,0.4-1.5,0.5-3,0.5c-1.4,0-2.3-0.1-2.7-0.3c-0.5-0.2-0.7-0.6-0.7-1.3
				v-3.7h-1.6c-0.5,3-2.4,4.9-5.5,5.5c-0.2,0-0.3,0.1-0.4,0.1c-0.1,0-0.3-0.1-0.4-0.4c-0.2-0.5-0.5-0.9-0.9-1.2
				c3.1-0.4,4.9-1.7,5.2-4h0l-2.4,0c-0.1,0-0.2,0-0.2,0c0,0,0-0.1,0-0.2l0-2.2v-5.4l0-2.2c0-0.1,0-0.1,0-0.2c0,0,0.1,0,0.2,0l2.5,0
				h5.8l2.5,0c0.1,0,0.2,0,0.2,0s0,0.1,0,0.2l0,2.2v5.4l0,2.2c0,0.1,0,0.2,0,0.2s-0.1,0-0.2,0l-2.5,0h-0.3v2.8
				c0,0.3,0.1,0.5,0.3,0.6c0.2,0.1,0.7,0.1,1.4,0.1c0.8,0,1.3-0.1,1.5-0.2C197.6,267.5,197.8,266.8,197.8,265.8z M195.2,255.9h-7.3
				v1.3h7.3V255.9z M187.8,260h7.3v-1.3h-7.3V260z M195.2,262.9v-1.3h-7.3v1.3H195.2z"/>
			<path class="st3" d="M204.4,255.1c2.1,0,4.7-0.1,7.7-0.2l0.9,1.3c-1.3,1.2-3.1,2.7-5.2,4.6l-0.7,0.6l0.1,0.1l0.9-0.5
				c0.6-0.3,1.3-0.4,1.9-0.4c1.5,0,2.7,0.4,3.6,1.3c0.7,0.7,1.1,1.7,1.1,2.9c0,1.7-0.6,2.9-1.8,3.8c-1,0.7-2.5,1.1-4.4,1.1
				c-2.5,0-3.7-0.9-3.7-2.6c0-0.7,0.3-1.3,0.9-1.8c0.5-0.4,1.2-0.6,1.9-0.6c0.9,0,1.7,0.3,2.4,0.9c0.6,0.5,1,1.2,1.3,2.1
				c1-0.4,1.5-1.3,1.5-2.8c0-1-0.3-1.7-0.9-2.2c-0.5-0.4-1.2-0.7-2.1-0.7c-1.5,0-2.8,0.6-4.2,1.7c-0.6,0.5-1.1,1.1-1.6,1.7l-1.4-1.2
				c3.3-3.3,5.8-5.9,7.7-7.6c-2,0.2-4,0.3-5.8,0.3L204.4,255.1z M209.6,268.1c-0.1-0.7-0.4-1.3-0.8-1.7c-0.3-0.3-0.7-0.4-1.1-0.4
				c-0.4,0-0.7,0.1-0.9,0.3c-0.2,0.2-0.3,0.4-0.3,0.7c0,0.8,0.7,1.3,2.1,1.3C208.8,268.2,209.1,268.2,209.6,268.1z"/>
			<path class="st3" d="M224,259.3c0.1,1.9,0.2,3.5,0.3,4.7c1.8,0.5,3.5,1.6,5.1,3.1l-1.3,1.6c-1.2-1.5-2.5-2.5-3.7-2.9
				c0,0.2,0,0.4,0,0.6c0,1.9-1.3,2.9-3.9,2.9c-1.2,0-2-0.3-2.6-0.8c-0.5-0.5-0.8-1.1-0.8-2c0-0.9,0.4-1.7,1.2-2.2
				c0.7-0.4,1.5-0.6,2.4-0.6c0.6,0,1.1,0,1.6,0.1c-0.2-1.8-0.3-5.1-0.4-9.7h1.9c0,1.6,0,2.8,0,3.7c1.8,0,3.4-0.1,4.7-0.3l0,1.6
				C227.2,259.2,225.6,259.3,224,259.3z M222.6,265.4c-0.5-0.1-1.1-0.2-1.7-0.2c-0.7,0-1.2,0.1-1.6,0.4c-0.3,0.2-0.4,0.5-0.4,0.8
				c0,0.8,0.6,1.2,1.8,1.2c1.3,0,1.9-0.5,1.9-1.5C222.6,265.9,222.6,265.7,222.6,265.4z"/>
			<path class="st3" d="M230.5,259.1c2.3-0.7,4.2-1,5.6-1c1.4,0,2.4,0.4,3,1.3c0.5,0.7,0.7,1.7,0.7,3.1c0,1.9-0.5,3.4-1.6,4.6
				c-1.1,1.2-2.8,2.1-4.9,2.6l-1-1.6c2-0.5,3.4-1.2,4.3-2.1c0.8-0.8,1.2-2,1.2-3.5c0-1.7-0.6-2.6-1.8-2.6c-1.2,0-2.8,0.4-4.9,1.1
				L230.5,259.1z M232.6,254c1.9,0.5,4.1,0.8,6.6,1.1l-0.4,1.8c-2.4-0.3-4.7-0.7-6.7-1.2L232.6,254z"/>
			<path class="st3" d="M246,254.9c-0.3,1.4-0.6,3-0.8,4.7c-0.2,1.5-0.3,2.8-0.3,3.8c0,2.2,0.1,4.1,0.4,5.7l-1.9,0.2
				c-0.3-1.8-0.4-3.8-0.4-5.9c0-1.3,0.1-2.8,0.4-4.7c0.2-1.4,0.4-2.8,0.6-4L246,254.9z M247.1,263.9l1.8,0.1
				c-0.1,0.5-0.2,0.9-0.2,1.4c0,0.6,0.2,1,0.6,1.2c0.3,0.2,0.9,0.3,1.6,0.3c1.3,0,2.5-0.1,3.8-0.2l0.1,1.9c-1.1,0.1-2.3,0.1-3.7,0.1
				c-1.5,0-2.6-0.3-3.2-0.8c-0.6-0.5-0.9-1.2-0.9-2.2C246.9,265.1,246.9,264.5,247.1,263.9z M247.4,258.5v-1.8
				c1.5-0.1,3.1-0.2,4.7-0.2c0.8,0,1.6,0,2.4,0.1v1.7c-0.6-0.1-1.4-0.1-2.5-0.1C250.5,258.3,249,258.3,247.4,258.5z"/>
			<path class="st3" d="M261.3,258.4l-2.2,0c-0.1,0-0.2,0-0.2,0s0-0.1,0-0.2v-1.4c0-0.1,0-0.2,0-0.2s0.1,0,0.2,0l2.2,0h11.1l2.2,0
				c0.1,0,0.2,0,0.2,0c0,0,0,0.1,0,0.2v1.4c0,0.1,0,0.1,0,0.2c0,0-0.1,0-0.2,0l-2.2,0H261.3z M262.8,270h-1.5c-0.1,0-0.2,0-0.2,0
				c0,0,0-0.1,0-0.2l0-2.6v-1l0-1.5c0-0.1,0-0.2,0-0.2c0,0,0.1,0,0.2,0l2.5,0h6.1l2.5,0c0.1,0,0.2,0,0.2,0c0,0,0,0.1,0,0.2l0,1.3
				v1.2l0,2.5c0,0.1,0,0.2,0,0.2s-0.1,0-0.2,0h-1.5c-0.1,0-0.2,0-0.2,0c0,0,0-0.1,0-0.2v-0.5H263v0.6c0,0.1,0,0.1,0,0.2
				C262.9,270,262.8,270,262.8,270z M263.8,255.8l-2.5,0c-0.1,0-0.2,0-0.2,0c0,0,0-0.1,0-0.2v-1.2c0-0.1,0-0.2,0-0.2
				c0,0,0.1,0,0.2,0l2.5,0h6l2.5,0c0.1,0,0.1,0,0.2,0c0,0,0,0.1,0,0.2v1.2c0,0.1,0,0.1,0,0.2s-0.1,0-0.2,0l-2.5,0H263.8z M264.1,261
				l-2.4,0c-0.1,0-0.2,0-0.2,0s0-0.1,0-0.2v-1.2c0-0.1,0.1-0.2,0.2-0.2l2.4,0h5.5l2.4,0c0.1,0,0.2,0,0.2,0c0,0,0,0.1,0,0.1v1.2
				c0,0.1,0,0.1,0,0.2c0,0-0.1,0-0.2,0l-2.4,0H264.1z M264.1,263.5l-2.4,0c-0.1,0-0.2,0-0.2,0s0-0.1,0-0.2v-1.2c0-0.1,0-0.1,0-0.2
				s0.1,0,0.2,0l2.4,0h5.5l2.4,0c0.1,0,0.2,0,0.2,0c0,0,0,0.1,0,0.2v1.2c0,0.1,0,0.1,0,0.2c0,0-0.1,0-0.2,0l-2.4,0H264.1z M263,266
				v1.6h7.6V266H263z"/>
			<path class="st3" d="M284.4,254c0,0.8-0.1,1.7-0.1,2.7l0.6-0.1l0.2,1c-0.5,0.6-0.7,1-0.9,1.3l-0.1,0.4L284,260l0.4-0.7
				c0.6-0.8,1.4-1.5,2.2-1.9c0.7-0.4,1.4-0.5,2.1-0.5c1.5,0,2.6,0.6,3.4,1.7c0.7,1,1.1,2.4,1.1,4.1c0,2-0.5,3.5-1.6,4.5
				c-1,0.9-2.4,1.5-4.4,1.8l-0.9-1.5c1.8-0.2,3.2-0.8,4-1.7c0.7-0.8,1-1.9,1-3.2c0-1.4-0.3-2.5-0.9-3.2c-0.5-0.6-1.1-0.9-1.9-0.9
				c-1.5,0-2.9,1-4.3,2.9c0,0.6,0,1.7,0,3.2c0,2.3,0,3.9,0,4.9h-1.8c0-0.7,0-2.6,0.1-5.6l0.1-1.2l-0.1,0l-0.4,1.1
				c-0.3,0.6-0.8,1.6-1.5,3l-1.4-1.2c0.9-1.6,2-3.4,3.2-5.5l0-1.7c-0.2,0-1.1,0.1-2.7,0.3l-0.1-1.5c1.6-0.1,2.5-0.2,2.8-0.3
				c0-0.5,0-1.5,0.1-2.9H284.4z"/>
			<path class="st3" d="M301.2,254.1l1.8,0c0,0.5-0.1,1.1-0.1,1.9c0,0.5,0,0.9-0.1,1.2l0.6,0.5c0.1,0.1,0.1,0.2,0.1,0.2
				c0,0.1,0,0.2-0.1,0.2c-0.3,0.4-0.6,0.7-0.8,1.1l-0.1,0.5l-0.2,0.7l0.1,0l0.3-0.7c0.9-1.2,1.7-2.1,2.4-2.6c0.8-0.6,1.5-1,2.1-1
				c0.9,0,1.5,0.3,1.8,0.8c0.4,0.5,0.5,1.3,0.5,2.3c0,1-0.1,2.2-0.2,3.5c-0.1,1.5-0.2,2.6-0.2,3.1c0,0.5,0.2,0.8,0.5,0.8
				c0.6,0,1.1-0.9,1.4-2.8l1.5,1c-0.4,1.5-0.8,2.4-1.4,3c-0.4,0.4-1,0.7-1.8,0.7c-0.8,0-1.3-0.2-1.7-0.6c-0.3-0.4-0.5-1-0.5-1.8
				c0-0.9,0-2,0.1-3.3c0.1-1.4,0.1-2.5,0.1-3.2c0-0.7-0.1-1.2-0.2-1.5c-0.1-0.2-0.3-0.3-0.5-0.3c-0.6,0-1.4,0.4-2.2,1.3
				c-0.6,0.6-1.4,1.7-2.4,3.1v2.2v4.9h-1.8c0-1.7,0-3.5,0.1-5.2l0.2-1.1h-0.1l-0.3,1.1c-0.7,1.4-1.2,2.5-1.5,3.2l-1.4-1.3
				c1.8-3.2,2.9-5,3.1-5.5c0-0.4,0-0.8,0-1.2c0-0.4,0-0.7,0-0.8c-0.5,0-1.3,0.1-2.7,0.3l-0.1-1.5c1.1-0.1,2-0.1,2.8-0.2
				C301.1,256.7,301.1,255.7,301.2,254.1z"/>
			<path class="st3" d="M320.6,257.7c0.5,0.3,0.9,0.6,1.3,0.9c0.2,0.1,0.3,0.2,0.3,0.3s-0.1,0.2-0.2,0.3c-0.1,0.1-0.3,0.2-0.4,0.5
				c-0.3,0.4-0.6,0.9-0.9,1.3v6.6l0,2.2c0,0.1-0.1,0.2-0.2,0.2H319c-0.1,0-0.1,0-0.2,0s0-0.1,0-0.2l0-2.2V265c0-0.8,0-1.4,0-1.8
				c-0.3,0.3-0.6,0.6-1,0.9c-0.2,0.2-0.3,0.2-0.4,0.2c-0.1,0-0.2-0.1-0.2-0.4c-0.2-0.6-0.4-1.1-0.6-1.3c1.3-1,2.5-2.3,3.4-3.9
				C320.3,258.4,320.5,258.1,320.6,257.7z M320.6,253.5c0.6,0.3,1,0.6,1.5,0.9c0.2,0.1,0.2,0.2,0.2,0.3c0,0.1-0.1,0.2-0.2,0.3
				c-0.2,0.1-0.4,0.3-0.5,0.4c-0.9,1.1-1.9,2.2-3.1,3.1c-0.2,0.2-0.3,0.2-0.4,0.2c-0.1,0-0.2-0.1-0.3-0.4c-0.2-0.5-0.5-0.8-0.8-1.2
				c1.3-0.8,2.3-1.7,3.1-2.8C320.3,254,320.5,253.7,320.6,253.5z M324.4,269.3l-2.5,0c-0.1,0-0.2,0-0.2,0c0,0,0-0.1,0-0.2v-1.4
				c0-0.1,0-0.1,0-0.2c0,0,0.1,0,0.2,0l2.5,0h2.1v-3.8h-1.2l-2.3,0c-0.1,0-0.1,0-0.2,0s0-0.1,0-0.2v-1.4c0-0.1,0-0.2,0-0.2
				c0,0,0.1,0,0.2,0l2.3,0h1.2v-3.2h-1.5l-2.4,0c-0.1,0-0.2-0.1-0.2-0.2v-1.4c0-0.1,0.1-0.2,0.2-0.2l2.4,0h5.4l2.4,0
				c0.1,0,0.2,0.1,0.2,0.2v1.4c0,0.1,0,0.1,0,0.2s-0.1,0-0.2,0l-2.4,0h-1.9v3.2h1.3l2.3,0c0.1,0,0.1,0,0.2,0c0,0,0,0.1,0,0.2v1.4
				c0,0.1,0,0.1,0,0.2s-0.1,0-0.2,0l-2.3,0h-1.3v3.8h2.4l2.5,0c0.1,0,0.2,0,0.2,0c0,0,0,0.1,0,0.2v1.4c0,0.1,0,0.2,0,0.2
				s-0.1,0-0.2,0l-2.5,0H324.4z M326.3,253.6c1,0.4,2,1.1,3,1.8c0.1,0,0.1,0.1,0.1,0.1c0,0,0,0.1-0.1,0.2l-0.9,1
				c-0.1,0.1-0.2,0.2-0.2,0.2s-0.1,0-0.2-0.1c-0.9-0.8-1.9-1.4-3-2c-0.1,0-0.1-0.1-0.1-0.1c0,0,0-0.1,0.1-0.2l0.9-0.9
				c0.1-0.1,0.2-0.1,0.2-0.1C326.1,253.6,326.2,253.6,326.3,253.6z"/>
			<path class="st3" d="M340,256.7h2l1.9,0c0.1,0,0.2,0,0.2,0c0,0,0,0.1,0,0.2v1.3c1.4-0.9,2.5-2.1,3.4-3.5c0.2-0.4,0.4-0.8,0.5-1.2
				c0.4,0.1,1.1,0.2,1.8,0.3c0.2,0.1,0.3,0.1,0.3,0.3c0,0.1-0.1,0.2-0.2,0.3c0,0-0.1,0-0.1,0.1c1.1,1.7,2.7,3,4.7,4
				c-0.3,0.4-0.5,0.8-0.7,1.4c-0.1,0.3-0.2,0.4-0.3,0.4c0,0-0.2-0.1-0.4-0.2c-1.7-1.1-3.1-2.5-4.2-4.1c-1,1.6-2.3,2.9-3.9,4
				c-0.2,0.1-0.4,0.2-0.4,0.2c-0.1,0-0.2-0.1-0.4-0.4c-0.2-0.4-0.5-0.7-0.9-1l0.5-0.3l-1.9,0h-2l-1.9,0c-0.1,0-0.2,0-0.2,0
				c0,0,0-0.1,0-0.2v-1.3c0-0.1,0-0.1,0-0.2s0.1,0,0.2,0L340,256.7z M343.7,269.5c0,0.1-0.1,0.2-0.2,0.2h-1.3c-0.1,0-0.2,0-0.2,0
				s0-0.1,0-0.2V269h-1.8v0.9c0,0.1,0,0.2,0,0.2c0,0-0.1,0-0.2,0h-1.3c-0.1,0-0.2,0-0.2,0c0,0,0-0.1,0-0.2l0-2.7V266l0-1.7
				c0-0.1,0-0.2,0-0.2c0,0,0.1,0,0.2,0l1.6,0h1.5l1.7,0c0.1,0,0.2,0.1,0.2,0.2l0,1.4v1.2L343.7,269.5z M340.4,254.2h1.5l1.6,0
				c0.1,0,0.2,0,0.2,0c0,0,0,0.1,0,0.2v1.2c0,0.1,0,0.2,0,0.2c0,0-0.1,0-0.2,0l-1.6,0h-1.5l-1.6,0c-0.1,0-0.2,0-0.2,0s0-0.1,0-0.2
				v-1.2c0-0.1,0-0.1,0-0.2s0.1,0,0.2,0L340.4,254.2z M340.5,259.3h1.3l1.5,0c0.1,0,0.2,0,0.2,0c0,0,0,0.1,0,0.2v1.2
				c0,0.1,0,0.1,0,0.2s-0.1,0-0.2,0l-1.5,0h-1.3l-1.5,0c-0.1,0-0.2,0-0.2,0c0,0,0-0.1,0-0.2v-1.2c0-0.1,0-0.2,0-0.2c0,0,0.1,0,0.2,0
				L340.5,259.3z M340.5,261.7h1.3l1.5,0c0.1,0,0.2,0,0.2,0c0,0,0,0.1,0,0.2v1.2c0,0.1,0,0.2,0,0.2s-0.1,0-0.2,0l-1.5,0h-1.3l-1.5,0
				c-0.1,0-0.2,0-0.2,0c0,0,0-0.1,0-0.2v-1.2c0-0.1,0-0.2,0-0.2c0,0,0.1,0,0.2,0L340.5,261.7z M342,265.6h-1.8v1.8h1.8V265.6z
				 M343.9,268.4c1.9-0.5,3.6-1.1,4.9-1.9c1.1-0.7,2.1-1.5,3-2.5c0.3-0.4,0.6-0.7,0.7-1c0.5,0.3,1,0.7,1.3,1
				c0.1,0.1,0.2,0.2,0.2,0.3c0,0.1-0.1,0.2-0.2,0.2c-0.1,0.1-0.3,0.2-0.6,0.6c-1.9,2.2-4.5,3.8-7.8,4.7c-0.2,0.1-0.4,0.1-0.4,0.1
				c-0.1,0-0.2-0.1-0.4-0.4C344.5,269,344.2,268.7,343.9,268.4z M344.3,261.6c1.7-0.7,3.1-1.5,4.2-2.7c0.2-0.2,0.4-0.5,0.5-0.7
				c0.4,0.2,0.8,0.5,1.3,0.9c0.1,0.1,0.2,0.2,0.2,0.3s-0.1,0.2-0.2,0.2c-0.1,0.1-0.3,0.2-0.6,0.5c-0.9,1.1-2.2,1.9-3.8,2.7
				c-0.2,0.1-0.4,0.2-0.4,0.2c-0.1,0-0.2-0.1-0.4-0.4C344.9,262.3,344.6,261.9,344.3,261.6z M344.4,265c2.5-0.8,4.5-2.1,5.9-3.7
				c0.2-0.2,0.3-0.4,0.5-0.8c0.6,0.4,1,0.7,1.3,0.9c0.1,0.1,0.2,0.2,0.2,0.3s-0.1,0.2-0.2,0.3c-0.2,0.1-0.3,0.2-0.5,0.4
				c-1.3,1.5-3.2,2.8-5.6,3.9c-0.2,0.1-0.4,0.1-0.4,0.1c-0.1,0-0.2-0.1-0.4-0.4C345,265.6,344.8,265.3,344.4,265z"/>
		</g>
		<g class="st5">
			<path class="st3" d="M186.3,274.3h2c-0.2,7-0.3,10.8-0.3,11.2c0,0.8,0.2,1.4,0.6,1.7c0.4,0.3,0.9,0.5,1.7,0.5
				c2.4,0,3.8-1.6,4.4-4.8l1.8,1c-0.9,3.7-3,5.6-6.2,5.6c-1.6,0-2.7-0.3-3.3-1c-0.6-0.6-0.9-1.6-0.9-3c0-0.5,0-2,0.1-4.7
				C186.2,278.1,186.3,276,186.3,274.3z"/>
			<path class="st3" d="M209.9,275.3l0.1,1.8c-1.3,0-2.3,0.2-3,0.7c-2.4,1.3-3.6,3.2-3.6,5.6c0,2.4,1.8,3.8,5.4,4.1l-0.5,1.9
				c-4.5-0.4-6.8-2.4-6.8-5.9c0-1.4,0.4-2.6,1.1-3.7c0.6-1,1.5-1.8,2.6-2.4l0.9-0.3l0-0.1l-1,0.3c-1.5,0.2-3.8,0.4-6.8,0.8l-0.2-1.8
				C201.5,275.8,205.4,275.6,209.9,275.3z"/>
			<path class="st3" d="M215.6,276.7c0.1-0.7,0.2-1.6,0.3-2.7l1.9,0.1c-0.1,0.9-0.2,1.7-0.3,2.5c1.7,0,3.3-0.1,4.7-0.2l0,1.6
				c-1.7,0.1-3.3,0.1-4.9,0.1l-0.3,2.5c1.9,0,3.5-0.1,5-0.2v1.6c-1.4,0.1-3.2,0.2-5.2,0.2c-0.2,1.8-0.3,3.1-0.3,3.9
				c0,1.1,0.8,1.6,2.4,1.6c1.3,0,2.2-0.2,2.7-0.5c0.4-0.3,0.6-0.7,0.6-1.3c0-0.8-0.3-1.6-1-2.5l1.6-0.7c0.9,1,1.3,2,1.3,3.1
				c0,2.4-1.8,3.6-5.3,3.6c-1.5,0-2.6-0.3-3.3-1c-0.6-0.5-0.9-1.3-0.9-2.4c0-0.6,0.1-1.9,0.3-3.9c-0.6,0-1.5,0-2.7-0.1v-1.6
				c0.7,0,1.6,0.1,2.8,0.1c0.1-0.6,0.2-1.4,0.2-2.5c-0.6,0-1.6,0-3,0v-1.5C213.4,276.7,214.5,276.7,215.6,276.7z"/>
			<path class="st3" d="M228.5,277.3c-0.3,1.9-0.4,3.6-0.6,4.9l-0.3,1.1l0.6-0.8c1.2-1.3,2.6-1.9,4.2-1.9c1.5,0,2.6,0.4,3.3,1.2
				c0.7,0.7,1,1.7,1,2.9c0,0.9-0.2,1.7-0.7,2.4c-0.4,0.5-1,1-1.7,1.4c-1.3,0.7-3.3,1-5.9,1.1l-0.6-1.7h0.2c2.3,0,4-0.3,5.2-0.9
				c1.1-0.5,1.6-1.4,1.6-2.6c0-0.7-0.2-1.3-0.7-1.7c-0.4-0.3-1-0.5-1.7-0.5c-1.4,0-2.6,0.6-3.6,1.7c-0.5,0.6-0.8,1.1-0.9,1.5
				L226,285c0.1-2.1,0.4-4.7,0.7-7.9L228.5,277.3z M228.3,275.4l0.7-1.4c1,0.1,2.1,0.4,3.3,0.7c1,0.3,1.9,0.6,2.6,0.9l-0.9,1.7
				c-0.7-0.4-1.6-0.8-2.8-1.1C230.2,275.9,229.2,275.6,228.3,275.4z"/>
			<path class="st3" d="M240.4,278.2c2.9,0,5.9-0.2,9-0.5l0.9,1.2c-1.4,1.2-2.7,2.5-4.1,3.9c0.1,0,0.2,0,0.4,0c1,0,1.6,0.8,1.9,2.5
				c0.1,1,0.3,1.7,0.6,1.9c0.2,0.2,0.5,0.3,1,0.3c0.6,0,1.3-0.1,2.3-0.2v2c-0.8,0.1-1.6,0.1-2.4,0.1c-1.2,0-2.1-0.3-2.5-0.8
				c-0.3-0.4-0.5-1.2-0.7-2.4c-0.1-0.8-0.2-1.3-0.4-1.5c-0.1-0.2-0.3-0.3-0.6-0.3c-0.3,0-0.5,0.1-0.7,0.2c-0.2,0.1-0.4,0.3-0.7,0.7
				c-0.8,1-1.9,2.5-3.2,4.3l-1.7-0.9c2.5-3.4,5.1-6.5,7.8-9.2c-1.8,0.2-4,0.4-6.8,0.5L240.4,278.2z M243,273.9
				c2.1,0.5,4.5,0.8,7.1,0.9l-0.4,1.8c-2.5-0.2-4.9-0.5-7.2-1L243,273.9z"/>
			<path class="st3" d="M260.5,276.9c0.9-0.1,1.7-0.1,2.4-0.2l0,1.6c-1.2,0.1-2.1,0.2-2.8,0.2c-0.8,2.8-1.8,5.6-3.2,8.3l-1.7-0.8
				c1.4-2.5,2.4-5,3.1-7.4c-0.9,0-1.6,0-1.9,0l-0.9,0l0-1.6c0.3,0,0.7,0,1.2,0c0.4,0,1.1,0,2,0c0.2-0.8,0.4-1.8,0.5-3l1.9,0.3
				C260.9,275,260.7,275.9,260.5,276.9z M263.8,284.3c-0.1-0.9-0.1-2.4-0.2-4.4h1.8c0,2,0.1,3.6,0.2,4.7c1.3,0.5,2.4,1.3,3.4,2.2
				l-1,1.7c-0.9-1-1.7-1.6-2.4-2v0.4c0,0.9-0.3,1.5-1,2c-0.6,0.4-1.4,0.6-2.4,0.6c-1.2,0-2-0.3-2.6-0.8c-0.5-0.4-0.7-1.1-0.7-1.8
				c0-0.9,0.4-1.6,1.2-2.1c0.7-0.4,1.5-0.6,2.4-0.6C262.9,284.1,263.4,284.2,263.8,284.3z M263.8,285.9c-0.4-0.2-0.8-0.2-1.3-0.2
				c-1.4,0-2.1,0.4-2.1,1.2c0,0.7,0.6,1.1,1.8,1.1c1.1,0,1.7-0.5,1.7-1.4c0,0,0-0.1,0-0.1L263.8,285.9z M263.8,277.8l0.8-1.5
				c1.8,0.6,3.3,1.3,4.4,2.1l-0.9,1.6C267,279.1,265.5,278.4,263.8,277.8z"/>
			<path class="st3" d="M278.1,277.5c0.7,0,1.2,0,1.4,0c0.9,0,1.5,0.3,1.9,0.8c0.4,0.6,0.6,1.4,0.6,2.7c0,3-0.2,5.1-0.5,6.3
				c-0.2,0.7-0.5,1.2-0.9,1.5c-0.4,0.3-1,0.4-1.7,0.4c-0.7,0-1.3,0-1.9-0.1l-0.4-1.8c0.8,0.2,1.3,0.2,1.6,0.2c0.5,0,0.8-0.1,1-0.2
				c0.2-0.1,0.3-0.3,0.4-0.6c0.4-1,0.5-2.9,0.5-5.5c0-0.9-0.1-1.5-0.3-1.8c-0.1-0.2-0.4-0.4-0.7-0.4c-0.4,0-1,0-1.5,0.1
				c-0.9,3.8-2.1,7.2-3.5,10.1l-1.7-0.7c1.4-2.9,2.5-6,3.3-9.3c-1,0.1-2.1,0.2-3.2,0.3l-0.1-1.7c1.7-0.1,2.9-0.2,3.6-0.2
				c0.3-1.3,0.5-2.5,0.7-3.6l1.9,0.2C278.5,275.7,278.3,276.8,278.1,277.5z M281.8,276.5l1.6-0.7c1.2,1.9,2.1,4.2,2.8,6.7l-1.8,0.7
				C283.9,280.6,283,278.4,281.8,276.5z"/>
			<path class="st3" d="M289.1,281.9l-0.5-1.7c2.7-0.7,4.6-1,5.7-1c1.4,0,2.5,0.4,3.2,1.3c0.6,0.7,0.9,1.8,0.9,3.1
				c0,1.8-0.7,3.1-2.1,4c-0.6,0.4-1.4,0.7-2.2,1c-0.7,0.2-1.6,0.4-2.7,0.5l-0.7-1.5c1.3-0.1,2.3-0.3,3-0.5c0.7-0.2,1.2-0.5,1.7-0.8
				c0.8-0.6,1.2-1.4,1.2-2.6c0-1.1-0.2-1.8-0.6-2.3c-0.4-0.4-0.9-0.5-1.7-0.5C293.1,280.8,291.4,281.2,289.1,281.9z"/>
			<path class="st3" d="M304.4,278.5c-1,0-1.9,0.1-2.8,0.1V277c1,0,2.1,0,3.1-0.1c0.1-1,0.2-2,0.3-3l1.9,0.2
				c-0.2,1.1-0.3,2.1-0.4,2.7c1.2-0.1,2.5-0.2,3.9-0.3l0,1.6c-1.3,0.1-2.7,0.2-4.3,0.3c-0.7,3.8-1.6,7.4-2.8,10.9l-1.8-0.7
				C303,285.1,303.9,281.7,304.4,278.5z M306.9,285l1.6,0.1c-0.1,0.4-0.1,0.7-0.1,1.1c0,0.5,0.2,0.8,0.5,1s1,0.3,1.9,0.3
				c1.2,0,2.2-0.1,3-0.2l0.1,1.8c-0.9,0.1-1.9,0.1-3,0.1c-1.6,0-2.7-0.2-3.4-0.7c-0.6-0.4-0.9-1.1-0.9-2
				C306.7,286,306.7,285.5,306.9,285z M307.8,281.7v-1.6c1.7-0.2,3.4-0.3,5.2-0.3c0.3,0,0.5,0,0.7,0v1.6c-0.1,0-0.4,0-0.7,0
				C311,281.4,309.2,281.5,307.8,281.7z"/>
		</g>
		<g id="Group_3160" transform="translate(78.566 20.779)">
			<g class="st5">
				<path class="st3" d="M54.2,14.6c0.9-1.1,1.9-2,3.2-2.5c-0.8-0.5-1.4-1.1-1.8-1.7C55.2,9.8,55,8.9,55,8c0-1,0.3-1.9,0.8-2.7
					c0.5-0.8,1.2-1.5,2.1-1.9c1-0.5,2-0.7,3.1-0.7c1.1,0,2.1,0.2,3.1,0.7c0.9,0.5,1.7,1.1,2.2,1.9c0.6,0.7,0.8,1.6,0.8,2.5
					c0,1-0.2,1.8-0.6,2.5s-1,1.3-1.8,1.8c1.3,0.5,2.3,1.4,3.2,2.5s1.3,2.5,1.3,4.1c0,1.3-0.4,2.6-1.1,3.7c-0.7,1.2-1.7,2.1-3,2.8
					c-1.3,0.7-2.6,1-4.2,1c-1.5,0-2.9-0.3-4.1-1c-1.2-0.7-2.2-1.6-2.9-2.8c-0.7-1.1-1-2.3-1-3.7C52.9,17.1,53.3,15.7,54.2,14.6z
					 M57,21c0.4,0.7,1,1.3,1.7,1.8c0.7,0.4,1.5,0.7,2.3,0.7c0.9,0,1.7-0.2,2.4-0.7c0.7-0.4,1.3-1,1.8-1.8c0.4-0.7,0.7-1.5,0.7-2.4
					s-0.2-1.7-0.6-2.4c-0.4-0.7-1-1.3-1.7-1.7s-1.5-0.6-2.4-0.6c-0.8,0-1.6,0.2-2.3,0.6c-0.7,0.4-1.3,1-1.7,1.7
					c-0.4,0.7-0.6,1.5-0.6,2.4C56.3,19.4,56.6,20.2,57,21z M59.1,10.2c0.6,0.5,1.2,0.8,2,0.8c0.7,0,1.4-0.3,1.9-0.8
					c0.6-0.5,0.9-1.1,0.9-1.8c0-0.8-0.3-1.5-0.8-2s-1.2-0.8-2-0.8c-0.8,0-1.4,0.3-2,0.8c-0.6,0.5-0.8,1.2-0.8,2
					C58.3,9.1,58.6,9.7,59.1,10.2z"/>
			</g>
			<g class="st5">
				<path class="st3" d="M79.8,15.8c-0.7-0.9-1.1-2.2-1.1-3.7s0.4-2.8,1.1-3.7C80.6,7.5,81.6,7,82.9,7c1.3,0,2.4,0.5,3.1,1.4
					s1.1,2.2,1.1,3.7s-0.4,2.8-1.1,3.7c-0.7,0.9-1.8,1.4-3.1,1.4C81.6,17.2,80.5,16.7,79.8,15.8z M83.9,25.2l-2.7-0.1L93.5,7h2.8
					L83.9,25.2z M81.6,14.4c0.3,0.5,0.7,0.8,1.3,0.8s1-0.3,1.3-0.8c0.3-0.5,0.4-1.3,0.4-2.3c0-2-0.6-3.1-1.8-3.1
					c-1.2,0-1.8,1-1.8,3.1C81.1,13.1,81.3,13.8,81.6,14.4z M91,24.2c-0.7-0.9-1.1-2.2-1.1-3.7s0.4-2.8,1.1-3.7
					c0.7-0.9,1.8-1.4,3.1-1.4c1.3,0,2.4,0.5,3.1,1.4s1.1,2.2,1.1,3.7s-0.4,2.8-1.1,3.7c-0.8,0.9-1.8,1.4-3.1,1.4S91.7,25.1,91,24.2z
					 M92.8,22.8c0.3,0.5,0.7,0.8,1.3,0.8s1-0.3,1.3-0.8c0.3-0.5,0.4-1.3,0.4-2.3c0-2-0.6-3.1-1.8-3.1c-1.2,0-1.8,1-1.8,3.1
					C92.3,21.5,92.5,22.2,92.8,22.8z"/>
			</g>
		</g>
		<g id="Group_3164" transform="translate(24.13 204.673)">
			<g class="st5">
				<path class="st6" d="M68,14.4c1.3,1.3,1.9,3.1,1.9,5.7c0,1.8-0.4,3.3-1.2,4.7c-0.8,1.3-1.9,2.4-3.3,3.1C64,28.6,62.5,29,60.8,29
					c-1.2,0-2.5-0.3-3.7-0.8c-1.3-0.5-2.3-1.2-3.1-2l2-3.1c0.5,0.6,1.2,1.2,2.1,1.6c0.9,0.4,1.8,0.7,2.7,0.7c1.5,0,2.7-0.5,3.8-1.5
					s1.5-2.3,1.5-3.9c0-1.5-0.4-2.6-1.3-3.5c-0.9-0.9-2.1-1.3-3.6-1.3c-1.1,0-2.3,0.2-3.3,0.6l-0.1-0.2l5.7-8.9h-7.9V3H69l-5.9,9.5
					C65.1,12.5,66.7,13.2,68,14.4z"/>
				<path class="st6" d="M92,19.5v2.9h-3.4v6.2h-3.8v-6.2H72.9v0L88.6,2.6h0v16.9H92z M84.9,19.5v-8l-6.2,8H84.9z"/>
			</g>
			<g class="st5">
				<path class="st6" d="M103.8,16.8c-0.7-0.9-1.1-2.2-1.1-3.7c0-1.5,0.4-2.8,1.1-3.7c0.7-0.9,1.8-1.4,3.1-1.4s2.4,0.5,3.1,1.4
					c0.7,0.9,1.1,2.2,1.1,3.7s-0.4,2.8-1.1,3.7c-0.7,0.9-1.8,1.4-3.1,1.4C105.5,18.2,104.5,17.8,103.8,16.8z M107.8,26.2l-2.7-0.1
					L117.4,8h2.8L107.8,26.2z M105.6,15.4c0.3,0.5,0.7,0.8,1.3,0.8s1-0.3,1.3-0.8c0.3-0.5,0.4-1.3,0.4-2.3c0-2-0.6-3.1-1.8-3.1
					c-1.2,0-1.8,1-1.8,3.1C105.1,14.1,105.2,14.9,105.6,15.4z M114.9,25.3c-0.7-0.9-1.1-2.2-1.1-3.7c0-1.5,0.4-2.8,1.1-3.7
					c0.7-0.9,1.8-1.4,3.1-1.4c1.3,0,2.4,0.5,3.1,1.4c0.7,0.9,1.1,2.2,1.1,3.7c0,1.5-0.4,2.8-1.1,3.7c-0.8,0.9-1.8,1.4-3.1,1.4
					C116.7,26.6,115.7,26.2,114.9,25.3z M116.7,23.8c0.3,0.5,0.7,0.8,1.3,0.8c0.6,0,1-0.3,1.3-0.8c0.3-0.5,0.4-1.3,0.4-2.3
					c0-2-0.6-3.1-1.8-3.1c-1.2,0-1.8,1-1.8,3.1C116.3,22.5,116.4,23.3,116.7,23.8z"/>
			</g>
		</g>
		<g id="Group_3165" transform="translate(132.592 295.062)">
			<g class="st5">
				<path class="st3" d="M67.5,14.5c1.2,1.2,1.9,3,1.9,5.5c0,1.7-0.4,3.2-1.2,4.5c-0.8,1.3-1.9,2.3-3.2,3c-1.4,0.7-2.8,1.1-4.5,1.1
					c-1.2,0-2.4-0.3-3.6-0.8s-2.2-1.2-3-2l1.9-3c0.5,0.6,1.1,1.1,2,1.6c0.9,0.5,1.7,0.6,2.6,0.6c1.4,0,2.7-0.5,3.6-1.4
					c0.9-0.9,1.5-2.2,1.5-3.8c0-1.4-0.4-2.5-1.3-3.4c-0.8-0.8-2-1.3-3.5-1.3c-1.1,0-2.2,0.2-3.2,0.6l-0.1-0.2L63,6.9h-7.6V3.4h13.1
					l-5.7,9.2C64.8,12.7,66.2,13.3,67.5,14.5z"/>
				<path class="st3" d="M80.3,3.4v24.9h-3.7V6.9h-2.8V3.4H80.3z"/>
			</g>
			<g class="st5">
				<path class="st3" d="M97.5,17.9c-0.7-0.9-1.1-2.2-1.1-3.7s0.4-2.8,1.1-3.7c0.7-0.9,1.8-1.4,3.1-1.4c1.3,0,2.4,0.5,3.1,1.4
					c0.7,0.9,1.1,2.2,1.1,3.7s-0.4,2.8-1.1,3.7s-1.8,1.4-3.1,1.4C99.2,19.3,98.2,18.8,97.5,17.9z M101.5,27.3l-2.7-0.1l12.3-18.1
					h2.8L101.5,27.3z M99.3,16.4c0.3,0.5,0.7,0.8,1.3,0.8s1-0.3,1.3-0.8c0.3-0.5,0.4-1.3,0.4-2.3c0-2-0.6-3.1-1.8-3.1
					c-1.2,0-1.8,1-1.8,3.1C98.8,15.1,99,15.9,99.3,16.4z M108.8,26.3c-0.7-0.9-1.1-2.2-1.1-3.7s0.4-2.8,1.1-3.7
					c0.7-0.9,1.8-1.4,3.1-1.4c1.3,0,2.4,0.5,3.1,1.4s1.1,2.2,1.1,3.7s-0.4,2.8-1.1,3.7c-0.8,0.9-1.8,1.4-3.1,1.4
					C110.4,27.7,109.4,27.2,108.8,26.3z M110.5,24.9c0.3,0.5,0.7,0.8,1.3,0.8s1-0.3,1.3-0.8c0.3-0.5,0.4-1.3,0.4-2.3
					c0-2-0.6-3.1-1.8-3.1c-1.2,0-1.8,1-1.8,3.1C110,23.6,110.2,24.3,110.5,24.9z"/>
			</g>
		</g>
		<g class="st5">
			<path class="st3" d="M234.9,23.4c-0.2,0.3-0.4,0.8-0.5,1.3c-0.1,0.3-0.1,0.5-0.2,0.5c-0.1,0-0.2,0.1-0.5,0.1
				c-2,0.1-4.1,0.2-6.3,0.2c-2,0-3.4-0.2-4.2-0.5c-0.8-0.3-1.5-0.9-1.9-1.6c-0.5,0.5-1,1-1.7,1.5c-0.2,0.1-0.3,0.2-0.4,0.4
				c-0.1,0.1-0.2,0.2-0.2,0.2c-0.1,0-0.2-0.1-0.3-0.3c-0.2-0.4-0.4-0.9-0.7-1.6c0.4-0.2,0.8-0.4,1.1-0.6c0.4-0.3,0.9-0.7,1.4-1.1v-4
				h-0.8l-1.3,0c-0.1,0-0.2,0-0.2,0c0,0,0-0.1,0-0.2v-1.4c0-0.1,0-0.1,0-0.2s0.1,0,0.2,0l1.3,0h1l1.3,0c0.1,0,0.2,0,0.2,0
				c0,0,0,0.1,0,0.2l0,1.7v3.9c0.4,0.7,0.9,1.2,1.6,1.5c0.6,0.2,1.7,0.4,3.4,0.4C229.8,23.8,232.4,23.7,234.9,23.4z M220,10
				c0.9,0.8,1.7,1.7,2.3,2.7c0,0.1,0.1,0.1,0.1,0.1c0,0-0.1,0.1-0.2,0.2l-1,0.8c-0.1,0.1-0.2,0.1-0.2,0.1c-0.1,0-0.1,0-0.2-0.1
				c-0.7-1.1-1.4-2.1-2.2-2.8c-0.1-0.1-0.1-0.1-0.1-0.1c0,0,0.1-0.1,0.2-0.2l0.9-0.6c0.1-0.1,0.2-0.1,0.2-0.1
				C219.9,9.9,220,9.9,220,10z M225.5,21.8l-2.5,0c-0.1,0-0.2,0-0.2,0c0,0,0-0.1,0-0.2v-1.2c0-0.1,0-0.1,0-0.2c0,0,0.1,0,0.2,0
				l2.5,0h2v-1h-1.3l-2.4,0c-0.1,0-0.2-0.1-0.2-0.2l0-1.6v-2.4l0-1.6c0-0.1,0-0.2,0-0.2c0,0,0.1,0,0.1,0l2.4,0h1.3v-1h-2l-2.5,0
				c-0.1,0-0.2,0-0.2,0c0,0,0-0.1,0-0.2v-1.1c0-0.1,0-0.1,0-0.2c0,0,0.1,0,0.2,0l2.5,0h2c0-0.5-0.1-1-0.1-1.5c0.6,0,1.2,0,1.8,0.1
				c0.2,0,0.3,0.1,0.3,0.2c0,0.1,0,0.2-0.1,0.3c-0.1,0.2-0.1,0.5-0.1,0.9h2.2l2.5,0c0.1,0,0.1,0,0.2,0s0,0.1,0,0.2v1.1
				c0,0.1,0,0.1,0,0.2s-0.1,0-0.2,0l-2.5,0h-2.2v1h1.4l2.4,0c0.1,0,0.1,0,0.2,0c0,0,0,0.1,0,0.2l0,1.6v2.4l0,1.6c0,0.1,0,0.1,0,0.2
				c0,0-0.1,0-0.2,0l-2.4,0h-1.4v1h2.3l2.5,0c0.1,0,0.1,0,0.2,0s0,0.1,0,0.2v1.2c0,0.1,0,0.1,0,0.2s-0.1,0-0.2,0l-2.5,0h-2.3l0,1.4
				c0,0.1-0.1,0.2-0.2,0.2h-1.4c-0.1,0-0.2-0.1-0.2-0.2c0,0,0-0.1,0-0.4c0-0.3,0-0.6,0-1H225.5z M225.3,15.7h2.2v-1h-2.2V15.7z
				 M225.3,18.1h2.2v-1.1h-2.2V18.1z M231.5,14.7h-2.3v1h2.3V14.7z M231.5,18.1v-1.1h-2.3v1.1H231.5z"/>
			<path class="st3" d="M244.5,15.1c0.1,0,0.1-0.1,0.1-0.1c0,0,0.1,0.1,0.1,0.2c0.3,0.7,0.7,1.6,1,2.8c1.2-0.5,2.3-1.1,3.3-1.9
				c-0.5-0.5-0.9-1.1-1.4-1.8c-0.3,0.4-0.7,0.8-1.1,1.2c-0.2,0.2-0.3,0.3-0.4,0.3c-0.1,0-0.2-0.1-0.4-0.4c-0.2-0.3-0.5-0.5-0.9-0.8
				c1.3-1.1,2.3-2.5,3-4.1c0.1-0.3,0.3-0.7,0.3-1.1c0.6,0.1,1.1,0.2,1.7,0.3c0.2,0,0.2,0.1,0.2,0.2c0,0.1-0.1,0.2-0.2,0.3
				c-0.2,0.1-0.3,0.3-0.4,0.5c-0.1,0.2-0.2,0.4-0.2,0.5h2.9c0.2,0,0.4,0,0.5-0.1c0.1,0,0.2-0.1,0.2-0.1c0.1,0,0.4,0.1,0.7,0.4
				c0.3,0.3,0.5,0.6,0.5,0.7c0,0.1-0.1,0.2-0.2,0.3c-0.1,0.1-0.3,0.2-0.4,0.5c-0.7,1.1-1.4,2.1-2.2,2.9c1.2,0.8,2.6,1.5,4.2,1.9
				c-0.2,0.3-0.4,0.7-0.5,1.1c-0.1,0.3-0.2,0.5-0.3,0.5c-0.1,0-0.2,0-0.4-0.1c-0.2-0.1-0.4-0.1-0.5-0.2v0.1l0,1.8v1.6l0,3
				c0,0.1,0,0.2,0,0.2c0,0-0.1,0-0.2,0h-1.4c-0.1,0-0.2,0-0.2,0c0,0,0-0.1,0-0.2v-0.8h-3.7v0.8c0,0.1,0,0.2,0,0.2c0,0-0.1,0-0.2,0
				h-1.3c-0.1,0-0.1,0-0.2,0c0,0,0-0.1,0-0.2l0-3v-1.4l0-1.9l-0.4,0.2c-0.2,0.1-0.3,0.1-0.4,0.1c-0.1,0-0.2-0.2-0.3-0.5l-0.2-0.4
				l-0.7,0.3c-0.1,0-0.2,0.1-0.2,0.1c-0.1,0-0.1-0.1-0.1-0.2l-0.2-0.7l-1,0.1v4.9l0,2.4c0,0.1,0,0.2,0,0.2c0,0-0.1,0-0.2,0h-1.4
				c-0.1,0-0.1,0-0.2,0c0,0,0-0.1,0-0.2l0-2.4v-4.8l-1.5,0.1c-0.3,0-0.5,0.1-0.7,0.1c-0.1,0-0.2,0.1-0.3,0.1c-0.1,0-0.2-0.1-0.2-0.3
				c-0.1-0.5-0.2-1-0.2-1.5c0.5,0.1,0.9,0.1,1.4,0.1c0.3-0.3,0.6-0.8,1-1.3c-0.6-0.8-1.4-1.7-2.3-2.7c-0.1-0.1-0.1-0.1-0.1-0.2
				c0,0,0-0.1,0.1-0.2l0.7-0.9c0.1-0.1,0.1-0.1,0.2-0.1c0,0,0.1,0,0.1,0.1s0.1,0.1,0.2,0.2c0.1,0.1,0.2,0.2,0.2,0.2
				c0.5-0.8,0.8-1.5,1.1-2c0.1-0.3,0.2-0.6,0.3-0.9c0.7,0.3,1.2,0.5,1.5,0.7c0.2,0.1,0.2,0.2,0.2,0.3c0,0.1-0.1,0.2-0.2,0.2
				c-0.1,0.1-0.2,0.2-0.3,0.4c-0.6,1.1-1.1,1.9-1.6,2.5c0.1,0.1,0.2,0.2,0.4,0.5c0.2,0.2,0.3,0.3,0.4,0.4c0.4-0.7,0.8-1.4,1.2-2.1
				c0.2-0.4,0.4-0.8,0.5-1.1c0.8,0.3,1.3,0.5,1.5,0.7c0.1,0.1,0.2,0.2,0.2,0.2c0,0.1-0.1,0.2-0.2,0.3c-0.1,0.1-0.3,0.3-0.6,0.7
				c-1,1.6-2,3-2.8,4c0.6,0,1.3-0.1,2-0.1c-0.1-0.3-0.2-0.7-0.4-1.2c0-0.1,0-0.1,0-0.1c0-0.1,0.1-0.1,0.2-0.2L244.5,15.1z M238.7,24
				c0.4-0.9,0.6-2,0.7-3.3c0-0.3,0-0.6,0-0.8c0-0.1,0-0.2,0-0.3c0.6,0.1,1.1,0.2,1.4,0.3c0.2,0.1,0.3,0.1,0.3,0.2
				c0,0.1,0,0.2-0.1,0.3c-0.1,0.1-0.1,0.3-0.1,0.7c-0.1,1.3-0.3,2.4-0.6,3.2c-0.1,0.3-0.2,0.4-0.2,0.4c0,0-0.2-0.1-0.4-0.2
				C239.3,24.2,239,24.1,238.7,24z M244.8,19.4c0.1,0,0.1,0,0.2,0c0.1,0,0.1,0.1,0.1,0.2c0.4,0.9,0.7,2.1,0.9,3.5c0,0.1,0,0.1,0,0.1
				c0,0.1-0.1,0.2-0.2,0.2l-0.9,0.3c-0.1,0-0.2,0-0.2,0c-0.1,0-0.1-0.1-0.1-0.2c-0.1-1.4-0.4-2.6-0.7-3.6c0-0.1,0-0.1,0-0.1
				c0-0.1,0.1-0.1,0.2-0.1L244.8,19.4z M247.4,19.1c0.2,0,0.7,0,1.6,0h2.8c1,0,1.6,0,1.9,0c-1.3-0.5-2.4-1.2-3.3-1.9
				C249.4,17.9,248.4,18.6,247.4,19.1z M248.5,20.7v2.6h3.7v-2.6H248.5z M251.9,12.6h-3.2l-0.1,0.1c0.4,0.8,0.9,1.5,1.6,2.2
				C251,14.2,251.5,13.4,251.9,12.6z"/>
			<path class="st3" d="M265,13.3c0.7,0,1.2,0,1.4,0c0.9,0,1.5,0.3,1.9,0.8c0.4,0.6,0.6,1.4,0.6,2.7c0,3-0.2,5.1-0.5,6.3
				c-0.2,0.7-0.5,1.2-0.9,1.5c-0.4,0.3-1,0.4-1.7,0.4c-0.7,0-1.3,0-1.9-0.1l-0.4-1.8c0.8,0.2,1.3,0.2,1.6,0.2c0.5,0,0.8-0.1,1-0.2
				c0.2-0.1,0.3-0.3,0.4-0.6c0.4-1,0.5-2.9,0.5-5.5c0-0.9-0.1-1.5-0.3-1.8c-0.1-0.2-0.4-0.4-0.7-0.4c-0.4,0-1,0-1.5,0.1
				c-0.9,3.8-2.1,7.2-3.5,10.1l-1.7-0.7c1.4-2.9,2.5-6,3.3-9.3c-1,0.1-2.1,0.2-3.2,0.3l-0.1-1.7c1.7-0.1,2.9-0.2,3.6-0.2
				c0.3-1.3,0.5-2.5,0.7-3.6l1.9,0.2C265.4,11.5,265.1,12.6,265,13.3z M268.1,12.6l1.6-0.8c1.4,1.8,2.6,3.9,3.5,6.4l-1.7,0.9
				C270.6,16.5,269.5,14.4,268.1,12.6z M269.4,9.5l1.2-0.3c0.5,0.8,0.9,1.8,1.3,3l-1.2,0.4C270.4,11.4,269.9,10.4,269.4,9.5z
				 M271.6,9l1.2-0.4c0.5,0.9,0.9,1.9,1.3,2.9l-1.2,0.4C272.4,10.7,272,9.8,271.6,9z"/>
		</g>
		<g class="st5">
			<path class="st3" d="M218.3,35.3l-0.6-1.8c3.6-0.8,6.1-1.3,7.5-1.3c1.7,0,2.9,0.5,3.7,1.6c0.7,0.9,1.1,2.3,1.1,4
				c0,2.3-0.9,4.1-2.7,5.1c-1.3,0.8-3.3,1.3-5.8,1.6l-0.7-1.8c2.3-0.2,4-0.6,5.2-1.2c1.4-0.8,2.1-2,2.1-3.8c0-1.5-0.3-2.5-0.9-3.1
				c-0.5-0.5-1.2-0.7-2-0.7C223.9,33.9,221.6,34.4,218.3,35.3z"/>
			<path class="st3" d="M239.8,32.8c0.9-0.1,1.7-0.1,2.4-0.2l0,1.6c-1.2,0.1-2.1,0.2-2.8,0.2c-0.8,2.8-1.8,5.6-3.2,8.3l-1.7-0.8
				c1.4-2.5,2.4-5,3.1-7.4c-0.9,0-1.6,0-1.9,0l-0.9,0l0-1.6c0.3,0,0.7,0,1.2,0c0.4,0,1.1,0,2,0c0.2-0.8,0.4-1.8,0.5-3l1.9,0.3
				C240.2,30.8,240,31.7,239.8,32.8z M243,40.1c-0.1-0.9-0.1-2.4-0.2-4.4h1.8c0,2,0.1,3.6,0.2,4.7c1.3,0.5,2.4,1.3,3.4,2.2l-1,1.7
				c-0.9-1-1.7-1.6-2.4-2v0.4c0,0.9-0.3,1.5-1,2c-0.6,0.4-1.4,0.6-2.4,0.6c-1.2,0-2-0.3-2.6-0.8c-0.5-0.4-0.7-1.1-0.7-1.8
				c0-0.9,0.4-1.6,1.2-2.1c0.7-0.4,1.5-0.6,2.4-0.6C242.2,40,242.7,40,243,40.1z M243.1,41.7c-0.4-0.2-0.8-0.2-1.3-0.2
				c-1.4,0-2.1,0.4-2.1,1.2c0,0.7,0.6,1.1,1.8,1.1c1.1,0,1.7-0.5,1.7-1.4c0,0,0-0.1,0-0.1L243.1,41.7z M243.1,33.6l0.8-1.5
				c1.8,0.6,3.3,1.3,4.4,2.1l-0.9,1.6C246.3,34.9,244.8,34.2,243.1,33.6z"/>
			<path class="st3" d="M257.6,33.3c0.7,0,1.2,0,1.4,0c0.9,0,1.5,0.3,1.9,0.8c0.4,0.6,0.6,1.4,0.6,2.7c0,3-0.2,5.1-0.5,6.3
				c-0.2,0.7-0.5,1.2-0.9,1.5c-0.4,0.3-1,0.4-1.7,0.4c-0.7,0-1.3,0-1.9-0.1l-0.4-1.8c0.8,0.2,1.3,0.2,1.6,0.2c0.5,0,0.8-0.1,1-0.2
				c0.2-0.1,0.3-0.3,0.4-0.6c0.4-1,0.5-2.9,0.5-5.5c0-0.9-0.1-1.5-0.3-1.8c-0.1-0.2-0.4-0.4-0.7-0.4c-0.4,0-1,0-1.5,0.1
				c-0.9,3.8-2.1,7.2-3.5,10.1l-1.7-0.7c1.4-2.9,2.5-6,3.3-9.3c-1,0.1-2.1,0.2-3.2,0.3l-0.1-1.7c1.7-0.1,2.9-0.2,3.6-0.2
				c0.3-1.3,0.5-2.5,0.7-3.6l1.9,0.2C258,31.5,257.8,32.6,257.6,33.3z M260.7,32.6l1.6-0.8c1.4,1.8,2.6,3.9,3.5,6.4l-1.7,0.9
				C263.2,36.5,262.1,34.4,260.7,32.6z M262.1,29.5l1.2-0.3c0.5,0.8,0.9,1.8,1.3,3l-1.2,0.4C263,31.4,262.6,30.4,262.1,29.5z
				 M264.2,29l1.2-0.4c0.5,0.9,0.9,1.9,1.3,2.9l-1.2,0.4C265.1,30.7,264.7,29.8,264.2,29z"/>
			<path class="st3" d="M271.6,33.1c-0.3,1.9-0.4,3.6-0.6,4.9l-0.3,1.1l0.6-0.8c1.2-1.3,2.6-1.9,4.2-1.9c1.5,0,2.6,0.4,3.3,1.2
				c0.7,0.7,1,1.7,1,2.9c0,0.9-0.2,1.7-0.7,2.4c-0.4,0.5-1,1-1.7,1.4c-1.3,0.7-3.3,1-5.9,1.1l-0.6-1.7h0.2c2.3,0,4-0.3,5.2-0.9
				c1.1-0.5,1.6-1.4,1.6-2.6c0-0.7-0.2-1.3-0.7-1.7c-0.4-0.3-1-0.5-1.7-0.5c-1.4,0-2.6,0.6-3.6,1.7c-0.5,0.6-0.8,1.1-0.9,1.5
				l-1.8-0.3c0.1-2.1,0.4-4.7,0.7-7.9L271.6,33.1z M271.4,31.2l0.7-1.4c1,0.1,2.1,0.4,3.3,0.7c1,0.3,1.9,0.6,2.6,0.9l-0.9,1.7
				c-0.7-0.4-1.6-0.8-2.8-1.1C273.3,31.7,272.3,31.4,271.4,31.2z"/>
			<path class="st3" d="M288.3,32.8c0.9-0.1,1.7-0.1,2.4-0.2l0,1.6c-1.2,0.1-2.1,0.2-2.8,0.2c-0.8,2.8-1.8,5.6-3.2,8.3l-1.7-0.8
				c1.4-2.5,2.4-5,3.1-7.4c-0.9,0-1.6,0-1.9,0l-0.9,0l0-1.6c0.3,0,0.7,0,1.2,0c0.4,0,1.1,0,2,0c0.2-0.8,0.4-1.8,0.5-3l1.9,0.3
				C288.8,30.8,288.6,31.7,288.3,32.8z M291.6,40.1c-0.1-0.9-0.1-2.4-0.2-4.4h1.8c0,2,0.1,3.6,0.2,4.7c1.3,0.5,2.4,1.3,3.4,2.2
				l-1,1.7c-0.9-1-1.7-1.6-2.4-2v0.4c0,0.9-0.3,1.5-1,2c-0.6,0.4-1.4,0.6-2.4,0.6c-1.2,0-2-0.3-2.6-0.8c-0.5-0.4-0.7-1.1-0.7-1.8
				c0-0.9,0.4-1.6,1.2-2.1c0.7-0.4,1.5-0.6,2.4-0.6C290.8,40,291.2,40,291.6,40.1z M291.7,41.7c-0.4-0.2-0.8-0.2-1.3-0.2
				c-1.4,0-2.1,0.4-2.1,1.2c0,0.7,0.6,1.1,1.8,1.1c1.1,0,1.7-0.5,1.7-1.4c0,0,0-0.1,0-0.1L291.7,41.7z M291.7,33.6l0.8-1.5
				c1.8,0.6,3.3,1.3,4.4,2.1l-0.9,1.6C294.8,34.9,293.4,34.2,291.7,33.6z"/>
			<path class="st3" d="M305.9,33.3c0.7,0,1.2,0,1.4,0c0.9,0,1.5,0.3,1.9,0.8c0.4,0.6,0.6,1.4,0.6,2.7c0,3-0.2,5.1-0.5,6.3
				c-0.2,0.7-0.5,1.2-0.9,1.5c-0.4,0.3-1,0.4-1.7,0.4c-0.7,0-1.3,0-1.9-0.1l-0.4-1.8c0.8,0.2,1.3,0.2,1.6,0.2c0.5,0,0.8-0.1,1-0.2
				c0.2-0.1,0.3-0.3,0.4-0.6c0.4-1,0.5-2.9,0.5-5.5c0-0.9-0.1-1.5-0.3-1.8c-0.1-0.2-0.4-0.4-0.7-0.4c-0.4,0-1,0-1.5,0.1
				c-0.9,3.8-2.1,7.2-3.5,10.1l-1.7-0.7c1.4-2.9,2.5-6,3.3-9.3c-1,0.1-2.1,0.2-3.2,0.3l-0.1-1.7c1.7-0.1,2.9-0.2,3.6-0.2
				c0.3-1.3,0.5-2.5,0.7-3.6l1.9,0.2C306.4,31.5,306.1,32.6,305.9,33.3z M309.7,32.3l1.6-0.7c1.2,1.9,2.1,4.2,2.8,6.7l-1.8,0.7
				C311.8,36.4,310.9,34.2,309.7,32.3z"/>
			<path class="st3" d="M317,37.8l-0.5-1.7c2.7-0.7,4.6-1,5.7-1c1.4,0,2.5,0.4,3.2,1.3c0.6,0.7,0.9,1.8,0.9,3.1c0,1.8-0.7,3.1-2.1,4
				c-0.6,0.4-1.4,0.7-2.2,1c-0.7,0.2-1.6,0.4-2.7,0.5l-0.7-1.5c1.3-0.1,2.3-0.3,3-0.5c0.7-0.2,1.2-0.5,1.7-0.8
				c0.8-0.6,1.2-1.4,1.2-2.6c0-1.1-0.2-1.8-0.6-2.3c-0.4-0.4-0.9-0.5-1.7-0.5C321,36.6,319.3,37,317,37.8z"/>
			<path class="st3" d="M332.3,34.3c-1,0-1.9,0.1-2.8,0.1v-1.6c1,0,2.1,0,3.1-0.1c0.1-1,0.2-2,0.3-3l1.9,0.2
				c-0.2,1.1-0.3,2.1-0.4,2.7c1.2-0.1,2.5-0.2,3.9-0.3l0,1.6c-1.3,0.1-2.7,0.2-4.3,0.3c-0.7,3.8-1.6,7.4-2.8,10.9l-1.8-0.7
				C330.8,40.9,331.8,37.5,332.3,34.3z M334.7,40.8l1.6,0.1c-0.1,0.4-0.1,0.7-0.1,1.1c0,0.5,0.2,0.8,0.5,1s1,0.3,1.9,0.3
				c1.2,0,2.2-0.1,3-0.2l0.1,1.8c-0.9,0.1-1.9,0.1-3,0.1c-1.6,0-2.7-0.2-3.4-0.7c-0.6-0.4-0.9-1.1-0.9-2
				C334.5,41.8,334.6,41.3,334.7,40.8z M335.7,37.5v-1.6c1.7-0.2,3.4-0.3,5.2-0.3c0.3,0,0.5,0,0.7,0v1.6c-0.1,0-0.4,0-0.7,0
				C338.8,37.2,337.1,37.3,335.7,37.5z"/>
		</g>
		<g id="Group_3162" transform="translate(167.149 47.562)">
			<g class="st5">
				<path class="st3" d="M61,3.5V30h-3.9V7.3h-3V3.5H61z"/>
				<path class="st3" d="M80,13.9c1.2,0.8,2.2,1.8,2.8,3.1s1,2.8,1,4.4c0,1.7-0.4,3.2-1.1,4.5c-0.7,1.3-1.8,2.4-3.1,3.2
					c-1.3,0.8-2.8,1.2-4.5,1.2c-1.4,0-2.7-0.3-4-0.8c-1.3-0.5-2.4-1.2-3.2-2l2.1-3.1c0.5,0.6,1.2,1.1,2.1,1.5
					c0.9,0.4,1.8,0.6,2.7,0.6c1.5,0,2.7-0.5,3.6-1.4s1.4-2.2,1.4-3.7c0-1.6-0.4-3-1.3-4c-0.9-1-2.2-1.5-3.8-1.5
					c-0.9,0-1.7,0.1-2.6,0.4c-0.8,0.3-1.7,0.6-2.6,1.1l0,0v-14h12.7v3.7h-9.3V13c0.9-0.2,1.8-0.3,2.7-0.3
					C77.3,12.7,78.8,13.1,80,13.9z"/>
			</g>
			<g class="st5">
				<path class="st3" d="M94.3,17.3c-0.7-0.9-1.1-2.2-1.1-3.7s0.4-2.8,1.1-3.7c0.7-0.9,1.8-1.4,3.1-1.4c1.3,0,2.4,0.5,3.1,1.4
					c0.7,0.9,1.1,2.2,1.1,3.7s-0.4,2.8-1.1,3.7s-1.8,1.4-3.1,1.4C96,18.6,95,18.2,94.3,17.3z M98.3,26.6l-2.7-0.1l12.3-18.1h2.8
					L98.3,26.6z M96.2,15.8c0.3,0.5,0.7,0.8,1.3,0.8s1-0.3,1.3-0.8c0.3-0.5,0.4-1.3,0.4-2.3c0-2-0.6-3.1-1.8-3.1
					c-1.2,0-1.8,1-1.8,3.1C95.7,14.5,95.8,15.3,96.2,15.8z M105.5,25.7c-0.7-0.9-1.1-2.2-1.1-3.7s0.4-2.8,1.1-3.7
					c0.7-0.9,1.8-1.4,3.1-1.4c1.3,0,2.4,0.5,3.1,1.4c0.7,0.9,1.1,2.2,1.1,3.7s-0.4,2.8-1.1,3.7c-0.8,0.9-1.8,1.4-3.1,1.4
					C107.2,27.1,106.2,26.6,105.5,25.7z M107.3,24.2c0.3,0.5,0.7,0.8,1.3,0.8s1-0.3,1.3-0.8c0.3-0.5,0.4-1.3,0.4-2.3
					c0-2-0.6-3.1-1.8-3.1c-1.2,0-1.8,1-1.8,3.1C106.8,22.9,107,23.7,107.3,24.2z"/>
			</g>
		</g>
		<g class="st5">
			<path class="st3" d="M222.3,128.7l-2.2,0c-0.1,0-0.2-0.1-0.2-0.2v-1.3c0-0.1,0.1-0.2,0.2-0.2l2.2,0h2.3c0.2-0.5,0.5-1,0.7-1.7
				c0.1-0.2,0.1-0.5,0.1-0.8c0.2,0,0.5,0.1,0.9,0.2c0.4,0.1,0.7,0.2,0.7,0.2c0.1,0,0.2,0.1,0.2,0.3c0,0.1,0,0.2-0.1,0.3
				c-0.1,0.1-0.2,0.2-0.3,0.4c-0.2,0.5-0.4,0.9-0.6,1.2l2,0c0.1,0,0.1,0,0.2,0s0,0.1,0,0.2v1.3c0,0.1,0,0.1,0,0.2s-0.1,0-0.2,0
				l-2.2,0h-0.8c0,0.1,0,0.4,0,1v0.3h0.6l2.2,0c0.1,0,0.1,0,0.2,0s0,0.1,0,0.2v1.3c0,0.1,0,0.2,0,0.2s-0.1,0-0.2,0l-2.2,0h-0.1
				c0.7,0.8,1.4,1.4,2.3,1.9c-0.2,0.3-0.4,0.7-0.6,1.2c-0.1,0.2-0.1,0.3-0.2,0.3c-0.1,0-0.2-0.1-0.4-0.3c-0.6-0.5-1.1-1.1-1.6-1.9
				c0,1,0,2,0.1,3.1c0,0.8,0,1.3,0,1.4c0,0.1,0,0.2,0,0.2c0,0-0.1,0-0.2,0h-1.4c-0.1,0-0.1,0-0.2,0c0,0,0-0.1,0-0.2
				c0-0.1,0-0.6,0-1.6c0-0.9,0-1.7,0-2.6c-0.6,0.9-1.3,1.9-2.3,2.9c-0.2,0.2-0.3,0.3-0.4,0.3c-0.1,0-0.2-0.1-0.3-0.4
				c-0.2-0.5-0.4-0.9-0.7-1.2c1.3-0.8,2.3-1.9,3.2-3.2h-0.4l-2.2,0c-0.1,0-0.1,0-0.2,0s0-0.1,0-0.2v-1.3c0-0.1,0-0.1,0-0.2
				s0.1,0,0.2,0l2.2,0h0.9v-0.3c0-0.5,0-0.8,0-1H222.3z M225.8,124.4h-3.2l-2.1,0c-0.1,0-0.1,0-0.2,0s0-0.1,0-0.2V123
				c0-0.1,0-0.1,0-0.2s0.1,0,0.2,0l2.1,0h0.7v-0.5c0-0.5,0-0.9-0.1-1.2c0.8,0,1.4,0.1,1.9,0.1c0.2,0,0.3,0.1,0.3,0.2
				c0,0.1,0,0.2-0.1,0.3c-0.1,0.1-0.1,0.3-0.1,0.7v0.5h0.6l2.1,0c0.1,0,0.2,0,0.2,0s0,0.1,0,0.2v1.2c0,0.1,0,0.1,0,0.2s-0.1,0-0.2,0
				L225.8,124.4z M221.5,125.2c0-0.1-0.1-0.1-0.1-0.2c0-0.1,0.1-0.1,0.2-0.1l0.9-0.3c0.1,0,0.1,0,0.1,0c0.1,0,0.1,0,0.2,0.1
				c0.3,0.4,0.5,1,0.7,1.6c0,0.1,0,0.1,0,0.1c0,0.1-0.1,0.1-0.2,0.2l-1,0.3c-0.1,0-0.1,0-0.2,0c-0.1,0-0.1-0.1-0.2-0.2
				C221.8,126,221.6,125.5,221.5,125.2z M226.8,136.6c0.9-1.1,1.5-2.3,1.9-3.6c0.2-1,0.4-2.7,0.4-5.2v-2c0-1.2,0-2.2-0.1-3.1
				c0.6,0.1,1.1,0.2,1.7,0.4c1.1-0.3,2.2-0.7,3.1-1.2c0.3-0.2,0.7-0.4,0.9-0.7c0.4,0.3,0.8,0.8,1.2,1.3c0.1,0.1,0.1,0.2,0.1,0.3
				c0,0.1-0.1,0.2-0.3,0.2c-0.2,0-0.4,0.1-0.7,0.2c-1.3,0.7-2.7,1.1-4.2,1.5v2.2h3.1l2.5,0c0.1,0,0.1,0,0.2,0s0,0.1,0,0.2v1.3
				c0,0.1,0,0.1,0,0.2s-0.1,0-0.2,0c0,0-0.1,0-0.2,0c-0.5,0-1,0-1.6,0v6.3l0,2.5c0,0.1,0,0.2,0,0.2c0,0-0.1,0-0.1,0h-1.5
				c-0.1,0-0.1,0-0.2,0s0-0.1,0-0.2l0-2.5v-6.3h-1.9c0,2.3-0.2,4-0.5,5.2c-0.3,1.2-0.8,2.4-1.6,3.4c-0.2,0.2-0.3,0.3-0.4,0.3
				c-0.1,0-0.2-0.1-0.4-0.3C227.6,137,227.2,136.7,226.8,136.6z"/>
			<path class="st3" d="M243.2,137l-2.2,0c-0.1,0-0.1,0-0.2,0c0,0,0-0.1,0-0.2v-1.3c0-0.1,0-0.1,0-0.1c0,0,0.1,0,0.1,0l2.2,0h4.6
				v-1.7h-2.4l-2.5,0c-0.1,0-0.2,0-0.2,0c0,0,0-0.1,0-0.2v-1.3c0-0.1,0-0.2,0-0.2c0,0,0.1,0,0.2,0l2.5,0h2.4c0-0.4,0-0.8-0.1-1.3
				h-1.1c-0.1,0-0.1,0-0.2,0c0,0,0-0.1,0-0.2l0-2v-1.4h-1.7c-0.1,0.6-0.2,1.2-0.4,1.6c-0.3,0.9-0.9,1.7-1.8,2.4
				c-0.2,0.2-0.3,0.3-0.4,0.3s-0.2-0.1-0.4-0.3c-0.4-0.4-0.7-0.6-1-0.8c1-0.6,1.7-1.3,2-2.1c0.1-0.3,0.2-0.6,0.3-1
				c-0.6,0-1.1,0-1.5,0l-0.4,0c-0.1,0-0.2,0-0.2,0c0,0,0-0.1,0-0.2v-1.2c0-0.1,0-0.1,0-0.2s0.1,0,0.2,0l2.1,0c0-0.5,0-0.9,0-1.2
				v-0.9c-0.5,0-0.9,0-1.3,0c-0.3,0-0.4,0-0.4,0c-0.1,0-0.2,0-0.2,0c0,0,0-0.1,0-0.2V122c0-0.1,0-0.1,0-0.2c0,0,0.1,0,0.2,0l2.2,0
				h3.5l2.2,0c0.1,0,0.2,0,0.2,0s0,0.1,0,0.2v1.2c0,0.1,0,0.1,0,0.2s-0.1,0-0.2,0c0,0-0.1,0-0.4,0c-0.3,0-0.6,0-0.9,0v2.1l1.7,0
				c0.1,0,0.2,0,0.2,0c0,0,0,0.1,0,0.2v1.2c0,0.1,0,0.2,0,0.2c0,0-0.1,0-0.2,0c0,0-0.1,0-0.2,0c-0.4,0-0.9,0-1.4,0v1.4
				c0,0.9,0,1.5,0,1.7c0.5,0,0.9,0.1,1.4,0.1c0.2,0,0.3,0.1,0.3,0.2c0,0.1,0,0.2-0.1,0.4c-0.1,0.2-0.1,0.5-0.1,1.1h2.6l2.5,0
				c0.1,0,0.1,0,0.2,0c0,0,0,0.1,0,0.2v1.3c0,0.1,0,0.1,0,0.2s-0.1,0-0.2,0l-2.5,0h-2.6v1.7h4.8l2.2,0c0.1,0,0.1,0,0.2,0
				c0,0,0,0.1,0,0.1v1.3c0,0.1,0,0.1,0,0.2s-0.1,0-0.1,0l-2.2,0H243.2z M244.9,125.5h1.5v-2.1h-1.5v1.2
				C244.9,125,244.9,125.3,244.9,125.5z M250.6,122.1c0.4,0,1,0,1.7,0.1c0.2,0,0.3,0.1,0.3,0.2s0,0.2-0.1,0.3
				c-0.1,0.1-0.1,0.5-0.1,1.2v2.2l0,1.7c0,0.1,0,0.2,0,0.2c0,0-0.1,0-0.2,0h-1.3c-0.1,0-0.1,0-0.2,0s0-0.1,0-0.2l0-1.7v-2.2
				C250.7,123.2,250.7,122.6,250.6,122.1z M252,129.1c0.6,0.1,1.1,0.1,1.5,0.1c0.3,0,0.5-0.1,0.6-0.2c0.1-0.1,0.1-0.2,0.1-0.4v-5.1
				c0-1,0-1.8-0.1-2.3c0.6,0,1.2,0.1,1.8,0.1c0.2,0,0.3,0.1,0.3,0.2s0,0.2-0.1,0.4c-0.1,0.2-0.1,0.7-0.1,1.5v3.5l0,2.4
				c0,0.6-0.2,1-0.5,1.2c-0.4,0.2-1.1,0.4-2.3,0.4c-0.3,0-0.5,0-0.5-0.1c-0.1-0.1-0.1-0.2-0.1-0.5
				C252.4,129.9,252.2,129.5,252,129.1z"/>
			<path class="st3" d="M270.2,136.1h-9.4v-1.7h7.4V125h-7.4v-1.7h9.4V136.1z"/>
			<path class="st3" d="M274.7,136.2v-13h9.9v13H274.7z M282.6,134.5v-9.6h-5.9v9.6H282.6z"/>
			<path class="st3" d="M296.1,125.6h4.4v1.7h-4.4c0,1.7-0.1,3-0.3,3.9c-0.2,0.8-0.4,1.5-0.8,2.2c-0.4,0.8-1,1.5-1.7,2.1
				c-0.7,0.6-1.6,1.1-2.7,1.6l-1.5-1.5c2.1-0.8,3.4-1.9,4.1-3.2c0.3-0.6,0.5-1.4,0.7-2.2c0.1-0.7,0.2-1.8,0.2-3h-5.5v-1.7h5.5v-3.7
				h2V125.6z"/>
			<path class="st3" d="M312.2,124.5c-0.2,3.9-0.8,7-1.8,9.1c-0.4,0.9-0.8,1.5-1.4,1.9c-0.4,0.3-0.9,0.4-1.5,0.4
				c-1,0-1.7-0.5-2.3-1.5c-0.5-0.9-0.8-2.1-0.8-3.6c0-2.4,0.7-4.4,2-5.8c0.6-0.7,1.4-1.2,2.3-1.5c0.8-0.3,1.7-0.5,2.6-0.5
				c4.1,0,6.1,2.4,6.1,7.1c0,3.7-2,5.9-5.9,6.8l-0.9-1.5c1.8-0.4,3.1-1.1,3.9-2.1c0.6-0.8,0.9-2,0.9-3.4c0-1.9-0.4-3.3-1.2-4.2
				C313.9,124.9,313.1,124.5,312.2,124.5z M310.3,124.6c-1,0.1-1.9,0.7-2.7,1.7c-0.9,1.1-1.3,2.7-1.3,4.6c0,1.1,0.1,1.9,0.4,2.5
				c0.2,0.4,0.5,0.7,0.8,0.7c0.3,0,0.5-0.1,0.7-0.3s0.4-0.5,0.5-0.9c0.4-1.1,0.8-2.4,1-4C310.1,127.3,310.2,125.9,310.3,124.6z"/>
			<path class="st3" d="M327.2,133.1H327c0.5,0.7,1.1,1.3,2,1.7c-0.3,0.4-0.6,0.7-0.8,1c-0.2,0.3-0.3,0.4-0.4,0.4
				c-0.1,0-0.2-0.1-0.4-0.3c-0.5-0.5-1-0.9-1.3-1.4c-0.6,1.2-1.5,2.2-2.8,2.9c-0.2,0.1-0.4,0.2-0.4,0.2c-0.1,0-0.2-0.1-0.4-0.4
				c-0.2-0.4-0.5-0.7-0.8-1c1.6-0.7,2.7-1.6,3.2-2.9l0.1-0.2h-0.7l-2.1,0c-0.1,0-0.2-0.1-0.2-0.2v-1.2c0-0.1,0.1-0.2,0.2-0.2l2.1,0
				h1c0-0.3,0.1-0.9,0.1-1.7h-1.1c-0.2,0.3-0.4,0.7-0.7,1c-0.2,0.2-0.3,0.3-0.4,0.3c-0.1,0-0.2-0.1-0.4-0.3
				c-0.3-0.3-0.6-0.5-0.9-0.7c0.8-0.8,1.3-1.7,1.7-2.6c0.1-0.2,0.1-0.4,0.2-0.7c0.5,0.1,1,0.2,1.4,0.3c0.2,0.1,0.3,0.1,0.3,0.2
				c0,0.1,0,0.2-0.1,0.3c-0.1,0.1-0.2,0.3-0.3,0.5l0,0.1h1.9l2,0c0.1,0,0.2,0,0.2,0c0,0,0,0.1,0,0.2v1.2c0,0.1,0,0.1,0,0.2
				c0,0-0.1,0-0.2,0l-1.9,0c0,0.6-0.1,1.2-0.1,1.7h0.3l2,0c0.1,0,0.2,0,0.2,0c0,0,0,0.1,0,0.2v1.2c0,0.1,0,0.2,0,0.2
				c0,0-0.1,0-0.2,0L327.2,133.1z M328.1,124c0.3,0.2,0.7,0.4,1.1,0.5c0.2,0.1,0.3,0.1,0.4,0.1c0,0,0.1,0.1,0.1,0.2c0,0,0,0.1,0,0.3
				c-0.1,0.8-0.4,1.4-0.8,1.7c-0.4,0.3-1.4,0.4-2.7,0.4c-1.4,0-2.3-0.1-2.6-0.3c-0.4-0.2-0.5-0.6-0.5-1.2v-2.7c0-0.7,0-1.3-0.1-1.7
				c0.5,0,1,0.1,1.7,0.1c0.2,0,0.3,0.1,0.3,0.2c0,0.1,0,0.2-0.1,0.3c-0.1,0.1-0.1,0.4-0.1,0.9v0.4c0.9-0.3,1.7-0.6,2.4-0.9
				c0.3-0.1,0.5-0.3,0.8-0.5c0.4,0.4,0.8,0.7,1.1,1c0.1,0.1,0.1,0.2,0.1,0.3c0,0.1-0.1,0.2-0.3,0.2c-0.1,0-0.3,0.1-0.7,0.2
				c-1.2,0.5-2.4,0.9-3.5,1.2v0.3c0,0.4,0.1,0.6,0.2,0.7c0.2,0.1,0.6,0.2,1.3,0.2c0.9,0,1.4-0.1,1.6-0.3
				C327.9,125.2,328,124.7,328.1,124z M332.5,123.9c0.4,0.3,0.7,0.6,1.2,1c0.6-0.5,1.1-1,1.6-1.5h-3l-2.2,0c-0.1,0-0.2-0.1-0.2-0.2
				V122c0-0.1,0-0.1,0-0.2s0.1,0,0.2,0l2.2,0h3.7c0.2,0,0.4,0,0.5-0.1c0.1,0,0.1-0.1,0.2-0.1c0.1,0,0.4,0.2,0.7,0.5
				c0.3,0.3,0.5,0.6,0.5,0.8c0,0.1-0.1,0.2-0.2,0.3c-0.1,0.1-0.3,0.2-0.5,0.5c-0.7,0.8-1.5,1.5-2.5,2.3l0.3,0.4
				c0.1,0.1,0.1,0.1,0.1,0.2c0,0,0,0.1-0.1,0.2l-0.2,0.1h1.7c0.2,0,0.4,0,0.5-0.1c0.1,0,0.2-0.1,0.2-0.1c0.1,0,0.3,0.1,0.7,0.4
				c0.3,0.3,0.5,0.5,0.5,0.7c0,0.1,0,0.2-0.1,0.3c-0.1,0.1-0.2,0.3-0.4,0.6c-0.2,0.4-0.4,0.8-0.7,1.3c-0.2,0.3-0.3,0.4-0.4,0.4
				c0,0-0.2,0-0.4-0.1c-0.3-0.2-0.7-0.3-1.2-0.4c0.3-0.4,0.7-0.9,1-1.4h-1.6v2.6h1.1l1.5,0c0.1,0,0.1,0,0.2,0s0,0.1,0,0.2v1.2
				c0,0.1,0,0.1,0,0.2c0,0-0.1,0-0.2,0l-1.5,0h-1.1v2.9c0.7,0.2,1.6,0.3,2.7,0.3c0.3,0,0.7,0,1.2-0.1c-0.1,0.4-0.2,0.8-0.3,1.1
				c0,0.3-0.1,0.5-0.2,0.5c-0.1,0-0.2,0.1-0.5,0.1c-0.1,0-0.2,0-0.3,0c-0.3,0-0.7,0-1.2-0.1c-1.3-0.1-2.4-0.4-3.2-0.9
				c-0.6-0.4-1.1-1-1.5-1.7c-0.3,1-0.8,1.8-1.4,2.6c-0.2,0.2-0.3,0.3-0.4,0.3c-0.1,0-0.2-0.1-0.4-0.3c-0.3-0.2-0.6-0.5-1-0.7
				c0.8-0.8,1.4-1.7,1.7-2.7c0.3-0.8,0.5-1.8,0.6-3c0-0.3,0-0.5,0-0.7c0-0.1,0-0.3,0-0.5c0.5,0.1,1,0.2,1.5,0.3
				c0.2,0.1,0.3,0.1,0.3,0.2c0,0.1,0,0.2-0.1,0.3c-0.1,0.1-0.1,0.3-0.1,0.7c-0.1,0.7-0.2,1.4-0.3,1.9c0.3,0.6,0.7,1.2,1.1,1.6v-6.2
				h-0.8l-2.3,0c-0.1,0-0.2,0-0.2,0c0,0,0-0.1,0-0.2V127c0-0.1,0-0.1,0-0.2s0.1,0,0.2,0l2.3,0h1.2c-0.7-0.9-1.4-1.6-2.1-2.1
				c-0.1-0.1-0.1-0.1-0.1-0.1c0-0.1,0-0.1,0.1-0.2l0.9-0.6c0.1-0.1,0.1-0.1,0.2-0.1S332.4,123.8,332.5,123.9z"/>
			<path class="st3" d="M348.4,131.1l1.5,1.1c-0.6,3-1.6,4.4-3.1,4.4c-1,0-1.7-0.4-2.2-1.3c-0.5-0.9-0.8-2.3-1-4.3
				c-0.1-1.3-0.1-2.8-0.1-4.5l0-3.5h2c0,0.2,0,0.8,0,1.6c0,0.5,0,1,0,1.3v1.3c0,1.5,0,2.7,0.1,3.6c0.1,1.5,0.3,2.5,0.6,3
				c0.2,0.4,0.4,0.6,0.8,0.6c0.4,0,0.7-0.2,0.9-0.7C347.9,133.4,348.1,132.5,348.4,131.1z M350.9,124.5l1.8-0.5
				c1.7,2.5,2.8,5.8,3.2,9.9l-2,0.3C353.5,130.3,352.5,127,350.9,124.5z"/>
			<path class="st3" d="M371.6,122.9l0.1,1.8c-1.3,0-2.3,0.2-3,0.7c-2.4,1.3-3.6,3.2-3.6,5.6c0,2.4,1.8,3.8,5.4,4.1l-0.5,1.9
				c-4.5-0.4-6.8-2.4-6.8-5.9c0-1.4,0.4-2.6,1.1-3.7c0.6-1,1.5-1.8,2.6-2.4l0.9-0.3l0-0.1l-1,0.3c-1.5,0.2-3.8,0.4-6.8,0.8l-0.2-1.8
				C363.1,123.4,367.1,123.2,371.6,122.9z M368.6,127.1l1.2-0.3c0.5,0.8,0.9,1.8,1.3,3l-1.2,0.4C369.6,129,369.1,128,368.6,127.1z
				 M370.8,126.5l1.2-0.4c0.5,0.9,0.9,1.9,1.3,2.9l-1.2,0.4C371.7,128.3,371.3,127.3,370.8,126.5z"/>
		</g>
		<g class="st5">
			<path class="st3" d="M223.5,143.3c0.5,0.3,0.9,0.6,1.3,0.9c0.2,0.1,0.3,0.2,0.3,0.3s-0.1,0.2-0.2,0.3c-0.1,0.1-0.3,0.2-0.4,0.5
				c-0.3,0.4-0.6,0.9-0.9,1.3v6.6l0,2.2c0,0.1-0.1,0.2-0.2,0.2h-1.5c-0.1,0-0.1,0-0.2,0s0-0.1,0-0.2l0-2.2v-2.6c0-0.8,0-1.4,0-1.8
				c-0.3,0.3-0.6,0.6-1,0.9c-0.2,0.2-0.3,0.2-0.4,0.2c-0.1,0-0.2-0.1-0.2-0.4c-0.2-0.6-0.4-1.1-0.6-1.3c1.3-1,2.5-2.3,3.4-3.9
				C223.1,144,223.3,143.7,223.5,143.3z M223.4,139.1c0.6,0.3,1,0.6,1.5,0.9c0.2,0.1,0.2,0.2,0.2,0.3c0,0.1-0.1,0.2-0.2,0.3
				c-0.2,0.1-0.4,0.3-0.5,0.4c-0.9,1.1-1.9,2.2-3.1,3.1c-0.2,0.2-0.3,0.2-0.4,0.2c-0.1,0-0.2-0.1-0.3-0.4c-0.2-0.5-0.5-0.8-0.8-1.2
				c1.3-0.8,2.3-1.7,3.1-2.8C223.1,139.6,223.3,139.3,223.4,139.1z M227.2,154.9l-2.5,0c-0.1,0-0.2,0-0.2,0c0,0,0-0.1,0-0.2v-1.4
				c0-0.1,0-0.1,0-0.2c0,0,0.1,0,0.2,0l2.5,0h2.1v-3.8h-1.2l-2.3,0c-0.1,0-0.1,0-0.2,0s0-0.1,0-0.2v-1.4c0-0.1,0-0.2,0-0.2
				c0,0,0.1,0,0.2,0l2.3,0h1.2v-3.2h-1.5l-2.4,0c-0.1,0-0.2-0.1-0.2-0.2v-1.4c0-0.1,0.1-0.2,0.2-0.2l2.4,0h5.4l2.4,0
				c0.1,0,0.2,0.1,0.2,0.2v1.4c0,0.1,0,0.1,0,0.2s-0.1,0-0.2,0l-2.4,0h-1.9v3.2h1.3l2.3,0c0.1,0,0.1,0,0.2,0c0,0,0,0.1,0,0.2v1.4
				c0,0.1,0,0.1,0,0.2s-0.1,0-0.2,0l-2.3,0h-1.3v3.8h2.4l2.5,0c0.1,0,0.2,0,0.2,0c0,0,0,0.1,0,0.2v1.4c0,0.1,0,0.2,0,0.2
				s-0.1,0-0.2,0l-2.5,0H227.2z M229.1,139.2c1,0.4,2,1.1,3,1.8c0.1,0,0.1,0.1,0.1,0.1c0,0,0,0.1-0.1,0.2l-0.9,1
				c-0.1,0.1-0.2,0.2-0.2,0.2s-0.1,0-0.2-0.1c-0.9-0.8-1.9-1.4-3-2c-0.1,0-0.1-0.1-0.1-0.1c0,0,0-0.1,0.1-0.2l0.9-0.9
				c0.1-0.1,0.2-0.1,0.2-0.1C229,139.1,229,139.2,229.1,139.2z"/>
			<path class="st3" d="M242.8,142.3h2l1.9,0c0.1,0,0.2,0,0.2,0c0,0,0,0.1,0,0.2v1.3c1.4-0.9,2.5-2.1,3.4-3.5
				c0.2-0.4,0.4-0.8,0.5-1.2c0.4,0.1,1.1,0.2,1.8,0.3c0.2,0.1,0.3,0.1,0.3,0.3c0,0.1-0.1,0.2-0.2,0.3c0,0-0.1,0-0.1,0.1
				c1.1,1.7,2.7,3,4.7,4c-0.3,0.4-0.5,0.8-0.7,1.4c-0.1,0.3-0.2,0.4-0.3,0.4c0,0-0.2-0.1-0.4-0.2c-1.7-1.1-3.1-2.5-4.2-4.1
				c-1,1.6-2.3,2.9-3.9,4c-0.2,0.1-0.4,0.2-0.4,0.2c-0.1,0-0.2-0.1-0.4-0.4c-0.2-0.4-0.5-0.7-0.9-1l0.5-0.3l-1.9,0h-2l-1.9,0
				c-0.1,0-0.2,0-0.2,0c0,0,0-0.1,0-0.2v-1.3c0-0.1,0-0.1,0-0.2s0.1,0,0.2,0L242.8,142.3z M246.5,155.1c0,0.1-0.1,0.2-0.2,0.2h-1.3
				c-0.1,0-0.2,0-0.2,0s0-0.1,0-0.2v-0.6h-1.8v0.9c0,0.1,0,0.2,0,0.2c0,0-0.1,0-0.2,0h-1.3c-0.1,0-0.2,0-0.2,0c0,0,0-0.1,0-0.2
				l0-2.7v-1.2l0-1.7c0-0.1,0-0.2,0-0.2c0,0,0.1,0,0.2,0l1.6,0h1.5l1.7,0c0.1,0,0.2,0.1,0.2,0.2l0,1.4v1.2L246.5,155.1z
				 M243.3,139.8h1.5l1.6,0c0.1,0,0.2,0,0.2,0c0,0,0,0.1,0,0.2v1.2c0,0.1,0,0.2,0,0.2c0,0-0.1,0-0.2,0l-1.6,0h-1.5l-1.6,0
				c-0.1,0-0.2,0-0.2,0s0-0.1,0-0.2V140c0-0.1,0-0.1,0-0.2s0.1,0,0.2,0L243.3,139.8z M243.3,144.9h1.3l1.5,0c0.1,0,0.2,0,0.2,0
				c0,0,0,0.1,0,0.2v1.2c0,0.1,0,0.1,0,0.2s-0.1,0-0.2,0l-1.5,0h-1.3l-1.5,0c-0.1,0-0.2,0-0.2,0c0,0,0-0.1,0-0.2V145
				c0-0.1,0-0.2,0-0.2c0,0,0.1,0,0.2,0L243.3,144.9z M243.3,147.3h1.3l1.5,0c0.1,0,0.2,0,0.2,0c0,0,0,0.1,0,0.2v1.2
				c0,0.1,0,0.2,0,0.2s-0.1,0-0.2,0l-1.5,0h-1.3l-1.5,0c-0.1,0-0.2,0-0.2,0c0,0,0-0.1,0-0.2v-1.2c0-0.1,0-0.2,0-0.2c0,0,0.1,0,0.2,0
				L243.3,147.3z M244.9,151.2h-1.8v1.8h1.8V151.2z M246.7,154c1.9-0.5,3.6-1.1,4.9-1.9c1.1-0.7,2.1-1.5,3-2.5
				c0.3-0.4,0.6-0.7,0.7-1c0.5,0.3,1,0.7,1.3,1c0.1,0.1,0.2,0.2,0.2,0.3c0,0.1-0.1,0.2-0.2,0.2c-0.1,0.1-0.3,0.2-0.6,0.6
				c-1.9,2.2-4.5,3.8-7.8,4.7c-0.2,0.1-0.4,0.1-0.4,0.1c-0.1,0-0.2-0.1-0.4-0.4C247.3,154.6,247,154.3,246.7,154z M247.1,147.2
				c1.7-0.7,3.1-1.5,4.2-2.7c0.2-0.2,0.4-0.5,0.5-0.7c0.4,0.2,0.8,0.5,1.3,0.9c0.1,0.1,0.2,0.2,0.2,0.3s-0.1,0.2-0.2,0.2
				c-0.1,0.1-0.3,0.2-0.6,0.5c-0.9,1.1-2.2,1.9-3.8,2.7c-0.2,0.1-0.4,0.2-0.4,0.2c-0.1,0-0.2-0.1-0.4-0.4
				C247.7,147.8,247.4,147.5,247.1,147.2z M247.3,150.6c2.5-0.8,4.5-2.1,5.9-3.7c0.2-0.2,0.3-0.4,0.5-0.8c0.6,0.4,1,0.7,1.3,0.9
				c0.1,0.1,0.2,0.2,0.2,0.3s-0.1,0.2-0.2,0.3c-0.2,0.1-0.3,0.2-0.5,0.4c-1.3,1.5-3.2,2.8-5.6,3.9c-0.2,0.1-0.4,0.1-0.4,0.1
				c-0.1,0-0.2-0.1-0.4-0.4C247.9,151.2,247.6,150.9,247.3,150.6z"/>
			<path class="st3" d="M261.7,153.6c0.4,0,1,0.1,1.7,0.1c0.2,0,0.3,0,0.4-0.1s0.1-0.2,0.1-0.4v-3.7l-1,0.3
				c-0.3,0.1-0.5,0.2-0.7,0.3c-0.1,0.1-0.2,0.1-0.3,0.1c-0.1,0-0.2-0.1-0.2-0.2c-0.1-0.4-0.3-1-0.4-1.8c0.6-0.1,1.1-0.2,1.7-0.3
				l1-0.3v-3.3h-0.5l-1.8,0c-0.1,0-0.2,0-0.2,0c0,0,0-0.1,0-0.2v-1.4c0-0.1,0-0.2,0-0.2c0,0,0.1,0,0.2,0l1.8,0h0.5v-0.9
				c0-1.1,0-1.9-0.1-2.6c0.7,0,1.3,0.1,1.9,0.1c0.2,0,0.3,0.1,0.3,0.2c0,0.1,0,0.2-0.1,0.4c-0.1,0.1-0.1,0.8-0.1,1.8v0.9l1.6,0
				c0.1,0,0.2,0,0.2,0c0,0,0,0.1,0,0.2v1.4c0,0.1,0,0.2,0,0.2s-0.1,0-0.2,0l-1.6,0v2.6c0.7-0.3,1.3-0.5,1.9-0.7
				c0,0.4-0.1,0.8-0.1,1.2v0.2c0,0.2,0,0.3-0.1,0.4c-0.1,0-0.2,0.1-0.4,0.2c-0.2,0.1-0.6,0.3-1.3,0.5v1l0,3.6c0,0.5,0,0.9-0.1,1.1
				c-0.1,0.2-0.2,0.4-0.5,0.6c-0.3,0.3-1.1,0.4-2.2,0.4c-0.3,0-0.5,0-0.5-0.1c0,0-0.1-0.2-0.2-0.5C262,154.4,261.9,154,261.7,153.6z
				 M270,141.8v2.3h4.3l2.2,0c0.1,0,0.2,0,0.2,0s0,0.1,0,0.2l0,1.7v2.2l0,1.7c0,0.1-0.1,0.2-0.2,0.2l-2.2,0H270v2.5h5.3l2.2,0
				c0.1,0,0.2,0,0.2,0c0,0,0,0.1,0,0.2v1.4c0,0.1,0,0.2,0,0.2s-0.1,0-0.2,0l-2.2,0H270v0.8c0,0.1-0.1,0.2-0.2,0.2h-1.5
				c-0.1,0-0.2,0-0.2,0c0,0,0-0.1,0-0.1l0-3.6v-7.7l0-3.6c0-0.1,0-0.2,0-0.2c0,0,0.1,0,0.2,0l2.3,0h4.3l2.3,0c0.1,0,0.1,0,0.2,0
				s0,0.1,0,0.2v1.4c0,0.1,0,0.2,0,0.2c0,0-0.1,0-0.2,0l-2.3,0H270z M274.7,148.4v-2.5H270v2.5H274.7z"/>
			<path class="st3" d="M285,141.8l-2.3,0c-0.1,0-0.2,0-0.2,0c0,0,0-0.1,0-0.2v-1.4c0-0.1,0-0.2,0-0.2c0,0,0.1,0,0.2,0l2.3,0h10.5
				l2.3,0c0.1,0,0.2,0,0.2,0c0,0,0,0.1,0,0.2v1.4c0,0.1,0,0.2,0,0.2c0,0-0.1,0-0.2,0l-2.3,0h-3.3c-0.4,0.5-0.8,0.9-1.1,1.2v3.3
				l0,1.8c0,0.1,0,0.1,0,0.2c0,0-0.1,0-0.2,0h-1.5c-0.1,0-0.1,0-0.2,0s0-0.1,0-0.2l0-1.8v-1.7c-1.7,1.3-3.6,2.4-5.8,3.3
				c-0.2,0.1-0.4,0.1-0.4,0.1c-0.1,0-0.2-0.1-0.3-0.4c-0.2-0.5-0.5-0.9-0.7-1.2c3.4-1.2,6-2.7,7.7-4.6H285z M286,155.6h-1.5
				c-0.1,0-0.2,0-0.2,0c0,0,0-0.1,0-0.2l0-3v-1.5l0-2c0-0.1,0-0.2,0-0.2c0,0,0.1,0,0.2,0l2.5,0h6.5l2.5,0c0.1,0,0.1,0,0.2,0
				s0,0.1,0,0.2l0,1.7v1.7l0,3c0,0.1,0,0.2,0,0.2c0,0-0.1,0-0.2,0h-1.6c-0.1,0-0.1,0-0.2,0s0-0.1,0-0.2v-0.5h-8.1v0.6
				c0,0.1,0,0.1,0,0.2C286.1,155.6,286.1,155.6,286,155.6z M286.2,150.4v2.6h8.1v-2.6H286.2z M298.7,146.3c-0.4,0.4-0.6,0.9-0.8,1.3
				c-0.2,0.3-0.3,0.4-0.4,0.4c-0.1,0-0.2,0-0.4-0.1c-2.2-1-3.9-2.1-5.2-3.5c-0.1-0.1-0.1-0.1-0.1-0.1c0,0,0-0.1,0.1-0.2l0.9-0.8
				c0.1-0.1,0.2-0.1,0.2-0.1c0,0,0.1,0,0.1,0.1C294.4,144.5,296.3,145.5,298.7,146.3z"/>
			<path class="st3" d="M306.9,144.3c-1.6,0.2-3.3,0.3-5.1,0.3l-0.1-1.7c1.4,0,3-0.1,4.5-0.3c-0.3-0.9-0.6-1.8-0.9-2.8l2-0.2
				c0.2,1,0.4,2,0.8,2.9c1.4-0.2,2.7-0.4,3.9-0.6l0.2,1.8c-1.2,0.2-2.3,0.3-3.4,0.5c0.8,1.6,1.9,3.2,3.4,4.8l-1,1.5
				c-1.4-0.8-2.8-1.2-4.5-1.2c-1,0-1.8,0.2-2.3,0.6c-0.5,0.3-0.7,0.8-0.7,1.3c0,0.8,0.4,1.3,1.2,1.6c0.7,0.3,1.7,0.4,3.1,0.4
				c1,0,1.9-0.1,2.7-0.2v1.9c-0.9,0.1-1.7,0.2-2.6,0.2c-2.1,0-3.7-0.4-4.7-1.1c-0.9-0.7-1.4-1.6-1.4-2.8c0-1.2,0.5-2.1,1.6-2.8
				c0.9-0.5,2-0.7,3.4-0.7c1,0,2,0.2,3,0.7C308.6,147.3,307.7,145.9,306.9,144.3z"/>
			<path class="st3" d="M318,139.7l1.8,0c0,0.5-0.1,1.1-0.1,1.9c0,0.5,0,0.9-0.1,1.2l0.6,0.5c0.1,0.1,0.1,0.2,0.1,0.2
				c0,0.1,0,0.2-0.1,0.2c-0.3,0.4-0.6,0.7-0.8,1.1l-0.1,0.5l-0.2,0.7l0.1,0l0.3-0.7c0.9-1.2,1.7-2.1,2.4-2.6c0.8-0.6,1.5-1,2.1-1
				c0.9,0,1.5,0.3,1.8,0.8c0.4,0.5,0.5,1.3,0.5,2.3c0,1-0.1,2.2-0.2,3.5c-0.1,1.5-0.2,2.6-0.2,3.1c0,0.5,0.2,0.8,0.5,0.8
				c0.6,0,1.1-0.9,1.4-2.8l1.5,1c-0.4,1.5-0.8,2.4-1.4,3c-0.4,0.4-1,0.7-1.8,0.7c-0.8,0-1.3-0.2-1.7-0.6c-0.3-0.4-0.5-1-0.5-1.8
				c0-0.9,0-2,0.1-3.3c0.1-1.4,0.1-2.5,0.1-3.2c0-0.7-0.1-1.2-0.2-1.5c-0.1-0.2-0.3-0.3-0.5-0.3c-0.6,0-1.4,0.4-2.2,1.3
				c-0.6,0.6-1.4,1.7-2.4,3.1v2.2v4.9h-1.8c0-1.7,0-3.5,0.1-5.2l0.2-1.1h-0.1l-0.3,1.1c-0.7,1.4-1.2,2.5-1.5,3.2l-1.4-1.3
				c1.8-3.2,2.9-5,3.1-5.5c0-0.4,0-0.8,0-1.2c0-0.4,0-0.7,0-0.8c-0.5,0-1.3,0.1-2.7,0.3l-0.1-1.5c1.1-0.1,2-0.1,2.8-0.2
				C317.9,142.3,318,141.2,318,139.7z"/>
			<path class="st3" d="M336.6,144.1c-1,0-1.9,0.1-2.8,0.1v-1.6c1,0,2.1,0,3.1-0.1c0.1-1,0.2-2,0.3-3l1.9,0.2
				c-0.2,1.1-0.3,2.1-0.4,2.7c1.2-0.1,2.5-0.2,3.9-0.3l0,1.6c-1.3,0.1-2.7,0.2-4.3,0.3c-0.7,3.8-1.6,7.4-2.8,10.9l-1.8-0.7
				C335.2,150.6,336.1,147.3,336.6,144.1z M339.1,150.6l1.6,0.1c-0.1,0.4-0.1,0.7-0.1,1.1c0,0.5,0.2,0.8,0.5,1s1,0.3,1.9,0.3
				c1.2,0,2.2-0.1,3-0.2l0.1,1.8c-0.9,0.1-1.9,0.1-3,0.1c-1.6,0-2.7-0.2-3.4-0.7c-0.6-0.4-0.9-1.1-0.9-2
				C338.9,151.6,338.9,151.1,339.1,150.6z M340,147.3v-1.6c1.7-0.2,3.4-0.3,5.2-0.3c0.3,0,0.5,0,0.7,0v1.6c-0.1,0-0.4,0-0.7,0
				C343.2,147,341.5,147.1,340,147.3z"/>
		</g>
		<g id="Group_3163" transform="translate(167.149 162.09)">
			<g class="st5">
				<path class="st3" d="M61,3.5V30h-3.9V7.3h-3V3.5H61z"/>
				<path class="st3" d="M85.4,26.2V30h-18l1.3-1.3c2.7-2.7,4.9-4.9,6.4-6.6s2.8-3.4,3.8-5.1s1.5-3.4,1.5-4.9c0-1.6-0.5-2.9-1.4-3.7
					c-1-0.9-2.1-1.3-3.5-1.3c-1.1,0-2,0.2-2.8,0.7c-0.7,0.5-1.3,1-1.6,1.7c-0.3,0.7-0.5,1.4-0.5,2.1c0,1.7,0.5,3.1,1.6,4.2L69.8,18
					c-0.9-0.5-1.6-1.4-2.2-2.7c-0.5-1.3-0.8-2.5-0.8-3.6c0-1.5,0.4-2.9,1.1-4.1c0.7-1.3,1.8-2.3,3.2-3.1s3.1-1.1,5-1.1
					c1.6,0,3.1,0.4,4.4,1.1c1.3,0.8,2.3,1.8,3,3.1c0.7,1.3,1,2.7,1,4.2s-0.4,3.1-1.1,4.6s-1.6,3-2.7,4.3c-1.1,1.3-2.5,3-4.2,5
					l-0.6,0.5H85.4z"/>
			</g>
			<g class="st5">
				<path class="st3" d="M94.3,15.4c-0.7-0.9-1.1-2.2-1.1-3.7s0.4-2.8,1.1-3.7c0.7-0.9,1.8-1.4,3.1-1.4c1.3,0,2.4,0.5,3.1,1.4
					c0.7,0.9,1.1,2.2,1.1,3.7s-0.4,2.8-1.1,3.7s-1.8,1.4-3.1,1.4C96,16.8,95,16.3,94.3,15.4z M98.3,24.8l-2.7-0.1l12.3-18.1h2.8
					L98.3,24.8z M96.2,14c0.3,0.5,0.7,0.8,1.3,0.8s1-0.3,1.3-0.8c0.3-0.5,0.4-1.3,0.4-2.3c0-2-0.6-3.1-1.8-3.1c-1.2,0-1.8,1-1.8,3.1
					C95.7,12.7,95.8,13.5,96.2,14z M105.5,23.8c-0.7-0.9-1.1-2.2-1.1-3.7s0.4-2.8,1.1-3.7c0.7-0.9,1.8-1.4,3.1-1.4
					c1.3,0,2.4,0.5,3.1,1.4c0.7,0.9,1.1,2.2,1.1,3.7s-0.4,2.8-1.1,3.7c-0.8,0.9-1.8,1.4-3.1,1.4C107.2,25.2,106.2,24.8,105.5,23.8z
					 M107.3,22.4c0.3,0.5,0.7,0.8,1.3,0.8s1-0.3,1.3-0.8c0.3-0.5,0.4-1.3,0.4-2.3c0-2-0.6-3.1-1.8-3.1c-1.2,0-1.8,1-1.8,3.1
					C106.8,21.1,107,21.9,107.3,22.4z"/>
			</g>
		</g>
	</g>
</g>
</svg>
