<?xml version="1.0" encoding="utf-8"?>
<!-- Generator: Adobe Illustrator 27.0.1, SVG Export Plug-In . SVG Version: 6.00 Build 0)  -->
<svg version="1.1" id="Layer_1" xmlns="http://www.w3.org/2000/svg" xmlns:xlink="http://www.w3.org/1999/xlink" x="0px" y="0px"
	 viewBox="0 0 380 340.8" style="enable-background:new 0 0 380 340.8;" xml:space="preserve">
<style type="text/css">
	.st0{fill:#0091DB;}
	.st1{fill:#B5D1CF;}
	.st2{fill:#C3C4C7;}
	.st3{enable-background:new    ;}
	.st4{fill:#FACC08;}
</style>
<g id="bunka-1" transform="translate(-27.487 -135.749)">
	<g id="Group_3682" transform="translate(27.487 135.749)">
		<g id="Group_3156" transform="translate(0 62.352)">
			<path id="Path_2954" class="st0" d="M295,45.5l-103,93.7L144.6,8.3C72.2,34.5,34.8,114.3,61,186.6s106,109.7,178.4,83.5
				s109.7-106,83.5-178.4C316.8,74.7,307.2,59,295,45.5L295,45.5z"/>
			<path id="Path_2955" class="st1" d="M191.9,0L191.9,0v139.2l103-93.7C268.6,16.5,231.2,0,191.9,0z"/>
			<path id="Path_2956" class="st2" d="M191.9,139.2V0c-16.1,0-32.2,2.8-47.4,8.3L191.9,139.2z"/>
		</g>
		<g class="st3">
			<path class="st4" d="M135.9,251.6c-0.1,0.2-0.3,0.3-0.3,0.3s-0.1-0.1-0.2-0.3c-0.2-0.7-0.4-1.2-0.7-1.7c1.4-1.7,2.5-3.7,3.3-6.1
				h-0.5h-2.1c-0.1,0-0.2,0-0.2,0s0-0.1,0-0.2v-1.5c0-0.1,0-0.2,0-0.2s0.1,0,0.2,0h2.1h0.6v-1.2c0-1.2-0.1-2.1-0.2-2.7
				c0.8,0,1.4,0.1,2,0.1c0.2,0,0.3,0.1,0.3,0.2c0,0.1,0,0.2-0.1,0.4s-0.1,0.9-0.1,1.9v1.3h2.1c0.1,0,0.2,0,0.2,0s0,0.1,0,0.2v1.5
				c0,0.1,0,0.2,0,0.2s-0.1,0-0.2,0h-2c0.5,1.2,1.4,2.4,2.6,3.8c-0.3,0.4-0.5,0.9-0.8,1.5c-0.1,0.2-0.2,0.3-0.2,0.3
				c-0.1,0-0.2-0.1-0.3-0.3c-0.7-1-1.2-2-1.6-3c0,2.3,0,4.7,0.1,7.1c0,0.5,0,1.2,0,2.1c0,0.4,0,0.6,0,0.7s0,0.2,0,0.2s-0.1,0-0.2,0
				h-1.6c-0.1,0-0.2,0-0.2,0s0-0.1,0-0.2s0-0.5,0-1.5c0.1-2.8,0.1-5.3,0.1-7.6C137.6,248.7,136.9,250.2,135.9,251.6z M145.1,256.2
				h-1.6c-0.1,0-0.2-0.1-0.2-0.2v-7.6v-3.9v-5.4c0-0.1,0-0.2,0-0.2s0.1,0,0.2,0h2.5h3.8h2.4c0.1,0,0.2,0,0.2,0s0,0.1,0,0.2v4.7v4.6
				v7.5c0,0.1-0.1,0.2-0.2,0.2h-1.7c-0.1,0-0.2-0.1-0.2-0.2V255h-5v1c0,0.1,0,0.2,0,0.2S145.1,256.2,145.1,256.2z M145.4,240.9v2.8
				h5v-2.8H145.4z M145.4,248.4h5v-2.8h-5V248.4z M145.4,253.1h5v-2.9h-5V253.1z"/>
			<path class="st4" d="M157.4,241.5h2.2h2.1c0.1,0,0.2,0,0.2,0s0,0.1,0,0.2v1.4c0,0.1,0,0.2,0,0.2s-0.1,0-0.2,0h-2.1h-2.2h-2.1
				c-0.1,0-0.2,0-0.2,0s0-0.1,0-0.2v-1.4c0-0.1,0-0.2,0-0.2s0.1,0,0.2,0H157.4z M161.4,255.8c0,0.1-0.1,0.2-0.2,0.2h-1.4
				c-0.1,0-0.2,0-0.2,0s0-0.1,0-0.2v-0.5h-1.9v0.9c0,0.1-0.1,0.2-0.2,0.2h-1.4c-0.1,0-0.2-0.1-0.2-0.2v-3v-1.3V250
				c0-0.1,0-0.2,0-0.2s0.1,0,0.2,0h1.8h1.5h1.8c0.1,0,0.2,0.1,0.2,0.2v1.5v3c1.8-0.5,3-1.4,3.8-2.6c0.6-1,1-2.2,1.1-3.8
				c0-0.3,0-0.6,0-0.9c0-0.3,0-0.7-0.1-1c0.9,0,1.5,0.1,1.9,0.2c0.3,0,0.4,0.1,0.4,0.3c0,0.1,0,0.2-0.1,0.4
				c-0.1,0.1-0.2,0.5-0.2,1.2c0.3,1.7,1,3.1,2.1,4.2c0.9,0.9,1.9,1.5,3.2,2c-0.3,0.4-0.6,0.9-0.8,1.4c-0.2,0.3-0.3,0.5-0.4,0.5
				s-0.2-0.1-0.5-0.2c-2-1.1-3.5-2.6-4.3-4.6c-0.8,2.2-2.2,3.7-4.4,4.7c-0.3,0.1-0.4,0.1-0.5,0.1c-0.1,0-0.3-0.2-0.4-0.5
				c-0.3-0.6-0.6-1-0.9-1.2c0,0.4,0,0.7,0,0.9C161.4,255.7,161.4,255.8,161.4,255.8z M157.9,238.8h1.6h1.8c0.1,0,0.2,0,0.2,0
				s0,0.1,0,0.2v1.3c0,0.1-0.1,0.2-0.2,0.2h-1.8h-1.6h-1.8c-0.1,0-0.2-0.1-0.2-0.2V239c0-0.1,0.1-0.2,0.2-0.2H157.9z M158.1,244.4
				h1.3h1.7c0.1,0,0.2,0,0.2,0s0,0.1,0,0.2v1.3c0,0.1,0,0.2,0,0.2s-0.1,0-0.2,0h-1.7h-1.3h-1.7c-0.1,0-0.2,0-0.2,0s0-0.1,0-0.2v-1.3
				c0-0.1,0-0.2,0-0.2s0.1,0,0.2,0H158.1z M158.1,247.1h1.3h1.7c0.1,0,0.2,0,0.2,0s0,0.1,0,0.2v1.3c0,0.1,0,0.2,0,0.2s-0.1,0-0.2,0
				h-1.7h-1.3h-1.7c-0.1,0-0.2,0-0.2,0s0-0.1,0-0.2v-1.3c0-0.1,0-0.2,0-0.2s0.1,0,0.2,0H158.1z M159.6,251.5h-1.9v2.1h1.9V251.5z
				 M173.4,245.5c-0.3,0.3-0.5,0.7-0.8,1.3c-0.2,0.3-0.3,0.5-0.4,0.5c-0.1,0-0.2,0-0.4-0.1c-2-0.8-3.5-2.2-4.3-4.1
				c-0.8,1.9-2.2,3.3-4.2,4.1c-0.3,0.1-0.4,0.1-0.4,0.1c-0.1,0-0.3-0.2-0.4-0.5c-0.3-0.5-0.6-0.8-0.8-1.1c1.7-0.5,2.9-1.3,3.6-2.3
				c0.6-0.9,1-2,1.1-3.4c0-0.3,0-0.6,0-0.9c0-0.3,0-0.7,0-1c0.6,0,1.2,0.1,1.9,0.2c0.3,0,0.4,0.1,0.4,0.2c0,0.1,0,0.2-0.1,0.4
				c-0.1,0.1-0.2,0.4-0.2,1c0.3,1.6,0.9,2.9,2,3.9C171.1,244.5,172.1,245,173.4,245.5z M163.6,248.1c0.1-0.1,0.1-0.2,0.2-0.2
				c0,0,0.1,0,0.2,0.1l1,0.5c0.2,0.1,0.2,0.2,0.2,0.2s0,0.1,0,0.2c-0.4,1-1,1.9-1.7,2.8c-0.1,0.1-0.1,0.1-0.2,0.1s-0.1,0-0.2-0.1
				l-1-0.8c-0.1-0.1-0.2-0.2-0.2-0.2s0-0.1,0.1-0.2C162.6,249.9,163.1,249.1,163.6,248.1z M163.6,239.9c0-0.1,0.1-0.2,0.1-0.2
				s0.1,0,0.3,0.1l1,0.4c0.1,0.1,0.2,0.1,0.2,0.2v0.1c-0.4,1.1-1,2-1.6,2.8c-0.1,0.1-0.1,0.1-0.2,0.1c-0.1,0-0.1,0-0.2-0.1l-1-0.7
				c-0.1-0.1-0.2-0.1-0.2-0.2c0,0,0-0.1,0.1-0.2C162.9,241.6,163.4,240.8,163.6,239.9z M169.1,250.5c0.6-0.6,1.2-1.2,1.6-1.8
				c0.1-0.2,0.3-0.5,0.4-0.8c0.6,0.2,1.1,0.4,1.5,0.6c0.2,0.1,0.4,0.2,0.4,0.3s-0.1,0.2-0.2,0.3c-0.1,0.1-0.2,0.2-0.3,0.4
				c-0.5,0.7-1,1.2-1.3,1.6c-0.2,0.2-0.4,0.3-0.4,0.3c-0.1,0-0.2-0.1-0.5-0.3C169.8,250.9,169.4,250.7,169.1,250.5z M169.1,242.2
				c0.7-0.6,1.2-1.3,1.6-1.9c0.2-0.2,0.3-0.5,0.4-0.8c0.5,0.2,1,0.4,1.5,0.6c0.2,0.1,0.3,0.2,0.3,0.3s-0.1,0.2-0.2,0.3
				c-0.1,0.1-0.2,0.2-0.3,0.4c-0.4,0.6-0.8,1.1-1.3,1.6c-0.2,0.2-0.4,0.4-0.5,0.4c-0.1,0-0.2-0.1-0.5-0.3
				C169.9,242.6,169.4,242.4,169.1,242.2z"/>
			<path class="st4" d="M173.9,238.8h2.2c-0.2,7.8-0.3,12-0.3,12.4c0,0.9,0.2,1.5,0.6,1.9c0.4,0.4,1,0.5,1.8,0.5
				c2.6,0,4.3-1.8,4.9-5.3l2,1.1c-1,4.1-3.3,6.2-6.9,6.2c-1.8,0-3-0.4-3.7-1.1c-0.7-0.7-1-1.8-1-3.4c0-0.5,0-2.3,0.1-5.2
				C173.9,243.1,173.9,240.7,173.9,238.8z"/>
			<path class="st4" d="M197.1,240l0.1,2c-1.4,0-2.5,0.3-3.4,0.7c-2.7,1.4-4,3.5-4,6.2s2,4.2,6,4.6l-0.5,2.1c-5-0.5-7.5-2.7-7.5-6.6
				c0-1.5,0.4-2.9,1.2-4.1c0.7-1.1,1.7-2,2.9-2.7l1-0.4v-0.1l-1.1,0.3c-1.7,0.2-4.2,0.5-7.5,0.8l-0.2-2
				C187.9,240.6,192.1,240.3,197.1,240z"/>
			<path class="st4" d="M204.4,249.1l1.7,1.2c-0.7,3.3-1.8,4.9-3.5,4.9c-1.1,0-1.9-0.5-2.5-1.5s-0.9-2.6-1.1-4.8
				c-0.1-1.4-0.2-3.1-0.2-5V240h2.2c0,0.3,0,0.8,0,1.8c0,0.6,0,1.1,0,1.5v1.5c0,1.7,0,3,0.1,4.1c0.1,1.6,0.3,2.7,0.6,3.3
				c0.2,0.4,0.5,0.7,0.8,0.7c0.4,0,0.8-0.3,1-0.8C203.9,251.7,204.1,250.6,204.4,249.1z M207.2,241.8l2-0.5c1.9,2.8,3.1,6.5,3.6,11
				l-2.2,0.3C210.1,248.2,209.1,244.6,207.2,241.8z"/>
			<path class="st4" d="M219.9,241.8c1-0.1,1.9-0.2,2.6-0.3v1.8c-1.3,0.1-2.3,0.2-3.1,0.3c-0.9,3.1-2.1,6.2-3.6,9.2l-1.9-0.9
				c1.5-2.8,2.7-5.5,3.4-8.2c-1,0-1.7,0-2.2,0h-1V242c0.3,0,0.8,0,1.4,0c0.5,0,1.2,0,2.2,0c0.2-0.9,0.4-2,0.6-3.3l2.1,0.3
				C220.4,239.7,220.1,240.6,219.9,241.8z M223.6,249.9c-0.1-1-0.2-2.6-0.2-4.9h2c0,2.2,0.1,4,0.2,5.3c1.4,0.6,2.7,1.4,3.8,2.4
				l-1.1,1.9c-1-1.1-1.9-1.8-2.7-2.3v0.5c0,1-0.4,1.7-1.1,2.2c-0.7,0.5-1.6,0.7-2.7,0.7c-1.3,0-2.3-0.3-2.9-0.9
				c-0.5-0.5-0.8-1.2-0.8-2c0-1,0.4-1.8,1.3-2.4c0.7-0.5,1.6-0.7,2.7-0.7C222.6,249.8,223.1,249.8,223.6,249.9z M223.6,251.8
				c-0.4-0.2-0.9-0.3-1.5-0.3c-1.6,0-2.3,0.4-2.3,1.3c0,0.8,0.7,1.2,2,1.2s1.9-0.5,1.9-1.6v-0.1L223.6,251.8z M223.6,242.8l0.9-1.6
				c2,0.7,3.7,1.4,4.9,2.3l-1,1.8C227.1,244.2,225.6,243.4,223.6,242.8z"/>
			<path class="st4" d="M237.1,249.1l1.7,1.2c-0.7,3.3-1.8,4.9-3.5,4.9c-1.1,0-1.9-0.5-2.5-1.5s-0.9-2.6-1.1-4.8
				c-0.1-1.4-0.2-3.1-0.2-5V240h2.2c0,0.3,0,0.8,0,1.8c0,0.6,0,1.1,0,1.5v1.5c0,1.7,0,3,0.1,4.1c0.1,1.6,0.3,2.7,0.6,3.3
				c0.2,0.4,0.5,0.7,0.8,0.7c0.4,0,0.8-0.3,1-0.8C236.4,251.7,236.8,250.6,237.1,249.1z M239.9,241.8l2-0.5c1.9,2.8,3.1,6.5,3.6,11
				l-2.2,0.3C242.8,248.2,241.6,244.6,239.9,241.8z"/>
		</g>
		<g class="st3">
			<path class="st0" d="M218.4,57.8c-0.1,0.2-0.2,0.3-0.3,0.3s-0.1-0.1-0.2-0.3c-0.2-0.6-0.4-1.1-0.7-1.5c1.3-1.5,2.3-3.3,2.9-5.5
				h-0.4h-1.9c-0.1,0-0.2,0-0.2,0s0-0.1,0-0.2v-1.3c0-0.1,0-0.1,0-0.2s0.1,0,0.2,0h1.9h0.6V48c0-1.1,0-1.9-0.1-2.5
				c0.7,0,1.3,0.1,1.8,0.1c0.2,0,0.3,0.1,0.3,0.2c0,0.1,0,0.2-0.1,0.4s-0.1,0.8-0.1,1.7V49h1.9c0.1,0,0.1,0,0.2,0s0,0.1,0,0.2v1.3
				c0,0.1,0,0.1,0,0.2s-0.1,0-0.2,0h-1.8c0.4,1,1.2,2.2,2.4,3.4c-0.2,0.4-0.5,0.8-0.7,1.4c-0.1,0.2-0.2,0.3-0.2,0.3
				c-0.1,0-0.1-0.1-0.3-0.3c-0.6-0.9-1.1-1.8-1.4-2.7c0,2,0,4.2,0.1,6.4c0,0.5,0,1.1,0,1.9c0,0.3,0,0.5,0,0.6s0,0.1,0,0.2
				s-0.1,0-0.2,0h-1.5c-0.1,0-0.2,0-0.2,0s0-0.1,0-0.2c0-0.1,0-0.5,0-1.3c0-2.5,0.1-4.8,0.1-6.9C220.1,55.2,219.4,56.5,218.4,57.8z
				 M226.8,62h-1.5c-0.1,0-0.2-0.1-0.2-0.2V55v-3.6v-4.9c0-0.1,0-0.2,0-0.2s0.1,0,0.2,0h2.2h3.5h2.2c0.1,0,0.1,0,0.2,0s0,0.1,0,0.2
				v4.3V55v6.8c0,0.1-0.1,0.2-0.2,0.2h-1.5c-0.1,0-0.2-0.1-0.2-0.2V61h-4.5v0.9c0,0.1,0,0.1,0,0.2C226.9,62,226.9,62,226.8,62z
				 M226.9,48.2v2.5h4.5v-2.5H226.9z M226.9,54.9h4.5v-2.5h-4.5V54.9z M226.9,59.2h4.5v-2.6h-4.5V59.2z"/>
			<path class="st0" d="M237.9,48.8h2h1.9c0.1,0,0.2,0,0.2,0s0,0.1,0,0.2v1.3c0,0.1,0,0.2,0,0.2s-0.1,0-0.2,0h-1.9h-2H236
				c-0.1,0-0.2,0-0.2,0s0-0.1,0-0.2V49c0-0.1,0-0.1,0-0.2s0.1,0,0.2,0H237.9z M241.4,61.6c0,0.1-0.1,0.2-0.2,0.2h-1.3
				c-0.1,0-0.1,0-0.2,0s0-0.1,0-0.2v-0.5h-1.7v0.8c0,0.1-0.1,0.2-0.2,0.2h-1.3c-0.1,0-0.2-0.1-0.2-0.2v-2.7V58v-1.7
				c0-0.1,0-0.2,0-0.2s0.1,0,0.2,0h1.6h1.4h1.7c0.1,0,0.2,0.1,0.2,0.2v1.4v2.7c1.6-0.5,2.7-1.2,3.4-2.3c0.6-0.9,0.9-2,1-3.4
				c0-0.3,0-0.6,0-0.8c0-0.3,0-0.6-0.1-0.9c0.8,0,1.4,0.1,1.7,0.2c0.2,0,0.3,0.1,0.3,0.2c0,0.1,0,0.2-0.1,0.3s-0.1,0.5-0.2,1.1
				c0.3,1.5,0.9,2.7,1.9,3.8c0.8,0.8,1.7,1.4,2.8,1.8c-0.3,0.4-0.5,0.8-0.7,1.3c-0.1,0.3-0.3,0.4-0.3,0.4c-0.1,0-0.2-0.1-0.4-0.2
				c-1.8-1-3.1-2.4-3.8-4.2c-0.7,1.9-2,3.3-3.9,4.2c-0.2,0.1-0.4,0.1-0.4,0.1c-0.1,0-0.2-0.1-0.4-0.4c-0.3-0.5-0.6-0.9-0.8-1.1
				c0,0.3,0,0.6,0,0.8C241.4,61.5,241.4,61.6,241.4,61.6z M238.2,46.3h1.5h1.6c0.1,0,0.1,0,0.2,0s0,0.1,0,0.2v1.2
				c0,0.1-0.1,0.2-0.2,0.2h-1.6h-1.5h-1.6c-0.1,0-0.2-0.1-0.2-0.2v-1.2c0-0.1,0.1-0.2,0.2-0.2H238.2z M238.4,51.3h1.2h1.5
				c0.1,0,0.2,0,0.2,0s0,0.1,0,0.2v1.2c0,0.1,0,0.1,0,0.2c0,0-0.1,0-0.2,0h-1.5h-1.2h-1.5c-0.1,0-0.2,0-0.2,0s0-0.1,0-0.2v-1.2
				c0-0.1,0-0.2,0-0.2s0.1,0,0.2,0H238.4z M238.4,53.8h1.2h1.5c0.1,0,0.2,0,0.2,0s0,0.1,0,0.2v1.2c0,0.1,0,0.2,0,0.2s-0.1,0-0.2,0
				h-1.5h-1.2h-1.5c-0.1,0-0.2,0-0.2,0s0-0.1,0-0.2V54c0-0.1,0-0.2,0-0.2s0.1,0,0.2,0H238.4z M239.9,57.7h-1.7v1.9h1.7V57.7z
				 M252.2,52.3c-0.2,0.3-0.5,0.6-0.7,1.1c-0.1,0.3-0.3,0.5-0.4,0.5c-0.1,0-0.2,0-0.4-0.1c-1.8-0.7-3.1-1.9-3.8-3.7
				c-0.7,1.7-2,3-3.8,3.7c-0.2,0.1-0.4,0.1-0.4,0.1c-0.1,0-0.2-0.1-0.4-0.4c-0.3-0.4-0.5-0.8-0.7-1c1.5-0.4,2.6-1.1,3.3-2.1
				c0.6-0.8,0.9-1.8,1-3c0-0.3,0-0.6,0-0.8c0-0.3,0-0.6,0-0.9c0.5,0,1.1,0.1,1.7,0.2c0.2,0,0.4,0.1,0.4,0.2c0,0.1,0,0.2-0.1,0.3
				s-0.1,0.4-0.2,0.9c0.2,1.5,0.8,2.6,1.8,3.5C250.1,51.4,251.1,51.9,252.2,52.3z M243.4,54.7c0.1-0.1,0.1-0.1,0.1-0.1
				s0.1,0,0.2,0.1l0.9,0.5c0.1,0.1,0.2,0.1,0.2,0.2v0.1c-0.4,0.9-0.9,1.7-1.6,2.5c-0.1,0.1-0.1,0.1-0.2,0.1s-0.1,0-0.2-0.1l-0.9-0.7
				c-0.1-0.1-0.2-0.1-0.2-0.2c0,0,0-0.1,0.1-0.1C242.4,56.3,242.9,55.6,243.4,54.7z M243.6,47.3c0-0.1,0.1-0.1,0.1-0.1
				s0.1,0,0.2,0.1l0.9,0.4c0.1,0.1,0.2,0.1,0.2,0.2V48c-0.4,1-0.9,1.8-1.4,2.5c-0.1,0.1-0.1,0.1-0.2,0.1c-0.1,0-0.1,0-0.2-0.1
				l-0.9-0.6c-0.1-0.1-0.2-0.1-0.2-0.2c0,0,0-0.1,0.1-0.1C242.8,48.9,243.1,48.1,243.6,47.3z M248.4,56.8c0.6-0.5,1.1-1,1.5-1.6
				c0.1-0.2,0.2-0.4,0.3-0.7c0.5,0.2,1,0.3,1.4,0.5c0.2,0.1,0.3,0.2,0.3,0.3s-0.1,0.2-0.2,0.3c-0.1,0-0.2,0.2-0.3,0.3
				c-0.5,0.6-0.9,1.1-1.2,1.5c-0.2,0.2-0.3,0.3-0.4,0.3c-0.1,0-0.2-0.1-0.5-0.3C248.9,57.2,248.6,57,248.4,56.8z M248.4,49.4
				c0.6-0.6,1.1-1.1,1.4-1.7c0.1-0.2,0.3-0.4,0.3-0.7c0.5,0.2,0.9,0.4,1.4,0.6c0.2,0.1,0.3,0.2,0.3,0.3s-0.1,0.2-0.2,0.3
				c-0.1,0.1-0.2,0.2-0.3,0.4c-0.4,0.6-0.8,1-1.1,1.4c-0.2,0.2-0.4,0.3-0.4,0.3c-0.1,0-0.2-0.1-0.4-0.3
				C249.1,49.7,248.8,49.5,248.4,49.4z"/>
			<path class="st0" d="M252.8,46.3h2c-0.2,7-0.3,10.8-0.3,11.2c0,0.8,0.2,1.4,0.6,1.7c0.4,0.3,0.9,0.5,1.7,0.5
				c2.4,0,3.8-1.6,4.4-4.8l1.8,1c-0.9,3.7-3,5.6-6.2,5.6c-1.6,0-2.7-0.3-3.3-1c-0.6-0.6-0.9-1.6-0.9-3c0-0.5,0-2,0.1-4.7
				C252.6,50.2,252.8,48,252.8,46.3z"/>
			<path class="st0" d="M265.1,50.6c-1,0-1.9,0.1-2.8,0.1V49c1,0,2.1,0,3.1-0.1c0.1-1,0.2-2,0.3-3l1.9,0.2c-0.2,1.1-0.3,2.1-0.4,2.7
				c1.2-0.1,2.5-0.2,3.9-0.3v1.6c-1.3,0.1-2.7,0.2-4.3,0.3c-0.7,3.8-1.6,7.4-2.8,10.9l-1.8-0.7C263.8,57.1,264.6,53.7,265.1,50.6z
				 M267.6,57l1.6,0.1c-0.1,0.4-0.1,0.7-0.1,1.1c0,0.5,0.2,0.8,0.5,1s1,0.3,1.9,0.3c1.2,0,2.2-0.1,3-0.2l0.1,1.8
				c-0.9,0.1-1.9,0.1-3,0.1c-1.6,0-2.7-0.2-3.4-0.7c-0.6-0.4-0.9-1.1-0.9-2C267.4,58,267.5,57.5,267.6,57z M268.5,53.8v-1.6
				c1.7-0.2,3.4-0.3,5.2-0.3c0.3,0,0.5,0,0.7,0v1.6c-0.1,0-0.4,0-0.7,0C271.8,53.4,270,53.5,268.5,53.8z"/>
		</g>
		<g id="Group_3159" transform="translate(157.412 63.489)">
			<g class="st3">
				<path class="st0" d="M61.8,3.5V30H58V7.3h-3V3.5H61.8z"/>
				<path class="st0" d="M82.5,15.4c1.3,1.3,2,3.2,2,5.8c0,1.8-0.4,3.4-1.2,4.8s-2,2.4-3.4,3.2c-1.4,0.8-3,1.1-4.7,1.1
					c-1.3,0-2.5-0.3-3.8-0.8c-1.3-0.5-2.3-1.2-3.2-2.1l2-3.2c0.5,0.6,1.2,1.2,2.1,1.7s1.8,0.7,2.8,0.7c1.5,0,2.8-0.5,3.9-1.5
					c1-1,1.6-2.4,1.6-4.1c0-1.5-0.5-2.7-1.3-3.6c-0.9-0.9-2.1-1.3-3.7-1.3c-1.2,0-2.3,0.2-3.4,0.6l-0.1-0.2L78,7.3h-8.3V3.5h13.9
					l-6.1,9.7C79.5,13.4,81.2,14.1,82.5,15.4z"/>
				<path class="st0" d="M89.2,26.3c0.4-0.4,0.9-0.6,1.5-0.6c0.5,0,1,0.2,1.4,0.6s0.7,0.9,0.7,1.5s-0.2,1.1-0.6,1.5
					s-0.9,0.6-1.4,0.6c-0.6,0-1.1-0.2-1.5-0.6s-0.6-0.9-0.6-1.5C88.4,27.3,88.8,26.8,89.2,26.3z"/>
				<path class="st0" d="M110.2,14.1c1.2,0.7,2.2,1.8,3,3c0.8,1.2,1.1,2.7,1.1,4.3c0,1.7-0.4,3.3-1.3,4.6c-0.9,1.3-2,2.4-3.4,3.1
					s-2.9,1.1-4.5,1.1c-1.8,0-3.4-0.4-4.8-1.3c-1.4-0.9-2.6-2.1-3.4-3.7s-1.2-3.4-1.2-5.6c0-3.2,1.1-6.2,3.4-8.9
					c2.3-2.8,5.2-5.3,8.8-7.6l2.6,2.9c-2.4,1.2-4.4,2.6-6,4.1c-1.6,1.6-2.8,3.2-3.5,4.8c1.4-1.4,3.2-2.1,5.5-2.1
					C107.7,13,108.9,13.4,110.2,14.1z M108.7,25.3c1-1,1.5-2.3,1.5-3.9c0-1.5-0.5-2.8-1.5-3.7c-1-1-2.3-1.4-3.8-1.4
					c-1,0-1.9,0.2-2.7,0.6c-0.8,0.4-1.5,1-2,1.7s-0.7,1.5-0.7,2.3v0.7c0,0.9,0.2,1.8,0.7,2.6c0.5,0.8,1.1,1.4,2,1.9s1.7,0.7,2.7,0.7
					C106.3,26.8,107.5,26.3,108.7,25.3z"/>
			</g>
			<g class="st3">
				<path class="st0" d="M123.2,16.8c-0.7-0.9-1.1-2.2-1.1-3.7s0.4-2.8,1.1-3.7c0.8-0.9,1.8-1.4,3.1-1.4c1.4,0,2.4,0.5,3.1,1.4
					s1.1,2.2,1.1,3.7s-0.4,2.8-1.1,3.7s-1.8,1.4-3.1,1.4C125.1,18.2,123.9,17.8,123.2,16.8z M127.3,26.2l-2.7-0.1L136.9,8h2.8
					L127.3,26.2z M125.1,15.4c0.3,0.5,0.7,0.8,1.3,0.8s1-0.3,1.3-0.8s0.4-1.3,0.4-2.3c0-2-0.6-3.1-1.8-3.1c-1.2,0-1.8,1-1.8,3.1
					C124.6,14.1,124.8,14.9,125.1,15.4z M134.4,25.3c-0.7-0.9-1.1-2.2-1.1-3.7s0.4-2.8,1.1-3.7c0.7-0.9,1.8-1.4,3.1-1.4
					c1.3,0,2.4,0.5,3.1,1.4s1.1,2.2,1.1,3.7s-0.4,2.8-1.1,3.7c-0.8,0.9-1.8,1.4-3.1,1.4C136.2,26.6,135.1,26.2,134.4,25.3z
					 M136.2,23.8c0.3,0.5,0.7,0.8,1.3,0.8s1-0.3,1.3-0.8s0.4-1.3,0.4-2.3c0-2-0.6-3.1-1.8-3.1c-1.2,0-1.8,1-1.8,3.1
					C135.8,22.5,135.9,23.3,136.2,23.8z"/>
			</g>
		</g>
		<g class="st3">
			<path class="st0" d="M121.6,4.4c0,0.8-0.1,1.7-0.1,2.7l0.5-0.1l0.2,1c-0.5,0.6-0.7,1-0.9,1.3l-0.1,0.4l-0.1,0.6l0.4-0.7
				c0.6-0.8,1.4-1.5,2.2-1.9c0.7-0.4,1.4-0.5,2.1-0.5c1.5,0,2.6,0.6,3.4,1.7c0.7,1,1.1,2.4,1.1,4.1c0,2-0.5,3.5-1.6,4.5
				c-1,0.9-2.4,1.5-4.4,1.8l-0.9-1.5c1.8-0.2,3.2-0.8,4-1.7c0.7-0.8,1-1.9,1-3.2c0-1.4-0.3-2.5-0.9-3.2c-0.5-0.6-1.1-0.9-1.9-0.9
				c-1.5,0-2.9,1-4.3,2.9c0,0.6,0,1.7,0,3.2c0,2.3,0,3.9,0,4.9h-1.8c0-0.7,0-2.6,0.1-5.6l0.1-1.2h-0.1l-0.4,1.1
				c-0.3,0.6-0.8,1.6-1.5,3l-1.4-1.2c0.9-1.6,2-3.4,3.2-5.5V8.7c-0.2,0-1.1,0.1-2.7,0.3l-0.1-1.5c1.6-0.1,2.5-0.2,2.8-0.3
				c0-0.5,0-1.5,0.1-2.9h2V4.4z"/>
			<path class="st0" d="M137.6,7.9c0.7,0,1.2,0,1.4,0c0.9,0,1.5,0.3,1.9,0.8c0.4,0.6,0.6,1.4,0.6,2.7c0,3-0.2,5.1-0.5,6.3
				c-0.2,0.7-0.5,1.2-0.9,1.5s-1,0.4-1.7,0.4s-1.3,0-1.9-0.1l-0.4-1.8c0.8,0.2,1.3,0.2,1.6,0.2c0.5,0,0.8-0.1,1-0.2
				c0.2-0.1,0.3-0.3,0.4-0.6c0.4-1,0.5-2.9,0.5-5.5c0-0.9-0.1-1.5-0.3-1.8c-0.1-0.2-0.4-0.4-0.7-0.4c-0.4,0-1,0-1.5,0.1
				c-0.9,3.8-2.1,7.2-3.5,10.1l-1.7-0.7c1.4-2.9,2.5-6,3.3-9.3c-1,0.1-2.1,0.2-3.2,0.3l-0.1-1.7c1.9,0,3.1-0.1,3.9-0.2
				c0.3-1.3,0.5-2.5,0.7-3.6l1.9,0.2C138.1,6.1,137.8,7.1,137.6,7.9z M141.4,6.9l1.6-0.7c1.2,1.9,2.1,4.2,2.8,6.7l-1.8,0.7
				C143.4,11,142.6,8.7,141.4,6.9z"/>
			<path class="st0" d="M148.4,7.7c-0.3,1.9-0.4,3.6-0.6,4.9l-0.3,1.1l0.6-0.8c1.2-1.3,2.6-1.9,4.2-1.9c1.5,0,2.6,0.4,3.3,1.2
				c0.7,0.7,1,1.7,1,2.9c0,0.9-0.2,1.7-0.7,2.4c-0.4,0.5-1,1-1.7,1.4c-1.3,0.7-3.3,1-5.9,1.1l-0.6-1.7h0.2c2.3,0,4-0.3,5.2-0.9
				c1.1-0.5,1.6-1.4,1.6-2.6c0-0.7-0.2-1.3-0.7-1.7c-0.4-0.3-1-0.5-1.7-0.5c-1.4,0-2.6,0.6-3.6,1.7c-0.5,0.6-0.8,1.1-0.9,1.5
				l-1.8-0.3c0.1-2.1,0.4-4.7,0.7-7.9L148.4,7.7z M148.2,5.8l0.7-1.4c1,0.1,2.1,0.4,3.3,0.7c1,0.3,1.9,0.6,2.6,0.9l-0.9,1.7
				c-0.7-0.4-1.6-0.8-2.8-1.1C150.2,6.2,149.2,6,148.2,5.8z"/>
			<path class="st0" d="M162.6,7.3c0.9-0.1,1.7-0.1,2.4-0.2v1.6c-1.2,0.1-2.1,0.2-2.8,0.2c-0.8,2.8-1.8,5.6-3.2,8.3l-1.7-0.8
				c1.4-2.5,2.4-5,3.1-7.4c-0.9,0-1.6,0-1.9,0h-0.9V7.4c0.3,0,0.7,0,1.2,0c0.4,0,1.1,0,2,0c0.2-0.8,0.4-1.8,0.5-3l1.9,0.3
				C162.9,5.4,162.8,6.3,162.6,7.3z M165.9,14.7c-0.1-0.9-0.1-2.4-0.2-4.4h1.8c0,2,0.1,3.6,0.2,4.7c1.3,0.5,2.4,1.3,3.4,2.2l-1,1.7
				c-0.9-1-1.7-1.6-2.4-2v0.4c0,0.9-0.3,1.5-1,2c-0.6,0.4-1.4,0.6-2.4,0.6c-1.2,0-2-0.3-2.6-0.8c-0.5-0.4-0.7-1.1-0.7-1.8
				c0-0.9,0.4-1.6,1.2-2.1c0.7-0.4,1.5-0.6,2.4-0.6C164.9,14.5,165.4,14.6,165.9,14.7z M165.9,16.3c-0.4-0.2-0.8-0.2-1.3-0.2
				c-1.4,0-2.1,0.4-2.1,1.2c0,0.7,0.6,1.1,1.8,1.1c1.1,0,1.7-0.5,1.7-1.4v-0.1L165.9,16.3z M165.9,8.2l0.8-1.5
				c1.8,0.6,3.3,1.3,4.4,2.1l-0.9,1.6C169.1,9.5,167.6,8.8,165.9,8.2z"/>
			<path class="st0" d="M177.9,13.9l1.5,1.1c-0.6,3-1.6,4.4-3.1,4.4c-1,0-1.7-0.4-2.2-1.3s-0.8-2.3-1-4.3c-0.1-1.3-0.1-2.8-0.1-4.5
				V5.8h2c0,0.2,0,0.8,0,1.6c0,0.5,0,1,0,1.3V10c0,1.5,0,2.7,0.1,3.6c0.1,1.5,0.3,2.5,0.6,3c0.2,0.4,0.4,0.6,0.8,0.6
				s0.7-0.2,0.9-0.7C177.4,16.2,177.8,15.3,177.9,13.9z M180.4,7.4l1.8-0.5c1.7,2.5,2.8,5.8,3.2,9.9l-2,0.3
				C183.1,13.1,182.1,9.8,180.4,7.4z"/>
		</g>
		<g class="st3">
			<path class="st0" d="M128.9,34.6c1.2,0.8,2.2,1.8,2.8,3.1s1,2.8,1,4.4c0,1.7-0.4,3.2-1.1,4.5s-1.8,2.4-3.1,3.2
				c-1.3,0.8-2.8,1.2-4.5,1.2c-1.4,0-2.7-0.3-4-0.8s-2.4-1.2-3.2-2l2.1-3.1c0.5,0.6,1.2,1.1,2.1,1.5s1.8,0.6,2.7,0.6
				c1.5,0,2.7-0.5,3.6-1.4c1-1,1.4-2.2,1.4-3.7c0-1.6-0.4-3-1.3-4s-2.2-1.5-3.8-1.5c-0.9,0-1.7,0.1-2.6,0.4
				c-0.8,0.3-1.7,0.6-2.6,1.1l0,0v-14H131V28h-9.3v5.8c0.9-0.2,1.8-0.3,2.7-0.3C126.2,33.5,127.7,33.9,128.9,34.6z"/>
			<path class="st0" d="M137.1,47.1c0.4-0.4,0.9-0.6,1.5-0.6c0.5,0,1,0.2,1.4,0.6c0.4,0.4,0.7,0.9,0.7,1.5s-0.2,1.1-0.6,1.5
				c-0.4,0.4-0.9,0.6-1.4,0.6c-0.6,0-1.1-0.2-1.5-0.6s-0.6-0.9-0.6-1.5C136.4,48.1,136.6,47.5,137.1,47.1z"/>
			<path class="st0" d="M162.1,47v3.8h-18l1.3-1.3c2.7-2.7,4.9-5,6.4-6.6c1.5-1.7,2.8-3.4,3.8-5.1c1-1.7,1.5-3.4,1.5-4.9
				c0-1.6-0.5-2.9-1.4-3.7c-1-0.9-2.1-1.3-3.5-1.3c-1.1,0-2,0.2-2.8,0.7c-0.7,0.5-1.3,1-1.6,1.7c-0.3,0.7-0.5,1.4-0.5,2.1
				c0,1.7,0.5,3.1,1.6,4.2l-2.4,2.2c-0.9-0.5-1.6-1.4-2.2-2.7s-0.8-2.5-0.8-3.6c0-1.5,0.4-2.9,1.1-4.1c0.7-1.3,1.8-2.3,3.2-3.1
				c1.4-0.8,3.1-1.1,5-1.1c1.6,0,3.1,0.4,4.4,1.1c1.3,0.8,2.3,1.8,3,3.1s1,2.7,1,4.2c0,1.5-0.4,3.1-1.1,4.6c-0.7,1.5-1.6,3-2.7,4.3
				c-1.1,1.3-2.5,3-4.2,5l-0.6,0.5H162.1z"/>
		</g>
		<g class="st3">
			<path class="st0" d="M174.1,37.6c-0.7-0.9-1.1-2.2-1.1-3.7s0.4-2.8,1.1-3.7c0.7-0.9,1.8-1.4,3.1-1.4s2.4,0.5,3.1,1.4
				c0.7,0.9,1.1,2.2,1.1,3.7s-0.4,2.8-1.1,3.7c-0.7,0.9-1.8,1.4-3.1,1.4C175.9,39,174.9,38.5,174.1,37.6z M178.2,47l-2.7-0.1
				l12.3-18.1h2.8L178.2,47z M175.9,36.2c0.3,0.5,0.7,0.8,1.3,0.8s1-0.3,1.3-0.8s0.4-1.3,0.4-2.3c0-2-0.6-3.1-1.8-3.1
				c-1.2,0-1.8,1-1.8,3.1C175.6,34.9,175.6,35.6,175.9,36.2z M185.4,46c-0.7-0.9-1.1-2.2-1.1-3.7s0.4-2.8,1.1-3.7
				c0.7-0.9,1.8-1.4,3.1-1.4s2.4,0.5,3.1,1.4c0.7,0.9,1.1,2.2,1.1,3.7s-0.4,2.8-1.1,3.7c-0.8,0.9-1.8,1.4-3.1,1.4
				C187.1,47.4,186.1,47,185.4,46z M187.1,44.6c0.3,0.5,0.7,0.8,1.3,0.8s1-0.3,1.3-0.8s0.4-1.3,0.4-2.3c0-2-0.6-3.1-1.8-3.1
				s-1.8,1-1.8,3.1C186.6,43.3,186.9,44.1,187.1,44.6z"/>
		</g>
	</g>
	<g id="Group_3684" transform="translate(110.728 395.592)">
		<g class="st3">
			<path class="st4" d="M55.3,15.9c1-1.3,2.2-2.2,3.6-2.8c-0.9-0.5-1.5-1.2-2-1.9s-0.7-1.6-0.7-2.7s0.3-2.1,0.9-3
				c0.6-0.9,1.4-1.6,2.4-2.1s2.2-0.8,3.5-0.8s2.4,0.3,3.4,0.8s1.9,1.2,2.5,2.1c0.5,0.8,0.8,1.8,0.8,2.9s-0.2,2.1-0.7,2.8
				s-1.1,1.4-2,2c1.4,0.6,2.6,1.5,3.6,2.8s1.5,2.8,1.5,4.6c0,1.5-0.4,2.9-1.2,4.2c-0.8,1.3-1.9,2.3-3.3,3.1c-1.4,0.8-3,1.2-4.7,1.2
				s-3.2-0.4-4.6-1.2C57,27.1,55.8,26,55,24.7s-1.2-2.7-1.2-4.2C53.8,18.7,54.3,17.2,55.3,15.9z M58.5,23.1c0.5,0.8,1.1,1.5,1.9,2
				c0.8,0.5,1.7,0.7,2.6,0.7c1,0,1.9-0.2,2.7-0.7c0.8-0.5,1.5-1.2,2-2s0.7-1.7,0.7-2.7s-0.2-1.8-0.7-2.7c-0.5-0.8-1.1-1.5-1.9-1.9
				c-0.8-0.5-1.7-0.7-2.7-0.7c-0.9,0-1.8,0.2-2.6,0.7c-0.8,0.5-1.5,1.1-1.9,1.9c-0.6,0.8-0.8,1.7-0.8,2.7S58,22.2,58.5,23.1z
				 M60.9,11c0.6,0.6,1.4,0.9,2.2,0.9c0.8,0,1.6-0.3,2.2-0.9c0.6-0.6,0.9-1.3,0.9-2.1c0-0.9-0.3-1.7-0.9-2.3S64,5.7,63,5.7
				c-0.9,0-1.6,0.4-2.2,1c-0.7,0.6-1,1.4-1,2.3C59.8,9.8,60.2,10.5,60.9,11z"/>
			<path class="st4" d="M82.1,3v25.7h-3.8V6.6h-2.9V3H82.1z"/>
			<path class="st4" d="M88.1,25.1c0.4-0.4,0.9-0.6,1.4-0.6s1,0.2,1.4,0.6s0.6,0.9,0.6,1.5s-0.2,1.1-0.6,1.5
				c-0.4,0.4-0.9,0.6-1.4,0.6s-1-0.2-1.4-0.6s-0.6-0.9-0.6-1.5S87.7,25.5,88.1,25.1z"/>
			<path class="st4" d="M112.3,25v3.7H94.8l1.3-1.3c2.7-2.7,4.7-4.8,6.2-6.4s2.7-3.3,3.7-5c1-1.7,1.5-3.3,1.5-4.8
				c0-1.6-0.5-2.8-1.4-3.6s-2.1-1.3-3.4-1.3c-1.1,0-2,0.2-2.7,0.7c-0.7,0.4-1.2,1-1.6,1.7c-0.3,0.7-0.5,1.4-0.5,2
				c0,1.7,0.5,3,1.5,4.1l-2.3,2.1c-0.9-0.5-1.6-1.4-2.1-2.6s-0.8-2.4-0.8-3.5c0-1.4,0.4-2.8,1.1-4c0.7-1.2,1.8-2.2,3.1-3
				c1.4-0.7,3-1.1,4.8-1.1c1.6,0,3,0.4,4.2,1.1c1.2,0.7,2.2,1.7,2.9,3c0.7,1.3,1,2.6,1,4.1s-0.4,3-1.1,4.5s-1.6,2.9-2.6,4.2
				c-1,1.3-2.4,2.9-4.1,4.8l-0.5,0.6H112.3z"/>
		</g>
		<g class="st3">
			<path class="st4" d="M122.8,16.8c-0.7-0.9-1.1-2.2-1.1-3.7s0.4-2.8,1.1-3.7c0.8-0.9,1.8-1.4,3.2-1.4s2.4,0.5,3.1,1.4
				s1.1,2.2,1.1,3.7s-0.4,2.8-1.1,3.7c-0.7,0.9-1.8,1.4-3.1,1.4C124.7,18.2,123.7,17.8,122.8,16.8z M126.9,26.2l-2.7-0.1L136.6,8
				h2.8L126.9,26.2z M124.7,15.4c0.3,0.5,0.7,0.8,1.3,0.8s1-0.3,1.3-0.8s0.4-1.3,0.4-2.3c0-2-0.6-3.1-1.8-3.1c-1.2,0-1.8,1-1.8,3.1
				C124.2,14.1,124.3,14.9,124.7,15.4z M134.1,25.3c-0.7-0.9-1.1-2.2-1.1-3.7s0.4-2.8,1.1-3.7c0.7-0.9,1.8-1.4,3.1-1.4
				s2.4,0.5,3.1,1.4s1.1,2.2,1.1,3.7s-0.4,2.8-1.1,3.7c-0.8,0.9-1.8,1.4-3.1,1.4C135.9,26.6,134.8,26.2,134.1,25.3z M135.9,23.8
				c0.3,0.5,0.7,0.8,1.3,0.8c0.6,0,1-0.3,1.3-0.8s0.4-1.3,0.4-2.3c0-2-0.6-3.1-1.8-3.1c-1.2,0-1.8,1-1.8,3.1
				C135.4,22.5,135.6,23.3,135.9,23.8z"/>
		</g>
	</g>
</g>
</svg>
